<svg xmlns="http://www.w3.org/2000/svg" xmlns:xlink="http://www.w3.org/1999/xlink" viewBox="0 0 361.16 348.38"><defs><linearGradient id="a" x1="214.56" y1="88.8" x2="176.19" y2="286.52" gradientUnits="userSpaceOnUse"><stop offset="0" stop-color="#d400c9"/><stop offset="1" stop-color="#a10354"/></linearGradient><linearGradient id="b" x1="6.98" y1="14.47" x2="37.36" y2="14.47" gradientTransform="translate(136.24 209.21) rotate(100.98)" gradientUnits="userSpaceOnUse"><stop offset="0.14" stop-color="#41bde0"/><stop offset="0.87" stop-color="#310354"/></linearGradient><linearGradient id="c" x1="-130.11" y1="16.75" x2="-111.76" y2="16.75" gradientTransform="translate(137.96 216.48) rotate(86.09)" xlink:href="#b"/><linearGradient id="d" x1="-172.71" y1="-91.81" x2="-142.33" y2="-91.81" gradientTransform="translate(207.59 250.03) rotate(73.34)" xlink:href="#b"/></defs><title>AndroidAR</title><rect x="48.99" y="89.21" width="33.06" height="33.06" transform="translate(-41.51 -2.05) rotate(-14.89)" fill="none" stroke="#2f1847" stroke-miterlimit="10"/><rect x="80.84" y="80.74" width="33.06" height="33.06" transform="translate(-38.27 5.85) rotate(-14.89)" fill="none" stroke="#2f1847" stroke-miterlimit="10"/><rect x="112.79" y="72.25" width="33.06" height="33.06" transform="translate(-35.01 13.78) rotate(-14.89)" fill="none" stroke="#2f1847" stroke-miterlimit="10"/><rect x="144.65" y="63.77" width="33.06" height="33.06" transform="translate(-31.76 21.68) rotate(-14.89)" fill="none" stroke="#2f1847" stroke-miterlimit="10"/><rect x="176.59" y="55.28" width="33.06" height="33.06" transform="translate(-28.5 29.6) rotate(-14.89)" fill="none" stroke="#2f1847" stroke-miterlimit="10"/><rect x="208.45" y="46.81" width="33.06" height="33.06" transform="translate(-25.26 37.51) rotate(-14.89)" fill="none" stroke="#2f1847" stroke-miterlimit="10"/><rect x="240.39" y="38.31" width="33.06" height="33.06" transform="translate(-22 45.43) rotate(-14.89)" fill="none" stroke="#2f1847" stroke-miterlimit="10"/><rect x="272.25" y="29.84" width="33.06" height="33.06" transform="translate(-18.75 53.33) rotate(-14.89)" fill="none" stroke="#2f1847" stroke-miterlimit="10"/><rect x="57.36" y="120.69" width="33.06" height="33.06" transform="translate(-49.32 1.16) rotate(-14.89)" fill="none" stroke="#2f1847" stroke-miterlimit="10"/><rect x="89.21" y="112.22" width="33.06" height="33.06" transform="translate(-46.07 9.06) rotate(-14.89)" fill="none" stroke="#2f1847" stroke-miterlimit="10"/><rect x="121.16" y="103.72" width="33.06" height="33.06" transform="translate(-42.82 16.98) rotate(-14.89)" fill="none" stroke="#2f1847" stroke-miterlimit="10"/><rect x="153.02" y="95.25" width="33.06" height="33.06" transform="translate(-39.57 24.89) rotate(-14.89)" fill="none" stroke="#2f1847" stroke-miterlimit="10"/><rect x="184.96" y="86.75" width="33.06" height="33.06" transform="translate(-36.31 32.81) rotate(-14.89)" fill="none" stroke="#2f1847" stroke-miterlimit="10"/><rect x="216.82" y="78.28" width="33.06" height="33.06" transform="translate(-33.07 40.71) rotate(-14.89)" fill="none" stroke="#2f1847" stroke-miterlimit="10"/><rect x="248.77" y="69.79" width="33.06" height="33.06" transform="translate(-29.81 48.64) rotate(-14.89)" fill="none" stroke="#2f1847" stroke-miterlimit="10"/><rect x="280.62" y="61.31" width="33.06" height="33.06" transform="translate(-26.56 56.54) rotate(-14.89)" fill="none" stroke="#2f1847" stroke-miterlimit="10"/><rect x="65.87" y="152.69" width="33.06" height="33.06" transform="translate(-57.26 4.42) rotate(-14.89)" fill="none" stroke="#2f1847" stroke-miterlimit="10"/><rect x="97.72" y="144.21" width="33.06" height="33.06" transform="translate(-54.01 12.32) rotate(-14.89)" fill="none" stroke="#2f1847" stroke-miterlimit="10"/><rect x="129.67" y="135.72" width="33.06" height="33.06" transform="translate(-50.75 20.25) rotate(-14.89)" fill="none" stroke="#2f1847" stroke-miterlimit="10"/><rect x="161.53" y="127.25" width="33.06" height="33.06" transform="translate(-47.51 28.15) rotate(-14.89)" fill="none" stroke="#2f1847" stroke-miterlimit="10"/><rect x="193.47" y="118.75" width="33.06" height="33.06" transform="translate(-44.25 36.07) rotate(-14.89)" fill="none" stroke="#2f1847" stroke-miterlimit="10"/><rect x="225.33" y="110.28" width="33.06" height="33.06" transform="translate(-41 43.98) rotate(-14.89)" fill="none" stroke="#2f1847" stroke-miterlimit="10"/><rect x="257.27" y="101.78" width="33.06" height="33.06" transform="translate(-37.75 51.9) rotate(-14.89)" fill="none" stroke="#2f1847" stroke-miterlimit="10"/><rect x="289.13" y="93.31" width="33.06" height="33.06" transform="translate(-34.5 59.8) rotate(-14.89)" fill="none" stroke="#2f1847" stroke-miterlimit="10"/><rect x="74.24" y="184.16" width="33.06" height="33.06" transform="translate(-65.07 7.63) rotate(-14.89)" fill="none" stroke="#2f1847" stroke-miterlimit="10"/><rect x="106.09" y="175.69" width="33.06" height="33.06" transform="translate(-61.82 15.53) rotate(-14.89)" fill="none" stroke="#2f1847" stroke-miterlimit="10"/><rect x="138.04" y="167.19" width="33.06" height="33.06" transform="translate(-58.56 23.45) rotate(-14.89)" fill="none" stroke="#2f1847" stroke-miterlimit="10"/><rect x="169.9" y="158.72" width="33.06" height="33.06" transform="translate(-55.32 31.36) rotate(-14.89)" fill="none" stroke="#2f1847" stroke-miterlimit="10"/><rect x="201.84" y="150.23" width="33.06" height="33.06" transform="translate(-52.06 39.28) rotate(-14.89)" fill="none" stroke="#2f1847" stroke-miterlimit="10"/><rect x="233.7" y="141.75" width="33.06" height="33.06" transform="translate(-48.81 47.19) rotate(-14.89)" fill="none" stroke="#2f1847" stroke-miterlimit="10"/><rect x="265.65" y="133.26" width="33.06" height="33.06" transform="translate(-45.56 55.11) rotate(-14.89)" fill="none" stroke="#2f1847" stroke-miterlimit="10"/><rect x="297.5" y="124.79" width="33.06" height="33.06" transform="translate(-42.31 63.01) rotate(-14.89)" fill="none" stroke="#2f1847" stroke-miterlimit="10"/><rect x="82.75" y="216.16" width="33.06" height="33.06" transform="translate(-73 10.89) rotate(-14.89)" fill="none" stroke="#2f1847" stroke-miterlimit="10"/><rect x="114.6" y="207.69" width="33.06" height="33.06" transform="translate(-69.76 18.79) rotate(-14.89)" fill="none" stroke="#2f1847" stroke-miterlimit="10"/><rect x="146.55" y="199.19" width="33.06" height="33.06" transform="translate(-66.5 26.72) rotate(-14.89)" fill="none" stroke="#2f1847" stroke-miterlimit="10"/><rect x="178.41" y="190.72" width="33.06" height="33.06" transform="translate(-63.25 34.62) rotate(-14.89)" fill="none" stroke="#2f1847" stroke-miterlimit="10"/><rect x="210.35" y="182.22" width="33.06" height="33.06" transform="translate(-60 42.54) rotate(-14.89)" fill="none" stroke="#2f1847" stroke-miterlimit="10"/><rect x="242.21" y="173.75" width="33.06" height="33.06" transform="translate(-56.75 50.45) rotate(-14.89)" fill="none" stroke="#2f1847" stroke-miterlimit="10"/><rect x="274.15" y="165.25" width="33.06" height="33.06" transform="translate(-53.49 58.37) rotate(-14.89)" fill="none" stroke="#2f1847" stroke-miterlimit="10"/><rect x="306.01" y="156.78" width="33.06" height="33.06" transform="translate(-50.24 66.27) rotate(-14.89)" fill="none" stroke="#2f1847" stroke-miterlimit="10"/><rect x="91.12" y="247.63" width="33.06" height="33.06" transform="translate(-80.81 14.1) rotate(-14.89)" fill="none" stroke="#2f1847" stroke-miterlimit="10"/><rect x="122.97" y="239.16" width="33.06" height="33.06" transform="translate(-77.57 22) rotate(-14.89)" fill="none" stroke="#2f1847" stroke-miterlimit="10"/><rect x="154.92" y="230.67" width="33.06" height="33.06" transform="translate(-74.31 29.92) rotate(-14.89)" fill="none" stroke="#2f1847" stroke-miterlimit="10"/><rect x="186.78" y="222.19" width="33.06" height="33.06" transform="translate(-71.06 37.83) rotate(-14.89)" fill="none" stroke="#2f1847" stroke-miterlimit="10"/><rect x="218.72" y="213.7" width="33.06" height="33.06" transform="translate(-67.8 45.75) rotate(-14.89)" fill="none" stroke="#2f1847" stroke-miterlimit="10"/><rect x="250.58" y="205.23" width="33.06" height="33.06" transform="translate(-64.56 53.66) rotate(-14.89)" fill="none" stroke="#2f1847" stroke-miterlimit="10"/><rect x="282.53" y="196.73" width="33.06" height="33.06" transform="translate(-61.3 61.58) rotate(-14.89)" fill="none" stroke="#2f1847" stroke-miterlimit="10"/><rect x="314.38" y="188.26" width="33.06" height="33.06" transform="translate(-58.05 69.48) rotate(-14.89)" fill="none" stroke="#2f1847" stroke-miterlimit="10"/><rect x="99.63" y="279.63" width="33.06" height="33.06" transform="translate(-88.75 17.36) rotate(-14.89)" fill="none" stroke="#2f1847" stroke-miterlimit="10"/><rect x="131.48" y="271.16" width="33.06" height="33.06" transform="matrix(0.97, -0.26, 0.26, 0.97, -85.5, 25.26)" fill="none" stroke="#2f1847" stroke-miterlimit="10"/><rect x="163.43" y="262.66" width="33.06" height="33.06" transform="translate(-82.25 33.19) rotate(-14.89)" fill="none" stroke="#2f1847" stroke-miterlimit="10"/><rect x="195.29" y="254.19" width="33.06" height="33.06" transform="translate(-79 41.09) rotate(-14.89)" fill="none" stroke="#2f1847" stroke-miterlimit="10"/><rect x="227.23" y="245.69" width="33.06" height="33.06" transform="translate(-75.74 49.01) rotate(-14.89)" fill="none" stroke="#2f1847" stroke-miterlimit="10"/><rect x="259.09" y="237.22" width="33.06" height="33.06" transform="translate(-72.49 56.92) rotate(-14.89)" fill="none" stroke="#2f1847" stroke-miterlimit="10"/><rect x="291.03" y="228.73" width="33.06" height="33.06" transform="translate(-69.24 64.84) rotate(-14.89)" fill="none" stroke="#2f1847" stroke-miterlimit="10"/><rect x="322.89" y="220.25" width="33.06" height="33.06" transform="translate(-65.99 72.74) rotate(-14.89)" fill="none" stroke="#2f1847" stroke-miterlimit="10"/><rect x="108" y="311.11" width="33.06" height="33.06" transform="translate(-96.56 20.57) rotate(-14.89)" fill="none" stroke="#2f1847" stroke-miterlimit="10"/><rect x="139.85" y="302.63" width="33.06" height="33.06" transform="matrix(0.97, -0.26, 0.26, 0.97, -93.31, 28.47)" fill="none" stroke="#2f1847" stroke-miterlimit="10"/><rect x="171.8" y="294.14" width="33.06" height="33.06" transform="translate(-90.05 36.4) rotate(-14.89)" fill="none" stroke="#2f1847" stroke-miterlimit="10"/><rect x="203.66" y="285.67" width="33.06" height="33.06" transform="translate(-86.81 44.3) rotate(-14.89)" fill="none" stroke="#2f1847" stroke-miterlimit="10"/><rect x="235.6" y="277.17" width="33.06" height="33.06" transform="translate(-83.55 52.22) rotate(-14.89)" fill="none" stroke="#2f1847" stroke-miterlimit="10"/><rect x="267.46" y="268.7" width="33.06" height="33.06" transform="translate(-80.3 60.13) rotate(-14.89)" fill="none" stroke="#2f1847" stroke-miterlimit="10"/><rect x="299.4" y="260.2" width="33.06" height="33.06" transform="translate(-77.05 68.05) rotate(-14.89)" fill="none" stroke="#2f1847" stroke-miterlimit="10"/><rect x="331.26" y="251.73" width="33.06" height="33.06" transform="translate(-73.8 75.95) rotate(-14.89)" fill="none" stroke="#2f1847" stroke-miterlimit="10"/><path d="M157.73,81.85c1.08-1,2.76-.46,4.1-.64,22,.08,44,0,66.06,0,1.71.15,3.71-.52,5.2.6Q195.41,81.95,157.73,81.85Z" transform="translate(-16.54 -22.44)" fill="#130d0f"/><path d="M147.6,91.42a12.36,12.36,0,0,1,10.13-9.57q37.68,0,75.36,0a13,13,0,0,1,7.77,4.48c2.81,3.5,3.1,8.09,2.86,12.4.11,14-.25,28.07.18,42.07.08,5.8-.12,11.6.1,17.39-.07.44-.21,1.32-.29,1.76q0,60,0,120.1a13,13,0,0,1-8.87,11.4c-2.23.92-4.66.5-7,.59-23.11,0-46.23-.07-69.34.05a13.08,13.08,0,0,1-10-7.17,11.57,11.57,0,0,1-1.36-4.87c0-36,0-72,0-108-.09-.47-.27-1.4-.37-1.87,0-5.51.19-11-.11-16.52l.49-1.13c2.31,10.37-1,21.2,1,31.66.65,9.6-.14,19.21.28,28.82,0,22,.12,44.06-.07,66.07.55,5.88,5.61,11.09,11.62,11.23q33.92-.09,67.83,0c5.07.63,10.49-1.73,12.93-6.34,1.93-3.33,1.82-7.27,1.52-11-.2-59,.44-118,.14-177A12.82,12.82,0,0,0,231,83.34c-23.41-.07-46.82.06-70.23-.06-5.48.1-11.06,4.08-11.91,9.67l-.91.38C147.84,92.85,147.68,91.9,147.6,91.42Z" transform="translate(-16.54 -22.44)" fill="#ab7787"/><path d="M148.84,93c.85-5.59,6.43-9.57,11.91-9.67,23.41.12,46.82,0,70.23.06a12.82,12.82,0,0,1,11.44,12.59c.3,59-.34,118-.14,177,.3,3.7.41,7.64-1.52,11-2.44,4.61-7.86,7-12.93,6.34q-33.92-.07-67.83,0c-6-.14-11.07-5.35-11.62-11.23.19-22,.07-44.05.07-66.07-.42-9.61.37-19.22-.28-28.82l.59-.09a57.88,57.88,0,0,0,.23,9.85c-.73,11.34,0,22.66,0,34,0,15.35,0,30.7.05,46-.1,3,1.86,5.74,4.23,7.46,3.14,2,7,1.63,10.53,1.39a186.58,186.58,0,0,0,21,0c6.32.86,12.69-.46,19,.24,9.34,0,18.68.09,28-.05,4.93,0,9.72-4,9.79-9,.09-20.35,0-40.7.1-61.05.88-5.67-.51-11.38.26-17,.08-30.33.06-60.65.11-91-.08-1.82.35-3.73-.67-5.41l-.05-.09-.09-.06c-.24-2.67-2.35-4.66-4.57-5.85l-.71-.34a9.53,9.53,0,0,0-4.25-.73q-35.47,0-70.95,0c-2.09,0-4.29-.2-6.24.75l-.65.31-2.43,1.74-.38.41-1.6,2.69C147.58,97.28,149,94.66,148.84,93Z" transform="translate(-16.54 -22.44)" fill="#2b2b2b"/><path d="M154.6,93.19c2-1,4.15-.72,6.24-.75q35.47,0,70.95,0a9.53,9.53,0,0,1,4.25.73l.71.34c2.22,1.19,4.33,3.18,4.57,5.85l0,.1.1.05c1,1.68.59,3.59.67,5.41,0,30.33,0,60.65-.11,91-.77,5.67.62,11.38-.26,17-.12,20.35,0,40.7-.1,61.05-.07,5.07-4.86,9.06-9.79,9-9.34.14-18.68,0-28,.05-6.32-.7-12.69.62-19-.24a186.58,186.58,0,0,1-21,0c-3.53.24-7.39.61-10.53-1.39-2.37-1.72-4.33-4.43-4.23-7.46-.07-15.35,0-30.7-.05-46,0-11.33-.75-22.65,0-34a57.88,57.88,0,0,1-.23-9.85c1.3-21,.1-42.08.26-63.11.26-7.53-.69-15.16.52-22.62l1.6-2.69.38-.41L154,93.5Z" transform="translate(-16.54 -22.44)" fill="url(#a)"/><path d="M147.52,91l.08.43c.08.48.24,1.43.33,1.91-.49,7.87,0,15.76.28,23.62-.12,7,0,14,0,21-.16,1.55.36,3.7-1.35,4.6-.1-10.21-.16-20.43,0-30.64C147.59,105,146.45,97.88,147.52,91Z" transform="translate(-16.54 -22.44)" fill="#916977"/><path d="M147.93,93.33l.91-.38c.16,1.71-1.26,4.33.7,5.39-1.21,7.46-.26,15.09-.52,22.62-.16,21,1,42.13-.26,63.11l-.59.09c-2-10.46,1.31-21.29-1-31.66-.29-3.32.33-6.71-.3-10,1.71-.9,1.19-3.05,1.35-4.6,0-7-.13-14,0-21C147.94,109.09,147.44,101.2,147.93,93.33Z" transform="translate(-16.54 -22.44)" fill="#88596e"/><path d="M154,93.5l.65-.31Z" transform="translate(-16.54 -22.44)" fill="#88596e"/><path d="M236,93.17l.71.34Z" transform="translate(-16.54 -22.44)" fill="#88596e"/><path d="M151.14,95.65l.38-.41Z" transform="translate(-16.54 -22.44)" fill="#88596e"/><polygon points="224.78 76.92 224.87 76.98 224.92 77.07 224.82 77.02 224.78 76.92" fill="#88596e"/><path d="M146.1,113c.2-.29.6-.87.79-1.16-.18,10.21-.12,20.43,0,30.64-.2-.4-.61-1.22-.82-1.62C146.07,131.61,146.05,122.32,146.1,113Z" transform="translate(-16.54 -22.44)" fill="#030404"/><path d="M243.9,140.78c1.28,2.53.62,5.42.76,8.13-.15,3.08.56,6.33-.66,9.26C243.78,152.38,244,146.58,243.9,140.78Z" transform="translate(-16.54 -22.44)" fill="#090a0a"/><path d="M146.08,165.9c.32-4.05-.8-8.45.6-12.27.3,5.5.06,11,.11,16.52C145.43,169.26,146.37,167.24,146.08,165.9Z" transform="translate(-16.54 -22.44)" fill="#030404"/><circle cx="117.81" cy="228.22" r="15.19" fill="url(#b)"/><circle cx="112.99" cy="96.96" r="9.18" fill="url(#c)"/><circle cx="250.37" cy="72.8" r="15.19" fill="url(#d)"/><rect x="97.35" y="23.76" width="90.45" height="90.45" fill="none" stroke="#2f1847" stroke-miterlimit="10" stroke-width="4" stroke-dasharray="10"/><rect x="187.99" y="107.97" width="90.44" height="90.44" fill="none" stroke="#2f1847" stroke-miterlimit="10" stroke-width="4" stroke-dasharray="10"/><rect x="60.32" y="180.62" width="104.57" height="104.57" fill="none" stroke="#00f9ff" stroke-miterlimit="10" stroke-width="4" stroke-dasharray="10"/><rect x="171.56" y="146.13" width="104.57" height="104.57" fill="none" stroke="#00f9ff" stroke-miterlimit="10" stroke-width="4" stroke-dasharray="10"/><path d="M85.36,369.7H70.3l-6-15.58H36.89L31.23,369.7H16.54l26.71-68.59H57.9Zm-25.5-27.14-9.45-25.45-9.26,25.45Z" transform="translate(-16.54 -22.44)" fill="#00ffec"/><path d="M137.81,369.7H124.67V344.34q0-8.05-.85-10.41a7.26,7.26,0,0,0-2.73-3.67,7.81,7.81,0,0,0-4.56-1.32,10.53,10.53,0,0,0-6.13,1.88,9.39,9.39,0,0,0-3.72,5q-1,3.09-1,11.41V369.7H92.52V320h12.22v7.3q6.49-8.43,16.37-8.42a19.87,19.87,0,0,1,8,1.56,13.45,13.45,0,0,1,5.45,4,14.58,14.58,0,0,1,2.57,5.52,41.42,41.42,0,0,1,.72,8.85Z" transform="translate(-16.54 -22.44)" fill="#00ffec"/><path d="M196.72,369.7H184.51v-7.3a19.75,19.75,0,0,1-7.18,6.34,18.41,18.41,0,0,1-8.35,2.08,18.93,18.93,0,0,1-14.67-6.9q-6.1-6.9-6.11-19.25,0-12.65,5.94-19.21a19.38,19.38,0,0,1,15-6.57q8.33,0,14.41,6.92v-24.7h13.15Zm-35.09-25.92q0,8,2.2,11.51a9.93,9.93,0,0,0,8.89,5.14,9.66,9.66,0,0,0,7.72-3.86q3.18-3.85,3.18-11.53,0-8.57-3.09-12.33a9.78,9.78,0,0,0-7.91-3.77,9.9,9.9,0,0,0-7.83,3.72Q161.63,336.4,161.63,343.78Z" transform="translate(-16.54 -22.44)" fill="#00ffec"/><path d="M222.27,369.7H209.12V320h12.21v7.06q3.13-5,5.64-6.59a10.37,10.37,0,0,1,5.69-1.59,16.63,16.63,0,0,1,8.65,2.48l-4.07,11.46a11.47,11.47,0,0,0-6.18-2.15,7.28,7.28,0,0,0-4.67,1.52q-1.92,1.51-3,5.5t-1.1,16.65Z" transform="translate(-16.54 -22.44)" fill="#00ffec"/><path d="M243.93,344.15a26.94,26.94,0,0,1,3.23-12.68,22.21,22.21,0,0,1,9.15-9.36,27.15,27.15,0,0,1,13.22-3.22q11.27,0,18.48,7.32t7.2,18.5q0,11.28-7.27,18.7a24.61,24.61,0,0,1-18.32,7.41,28.81,28.81,0,0,1-13-3.09,21.18,21.18,0,0,1-9.43-9.05A30.2,30.2,0,0,1,243.93,344.15Zm13.48.7q0,7.39,3.51,11.33a11.46,11.46,0,0,0,17.28,0q3.49-3.93,3.49-11.42,0-7.31-3.49-11.23a11.46,11.46,0,0,0-17.28,0Q257.41,337.46,257.41,344.85Z" transform="translate(-16.54 -22.44)" fill="#00ffec"/><path d="M305.51,313.27V301.11h13.14v12.16Zm0,56.43V320h13.14V369.7Z" transform="translate(-16.54 -22.44)" fill="#00ffec"/><path d="M377.7,369.7H365.49v-7.3a19.75,19.75,0,0,1-7.18,6.34,18.41,18.41,0,0,1-8.35,2.08,18.93,18.93,0,0,1-14.67-6.9q-6.1-6.9-6.11-19.25,0-12.65,5.94-19.21a19.39,19.39,0,0,1,15-6.57q8.34,0,14.41,6.92v-24.7H377.7Zm-35.09-25.92q0,8,2.2,11.51a9.93,9.93,0,0,0,8.89,5.14,9.66,9.66,0,0,0,7.72-3.86q3.18-3.85,3.18-11.53,0-8.57-3.09-12.33a9.77,9.77,0,0,0-7.9-3.77,9.9,9.9,0,0,0-7.84,3.72Q342.61,336.4,342.61,343.78Z" transform="translate(-16.54 -22.44)" fill="#00ffec"/><path d="M246.74,77c-26.44.15-68.59.47-99.25,0,4.95-27.55,22.22-40.9,49.63-40.9S243.52,49.79,246.74,77Z" transform="translate(-16.54 -22.44)" fill="#a7c94e"/><line x1="155.17" y1="19.05" x2="145.01" y2="3.06" fill="#a7c94e" stroke="#a7c94e" stroke-linecap="round" stroke-miterlimit="10" stroke-width="6"/><line x1="206.75" y1="18.99" x2="216.92" y2="3" fill="#a7c94e" stroke="#a7c94e" stroke-linecap="round" stroke-miterlimit="10" stroke-width="6"/><circle cx="161.38" cy="34.27" r="4.33" fill="#fff"/><circle cx="199.43" cy="34.27" r="4.33" fill="#fff"/></svg>