<svg xmlns="http://www.w3.org/2000/svg" xmlns:xlink="http://www.w3.org/1999/xlink" viewBox="0 0 664.38 214.74"><defs><linearGradient id="a" x1="399.61" y1="166.82" x2="595.64" y2="166.82" gradientUnits="userSpaceOnUse"><stop offset="0" stop-color="#00baff"/><stop offset="1" stop-color="#562df6"/></linearGradient><linearGradient id="b" x1="196.18" y1="236.57" x2="196.18" y2="96.98" gradientTransform="matrix(0.98, -0.2, 0.2, 0.98, 260.77, -41.67)" gradientUnits="userSpaceOnUse"><stop offset="0.01" stop-color="#73bcde"/><stop offset="0.46" stop-color="#e092c9"/><stop offset="0.99" stop-color="#6762b1"/></linearGradient><linearGradient id="c" x1="226.14" y1="100.03" x2="226.14" y2="152.25" gradientUnits="userSpaceOnUse"><stop offset="0" stop-color="#005bff"/><stop offset="1" stop-color="#382df6"/></linearGradient><linearGradient id="d" x1="227.28" y1="96.08" x2="227.28" y2="148.3" xlink:href="#a"/><linearGradient id="e" x1="536.05" x2="536.05" y2="18.62" gradientUnits="userSpaceOnUse"><stop offset="0.01" stop-color="#8b13ff"/><stop offset="1" stop-color="#ff2df6"/></linearGradient><linearGradient id="f" x1="518.81" y1="19.11" x2="518.81" y2="37.74" xlink:href="#e"/><linearGradient id="g" x1="544.91" y1="29.62" x2="544.91" y2="48.25" xlink:href="#e"/><linearGradient id="h" x1="183.93" y1="187.03" x2="183.93" y2="220.08" xlink:href="#c"/><linearGradient id="i" x1="184.65" y1="184.65" x2="184.65" y2="217.7" xlink:href="#a"/><linearGradient id="j" x1="460.32" y1="103.08" x2="460.32" y2="114.09" xlink:href="#e"/><linearGradient id="k" x1="481.75" y1="114.94" x2="481.75" y2="125.95" xlink:href="#e"/><linearGradient id="l" x1="199.98" y1="265.84" x2="199.98" y2="87.12" gradientUnits="userSpaceOnUse"><stop offset="0.02" stop-color="#2affff"/><stop offset="0.04" stop-color="#36f0fe" stop-opacity="0.93"/><stop offset="0.11" stop-color="#56c9fd" stop-opacity="0.74"/><stop offset="0.18" stop-color="#73a5fb" stop-opacity="0.56"/><stop offset="0.26" stop-color="#8d86fa" stop-opacity="0.41"/><stop offset="0.35" stop-color="#a26cf9" stop-opacity="0.28"/><stop offset="0.44" stop-color="#b357f8" stop-opacity="0.18"/><stop offset="0.53" stop-color="#c046f7" stop-opacity="0.1"/><stop offset="0.64" stop-color="#ca3bf6" stop-opacity="0.04"/><stop offset="0.78" stop-color="#cf34f6" stop-opacity="0.01"/><stop offset="1" stop-color="#d132f6" stop-opacity="0"/></linearGradient></defs><title>Android VR</title><ellipse cx="497.62" cy="166.82" rx="98.02" ry="18.5" fill="url(#a)"/><polygon points="533.86 145.76 469.82 164.14 437.99 12.14 502.72 1.38 533.86 145.76" fill="#9b9b9b"/><polygon points="533.44 146.38 471.18 164.67 439.36 12.67 502.92 2.39 533.44 146.38" fill="url(#b)"/><path d="M150.77,97.7c-1.65.34-3.31.65-5,1l0,.23c.73-.12,1.45-.24,2.17-.34.95-.23,1.87-.45,2.81-.66Z" transform="translate(291.48 -87.31)" fill="#4f4f50"/><path d="M157.18,96.65a26.55,26.55,0,0,0-3.37.79,20.56,20.56,0,0,0,3.43-.51Z" transform="translate(291.48 -87.31)" fill="#545556"/><path d="M153.81,97.44a27.77,27.77,0,0,0-3,.53c-.94.21-1.86.43-2.81.66,12.58-1.82,25.08-4.14,37.64-6.07.41-.17.8-.35,1.19-.55-.77.09-1.54.22-2.31.38-1.22.17-2.45.72-3.71.59a21.51,21.51,0,0,0-3.25.58,18.11,18.11,0,0,1-3.44.53,17.94,17.94,0,0,0-3,.52c-1.23.17-2.45.71-3.71.58a21.29,21.29,0,0,0-3.25.58,17.34,17.34,0,0,1-3.44.53,25.12,25.12,0,0,0-3.53.63A20.56,20.56,0,0,1,153.81,97.44Z" transform="translate(291.48 -87.31)" fill="#aaabac"/><path d="M148,98.63c-.72.1-1.44.22-2.17.34v.23c.36,0,.7,0,1,.1a6.13,6.13,0,0,0,2.76,0c3.12-.65,6.27-1,9.39-1.58a13.65,13.65,0,0,1,3.5-.59l2.09-.27c1.14-.28,2.29-.55,3.43-.78s2.14-.44,3.21-.62a7.43,7.43,0,0,1,2.93-.45c1.17-.19,2.32-.42,3.48-.6a15.81,15.81,0,0,1,3.19-.5c1.27-.2,2.5-.49,3.76-.65.87-.21,1.7-.41,2.56-.59.31-.19,1.13,0,1.07-.5a11.48,11.48,0,0,1-2.62.35C173.1,94.49,160.6,96.81,148,98.63Z" transform="translate(291.48 -87.31)" fill="#d4d4d5"/><path d="M145.85,99c-.91.29-2.11,1-1.85,2.13l.25.05c.25-.34.29-.91.74-1s1.1-.25.87-.91Z" transform="translate(291.48 -87.31)" fill="#878789"/><path d="M164.15,95.49a19.57,19.57,0,0,0-3.38.81,17.34,17.34,0,0,0,3.44-.53Z" transform="translate(291.48 -87.31)" fill="#515253"/><path d="M146.91,99.3c-.35,0-.69-.08-1-.1.23.66-.35.77-.87.91a13.41,13.41,0,0,0-.32,2.08c.37,3,1.07,5.89,1.67,8.82q8.21,39.37,16.4,78.73,2.65,12.7,5.3,25.41l.27-.06c-1-5.07-2.12-10.12-3.16-15.19q-9.69-46.41-19.35-92.81a19.31,19.31,0,0,1-.64-4,5.61,5.61,0,0,1,.15-1.47c.08-.38.14-.82.54-1s.57-.43.84-.63C146.75,99.83,146.86,99.47,146.91,99.3Z" transform="translate(291.48 -87.31)" fill="#ececec"/><path d="M171.11,94.33a22.78,22.78,0,0,0-3.65.86c1.26.13,2.48-.41,3.71-.58Z" transform="translate(291.48 -87.31)" fill="#4f5051"/><path d="M149.67,99.34a6.13,6.13,0,0,1-2.76,0c0,.17-.16.53-.22.71a10.4,10.4,0,0,1,.54,1c.06-.31.1-.62.13-.92a1.26,1.26,0,0,1,.79,1.56c1.07,5.32,2.3,10.62,3.25,16,4.81,22.18,9.23,44.44,14,66.62.12.35.35,1.06.46,1.41-5.61-27.76-11.51-55.47-17.26-83.21.63-.33-1-2.07-.17-2.27s1.44-.29,2.15-.4c1.16-.16,2.31-.74,3.49-.56l3.19-.52c1.25-.18,2.49-.88,3.77-.65,1.54-.25,3.06-.55,4.59-.8.7-.39,2.15-.13,2.46-.88a14.64,14.64,0,0,1-3.42.5l-2.09.27c-1.14.19-2.31.79-3.5.59C155.94,98.35,152.79,98.69,149.67,99.34Z" transform="translate(291.48 -87.31)" fill="#121212"/><path d="M146.13,104.43c-.21-.7-.62-2.09-.82-2.79a5.61,5.61,0,0,0-.15,1.47c4,17.93,7.52,36,11.35,53.94l.24-.09c.06-.09.17-.28.22-.37C153.39,139.19,149.73,121.82,146.13,104.43Z" transform="translate(291.48 -87.31)" fill="#121212"/><path d="M221.8,142.56c-2.16-9.65-3.78-19.45-6.25-29l.06,1.13c2.1,9.19,3.91,18.46,5.83,27.69.33,1.39.58,2.81,1,4.19C222.61,145.19,222,143.88,221.8,142.56Z" transform="translate(291.48 -87.31)" fill="#121212"/><path d="M153.58,130.55l-.27,0,.1.55c1.81,8.66,3.64,17.32,5.4,26,.62,2.74,1.16,5.51,1.74,8.27l.27-.06Q157.22,148,153.58,130.55Z" transform="translate(291.48 -87.31)" fill="#121212"/><path d="M177.52,93.28a19.8,19.8,0,0,0-3.38.81,18.11,18.11,0,0,0,3.44-.53Z" transform="translate(291.48 -87.31)" fill="#555657"/><path d="M145,100.11c-.45.13-.49.7-.74,1l.42,1A13.41,13.41,0,0,1,145,100.11Z" transform="translate(291.48 -87.31)" fill="#656566"/><path d="M184.48,92.12a23,23,0,0,0-3.65.86c1.26.13,2.49-.42,3.71-.59Z" transform="translate(291.48 -87.31)" fill="#555556"/><path d="M190.62,91.12a30.65,30.65,0,0,0-3.38.79l2.55-.23.88-.28Z" transform="translate(291.48 -87.31)" fill="#58595a"/><path d="M187.24,91.91l-.39.1c-.39.2-.78.38-1.19.55a11.48,11.48,0,0,0,2.62-.35c.06.52-.76.31-1.07.5l0,.28c1-.21,2-.45,3-.59,3.34-.59,6.77-.73,10-1.61,1.59-.8,3.48-.63,5-1.49l-.3,0c-3.59.49-7.08,1.75-10.68,2a43.18,43.18,0,0,1-4.54.37Z" transform="translate(291.48 -87.31)" fill="#b4b4b5"/><path d="M162.56,97.17a13.65,13.65,0,0,0-3.5.59C160.25,98,161.42,97.36,162.56,97.17Z" transform="translate(291.48 -87.31)" fill="#6b6c6c"/><path d="M148.15,101.7a1.26,1.26,0,0,0-.79-1.56c0,.3-.07.61-.13.92-.09.07-.27.24-.35.32l.38.22c1,1.54.92,3.69,1.44,5.47,1.61,7.82,3.26,15.65,4.88,23.48q3.61,17.4,7.24,34.8c-.18,1.11,1.25,3.45.41.5-3.29-15.66-6.51-31.32-9.8-47a3.33,3.33,0,0,1,0-1.22C150.45,112.32,149.22,107,148.15,101.7Z" transform="translate(291.48 -87.31)" fill="#050505"/><path d="M196.81,90.41c-.37-.55-1.62.13-2.27.29l0,.19Z" transform="translate(291.48 -87.31)" fill="#1f1f20"/><path d="M194.54,90.7a2.4,2.4,0,0,0-1.9.44,3.77,3.77,0,0,0,1.93-.25Z" transform="translate(291.48 -87.31)" fill="#59595a"/><path d="M192.64,91.14l-2,.26-.88.28a43.18,43.18,0,0,0,4.54-.37c1.21-.31,2.42-.58,3.64-.85l-.05-.26c-.37,0-.74.13-1.11.21l-2.24.48A3.77,3.77,0,0,1,192.64,91.14Z" transform="translate(291.48 -87.31)" fill="#8b8c8d"/><path d="M174.22,95.05a7.43,7.43,0,0,0-2.93.45A9.64,9.64,0,0,0,174.22,95.05Z" transform="translate(291.48 -87.31)" fill="#7c7c7c"/><path d="M171.29,95.5c-1.07.18-2.14.39-3.21.62v.28c-.31.75-1.76.49-2.46.88,8.59-1.35,17.16-2.84,25.72-4.32-.37-.18-.73-.36-1.09-.56-1,.14-2,.38-3,.59a6.6,6.6,0,0,1-2.61.31c-1.26.16-2.49.45-3.76.65a13.69,13.69,0,0,1-3.19.5c-1.16.18-2.31.41-3.48.6A9.64,9.64,0,0,1,171.29,95.5Z" transform="translate(291.48 -87.31)" fill="#1c1c1c"/><path d="M168.08,96.12c-1.14.23-2.29.5-3.43.78a14.64,14.64,0,0,0,3.42-.5Z" transform="translate(291.48 -87.31)" fill="#3e3e3e"/><path d="M146.88,101.38c.08-.76-.36-.92-1-.74a37.79,37.79,0,0,0,.77,4.84c4.12,19.49,8.06,39,12.25,58.49,1,3.06,1.7,6.2,2.48,9.31.94.07-.26-1.48,0-2.07-.84-4.73-1.85-9.42-2.89-14.1a5.37,5.37,0,0,1-.22,1.37c-1.16-5.07-2.1-10.19-3.22-15.28-1-3.69-2.23-7.46-2.37-11.32-1.9-9.7-4.19-19.34-5.93-29.06q0-.45.06-.9C146.83,101.78,146.86,101.52,146.88,101.38Z" transform="translate(291.48 -87.31)" fill="#7b7b7b"/><path d="M144.25,101.15l-.25-.05c0,.14.08.43.11.57q9.18,44.07,18.36,88.12l.27,0q-8.19-39.36-16.4-78.73c-.6-2.93-1.3-5.84-1.67-8.82Z" transform="translate(291.48 -87.31)" fill="#b3b4b6"/><path d="M204.05,89.19c-.2-.9-1.83.32-2.54.26l.05.26Z" transform="translate(291.48 -87.31)" fill="#121213"/><path d="M201.51,89.45c-1.19.22-2.4.44-3.59.75l.05.26c1.21-.25,2.4-.49,3.59-.75Z" transform="translate(291.48 -87.31)" fill="#4b4c4d"/><path d="M180.89,94a15.81,15.81,0,0,0-3.19.5A13.69,13.69,0,0,0,180.89,94Z" transform="translate(291.48 -87.31)" fill="#727273"/><path d="M207.42,88.77c-.19-.89-1.85.32-2.56.28l.15.28.3,0Z" transform="translate(291.48 -87.31)" fill="#565758"/><path d="M204.86,89.05l-.81.14-2.49.52c-1.19.26-2.38.5-3.59.75s-2.43.54-3.64.85c3.6-.23,7.09-1.49,10.68-2Z" transform="translate(291.48 -87.31)" fill="#9d9d9e"/><path d="M187.21,92.71c-.86.18-1.69.38-2.56.59a6.6,6.6,0,0,0,2.61-.31Z" transform="translate(291.48 -87.31)" fill="#676767"/><path d="M210.57,88.45a15.1,15.1,0,0,0-3.15.32l-2.11.53c-1.55.86-3.44.69-5,1.49l1.46-.25a8.11,8.11,0,0,1,2.88-.38c.53-.06,1.06-.14,1.58-.22l1.94-.4q1.1-.27,2.19-.51Z" transform="translate(291.48 -87.31)" fill="#cececf"/><path d="M200.28,90.79c-3.27.88-6.7,1-10,1.61.36.2.72.38,1.09.56.65-.06,1.3,0,1.94-.07.55-.55,1.45-.28,2.16-.4l.28,0,3.3-.86a19.51,19.51,0,0,1,2.78-.79l0-.27Z" transform="translate(291.48 -87.31)" fill="#1e1f1f"/><path d="M146.88,101.38c0,.14,0,.4-.06.54,2.53,9.66,4.15,19.55,6.33,29.29l.26-.06-.1-.55q-3-14.49-6.05-29Z" transform="translate(291.48 -87.31)" fill="#4f4f4f"/><path d="M212.05,88.92a1.44,1.44,0,0,0-1.48-.47l-.24.58.62,0c.29.06.45.3.49.72.08-.11.26-.32.35-.43Z" transform="translate(291.48 -87.31)" fill="#848485"/><path d="M150,101c-.34,0-.8.33-.67.74q7.74,37.42,15.57,74.85a27.35,27.35,0,0,0,1.42,5.49c-.46-2.14-.86-4.3-1.27-6.45-.68-2.65-1.18-5.34-1.65-8-.68-2.84-1.36-5.68-1.79-8.56q-3.2-14.53-6.09-29.15c-1.27-5.71-2.48-11.43-3.59-17.18a62.44,62.44,0,0,0-2-10A5.91,5.91,0,0,1,150,101Z" transform="translate(291.48 -87.31)" fill="#464646"/><path d="M153.41,131.15l-.26.06c1.77,8.64,3.64,17.25,5.35,25.9l.31,0C157.05,148.47,155.22,139.81,153.41,131.15Z" transform="translate(291.48 -87.31)" fill="#464646"/><path d="M148.7,107.07c-.52-1.78-.49-3.93-1.44-5.47q3,14.49,6.05,29l.27,0C152,122.72,150.31,114.89,148.7,107.07Z" transform="translate(291.48 -87.31)" fill="#181818"/><path d="M204.62,90.16a8.11,8.11,0,0,0-2.88.38l0,.27C202.75,90.61,203.69,90.43,204.62,90.16Z" transform="translate(291.48 -87.31)" fill="#777778"/><path d="M153.15,131.21c-2.18-9.74-3.8-19.63-6.33-29.29q0,.45-.06.9c2.3,9.12,3.93,18.42,5.92,27.62,0,.36,0,1.08,0,1.44.14,3.86,1.35,7.63,2.37,11.32,1.12,5.09,2.06,10.21,3.22,15.28a5.37,5.37,0,0,0,.22-1.37C156.79,148.46,154.92,139.85,153.15,131.21Z" transform="translate(291.48 -87.31)" fill="#828282"/><path d="M211.44,89.7c0-.42-.2-.66-.49-.72a13.81,13.81,0,0,1-2.76.78,1.79,1.79,0,0,1-2,.18c-.52.08-1,.16-1.58.22-.93.27-1.87.45-2.83.65a19.51,19.51,0,0,0-2.78.79c1.08-.17,2.15-.29,3.23-.36,1.26-.21,2.49-.49,3.75-.65s2.7-1,4.08-.71l.45.07c1.76,7.85,3.18,15.77,5,23.59,2.47,9.57,4.09,19.37,6.25,29,.17,1.32.81,2.63.61,4,2.16,11.24,4.68,22.41,6.91,33.64.36,3.45,1.26,6.8,1.79,10.21,2.88,13,5.43,26,8.21,39a18.7,18.7,0,0,1,.61,3.86h.46c-3.31-19.09-7.8-38-11.56-57l.25-.07c.63,2.85,1.18,5.71,1.8,8.57l.27-.06C224.61,153,217.86,121.38,211.44,89.7Z" transform="translate(291.48 -87.31)" fill="#0d0d0d"/><path d="M211,89l-.62,0q-1.1.24-2.19.51l.05.22A13.81,13.81,0,0,0,211,89Z" transform="translate(291.48 -87.31)" fill="#59595a"/><path d="M195.43,92.49c-.71.12-1.61-.15-2.16.4-1.73,1.27-4.39.71-6.29,1.82.85-.16,1.66-.3,2.5-.41,4.41-1,9-1.28,13.37-2.21q1.13-.25,2.22-.45l1.65-.69c-3.64.84-7.36,1.28-11,2C195.63,92.79,195.5,92.59,195.43,92.49Z" transform="translate(291.48 -87.31)" fill="#333"/><path d="M212.47,89.46c-.11-.13-.32-.4-.42-.54l-.26.35c.13.44.27.89.41,1.33.2.7.6,2.08.79,2.78,4.35,20.81,8.64,41.63,13,62.44l.25-.09Q219.37,122.59,212.47,89.46Z" transform="translate(291.48 -87.31)" fill="#0e0e0e"/><path d="M202.24,91.24c-1.08.07-2.15.19-3.23.36l-3.3.86A37.2,37.2,0,0,0,202.24,91.24Z" transform="translate(291.48 -87.31)" fill="#2f2f2f"/><path d="M195.71,92.46l-.28,0c.07.1.2.3.26.41,3.67-.67,7.39-1.11,11-2l-1.65.69a7,7,0,0,0,3.08-.46c.62-.45,2.07-.25,1.92-1.3-1.34.2-2.69,1-4.08.71-1.26.16-2.49.44-3.75.65A37.2,37.2,0,0,1,195.71,92.46Z" transform="translate(291.48 -87.31)" fill="#3c3c3c"/><path d="M211.79,89.27c-.09.11-.27.32-.35.43,6.42,31.68,13.17,63.34,19.71,95,1.11,5.07,2,10.19,3.24,15.24-.1-.72-.28-2.15-.37-2.87q-11-52.49-21.87-105a3.36,3.36,0,0,1,0-1l0-.56C212.06,90.16,211.92,89.71,211.79,89.27Z" transform="translate(291.48 -87.31)" fill="#434343"/><path d="M152.68,130.44c-2-9.2-3.62-18.5-5.92-27.62,1.74,9.72,4,19.36,5.93,29.06C152.69,131.52,152.68,130.8,152.68,130.44Z" transform="translate(291.48 -87.31)" fill="#898989"/><path d="M145.16,103.11a19.31,19.31,0,0,0,.64,4q9.7,46.4,19.35,92.81l.27-.06q-4.44-21.39-8.91-42.79C152.68,139.08,149.16,121,145.16,103.11Z" transform="translate(291.48 -87.31)" fill="#aeaeaf"/><path d="M212.73,89.41l-.26,0q6.89,33.14,13.8,66.27c3.12,15.13,6.35,30.24,9.41,45.39,0,.17.1.51.13.68l.3,0C228.41,164.35,220.52,126.89,212.73,89.41Z" transform="translate(291.48 -87.31)" fill="#131313"/><path d="M213,93.38c-.19-.7-.59-2.08-.79-2.78l0,.56c4.7,21.64,9,43.37,13.64,65,.06-.09.17-.28.22-.37C221.63,135,217.34,114.19,213,93.38Z" transform="translate(291.48 -87.31)" fill="#1f1f1f"/><path d="M181.42,97.12c-2.59-.64-2.24,3.27-.34,3.49a1.78,1.78,0,0,0,1.52-2.32A3.15,3.15,0,0,0,181.42,97.12Z" transform="translate(291.48 -87.31)" fill="#363738"/><path d="M212.16,91.16a3.36,3.36,0,0,0,0,1q10.93,52.49,21.87,105c.09.72.27,2.15.37,2.87,2.13,10.87,4.48,21.69,6.72,32.53.34.3.26.77.34,1.18a1.87,1.87,0,0,0,.17-1.55c-2.27-10.79-4.56-21.58-6.72-32.39-3.12-14.49-6.08-29-9.1-43.53C221.2,134.53,216.86,112.8,212.16,91.16Z" transform="translate(291.48 -87.31)" fill="#565656"/><path d="M151.4,117.66a3.33,3.33,0,0,0,0,1.22c3.29,15.65,6.51,31.31,9.8,47,.84,3-.59.61-.41-.5l-.27.06q1.81,8.7,3.63,17.4,3.25,15.6,6.5,31.21,3.63,17.4,7.26,34.8a1.56,1.56,0,0,1-.11,1c.3.62.49,1.62,1.39,1.4,4.2-1.26,8.49-2.23,12.64-3.65-1.05-1-2.56.45-3.71.47-2.7.49-5.23,1.59-7.94,2-.79.32-1.47-.77-1.17-1.49-4.17-20.2-8.49-40.36-12.56-60.57-.22-.77-.4-1.58-.63-2.34-.11-.35-.34-1.06-.46-1.41C160.63,162.1,156.21,139.84,151.4,117.66Z" transform="translate(291.48 -87.31)" fill="#090909"/><path d="M215.61,114.67c.24,3.47,1.41,6.82,1.86,10.27,1.34,5.77,2.51,11.58,3.66,17.4l.31,0C219.52,133.13,217.71,123.86,215.61,114.67Z" transform="translate(291.48 -87.31)" fill="#222"/><path d="M156.75,157l-.24.09q4.44,21.39,8.91,42.79c3.37,16.43,7,32.82,10.18,49.28l.23.51c0-.16.13-.47.17-.64-2.16-9.84-4.14-19.73-6.21-29.59C165.43,198.59,161.15,177.76,156.75,157Z" transform="translate(291.48 -87.31)" fill="#0c0c0c"/><path d="M158.81,157.14l-.31,0c1,4.68,2.05,9.37,2.89,14.1.74,3.2,1.54,6.41,2,9.67.12.49.37,1.49.49,2l.28-.06q-1.8-8.7-3.63-17.4C160,162.65,159.43,159.88,158.81,157.14Z" transform="translate(291.48 -87.31)" fill="#3d3d3d"/><path d="M161.35,173.28c-.78-3.11-1.5-6.25-2.48-9.31q1.4,7.34,3,14.64c.61,1.59,1.1,3.23,1.59,4.86.8,0-.49-1.88-.09-2.59-.48-3.26-1.28-6.47-2-9.67C161.09,171.8,162.29,173.35,161.35,173.28Z" transform="translate(291.48 -87.31)" fill="#767676"/><path d="M226.27,155.73l-.25.09c-.05.09-.16.28-.22.37,3,14.51,6,29,9.1,43.53l.78,1.4C232.62,186,229.39,170.86,226.27,155.73Z" transform="translate(291.48 -87.31)" fill="#141414"/><path d="M167.29,190.8l-.81-2.77c4.07,20.21,8.39,40.37,12.56,60.57-.3.72.38,1.81,1.17,1.49,2.71-.42,5.24-1.52,7.94-2,1.15,0,2.66-1.45,3.71-.47,6.43-1.42,12.73-3.38,19.08-5.1l1.83-.47a13.46,13.46,0,0,1,2.17-.59c.85-.22,1.66-.4,2.48-.65,5.06-1.46,10.16-2.81,15.24-4.21.83-.22,1.64-.37,2.46-.6,1.32-.55,2.74-.74,4.1-1.17l.79-.42a.85.85,0,0,0,.38-1.13h-.46a18.7,18.7,0,0,0-.61-3.86c-2.78-13-5.33-26-8.21-39,1.13,8,3.31,15.9,4.71,23.88.7,6.15,2.55,12.09,3.45,18.2,0,.17-.07.5-.1.67-3,.65-6,1.64-8.95,2.47-4.67.23,2.7.81-1.72.77-1.41-.32-2.72.5-4.08.77.29.28.87-.07,1,.37a18.14,18.14,0,0,0-4.52.59c.13.91,2.3-1.05,2,.15-6.59,1.59-13.05,3.68-19.63,5.27l-1.23.25a2.19,2.19,0,0,1-1.42.53c-7,1.64-13.79,3.84-20.74,5.51a13.18,13.18,0,0,1-.17-1.39c-1.57-6.35-2.81-12.82-4.27-19.21a3.56,3.56,0,0,1-.47-1.12C172.48,215.67,169.87,203.24,167.29,190.8Z" transform="translate(291.48 -87.31)" fill="#141414"/><path d="M163.5,183.47c-.49-1.63-1-3.27-1.59-4.86.84,4.53,1.85,9,2.79,13.54l.49.07c1,2.92.18-.12.35-1.13-.44-2.76-1.08-5.48-1.64-8.22-.12-.5-.37-1.5-.49-2C163,181.59,164.3,183.47,163.5,183.47Z" transform="translate(291.48 -87.31)" fill="#717171"/><path d="M164.18,182.81l-.28.06c.56,2.74,1.2,5.46,1.64,8.22.83,3.48,1.59,7,2.19,10.5.71,2.92,1.36,5.87,1.84,8.84.3,1.2.57,2.43.84,3.65l.27-.06Q167.43,198.42,164.18,182.81Z" transform="translate(291.48 -87.31)" fill="#343434"/><path d="M162.74,189.74l-.27,0c4.26,20.36,8.44,40.74,12.75,61.09l.09.3c.08-.35.14-.69.22-1-2.88-11.58-4.95-23.35-7.49-35Q165.37,202.45,162.74,189.74Z" transform="translate(291.48 -87.31)" fill="#abacad"/><path d="M229.08,176.2l-.25.07c3.76,19,8.25,37.91,11.56,57a.85.85,0,0,1-.38,1.13c.5-.08,1-.14,1.51-.2,0-.13-.05-.41-.07-.54-.08-.41,0-.88-.34-1.18-.92-1.66-1-3.65-1.44-5.45q-4.38-21.14-8.79-42.26C230.26,181.91,229.71,179.05,229.08,176.2Z" transform="translate(291.48 -87.31)" fill="#060606"/><path d="M165.54,191.09c-.17,1,.63,4-.35,1.13l-.49-.07c.92,4.46,1.8,8.93,2.82,13.37-.05-.69-.1-1.38-.16-2.05l.62.48a7.94,7.94,0,0,1-.25-2.36C167.13,198.07,166.37,194.57,165.54,191.09Z" transform="translate(291.48 -87.31)" fill="#6a6a6a"/><path d="M231.15,184.71l-.27.06q4.38,21.14,8.79,42.26c.49,1.8.52,3.79,1.44,5.45-2.24-10.84-4.59-21.66-6.72-32.53C233.18,194.9,232.26,189.78,231.15,184.71Z" transform="translate(291.48 -87.31)" fill="#131313"/><path d="M165.42,199.84l-.27.06c1,5.07,2.12,10.12,3.16,15.19q3.33,16,6.67,32a4.74,4.74,0,0,0,.62,2C172.37,232.66,168.79,216.27,165.42,199.84Z" transform="translate(291.48 -87.31)" fill="#a7a7a7"/><path d="M167.73,201.59A7.94,7.94,0,0,0,168,204l-.62-.48c.06.67.11,1.36.16,2.05.55,3.34,1.34,6.64,2.09,9.94l-.16-1.49c-1.74-4,2,1.73.16-2.32a3.33,3.33,0,0,1,0-1.22C169.09,207.46,168.44,204.51,167.73,201.59Z" transform="translate(291.48 -87.31)" fill="#646464"/><path d="M169.57,210.43a3.33,3.33,0,0,0,0,1.22c1.87,4-1.9-1.71-.16,2.32l.16,1.49c.59,3.43,1.33,6.83,2.12,10.22a25.71,25.71,0,0,0-.51-3.61c1.47.29-.26-2.18.2-2.79-.28-1.75-.66-3.47-1-5.2C170.14,212.86,169.87,211.63,169.57,210.43Z" transform="translate(291.48 -87.31)" fill="#5e5e5e"/><path d="M170.68,214l-.27.06c.35,1.73.73,3.45,1,5.2,1,4.22,1.92,8.44,2.65,12.71,1.38,5.92,2.51,11.92,3.76,17.87a1.56,1.56,0,0,0,.11-1Q174.3,231.44,170.68,214Z" transform="translate(291.48 -87.31)" fill="#2b2b2b"/><path d="M168.31,215.09l-.27.06c2.54,11.65,4.61,23.42,7.49,35a6.17,6.17,0,0,0,.92,1.51c.53,0,2.28.4,1.44-.49a2.22,2.22,0,0,1-2.06-1.54l-.23-.51a4.74,4.74,0,0,1-.62-2Q171.67,231.11,168.31,215.09Z" transform="translate(291.48 -87.31)" fill="#e5e5e6"/><path d="M236.11,201.85l-.3,0c2.29,10.4,4.36,20.85,6.57,31.27l.12.57.27,0C240.53,223,238.44,212.41,236.11,201.85Z" transform="translate(291.48 -87.31)" fill="#6b6b6c"/><path d="M235.81,201.8c-.26,1.26.41,2.48.53,3.73,1.87,8.83,3.69,17.68,5.54,26.51l.3,1.17.2-.14C240.17,222.65,238.1,212.2,235.81,201.8Z" transform="translate(291.48 -87.31)" fill="#787878"/><path d="M171.42,219.28c-.46.61,1.27,3.08-.2,2.79a25.71,25.71,0,0,1,.51,3.61c.83,4.72,1.9,9.41,2.94,14.09a50.69,50.69,0,0,0-1.24-7c1.11-.49.09,2.18,1,2.1l-.35-2.87C173.34,227.72,172.37,223.5,171.42,219.28Z" transform="translate(291.48 -87.31)" fill="#575757"/><path d="M174.07,232l.35,2.87c-.9.08.12-2.59-1-2.1a50.69,50.69,0,0,1,1.24,7c.41,2.86,1.18,5.65,1.69,8.49,0,1.25,1.14,1.85,1.53,2.91.84.89-.91.53-1.44.49-.25.67,1,.35,1.44.63a12.67,12.67,0,0,0,2.34-1l-1-.06c-.9.22-1.09-.78-1.39-1.4C176.58,243.91,175.45,237.91,174.07,232Z" transform="translate(291.48 -87.31)" fill="#4e4e4f"/><path d="M241.88,232l-.26.07a1.87,1.87,0,0,1-.17,1.55c0,.13.05.41.07.54a2.25,2.25,0,0,0,.66-1Z" transform="translate(291.48 -87.31)" fill="#444344"/><path d="M242.38,233.07l-.2.14a2.25,2.25,0,0,1-.66,1c0,.92-.82,1-1.53,1.16l0,.26c1,0,2.79-.7,2.54-2Z" transform="translate(291.48 -87.31)" fill="#a0a1a2"/><path d="M241.52,234.2c-.51.06-1,.12-1.51.2l-.79.42.87-.07c.79.92-2,.07-1.8.92l1.7-.31C240.7,235.21,241.56,235.12,241.52,234.2Z" transform="translate(291.48 -87.31)" fill="#646465"/><path d="M238.29,235.67l1.7-.31,0,.26a3.4,3.4,0,0,0-1.83.53c-6.63,2.23-13.5,3.63-20.17,5.72-10,2.51-19.79,5.6-29.78,8a3.74,3.74,0,0,0-1.84.54,55.22,55.22,0,0,1-6,1.69l-1.85.39-.62.09.06-.28a12.67,12.67,0,0,0,2.34-1c1.61-.4,3.2-.84,4.8-1.28a6,6,0,0,0,3.4-.79,2.19,2.19,0,0,1,1.21-.51,5.34,5.34,0,0,0,3.43-.75,2,2,0,0,1,.68-.35,6.34,6.34,0,0,0,3.43-.77,3.79,3.79,0,0,1,1.19-.51,5.51,5.51,0,0,0,3.42-.76,2.14,2.14,0,0,1,.94-.44,4.88,4.88,0,0,0,3.37-.78,1.35,1.35,0,0,1,1-.43,5,5,0,0,0,3.38-.75l.44-.44.55,0c1.19.18,2.35-.4,3.51-.54a1.13,1.13,0,0,0-.9-.2,11.25,11.25,0,0,0-1.3,0,13.46,13.46,0,0,1,2.17-.59c.3.06.6.12.89.16,1.19.22,2.35-.44,3.5-.55a1.2,1.2,0,0,0-.89-.2q-.51,0-1-.06c5.06-1.46,10.16-2.81,15.24-4.21l.38.22,2.84-.32c3.05-.4.35-.83-.61-.22l-.15-.28c1.32-.55,2.74-.74,4.1-1.17l.87-.07C240.88,235.67,238.09,234.82,238.29,235.67ZM228.7,238l.05.27,4.15-.87-.06-.27Zm-4.36,1.2,0,.26c1.29-.27,2.59-.49,3.86-.81l0-.26C226.92,238.61,225.62,238.85,224.34,239.17Zm-4.08,1.14,0,.26c1.21-.26,2.41-.45,3.59-.75l0-.27C222.65,239.79,221.44,240,220.26,240.31Z" transform="translate(291.48 -87.31)" fill="#909192"/><path d="M235.12,236c-.82.23-1.63.38-2.46.6l.38.22,2.23-.54Z" transform="translate(291.48 -87.31)" fill="#ababac"/><path d="M176.36,248.26l-.22.13c0,.15-.11.45-.14.6s-.13.48-.17.64a2.22,2.22,0,0,0,2.06,1.54C177.5,250.11,176.33,249.51,176.36,248.26Z" transform="translate(291.48 -87.31)" fill="#393839"/><path d="M235.88,236.49c3.05-.4.35-.83-.61-.22l-2.23.54Z" transform="translate(291.48 -87.31)" fill="#7c7d7d"/><path d="M240,235.62a3.4,3.4,0,0,0-1.83.53C238.67,236.27,239.89,236.27,240,235.62Z" transform="translate(291.48 -87.31)" fill="#696a6c"/><path d="M232.84,237.1l-4.14.87.05.27,4.15-.87Z" transform="translate(291.48 -87.31)" fill="#7b7b7c"/><path d="M228.21,238.36c-1.29.25-2.59.49-3.87.81l0,.26c1.29-.27,2.59-.49,3.86-.81Z" transform="translate(291.48 -87.31)" fill="#7c7c7d"/><path d="M223.84,239.55c-1.19.24-2.4.45-3.58.76l0,.26c1.21-.26,2.41-.45,3.59-.75Z" transform="translate(291.48 -87.31)" fill="#7e7e7f"/><path d="M218.44,240.86q-.51,0-1-.06c-.82.25-1.63.43-2.48.65.3.06.6.12.89.16C216.72,241.35,217.58,241.14,218.44,240.86Z" transform="translate(291.48 -87.31)" fill="#afafb0"/><path d="M219.33,241.06a1.2,1.2,0,0,0-.89-.2c-.86.28-1.72.49-2.61.75C217,241.83,218.18,241.17,219.33,241.06Z" transform="translate(291.48 -87.31)" fill="#7f7f80"/><path d="M210.47,243.2l-3.38.75A5,5,0,0,0,210.47,243.2Z" transform="translate(291.48 -87.31)" fill="#7f7f80"/><path d="M214.07,242.06a11.25,11.25,0,0,0-1.3,0l-1.83.47,0,.25.55,0C212.35,242.54,213.21,242.33,214.07,242.06Z" transform="translate(291.48 -87.31)" fill="#b4b3b4"/><path d="M210.94,242.51c-6.35,1.72-12.65,3.68-19.08,5.1-4.15,1.42-8.44,2.39-12.64,3.65l1,.06c1.61-.4,3.2-.84,4.8-1.28,1.13-.29,2.26-.56,3.4-.79a2.19,2.19,0,0,1,1.21-.51l3.43-.75a2,2,0,0,1,.68-.35c1.14-.31,2.28-.56,3.43-.77a3.79,3.79,0,0,1,1.19-.51c1.14-.27,2.28-.53,3.42-.76a2.14,2.14,0,0,1,.94-.44l3.37-.78a1.35,1.35,0,0,1,1-.43l3.38-.75.44-.44Z" transform="translate(291.48 -87.31)" fill="#a2a2a3"/><path d="M215,242.26a1.13,1.13,0,0,0-.9-.2c-.86.27-1.72.48-2.61.74C212.65,243,213.81,242.4,215,242.26Z" transform="translate(291.48 -87.31)" fill="#808081"/><path d="M193.07,248l-3.43.75A5.34,5.34,0,0,0,193.07,248Z" transform="translate(291.48 -87.31)" fill="#808081"/><path d="M188.43,249.25c-1.14.23-2.27.5-3.4.79A6,6,0,0,0,188.43,249.25Z" transform="translate(291.48 -87.31)" fill="#808081"/><path d="M175.53,250.15c-.08.34-.14.68-.22,1,.1,1.13,1.6,1.43,2.52,1.39l.06-.28c-.4-.28-1.69,0-1.44-.63A6.17,6.17,0,0,1,175.53,250.15Z" transform="translate(291.48 -87.31)" fill="#7b7b7c"/><path d="M206.1,244.38l-3.37.78A4.88,4.88,0,0,0,206.1,244.38Z" transform="translate(291.48 -87.31)" fill="#818182"/><path d="M201.79,245.6c-1.14.23-2.28.49-3.42.76A5.51,5.51,0,0,0,201.79,245.6Z" transform="translate(291.48 -87.31)" fill="#808182"/><path d="M197.18,246.87c-1.15.21-2.29.46-3.43.77A6.34,6.34,0,0,0,197.18,246.87Z" transform="translate(291.48 -87.31)" fill="#808182"/><path d="M188.18,249.86a3.74,3.74,0,0,0-1.84.54C186.89,250.52,188.1,250.52,188.18,249.86Z" transform="translate(291.48 -87.31)" fill="#535455"/><path d="M180.3,252.09l-1.85.39C178.77,252.93,180.18,252.63,180.3,252.09Z" transform="translate(291.48 -87.31)" fill="#212122"/><path d="M206.82,146.06q3.21,12.7,6.4,25.41a2.17,2.17,0,0,1-.87,2.48,21.3,21.3,0,0,1-4.06.62c1.25.05,2.29-.46,3.45-.27a5.91,5.91,0,0,1-2.65.54c-.78.1-1,.38-.75,1.15.55,2,1,4,1.52,6,.1.38.33.78.11,1.16a61.75,61.75,0,0,1-1.67-6.29,56.26,56.26,0,0,0,1.67,6.29c.11,2.32-.88,3.64-2.82,3.78a4.2,4.2,0,0,1-4.13-2.86,54.16,54.16,0,0,0-2.09-8.1c-1.61.21-3.2.45-4.81.61-.79.07-.86.42-.68,1.11.61,2.3,1.2,4.61,1.74,6.92a2.93,2.93,0,0,1-1.8,3.72,13.47,13.47,0,0,0-1.91.24,3.57,3.57,0,0,1-3.14-2.47,15.09,15.09,0,0,0-.74-3.54c-.32-1.43-.71-2.86-1-4.18.51,2.51,1.46,5.07,1.78,7.71a40.08,40.08,0,0,1-1.7-6.1c-.62-2.29-.58-2.28-2.89-2a2.33,2.33,0,0,1-1.43,0,15.4,15.4,0,0,1,3-.57,25.19,25.19,0,0,0-3.24.55,3.21,3.21,0,0,1-2.71-2.76q-2.47-9.83-4.93-19.65c-.44-1.75-.85-3.5-1.27-5.25.33-.39.85-.35,1.32-.42Q191,148,205.38,146A2,2,0,0,1,206.82,146.06Z" transform="translate(291.48 -87.31)" fill="#a5c74d"/><path d="M206,143.46c-.29.33-.73.27-1.12.32q-14.51,2-29,4c-1.09.15-1.39,0-1.47-1.17-.31-4.46,1.63-7.72,4.8-10.32.73-.6.62-.92-.08-1.53-.93-.81-1.8-1.71-2.69-2.57-.32-.3-.68-.63-.32-1s.73,0,1,.28q1.59,1.5,3.17,3c.36.34.65.57,1.16.29,3.44-1.92,7.32-2.2,11.4-1.61,1,.14,1.47-.14,1.74-1a30,30,0,0,1,1.21-3c.17-.38.24-1.08.93-.72s.22.85.07,1.25c-.39,1-.79,2.1-1.26,3.11-.27.6-.17.87.53,1.15a20.3,20.3,0,0,1,5.87,3.34,12.3,12.3,0,0,1,3.7,5.07c.26.93-.22,1.15-1.06,1.26-9.76,1.3-19.5,2.64-29,3.94l.54-.07,29-3.95A1.27,1.27,0,0,1,206,143.46Z" transform="translate(291.48 -87.31)" fill="#a5c74d"/><path d="M220.48,162.74a3.07,3.07,0,0,1-2.85,3.55,4,4,0,0,1-4.18-2.78q-1.95-7.44-3.74-14.88a2.89,2.89,0,0,1,1.88-3.46,8.5,8.5,0,0,0,1.67-.23,3.73,3.73,0,0,1,3.38,2.49Q218.5,155.09,220.48,162.74Z" transform="translate(291.48 -87.31)" fill="#a5c74d"/><path d="M173.68,172.05a3.56,3.56,0,0,1-3.14-2.5q-1.84-7.67-3.84-15.31a2.76,2.76,0,0,1,2-3.22,10.17,10.17,0,0,0,1.67-.21,3.81,3.81,0,0,1,3.47,2.86q1.89,7.34,3.68,14.68a2.9,2.9,0,0,1-1.86,3.47C175,171.84,174.33,172,173.68,172.05Z" transform="translate(291.48 -87.31)" fill="#a5c74d"/><path d="M206.82,146.06l-31.62,4.31c-.12-.6.39-.47.7-.51q15-2.07,30-4.09C206.22,145.72,206.64,145.46,206.82,146.06Z" transform="translate(291.48 -87.31)" fill="#a2c546"/><path d="M206,143.46l-30.88,4.21-.07-.23,1.16-.16q14.07-1.92,28.15-3.82c.81-.11,1.3-.35,1.32-1.18C205.76,142.67,206.24,143,206,143.46Z" transform="translate(291.48 -87.31)" fill="#a3c546"/><path d="M166.7,154.24c.42.21.42.6.51.95q1.68,6.66,3.35,13.34c.08.34.27.71,0,1a1.69,1.69,0,0,1-.37-.91q-1.68-6.66-3.34-13.33A7.63,7.63,0,0,1,166.7,154.24Z" transform="translate(291.48 -87.31)" fill="#9fc340"/><path d="M220.48,162.74c-.42-.21-.42-.61-.51-1l-3.35-13.34c-.08-.35-.27-.72,0-1a12.27,12.27,0,0,1,.43,1.15q1.65,6.54,3.29,13.09A1.88,1.88,0,0,1,220.48,162.74Z" transform="translate(291.48 -87.31)" fill="#9fc340"/><path d="M200.93,176c.11.12.3.22.34.34q.94,3.72,1.86,7.44c0,.1-.07.21-.11.32Q202,180.06,200.93,176Z" transform="translate(291.48 -87.31)" fill="#a1c443"/><path d="M211.74,174.3l-3.57.49-.07-.25a16.84,16.84,0,0,1,2.83-.35c.54,0,.73-1,1.42-.24A.64.64,0,0,1,211.74,174.3Z" transform="translate(291.48 -87.31)" fill="#a4c74a"/><path d="M184.11,178c1.06-.65,2.38-.38,3.51-.74l.09.3-3.4.46-.1,0Z" transform="translate(291.48 -87.31)" fill="#a2c546"/><path d="M173.68,172.05a1.81,1.81,0,0,1,1.93-.23A2.24,2.24,0,0,1,173.68,172.05Z" transform="translate(291.48 -87.31)" fill="#a1c542"/><path d="M193.47,188.61a1.84,1.84,0,0,1,1.91-.24A2.27,2.27,0,0,1,193.47,188.61Z" transform="translate(291.48 -87.31)" fill="#a2c544"/><path d="M170.32,150.81a1.42,1.42,0,0,1-1.67.21A2,2,0,0,1,170.32,150.81Z" transform="translate(291.48 -87.31)" fill="#a2c443"/><path d="M213.26,144.94a1.39,1.39,0,0,1-1.67.23A2.09,2.09,0,0,1,213.26,144.94Z" transform="translate(291.48 -87.31)" fill="#a2c442"/><path d="M190.33,186.13l-2-8.08.27,0c.58,2.33,1.17,4.65,1.74,7,.1.39.31.8,0,1.15Z" transform="translate(291.48 -87.31)" fill="#a0c442"/><path d="M210,183.19c-.12-.16-.32-.31-.36-.48a73.08,73.08,0,0,1-1.61-7.38c.66,2.62,1.31,5.24,2,7.86Z" transform="translate(291.48 -87.31)" fill="#a0c441"/><path d="M200.58,175.74l-5.19.71,0-.12,5.21-.71Z" transform="translate(291.48 -87.31)" fill="#a3c646"/><path d="M197.28,138.34a1.56,1.56,0,0,1-1.16,1.95,2.06,2.06,0,0,1-2.21-1.45,1.62,1.62,0,0,1,1.3-2A2.08,2.08,0,0,1,197.28,138.34Z" transform="translate(291.48 -87.31)" fill="#fdfdfb"/><path d="M181.59,138.75a2.15,2.15,0,0,1,2.13,1.44,1.62,1.62,0,0,1-1.36,2,2,2,0,0,1-2-1.51A1.52,1.52,0,0,1,181.59,138.75Z" transform="translate(291.48 -87.31)" fill="#fdfdfc"/><path d="M257,142.76l-48.53,12a6.25,6.25,0,0,1-7.37-4L188,114c-1.27-3.59-.34-10.33,4.94-11.18l48.31-6.61a6.24,6.24,0,0,1,7,3.9l16.08,33.07C265.68,136.62,264.35,140.91,257,142.76Z" transform="translate(291.48 -87.31)" fill="url(#c)"/><path d="M259.6,138.81l-48.53,12a6.25,6.25,0,0,1-7.37-4L190.58,110a6.23,6.23,0,0,1,4.67-8.21l48.58-9.58a6.24,6.24,0,0,1,7,3.9l13.07,34.43A6.24,6.24,0,0,1,259.6,138.81Z" transform="translate(291.48 -87.31)" fill="url(#d)"/><line x1="511.01" y1="15.13" x2="561.08" y2="3.5" fill="none" stroke-linecap="round" stroke-miterlimit="10" stroke-width="7" stroke="url(#e)"/><line x1="493.78" y1="34.24" x2="543.84" y2="22.61" fill="none" stroke-linecap="round" stroke-miterlimit="10" stroke-width="7" stroke="url(#f)"/><line x1="519.88" y1="44.75" x2="569.94" y2="33.12" fill="none" stroke-linecap="round" stroke-miterlimit="10" stroke-width="7" stroke="url(#g)"/><path d="M207,212.67l-38.16,9a3.76,3.76,0,0,1-4.44-2.39l-7.91-22.2c-.77-2.16-.2-6.23,3-6.74l38-5.75a3.75,3.75,0,0,1,4.24,2.35l9.69,19.93C212.22,209,211.41,211.55,207,212.67Z" transform="translate(291.48 -87.31)" fill="url(#h)"/><path d="M208.58,210.29l-38.15,9a3.75,3.75,0,0,1-4.44-2.38l-7.91-22.2a3.76,3.76,0,0,1,2.81-4.95l38.18-7.55a3.76,3.76,0,0,1,4.24,2.36l7.88,20.76A3.75,3.75,0,0,1,208.58,210.29Z" transform="translate(291.48 -87.31)" fill="url(#i)"/><line x1="445.23" y1="112.09" x2="475.41" y2="105.08" fill="none" stroke-linecap="round" stroke-miterlimit="10" stroke-width="4" stroke="url(#j)"/><line x1="466.65" y1="123.95" x2="496.84" y2="116.94" fill="none" stroke-linecap="round" stroke-miterlimit="10" stroke-width="4" stroke="url(#k)"/><path d="M-212.92,158.37q0,24.49,0,49a4.66,4.66,0,0,1-2.77,4.41,41.53,41.53,0,0,1-7.83.11c2.3.42,4.47-.27,6.54.39-1.68.77-3.46.34-5.18.33-1.49,0-2,.45-1.93,1.95.09,3.88,0,7.77,0,11.65,0,.73.24,1.53-.34,2.19-.56-4.84-.08-9.69-.17-12.16.13,2.47-.47,7.32.17,12.15-.88,4.36-3.33,6.58-7,6.33a6.86,6.86,0,0,1-6.32-6.38,100.56,100.56,0,0,0-.13-15.62c-3.07,0-6.14,0-9.2-.1-1.5-.06-1.79.57-1.77,1.9q.09,6.67,0,13.35c0,3.4-1.77,5.53-5.07,6.48a26.47,26.47,0,0,0-3.67,0,5.82,5.82,0,0,1-4.68-5.4c.63-2.24.21-4.53.28-6.79.08-2.75,0-5.51,0-8.05-.22,4.8.35,9.83-.3,14.83-.69-3.92-.22-7.87-.3-11.81-.09-4.42,0-4.41-4.44-4.44-.89,0-1.84.23-2.66-.35,2-.57,3.94-.13,5.91-.3-2.09.18-4.19-.24-6.27.21-2.74-1.11-3.75-2.61-3.75-5.84q0-18.95,0-37.89c0-3.37,0-6.73.08-10.1.8-.65,1.76-.45,2.66-.45h55.39C-214.68,157.92-213.72,157.72-212.92,158.37Z" transform="translate(291.48 -87.31)" fill="#a5c74d"/><path d="M-213.33,153.31c-.68.54-1.48.3-2.22.3-18.56,0-37.12,0-55.68,0-2.08,0-2.56-.4-2.17-2.56,1.51-8.39,6.63-14,13.71-18,1.63-.94,1.58-1.57.57-2.87-1.36-1.76-2.54-3.65-3.8-5.48-.44-.65-1-1.35-.11-2s1.35.19,1.77.78q2.28,3.2,4.48,6.41c.51.74.94,1.24,2,.84,7.27-2.7,14.61-2.24,21.9-.11,1.81.53,2.79.12,3.71-1.45a61.52,61.52,0,0,1,3.65-5.3c.49-.67.94-2,2.07-1.11s0,1.64-.46,2.34c-1.22,1.86-2.45,3.72-3.79,5.49-.79,1-.72,1.58.44,2.28,3.48,2.12,6.82,4.43,9.34,7.72A20.2,20.2,0,0,1-213.36,151c0,1.82-.95,2.1-2.57,2.09-18.71,0-37.41,0-55.64,0,0,0,.53,0,1,0h55.64C-214.37,153.09-213.81,152.94-213.33,153.31Z" transform="translate(291.48 -87.31)" fill="#a5c74d"/><path d="M-195.32,192.93a6.68,6.68,0,0,1-7,5.91,6.63,6.63,0,0,1-6.47-6.26q-.15-14.34,0-28.69c0-3,2-5.11,5.08-6,1.08.28,2.15-.09,3.22,0a6.08,6.08,0,0,1,5.11,5.5Q-195.45,178.17-195.32,192.93Z" transform="translate(291.48 -87.31)" fill="#a5c74d"/><path d="M-286.54,198.4a5.83,5.83,0,0,1-4.66-5.47c.09-9.84.07-19.67,0-29.51a5.94,5.94,0,0,1,5.1-5.51,18.23,18.23,0,0,0,3.22,0c3.18.89,5.07,3,5.09,6.22q.11,14.15,0,28.3c0,3-2,5.2-5.06,6C-284.08,198.34-285.31,198.44-286.54,198.4Z" transform="translate(291.48 -87.31)" fill="#a5c74d"/><path d="M-212.92,158.37h-60.71c.07-1.15,1-.78,1.55-.78q28.81,0,57.62,0C-213.88,157.59-213,157.2-212.92,158.37Z" transform="translate(291.48 -87.31)" fill="#a2c546"/><path d="M-213.33,153.31H-272.6l0-.47h2.22c18,0,36,0,54,0,1.56,0,2.57-.32,3-1.87C-213.31,151.78-212.56,152.53-213.33,153.31Z" transform="translate(291.48 -87.31)" fill="#a3c546"/><path d="M-291.19,163.42c.68.49.49,1.23.49,1.9q0,12.85,0,25.72c0,.66.18,1.4-.5,1.89a3,3,0,0,1-.27-1.78q0-12.85,0-25.71A14,14,0,0,1-291.19,163.42Z" transform="translate(291.48 -87.31)" fill="#9fc340"/><path d="M-195.32,192.93c-.69-.49-.51-1.23-.51-1.89q0-12.87,0-25.73c0-.66-.18-1.4.5-1.9a19.31,19.31,0,0,1,.26,2.26q0,12.63,0,25.25A3.47,3.47,0,0,1-195.32,192.93Z" transform="translate(291.48 -87.31)" fill="#9fc340"/><path d="M-237.81,212.72c.17.24.47.48.47.72q0,7.16,0,14.33c0,.19-.22.38-.33.57Q-237.74,220.52-237.81,212.72Z" transform="translate(291.48 -87.31)" fill="#a1c443"/><path d="M-216.93,212.28h-6.87v-.5a31.57,31.57,0,0,1,5.42.09c1,.17,1.84-1.74,2.75-.09A1.42,1.42,0,0,1-216.93,212.28Z" transform="translate(291.48 -87.31)" fill="#a4c74a"/><path d="M-270,212.2c2.27-.94,4.58-.1,6.86-.49l0,.58h-6.71Z" transform="translate(291.48 -87.31)" fill="#a2c546"/><path d="M-286.54,198.4a3.44,3.44,0,0,1,3.69.06A4.26,4.26,0,0,1-286.54,198.4Z" transform="translate(291.48 -87.31)" fill="#a1c542"/><path d="M-257.52,234.3a3.56,3.56,0,0,1,3.67,0A4.4,4.4,0,0,1-257.52,234.3Z" transform="translate(291.48 -87.31)" fill="#a2c544"/><path d="M-282.87,157.94a2.73,2.73,0,0,1-3.22,0A4,4,0,0,1-282.87,157.94Z" transform="translate(291.48 -87.31)" fill="#a2c443"/><path d="M-200.44,157.91a2.7,2.7,0,0,1-3.22,0A4.09,4.09,0,0,1-200.44,157.91Z" transform="translate(291.48 -87.31)" fill="#a2c442"/><path d="M-262.2,228.89v-15.6h.52q0,6.74,0,13.47c0,.74.21,1.56-.51,2.14Z" transform="translate(291.48 -87.31)" fill="#a0c442"/><path d="M-224.36,228.39c-.16-.33-.45-.66-.45-1a134,134,0,0,1,.45-14.16V228.4Z" transform="translate(291.48 -87.31)" fill="#a0c441"/><path d="M-238.33,212.12h-10v-.23h10Z" transform="translate(291.48 -87.31)" fill="#a3c646"/><path d="M-227,141.54a3.35,3.35,0,0,1-3.06,3.36,3.39,3.39,0,0,1-3.42-3.27,3.49,3.49,0,0,1,3.35-3.38A3.38,3.38,0,0,1-227,141.54Z" transform="translate(291.48 -87.31)" fill="#fdfdfb"/><path d="M-256.35,138.33a3.53,3.53,0,0,1,3.29,3.23,3.51,3.51,0,0,1-3.44,3.3,3.29,3.29,0,0,1-3.09-3.34A3.28,3.28,0,0,1-256.35,138.33Z" transform="translate(291.48 -87.31)" fill="#fdfdfc"/><path d="M105.19,181.13a91.67,91.67,0,0,0-9.63,3.42,39.39,39.39,0,0,0-8.82,4.93,13.12,13.12,0,0,0-3.28,3.59,5.17,5.17,0,0,0-.66,2.13,4.63,4.63,0,0,0,.55,2.09,9.77,9.77,0,0,0,3.26,3.36A27.15,27.15,0,0,0,91,203c6.14,2.66,12.81,4.17,19.45,5.45s13.4,2.21,20.15,3q20.3,2.22,40.73,2.91c13.61.51,27.24.69,40.83.23s27.22-1.27,40.78-2.45a395.43,395.43,0,0,0,40.43-5.24c3.32-.65,6.62-1.4,9.84-2.33a40.87,40.87,0,0,0,9.17-3.63,6.82,6.82,0,0,0,3-2.93,2,2,0,0,0,.11-.4l0-.2,0-.3a10.45,10.45,0,0,0,0-1.12,8.19,8.19,0,0,0-.19-1,6.11,6.11,0,0,0-.42-.95,7.14,7.14,0,0,0-.61-.9l-.76-.84-.9-.77a6.42,6.42,0,0,0-1-.72,33.91,33.91,0,0,0-4.29-2.46,122,122,0,0,0-19.17-6.75c-6.56-1.83-13.22-3.37-19.87-4.93,3.37.59,6.74,1.13,10.1,1.78s6.71,1.34,10,2.13a123.34,123.34,0,0,1,19.73,6,34.75,34.75,0,0,1,4.66,2.47,8.25,8.25,0,0,1,1.11.78c.36.29.72.56,1.08.86l1,1a8,8,0,0,1,.86,1.19,7.18,7.18,0,0,1,.65,1.37,8.64,8.64,0,0,1,.33,1.49,10.21,10.21,0,0,1,.06,1.44v.35l0,.43a3.85,3.85,0,0,1-.19.83,6.68,6.68,0,0,1-1.71,2.62,13.79,13.79,0,0,1-2.22,1.74,41.78,41.78,0,0,1-9.72,4.18c-3.32,1-6.67,1.87-10,2.62-6.72,1.49-13.5,2.61-20.3,3.55s-13.6,1.73-20.42,2.4q-20.46,2-41,2.68c-13.73.39-27.43.19-41.12-.45s-27.35-1.74-40.95-3.61c-6.79-.93-13.58-2-20.3-3.49-3.36-.75-6.7-1.58-10-2.57a66.49,66.49,0,0,1-9.73-3.67,29.17,29.17,0,0,1-4.54-2.72A11.37,11.37,0,0,1,82,198a5.87,5.87,0,0,1-.59-2.84,6.61,6.61,0,0,1,1-2.69,14.31,14.31,0,0,1,3.74-3.78C91.87,184.65,98.58,182.75,105.19,181.13Z" transform="translate(291.48 -87.31)" fill="aqua"/><path d="M139.3,160.65a53.25,53.25,0,0,0-5.45,2.08,22.16,22.16,0,0,0-4.93,2.89c-1.41,1.16-2.69,2.81-1.78,4.11a5.26,5.26,0,0,0,1.78,1.76,15.11,15.11,0,0,0,2.43,1.27,53.42,53.42,0,0,0,11,2.94q5.69,1,11.47,1.58c7.7.77,15.45,1.29,23.2,1.52s15.51.36,23.23.08,15.51-.7,23.24-1.35,15.45-1.47,23-2.84c1.88-.35,3.75-.76,5.57-1.27a23.67,23.67,0,0,0,5.11-1.95,3.6,3.6,0,0,0,1.51-1.36.43.43,0,0,0,0-.14l0-.07v-.16a5.6,5.6,0,0,0,0-.57,2.31,2.31,0,0,0-.26-.92,4.84,4.84,0,0,0-.68-.9,10.36,10.36,0,0,0-1-.81,18.46,18.46,0,0,0-2.37-1.4,71,71,0,0,0-10.83-4c-3.72-1.13-7.5-2.08-11.27-3.06,3.86.56,7.72,1.15,11.55,2a68.66,68.66,0,0,1,11.37,3.28,20.5,20.5,0,0,1,2.75,1.42,11.64,11.64,0,0,1,1.31,1,6.56,6.56,0,0,1,1.16,1.37,4.66,4.66,0,0,1,.64,1.82,7.09,7.09,0,0,1,0,.89V170l0,.3a2.75,2.75,0,0,1-.12.57,4.4,4.4,0,0,1-1.1,1.71,8.3,8.3,0,0,1-1.35,1.08,23.7,23.7,0,0,1-5.66,2.5c-1.92.61-3.84,1.11-5.77,1.56-3.86.89-7.74,1.56-11.63,2.12s-7.78,1-11.68,1.43c-7.8.77-15.61,1.27-23.44,1.57a290,290,0,0,1-47-2.5c-3.89-.58-7.77-1.21-11.62-2.11a55.07,55.07,0,0,1-11.33-3.73,16.86,16.86,0,0,1-2.64-1.62,7,7,0,0,1-2.14-2.5,3.78,3.78,0,0,1-.35-1.79A4.06,4.06,0,0,1,126,167a8.28,8.28,0,0,1,2.25-2.21C131.65,162.49,135.5,161.5,139.3,160.65Z" transform="translate(291.48 -87.31)" fill="aqua"/><path d="M162.88,224a46.21,46.21,0,0,0-4.91,1.91,20.14,20.14,0,0,0-4.43,2.62,6.76,6.76,0,0,0-1.57,1.8,2.45,2.45,0,0,0-.27.95,2.05,2.05,0,0,0,.27.89,4.82,4.82,0,0,0,1.59,1.55,12.55,12.55,0,0,0,2.19,1.13,48.29,48.29,0,0,0,9.94,2.62c3.43.58,6.89,1.05,10.36,1.4C183,239.49,190,240,197,240.16s14,.32,21,.06,14-.63,21-1.21,13.94-1.31,20.76-2.53c1.7-.31,3.39-.68,5-1.13a21,21,0,0,0,4.59-1.74,3.13,3.13,0,0,0,1.31-1.16s0-.07,0-.1,0,0,0,0v-.14a4.37,4.37,0,0,0,0-.5,1.88,1.88,0,0,0-.22-.79,4.37,4.37,0,0,0-.59-.79,9.65,9.65,0,0,0-.89-.73,16.93,16.93,0,0,0-2.12-1.26,64.12,64.12,0,0,0-9.75-3.64c-3.35-1-6.76-1.91-10.17-2.82,3.49.5,7,1,10.45,1.75a61.26,61.26,0,0,1,10.3,2.93,16.77,16.77,0,0,1,2.49,1.28,10.92,10.92,0,0,1,1.21.88,6.59,6.59,0,0,1,1.06,1.25,4.44,4.44,0,0,1,.6,1.7,6,6,0,0,1,0,.82v.19l0,.28a2.93,2.93,0,0,1-.12.53,4.05,4.05,0,0,1-1,1.6,7.94,7.94,0,0,1-1.23,1,22,22,0,0,1-5.15,2.28c-1.73.56-3.47,1-5.22,1.42-3.49.81-7,1.43-10.51,1.93s-7,.94-10.55,1.31c-7.05.7-14.1,1.16-21.18,1.43a259.21,259.21,0,0,1-42.42-2.3c-3.51-.53-7-1.11-10.5-1.93a49.34,49.34,0,0,1-10.25-3.41,15,15,0,0,1-2.39-1.48,6.32,6.32,0,0,1-1.95-2.3,3.53,3.53,0,0,1-.32-1.65,3.78,3.78,0,0,1,.56-1.54,7.62,7.62,0,0,1,2.05-2C156,225.58,159.44,224.7,162.88,224Z" transform="translate(291.48 -87.31)" fill="aqua"/><path d="M108.12,254.13c-1.24-.26-56.09-110-56.09-110s38.9-50,148.25-50.46c120.53-.53,146.5,43.69,147.63,44.89s-44.14,117.18-44.14,117.18-6.18,16.87-97.63,16.87C109,272.63,108.12,254.13,108.12,254.13Z" transform="translate(291.48 -87.31)" opacity="0.52" fill="url(#l)"/><circle cx="415.11" cy="73.82" r="2.48" fill="#00f3ff"/><circle cx="373.57" cy="53.74" r="3.37" fill="#00f3ff"/><circle cx="378.86" cy="6.78" r="1.7" fill="#00f3ff"/><circle cx="592.62" cy="78.11" r="3.02" fill="#00f3ff"/><circle cx="629.05" cy="21.06" r="0.68" fill="#00f3ff"/><circle cx="591.44" cy="10.92" r="1.83" fill="#00f3ff"/><circle cx="424.23" cy="4.11" r="1.97" fill="#00f3ff"/><path d="M100.47,301h-14l-5.58-14.52H55.3L50,301H36.33l24.9-63.93H74.88ZM76.71,275.72,67.9,252l-8.63,23.72Z" transform="translate(291.48 -87.31)" fill="#fcfcfc"/><path d="M149.35,301H137.1V277.37c0-5-.27-8.23-.79-9.7a6.74,6.74,0,0,0-2.55-3.42,7.31,7.31,0,0,0-4.25-1.22,9.83,9.83,0,0,0-5.71,1.74,8.82,8.82,0,0,0-3.47,4.62c-.62,1.92-.94,5.47-.94,10.64v21H107.14V254.7h11.38v6.8q6.06-7.85,15.26-7.85a18.39,18.39,0,0,1,7.41,1.46,12.53,12.53,0,0,1,5.09,3.73,13.6,13.6,0,0,1,2.39,5.15,38.23,38.23,0,0,1,.68,8.24Z" transform="translate(291.48 -87.31)" fill="#fcfcfc"/><path d="M204.24,301H192.86V294.2a18.33,18.33,0,0,1-6.69,5.91,17.18,17.18,0,0,1-7.78,1.94,17.62,17.62,0,0,1-13.67-6.43Q159,289.18,159,277.68q0-11.78,5.54-17.9a18.05,18.05,0,0,1,14-6.13q7.77,0,13.43,6.46v-23h12.25Zm-32.7-24.16q0,7.41,2.05,10.73a9.28,9.28,0,0,0,8.29,4.79,9,9,0,0,0,7.19-3.6c2-2.39,3-6,3-10.74q0-8-2.88-11.49a9.46,9.46,0,0,0-14.67-.05Q171.54,270,171.54,276.85Z" transform="translate(291.48 -87.31)" fill="#fcfcfc"/><path d="M228.05,301H215.8V254.7h11.38v6.58q2.92-4.66,5.26-6.15a9.71,9.71,0,0,1,5.29-1.48A15.58,15.58,0,0,1,245.8,256L242,266.65a10.77,10.77,0,0,0-5.76-2,6.76,6.76,0,0,0-4.36,1.42q-1.78,1.41-2.81,5.12t-1,15.52Z" transform="translate(291.48 -87.31)" fill="#fcfcfc"/><path d="M248.24,277.2a25,25,0,0,1,3-11.82,20.72,20.72,0,0,1,8.52-8.72,25.28,25.28,0,0,1,12.32-3q10.52,0,17.23,6.83T296,277.72q0,10.51-6.78,17.42a22.9,22.9,0,0,1-17.07,6.91A26.87,26.87,0,0,1,260,299.17a19.7,19.7,0,0,1-8.79-8.43A28.08,28.08,0,0,1,248.24,277.2Zm12.56.65q0,6.9,3.27,10.55a10.67,10.67,0,0,0,16.11,0q3.26-3.66,3.25-10.63,0-6.81-3.25-10.47a10.69,10.69,0,0,0-16.11,0Q260.8,271,260.8,277.85Z" transform="translate(291.48 -87.31)" fill="#fcfcfc"/><path d="M305.62,248.42V237.08h12.26v11.34Zm0,52.59V254.7h12.26V301Z" transform="translate(291.48 -87.31)" fill="#fcfcfc"/><path d="M372.9,301H361.52V294.2a18.33,18.33,0,0,1-6.69,5.91,17.22,17.22,0,0,1-7.78,1.94,17.62,17.62,0,0,1-13.67-6.43q-5.7-6.44-5.69-17.94,0-11.78,5.53-17.9a18.09,18.09,0,0,1,14-6.13q7.75,0,13.43,6.46v-23H372.9Zm-32.7-24.16q0,7.41,2.05,10.73a9.27,9.27,0,0,0,8.28,4.79,9,9,0,0,0,7.2-3.6c2-2.39,3-6,3-10.74q0-8-2.87-11.49a9.12,9.12,0,0,0-7.37-3.51,9.22,9.22,0,0,0-7.31,3.46Q340.2,270,340.2,276.85Z" transform="translate(291.48 -87.31)" fill="#fcfcfc"/></svg>