<?xml version="1.0" encoding="utf-8"?>
<!-- Generator: Adobe Illustrator 23.1.0, SVG Export Plug-In . SVG Version: 6.00 Build 0)  -->
<svg version="1.1" xmlns="http://www.w3.org/2000/svg" xmlns:xlink="http://www.w3.org/1999/xlink" x="0px" y="0px"
	 viewBox="0 0 200 200" style="enable-background:new 0 0 200 200;" xml:space="preserve">
<style type="text/css">
	.st0{fill:#9B9B9B;}
	.st1{fill:url(#SVGID_1_);}
	.st2{fill:#4F4F50;}
	.st3{fill:#545556;}
	.st4{fill:#AAABAC;}
	.st5{fill:#D4D4D5;}
	.st6{fill:#878789;}
	.st7{fill:#515253;}
	.st8{fill:#ECECEC;}
	.st9{fill:#4F5051;}
	.st10{fill:#121212;}
	.st11{fill:#555657;}
	.st12{fill:#656566;}
	.st13{fill:#555556;}
	.st14{fill:#58595A;}
	.st15{fill:#B4B4B5;}
	.st16{fill:#6B6C6C;}
	.st17{fill:#050505;}
	.st18{fill:#1F1F20;}
	.st19{fill:#59595A;}
	.st20{fill:#8B8C8D;}
	.st21{fill:#7C7C7C;}
	.st22{fill:#1C1C1C;}
	.st23{fill:#3E3E3E;}
	.st24{fill:#7B7B7B;}
	.st25{fill:#B3B4B6;}
	.st26{fill:#121213;}
	.st27{fill:#4B4C4D;}
	.st28{fill:#727273;}
	.st29{fill:#565758;}
	.st30{fill:#9D9D9E;}
	.st31{fill:#676767;}
	.st32{fill:#CECECF;}
	.st33{fill:#1E1F1F;}
	.st34{fill:#4F4F4F;}
	.st35{fill:#848485;}
	.st36{fill:#464646;}
	.st37{fill:#181818;}
	.st38{fill:#777778;}
	.st39{fill:#828282;}
	.st40{fill:#0D0D0D;}
	.st41{fill:#333333;}
	.st42{fill:#0E0E0E;}
	.st43{fill:#2F2F2F;}
	.st44{fill:#3C3C3C;}
	.st45{fill:#434343;}
	.st46{fill:#898989;}
	.st47{fill:#AEAEAF;}
	.st48{fill:#131313;}
	.st49{fill:#1F1F1F;}
	.st50{fill:#363738;}
	.st51{fill:#565656;}
	.st52{fill:#090909;}
	.st53{fill:#222222;}
	.st54{fill:#0C0C0C;}
	.st55{fill:#3D3D3D;}
	.st56{fill:#767676;}
	.st57{fill:#141414;}
	.st58{fill:#717171;}
	.st59{fill:#343434;}
	.st60{fill:#ABACAD;}
	.st61{fill:#060606;}
	.st62{fill:#6A6A6A;}
	.st63{fill:#A7A7A7;}
	.st64{fill:#646464;}
	.st65{fill:#5E5E5E;}
	.st66{fill:#2B2B2B;}
	.st67{fill:#E5E5E6;}
	.st68{fill:#6B6B6C;}
	.st69{fill:#787878;}
	.st70{fill:#575757;}
	.st71{fill:#4E4E4F;}
	.st72{fill:#444344;}
	.st73{fill:#A0A1A2;}
	.st74{fill:#646465;}
	.st75{fill:#909192;}
	.st76{fill:#ABABAC;}
	.st77{fill:#393839;}
	.st78{fill:#7C7D7D;}
	.st79{fill:#696A6C;}
	.st80{fill:#7B7B7C;}
	.st81{fill:#7C7C7D;}
	.st82{fill:#7E7E7F;}
	.st83{fill:#AFAFB0;}
	.st84{fill:#7F7F80;}
	.st85{fill:#B4B3B4;}
	.st86{fill:#A2A2A3;}
	.st87{fill:#808081;}
	.st88{fill:#818182;}
	.st89{fill:#808182;}
	.st90{fill:#535455;}
	.st91{fill:#212122;}
	.st92{fill:#BB0EE5;}
	.st93{opacity:0.37;}
	.st94{fill:none;stroke:#C44FE0;stroke-miterlimit:10;}
	.st95{fill:none;stroke:#C44FE0;stroke-miterlimit:10;stroke-dasharray:3.8926,3.8926;}
	.st96{fill:none;stroke:#C44FE0;stroke-miterlimit:10;stroke-dasharray:4.4778,4.4778;}
	.st97{fill:none;stroke:#C44FE0;stroke-miterlimit:10;stroke-dasharray:5.2318,5.2318;}
	.st98{fill:#E386F7;}
	.st99{fill:none;stroke:#C44FE0;stroke-miterlimit:10;stroke-dasharray:4.0238,4.0238;}
	.st100{fill:none;stroke:#C44FE0;stroke-miterlimit:10;stroke-dasharray:5.9381,5.9381;}
	.st101{fill:#B366C6;}
	.st102{fill:none;stroke:#C44FE0;stroke-miterlimit:10;stroke-dasharray:5.0955,5.0955;}
	.st103{fill:none;stroke:#C44FE0;stroke-miterlimit:10;stroke-dasharray:4.8557,4.8557;}
	.st104{fill:none;stroke:#C44FE0;stroke-miterlimit:10;stroke-dasharray:5.6471,5.6471;}
	.st105{fill:none;stroke:#C44FE0;stroke-miterlimit:10;stroke-dasharray:4.4726,4.4726;}
	.st106{fill:none;stroke:#C44FE0;stroke-miterlimit:10;stroke-dasharray:4.9529,4.9529;}
	.st107{fill:none;stroke:#C44FE0;stroke-miterlimit:10;stroke-dasharray:4.9463,4.9463;}
	.st108{fill:url(#SVGID_2_);}
	.st109{fill:url(#SVGID_3_);}
	.st110{fill:url(#SVGID_4_);}
	.st111{fill:none;stroke:#C44FE0;stroke-miterlimit:10;stroke-dasharray:4.0516,4.0516;}
	.st112{fill:none;stroke:#C44FE0;stroke-miterlimit:10;stroke-dasharray:3.1275,3.1275;}
	.st113{fill:none;stroke:#C44FE0;stroke-miterlimit:10;stroke-dasharray:3.6184,3.6184;}
	.st114{fill:none;stroke:#C44FE0;stroke-miterlimit:10;stroke-dasharray:3.0329,3.0329;}
	.st115{fill:none;stroke:#C44FE0;stroke-miterlimit:10;stroke-dasharray:2.8661,2.8661;}
	.st116{fill:none;stroke:#C44FE0;stroke-miterlimit:10;stroke-dasharray:3.4162,3.4162;}
	.st117{fill:none;stroke:#C44FE0;stroke-miterlimit:10;stroke-dasharray:4.0466,4.0466;}
	.st118{opacity:0.46;fill:url(#SVGID_5_);}
</style>
<g id="Capa_1">
	<g>
		<polygon class="st0" points="87.03,155.84 136.9,170.15 161.68,51.81 111.28,43.42 		"/>
		
			<linearGradient id="SVGID_1_" gradientUnits="userSpaceOnUse" x1="70.6407" y1="153.3398" x2="70.6407" y2="44.6554" gradientTransform="matrix(-0.979 -0.2039 -0.2039 0.979 212.996 23.3752)">
			<stop  offset="5.291006e-03" style="stop-color:#73BCDE"/>
			<stop  offset="0.4577" style="stop-color:#E092C9"/>
			<stop  offset="0.9947" style="stop-color:#6762B1"/>
		</linearGradient>
		<polygon class="st1" points="87.36,156.33 135.84,170.56 160.62,52.22 111.13,44.21 		"/>
		<g>
			<path class="st2" d="M158.36,50.44c1.28,0.26,2.58,0.5,3.86,0.8l-0.03,0.19c-0.57-0.1-1.13-0.19-1.69-0.27
				c-0.74-0.18-1.45-0.35-2.19-0.51L158.36,50.44z"/>
		</g>
		<g>
			<path class="st3" d="M153.37,49.63c0.89,0.14,1.76,0.34,2.62,0.61c-0.91-0.05-1.79-0.2-2.67-0.39L153.37,49.63z"/>
		</g>
		<g>
			<path class="st4" d="M155.99,50.23c0.77,0.08,1.56,0.25,2.32,0.41c0.73,0.17,1.45,0.33,2.19,0.51
				c-9.79-1.41-19.53-3.23-29.31-4.72c-0.31-0.14-0.62-0.28-0.93-0.43c0.6,0.07,1.2,0.17,1.8,0.3c0.95,0.13,1.91,0.56,2.89,0.46
				c0.85,0.08,1.69,0.23,2.53,0.45c0.88,0.14,1.77,0.45,2.68,0.41c0.77,0.02,1.55,0.25,2.32,0.4c0.95,0.13,1.91,0.56,2.89,0.46
				c0.85,0.08,1.69,0.23,2.53,0.45c0.88,0.14,1.77,0.45,2.68,0.41c0.92,0.05,1.83,0.31,2.74,0.49
				C154.2,50.03,155.09,50.19,155.99,50.23z"/>
		</g>
		<g>
			<path class="st5" d="M160.5,51.16c0.56,0.08,1.12,0.17,1.69,0.27l-0.01,0.18c-0.28,0.01-0.55,0.04-0.82,0.07
				c-0.72,0.05-1.44,0.32-2.15,0.03c-2.42-0.51-4.88-0.77-7.31-1.22c-0.9-0.17-1.8-0.54-2.72-0.46c-0.55-0.08-1.09-0.15-1.63-0.21
				c-0.89-0.22-1.78-0.43-2.67-0.61c-0.83-0.18-1.67-0.34-2.5-0.48c-0.76-0.16-1.5-0.51-2.28-0.35c-0.91-0.15-1.81-0.32-2.71-0.46
				c-0.82-0.22-1.65-0.35-2.49-0.39c-0.98-0.16-1.94-0.38-2.93-0.5c-0.68-0.16-1.32-0.32-1.99-0.46c-0.24-0.15-0.89,0.01-0.84-0.39
				c0.65,0.11,1.35,0.32,2.04,0.27C140.97,47.94,150.71,49.75,160.5,51.16z"/>
		</g>
		<g>
			<path class="st6" d="M162.19,51.43c0.71,0.22,1.64,0.78,1.44,1.65l-0.2,0.04c-0.19-0.26-0.22-0.71-0.57-0.81
				c-0.41-0.11-0.86-0.2-0.68-0.71L162.19,51.43z"/>
		</g>
		<g>
			<path class="st7" d="M147.95,48.72c0.9,0.13,1.77,0.34,2.63,0.63c-0.91,0.04-1.8-0.27-2.68-0.41L147.95,48.72z"/>
		</g>
		<g>
			<path class="st8" d="M161.37,51.68c0.27-0.04,0.54-0.06,0.82-0.07c-0.17,0.51,0.28,0.6,0.68,0.71c0.11,0.53,0.23,1.07,0.24,1.62
				c-0.29,2.31-0.83,4.58-1.3,6.87c-4.26,20.43-8.51,40.86-12.77,61.3c-1.38,6.59-2.75,13.19-4.13,19.79l-0.21-0.04
				c0.81-3.95,1.65-7.89,2.46-11.83c5.03-24.09,10.03-48.18,15.06-72.26c0.15-1.03,0.57-2.04,0.5-3.1c0-0.38-0.02-0.77-0.12-1.14
				c-0.06-0.3-0.11-0.64-0.42-0.78c-0.22-0.17-0.44-0.33-0.66-0.5C161.49,52.1,161.41,51.82,161.37,51.68z"/>
		</g>
		<g>
			<path class="st9" d="M142.52,47.82c0.94,0.21,1.94,0.3,2.84,0.67c-0.98,0.1-1.94-0.32-2.89-0.46L142.52,47.82z"/>
		</g>
		<g>
			<path class="st10" d="M159.22,51.71c0.71,0.29,1.44,0.02,2.15-0.03c0.04,0.14,0.12,0.41,0.17,0.55
				c-0.15,0.27-0.29,0.54-0.42,0.82c-0.05-0.24-0.08-0.48-0.1-0.71c-0.5,0.18-0.71,0.58-0.61,1.22c-0.84,4.14-1.8,8.27-2.54,12.43
				c-3.74,17.26-7.18,34.6-10.89,51.87c-0.09,0.28-0.27,0.83-0.36,1.1c4.37-21.62,8.97-43.19,13.45-64.79
				c-0.49-0.25,0.8-1.61,0.13-1.77c-0.56-0.12-1.12-0.22-1.68-0.31c-0.9-0.12-1.8-0.58-2.71-0.44c-0.83-0.14-1.66-0.27-2.48-0.41
				c-0.98-0.14-1.93-0.69-2.93-0.51c-1.2-0.2-2.38-0.43-3.58-0.62c-0.55-0.3-1.67-0.11-1.91-0.69c0.87,0.12,1.76,0.47,2.66,0.39
				c0.54,0.06,1.08,0.13,1.63,0.21c0.89,0.14,1.8,0.61,2.72,0.46C154.33,50.95,156.79,51.21,159.22,51.71z"/>
			<path class="st10" d="M161.98,55.68c0.16-0.54,0.48-1.63,0.64-2.17c0.1,0.37,0.11,0.76,0.12,1.14c-3.12,13.96-5.86,28.01-8.84,42
				l-0.19-0.06c-0.04-0.07-0.13-0.22-0.17-0.29C156.32,82.75,159.17,69.22,161.98,55.68z"/>
			<path class="st10" d="M103.05,85.37c1.68-7.52,2.95-15.14,4.87-22.59c-0.02,0.29-0.04,0.58-0.05,0.88
				c-1.64,7.16-3.05,14.37-4.54,21.56c-0.25,1.08-0.45,2.19-0.75,3.26C102.42,87.42,102.92,86.4,103.05,85.37z"/>
			<path class="st10" d="M156.18,76.01l0.21,0.05c-0.02,0.11-0.06,0.32-0.08,0.43c-1.4,6.74-2.83,13.48-4.2,20.23
				c-0.48,2.14-0.9,4.29-1.36,6.44l-0.21-0.04C152.4,94.08,154.29,85.05,156.18,76.01z"/>
		</g>
		<g>
			<path class="st11" d="M137.53,47c0.9,0.13,1.77,0.34,2.63,0.63c-0.91,0.03-1.8-0.27-2.68-0.41L137.53,47z"/>
		</g>
		<g>
			<path class="st12" d="M162.87,52.32c0.35,0.09,0.38,0.54,0.57,0.81c-0.1,0.27-0.21,0.54-0.33,0.81
				C163.09,53.39,162.97,52.85,162.87,52.32z"/>
		</g>
		<g>
			<path class="st13" d="M132.11,46.1c0.94,0.21,1.94,0.3,2.84,0.67c-0.98,0.1-1.93-0.33-2.89-0.46L132.11,46.1z"/>
		</g>
		<g>
			<path class="st14" d="M127.33,45.32c0.89,0.15,1.76,0.35,2.63,0.61c-0.67-0.06-1.32-0.12-1.99-0.17
				c-0.17-0.05-0.51-0.16-0.68-0.22L127.33,45.32z"/>
		</g>
		<g>
			<path class="st15" d="M129.96,45.93c0.08,0.02,0.23,0.06,0.31,0.08c0.3,0.15,0.61,0.29,0.93,0.43c-0.68,0.05-1.38-0.16-2.04-0.27
				c-0.05,0.4,0.59,0.24,0.84,0.39l-0.04,0.21c-0.78-0.16-1.54-0.35-2.33-0.46c-2.6-0.46-5.26-0.57-7.82-1.26
				c-1.24-0.62-2.71-0.49-3.91-1.16l0.23,0.02c2.79,0.39,5.51,1.37,8.32,1.55c1.18,0.08,2.35,0.33,3.53,0.29
				C128.64,45.81,129.29,45.87,129.96,45.93z"/>
		</g>
		<g>
			<path class="st16" d="M149.18,50.03c0.92-0.08,1.82,0.29,2.72,0.46C150.98,50.64,150.07,50.17,149.18,50.03z"/>
		</g>
		<g>
			<path class="st17" d="M160.4,53.56c-0.09-0.63,0.11-1.04,0.61-1.22c0.02,0.24,0.05,0.48,0.1,0.71c0.07,0.06,0.21,0.19,0.28,0.25
				c-0.07,0.04-0.22,0.13-0.3,0.17c-0.73,1.2-0.71,2.88-1.12,4.26c-1.26,6.1-2.54,12.19-3.8,18.28c-1.88,9.03-3.77,18.06-5.64,27.1
				c0.14,0.87-0.97,2.68-0.32,0.38c2.56-12.19,5.07-24.38,7.63-36.57c0.07-0.31,0.06-0.63,0.02-0.95
				C158.61,61.82,159.57,57.7,160.4,53.56z"/>
		</g>
		<g>
			<path class="st18" d="M122.51,44.76c0.29-0.42,1.26,0.11,1.77,0.23l-0.03,0.14C123.67,45.01,123.09,44.89,122.51,44.76z"/>
		</g>
		<g>
			<path class="st19" d="M124.28,44.99c0.49-0.13,1.07,0.04,1.48,0.34c-0.51,0.07-1.01,0.01-1.5-0.19L124.28,44.99z"/>
		</g>
		<g>
			<path class="st20" d="M125.76,45.33c0.38,0.05,1.15,0.16,1.53,0.21c0.17,0.05,0.51,0.16,0.68,0.22
				c-1.18,0.05-2.35-0.21-3.53-0.29c-0.95-0.24-1.89-0.46-2.84-0.67l0.04-0.2c0.29,0.05,0.57,0.1,0.86,0.17
				c0.58,0.12,1.16,0.25,1.74,0.37C124.75,45.34,125.25,45.4,125.76,45.33z"/>
		</g>
		<g>
			<path class="st21" d="M140.1,48.38c0.78-0.15,1.52,0.2,2.28,0.35C141.6,48.72,140.84,48.62,140.1,48.38z"/>
		</g>
		<g>
			<path class="st22" d="M142.38,48.73c0.83,0.14,1.67,0.3,2.5,0.48l0.01,0.22c0.24,0.58,1.37,0.38,1.91,0.69
				c-6.68-1.06-13.36-2.22-20.03-3.36c0.29-0.14,0.57-0.28,0.85-0.44c0.79,0.11,1.54,0.29,2.33,0.46c0.65,0.13,1.34,0.38,2.03,0.25
				c0.98,0.12,1.94,0.34,2.93,0.5c0.81,0.22,1.64,0.35,2.49,0.39c0.9,0.14,1.8,0.32,2.71,0.46
				C140.84,48.62,141.6,48.72,142.38,48.73z"/>
		</g>
		<g>
			<path class="st23" d="M144.88,49.21c0.89,0.18,1.78,0.39,2.67,0.61c-0.9,0.08-1.79-0.27-2.66-0.39L144.88,49.21z"/>
		</g>
		<g>
			<path class="st24" d="M161.39,53.31c-0.07-0.59,0.28-0.71,0.8-0.57c-0.1,1.27-0.33,2.52-0.6,3.77
				c-3.21,15.17-6.27,30.38-9.54,45.54c-0.76,2.38-1.32,4.82-1.93,7.25c-0.74,0.05,0.2-1.15-0.04-1.62
				c0.66-3.68,1.44-7.33,2.25-10.98c0.05,0.36,0.03,0.73,0.17,1.07c0.91-3.95,1.64-7.94,2.51-11.89c0.8-2.88,1.73-5.81,1.84-8.82
				c1.48-7.55,3.26-15.06,4.62-22.63c-0.01-0.23-0.02-0.47-0.05-0.7C161.43,53.62,161.4,53.41,161.39,53.31z"/>
		</g>
		<g>
			<path class="st25" d="M163.44,53.13l0.2-0.04c-0.02,0.11-0.06,0.34-0.09,0.45c-4.76,22.87-9.52,45.74-14.29,68.61l-0.21-0.04
				c4.25-20.43,8.51-40.86,12.77-61.3c0.47-2.28,1.01-4.55,1.3-6.87C163.22,53.67,163.33,53.4,163.44,53.13z"/>
		</g>
		<g>
			<path class="st26" d="M116.88,43.81c0.15-0.7,1.43,0.25,1.98,0.2l-0.04,0.21C118.16,44.08,117.52,43.96,116.88,43.81z"/>
		</g>
		<g>
			<path class="st27" d="M118.86,44.01c0.93,0.17,1.87,0.35,2.8,0.58l-0.04,0.2c-0.94-0.19-1.87-0.38-2.8-0.58L118.86,44.01z"/>
		</g>
		<g>
			<path class="st28" d="M134.91,47.52c0.84,0.04,1.67,0.17,2.49,0.39C136.54,47.88,135.72,47.75,134.91,47.52z"/>
		</g>
		<g>
			<path class="st29" d="M114.25,43.49c0.15-0.69,1.44,0.25,1.99,0.22l-0.11,0.21l-0.23-0.02C115.35,43.76,114.8,43.62,114.25,43.49
				z"/>
		</g>
		<g>
			<path class="st30" d="M116.24,43.71c0.16,0.03,0.48,0.08,0.63,0.11c0.65,0.14,1.28,0.27,1.93,0.41c0.93,0.2,1.86,0.38,2.8,0.58
				c0.95,0.21,1.89,0.42,2.84,0.67c-2.81-0.18-5.53-1.16-8.32-1.55L116.24,43.71z"/>
		</g>
		<g>
			<path class="st31" d="M129.99,46.56c0.67,0.13,1.31,0.3,1.99,0.46c-0.69,0.14-1.37-0.12-2.03-0.25L129.99,46.56z"/>
		</g>
		<g>
			<path class="st32" d="M111.8,43.24c0.82,0,1.65,0.06,2.45,0.25c0.54,0.13,1.09,0.27,1.64,0.41c1.2,0.67,2.68,0.54,3.91,1.16
				c-0.38-0.07-0.76-0.13-1.13-0.19c-0.75-0.14-1.48-0.43-2.24-0.3c-0.41-0.05-0.83-0.11-1.24-0.17c-0.38-0.08-1.13-0.24-1.5-0.32
				c-0.57-0.14-1.14-0.27-1.71-0.39C111.94,43.58,111.85,43.35,111.8,43.24z"/>
		</g>
		<g>
			<path class="st33" d="M119.81,45.06c2.55,0.69,5.22,0.8,7.82,1.26c-0.28,0.16-0.56,0.3-0.85,0.44c-0.5-0.04-1.01-0.03-1.51-0.06
				c-0.43-0.43-1.13-0.22-1.68-0.31l-0.22-0.02c-0.86-0.22-1.72-0.44-2.58-0.67c-0.71-0.26-1.42-0.47-2.16-0.62l0.04-0.21
				C119.05,44.93,119.43,44.99,119.81,45.06z"/>
		</g>
		<g>
			<path class="st34" d="M161.39,53.31c0.01,0.11,0.03,0.31,0.04,0.42c-1.97,7.52-3.23,15.22-4.92,22.81l-0.21-0.05
				c0.02-0.11,0.06-0.32,0.08-0.43c1.58-7.53,3.14-15.06,4.71-22.59C161.17,53.43,161.32,53.35,161.39,53.31z"/>
		</g>
		<g>
			<path class="st35" d="M110.65,43.61c0.17-0.34,0.79-0.46,1.15-0.37c0.05,0.11,0.14,0.34,0.18,0.45
				c-0.12-0.01-0.36-0.03-0.48-0.04c-0.22,0.04-0.35,0.23-0.38,0.56c-0.07-0.08-0.21-0.25-0.27-0.34
				C110.8,43.81,110.7,43.67,110.65,43.61z"/>
		</g>
		<g>
			<path class="st36" d="M158.96,53.02c0.27,0.04,0.62,0.26,0.53,0.58c-4.02,19.43-8.1,38.85-12.13,58.28
				c-0.34,1.43-0.47,2.93-1.1,4.28c0.35-1.67,0.67-3.35,0.98-5.03c0.53-2.06,0.92-4.16,1.29-6.25c0.53-2.21,1.06-4.42,1.4-6.67
				c1.66-7.55,3.24-15.12,4.74-22.69c1-4.44,1.93-8.9,2.8-13.38c0.27-2.65,0.86-5.25,1.54-7.81
				C159.06,53.9,159.02,53.45,158.96,53.02z"/>
			<path class="st36" d="M156.3,76.49l0.21,0.05c-1.38,6.72-2.83,13.43-4.17,20.16l-0.24,0.03C153.47,89.97,154.9,83.23,156.3,76.49
				z"/>
		</g>
		<g>
			<path class="st37" d="M159.98,57.73c0.4-1.38,0.38-3.06,1.12-4.26c-1.57,7.53-3.13,15.06-4.71,22.59l-0.21-0.05
				C157.44,69.92,158.72,63.83,159.98,57.73z"/>
		</g>
		<g>
			<path class="st38" d="M116.44,44.57c0.76-0.13,1.5,0.16,2.24,0.3l-0.04,0.21C117.89,44.92,117.16,44.78,116.44,44.57z"/>
		</g>
		<g>
			<path class="st39" d="M156.51,76.53c1.7-7.59,2.96-15.29,4.92-22.81c0.03,0.23,0.04,0.47,0.05,0.7c-1.79,7.1-3.06,14.34-4.6,21.5
				c0,0.28-0.01,0.84-0.01,1.12c-0.11,3-1.04,5.94-1.84,8.82c-0.87,3.96-1.61,7.94-2.51,11.89c-0.14-0.34-0.12-0.71-0.17-1.07
				C153.68,89.96,155.13,83.26,156.51,76.53z"/>
		</g>
		<g>
			<path class="st40" d="M111.13,44.21c0.03-0.33,0.15-0.52,0.38-0.56c0.69,0.27,1.42,0.49,2.16,0.61c0.54,0.37,1.05,0.41,1.54,0.14
				c0.41,0.06,0.82,0.12,1.24,0.17c0.73,0.21,1.45,0.35,2.2,0.51c0.74,0.15,1.45,0.36,2.16,0.62c-0.83-0.13-1.67-0.23-2.51-0.28
				c-0.98-0.16-1.94-0.38-2.92-0.51c-1.06-0.15-2.1-0.74-3.18-0.55c-0.09,0.02-0.26,0.04-0.35,0.06
				c-1.37,6.11-2.48,12.27-3.91,18.37c-1.93,7.45-3.19,15.08-4.87,22.59c-0.13,1.03-0.63,2.05-0.47,3.1
				c-1.68,8.75-3.64,17.45-5.39,26.2c-0.28,2.68-0.98,5.29-1.39,7.95c-2.24,10.1-4.23,20.26-6.39,30.37
				c-0.18,0.99-0.49,1.99-0.48,3.01c-0.09,0-0.27,0-0.36,0c2.58-14.87,6.08-29.58,9.01-44.38l-0.2-0.06
				c-0.49,2.22-0.92,4.45-1.4,6.67l-0.21-0.04C100.87,93.53,106.12,68.88,111.13,44.21z"/>
		</g>
		<g>
			<path class="st19" d="M111.5,43.65c0.12,0.01,0.36,0.03,0.48,0.04c0.57,0.13,1.14,0.26,1.71,0.39l-0.04,0.17
				C112.92,44.14,112.19,43.92,111.5,43.65z"/>
		</g>
		<g>
			<path class="st41" d="M123.59,46.38c0.55,0.09,1.26-0.11,1.68,0.31c1.35,0.99,3.42,0.56,4.9,1.42c-0.66-0.12-1.3-0.23-1.95-0.32
				c-3.43-0.76-6.97-0.99-10.41-1.72c-0.58-0.13-1.16-0.25-1.73-0.35c-0.32-0.13-0.96-0.4-1.28-0.54c2.84,0.65,5.73,1,8.59,1.52
				C123.44,46.62,123.54,46.46,123.59,46.38z"/>
		</g>
		<g>
			<path class="st42" d="M110.32,44.02c0.08-0.1,0.24-0.31,0.32-0.42c0.05,0.07,0.15,0.2,0.2,0.27c-0.11,0.35-0.22,0.69-0.32,1.04
				c-0.16,0.54-0.46,1.62-0.62,2.16c-3.38,16.2-6.73,32.42-10.14,48.61l-0.19-0.06C103.16,78.42,106.75,61.22,110.32,44.02z"/>
		</g>
		<g>
			<path class="st43" d="M118.29,45.41c0.84,0.05,1.67,0.15,2.51,0.28c0.85,0.23,1.71,0.45,2.58,0.67
				C121.65,46.25,119.96,45.83,118.29,45.41z"/>
		</g>
		<g>
			<path class="st44" d="M123.37,46.36l0.22,0.02c-0.05,0.08-0.15,0.24-0.2,0.32c-2.86-0.52-5.75-0.87-8.59-1.52
				c0.32,0.14,0.96,0.4,1.28,0.54c-0.81-0.04-1.65,0.04-2.39-0.35c-0.49-0.35-1.61-0.2-1.5-1.02c1.04,0.15,2.09,0.75,3.18,0.55
				c0.98,0.13,1.94,0.34,2.92,0.51C119.96,45.83,121.65,46.25,123.37,46.36z"/>
		</g>
		<g>
			<path class="st45" d="M110.85,43.87c0.07,0.09,0.2,0.26,0.27,0.34c-5,24.67-10.25,49.32-15.35,73.98
				c-0.87,3.95-1.58,7.93-2.52,11.87c0.07-0.56,0.21-1.67,0.29-2.23c5.68-27.24,11.35-54.49,17.03-81.73
				c0.03-0.25,0.03-0.49-0.01-0.74c-0.01-0.11-0.02-0.33-0.03-0.44C110.64,44.57,110.75,44.22,110.85,43.87z"/>
		</g>
		<g>
			<path class="st46" d="M156.88,75.93c1.54-7.16,2.82-14.4,4.6-21.5c-1.35,7.57-3.14,15.07-4.62,22.63
				C156.87,76.77,156.87,76.21,156.88,75.93z"/>
		</g>
		<g>
			<path class="st47" d="M162.73,54.65c0.06,1.06-0.35,2.07-0.5,3.1c-5.03,24.08-10.04,48.18-15.06,72.26l-0.21-0.04
				c2.31-11.11,4.63-22.21,6.94-33.32C156.87,82.66,159.61,68.61,162.73,54.65z"/>
		</g>
		<g>
			<path class="st48" d="M110.12,43.98l0.21,0.04c-3.58,17.2-7.17,34.4-10.74,51.6c-2.44,11.78-4.95,23.55-7.33,35.34
				c-0.03,0.13-0.08,0.4-0.1,0.53l-0.24,0.04C97.91,102.34,104.05,73.17,110.12,43.98z"/>
		</g>
		<g>
			<path class="st49" d="M109.91,47.08c0.15-0.54,0.46-1.62,0.62-2.16c0.01,0.11,0.02,0.33,0.03,0.44
				c-3.66,16.85-7.04,33.76-10.62,50.63c-0.04-0.07-0.13-0.22-0.17-0.29C103.19,79.49,106.53,63.28,109.91,47.08z"/>
		</g>
		<g>
			<path class="st50" d="M134.49,49.98c2.02-0.5,1.74,2.55,0.27,2.72c-0.86-0.04-1.49-1-1.18-1.8
				C133.79,50.51,134.13,50.22,134.49,49.98z"/>
		</g>
		<g>
			<path class="st51" d="M110.56,45.35c0.04,0.24,0.04,0.49,0.01,0.74c-5.68,27.24-11.35,54.49-17.03,81.73
				c-0.07,0.56-0.21,1.67-0.29,2.23c-1.66,8.46-3.49,16.88-5.24,25.33c-0.26,0.23-0.2,0.6-0.26,0.91c-0.27-0.36-0.22-0.79-0.14-1.2
				c1.77-8.4,3.55-16.8,5.24-25.22c2.43-11.28,4.73-22.59,7.08-33.89C103.52,79.11,106.9,62.2,110.56,45.35z"/>
		</g>
		<g>
			<path class="st52" d="M157.87,65.98c0.04,0.31,0.06,0.64-0.02,0.95c-2.56,12.19-5.07,24.38-7.63,36.57
				c-0.65,2.3,0.46,0.48,0.32-0.38l0.21,0.04c-0.94,4.52-1.89,9.03-2.82,13.55c-1.69,8.1-3.38,16.2-5.06,24.3
				c-1.88,9.03-3.76,18.07-5.65,27.1c-0.07,0.28-0.04,0.54,0.08,0.81c-0.24,0.48-0.39,1.26-1.08,1.09
				c-3.27-0.98-6.61-1.74-9.84-2.85c0.82-0.76,2,0.35,2.89,0.37c2.1,0.38,4.07,1.23,6.18,1.56c0.61,0.25,1.15-0.6,0.91-1.16
				c3.24-15.72,6.61-31.42,9.78-47.16c0.18-0.6,0.31-1.23,0.49-1.82c0.09-0.28,0.27-0.83,0.36-1.1
				C150.68,100.58,154.13,83.25,157.87,65.98z"/>
		</g>
		<g>
			<path class="st53" d="M107.88,63.65c-0.19,2.7-1.1,5.31-1.45,8c-1.04,4.5-1.96,9.02-2.84,13.55l-0.25,0.02
				C104.83,78.02,106.24,70.81,107.88,63.65z"/>
		</g>
		<g>
			<path class="st54" d="M153.7,96.58l0.19,0.06c-2.31,11.11-4.63,22.21-6.94,33.32c-2.63,12.79-5.41,25.55-7.93,38.37
				c-0.04,0.1-0.13,0.3-0.18,0.4c-0.03-0.12-0.1-0.37-0.13-0.5c1.68-7.67,3.22-15.37,4.84-23.05
				C146.95,128.99,150.28,112.78,153.7,96.58z"/>
		</g>
		<g>
			<path class="st55" d="M152.1,96.72l0.24-0.03c-0.81,3.65-1.6,7.3-2.25,10.98c-0.58,2.49-1.2,4.99-1.57,7.53
				c-0.09,0.39-0.29,1.16-0.38,1.55l-0.21-0.04c0.93-4.52,1.88-9.03,2.82-13.55C151.2,101.01,151.62,98.86,152.1,96.72z"/>
		</g>
		<g>
			<path class="st56" d="M150.13,109.29c0.61-2.43,1.17-4.87,1.93-7.25c-0.72,3.81-1.52,7.61-2.37,11.4
				c-0.47,1.24-0.85,2.52-1.23,3.79c-0.62,0,0.38-1.47,0.07-2.02c0.38-2.54,1-5.03,1.57-7.53
				C150.32,108.14,149.39,109.34,150.13,109.29z"/>
		</g>
		<g>
			<path class="st57" d="M99.58,95.63l0.19,0.06c0.04,0.07,0.13,0.22,0.17,0.29c-2.35,11.3-4.66,22.61-7.08,33.89
				c-0.15,0.27-0.46,0.82-0.61,1.09C94.63,119.17,97.14,107.41,99.58,95.63z"/>
			<path class="st57" d="M145.5,122.93c0.16-0.54,0.47-1.62,0.63-2.16c-3.17,15.74-6.53,31.44-9.78,47.16
				c0.23,0.56-0.3,1.41-0.91,1.16c-2.11-0.33-4.08-1.19-6.18-1.56c-0.89-0.02-2.08-1.13-2.89-0.37c-5-1.1-9.91-2.63-14.85-3.97
				c-0.36-0.09-1.07-0.28-1.43-0.37c-0.57-0.19-1.11-0.36-1.69-0.46c-0.66-0.18-1.29-0.31-1.93-0.51
				c-3.94-1.14-7.91-2.19-11.86-3.28c-0.65-0.17-1.28-0.29-1.91-0.46c-1.03-0.44-2.14-0.58-3.2-0.91c-0.2-0.12-0.41-0.23-0.61-0.33
				c-0.35-0.2-0.43-0.51-0.3-0.88c0.09,0,0.27,0,0.36,0c-0.02-1.02,0.29-2.02,0.48-3.01c2.16-10.12,4.15-20.27,6.39-30.37
				c-0.88,6.24-2.58,12.38-3.67,18.6c-0.54,4.78-1.98,9.41-2.68,14.17c0.02,0.13,0.06,0.39,0.07,0.52c2.36,0.51,4.65,1.28,6.97,1.93
				c3.63,0.18-2.1,0.63,1.34,0.6c1.1-0.25,2.12,0.39,3.17,0.6c-0.23,0.22-0.67-0.05-0.8,0.29c1.19,0.03,2.36,0.14,3.52,0.47
				c-0.1,0.7-1.79-0.82-1.58,0.11c5.13,1.24,10.15,2.86,15.28,4.1c0.32,0.06,0.64,0.13,0.96,0.19c0.28,0.31,0.71,0.36,1.1,0.42
				c5.42,1.28,10.73,2.99,16.15,4.29c0.06-0.36,0.11-0.73,0.13-1.09c1.22-4.94,2.19-9.98,3.33-14.95c0.16-0.27,0.3-0.56,0.36-0.87
				C141.46,142.29,143.49,132.62,145.5,122.93z"/>
		</g>
		<g>
			<path class="st58" d="M148.45,117.22c0.38-1.27,0.76-2.55,1.23-3.79c-0.65,3.53-1.44,7.03-2.17,10.55
				c-0.1,0.01-0.29,0.04-0.38,0.06c-0.77,2.27-0.14-0.1-0.27-0.88c0.34-2.15,0.84-4.27,1.27-6.41c0.1-0.39,0.29-1.16,0.38-1.55
				C148.83,115.76,147.83,117.22,148.45,117.22z"/>
		</g>
		<g>
			<path class="st59" d="M147.92,116.71l0.21,0.04c-0.44,2.13-0.93,4.25-1.27,6.41c-0.65,2.71-1.24,5.43-1.71,8.17
				c-0.55,2.28-1.05,4.57-1.43,6.88c-0.24,0.94-0.45,1.89-0.66,2.84l-0.21-0.04C144.55,132.91,146.23,124.81,147.92,116.71z"/>
		</g>
		<g>
			<path class="st60" d="M149.04,122.1l0.21,0.04c-3.32,15.85-6.57,31.72-9.93,47.56l-0.07,0.23c-0.06-0.27-0.11-0.54-0.17-0.8
				c2.24-9.01,3.85-18.18,5.83-27.25C146.3,135.29,147.66,128.7,149.04,122.1z"/>
		</g>
		<g>
			<path class="st61" d="M97.39,111.56l0.2,0.06c-2.93,14.81-6.43,29.51-9.01,44.38c-0.13,0.36-0.05,0.68,0.3,0.88
				c-0.39-0.06-0.78-0.11-1.18-0.15c0.01-0.11,0.04-0.32,0.05-0.43c0.07-0.31,0-0.68,0.26-0.91c0.72-1.29,0.74-2.84,1.12-4.24
				c2.27-10.97,4.57-21.94,6.85-32.91C96.47,116.01,96.89,113.78,97.39,111.56z"/>
		</g>
		<g>
			<path class="st62" d="M146.86,123.16c0.14,0.78-0.49,3.15,0.27,0.88c0.09-0.01,0.29-0.04,0.38-0.06
				c-0.72,3.47-1.41,6.95-2.2,10.41c0.04-0.54,0.08-1.07,0.12-1.6c-0.16,0.12-0.32,0.25-0.48,0.38c0.08-0.65,0.32-1.21,0.19-1.84
				C145.62,128.59,146.21,125.86,146.86,123.16z"/>
		</g>
		<g>
			<path class="st48" d="M95.78,118.19l0.21,0.04c-2.28,10.97-4.57,21.94-6.85,32.91c-0.38,1.4-0.41,2.95-1.12,4.24
				c1.75-8.44,3.58-16.87,5.24-25.33C94.2,126.12,94.91,122.14,95.78,118.19z"/>
		</g>
		<g>
			<path class="st63" d="M146.96,129.97l0.21,0.04c-0.81,3.94-1.65,7.88-2.46,11.83c-1.73,8.32-3.47,16.63-5.19,24.95
				c-0.05,0.55-0.21,1.06-0.49,1.54C141.54,155.52,144.33,142.76,146.96,129.97z"/>
		</g>
		<g>
			<path class="st64" d="M145.15,131.33c0.12,0.63-0.12,1.19-0.19,1.84c0.16-0.13,0.32-0.26,0.48-0.38
				c-0.04,0.53-0.09,1.06-0.12,1.6c-0.43,2.6-1.04,5.17-1.62,7.74c0.03-0.29,0.09-0.87,0.12-1.16c1.36-3.13-1.58,1.35-0.12-1.8
				c0.07-0.32,0.07-0.64,0.03-0.95C144.1,135.9,144.61,133.61,145.15,131.33z"/>
		</g>
		<g>
			<path class="st65" d="M143.73,138.21c0.03,0.32,0.04,0.64-0.03,0.95c-1.46,3.15,1.48-1.33,0.12,1.8
				c-0.03,0.29-0.09,0.87-0.12,1.16c-0.46,2.67-1.04,5.32-1.65,7.96c0.02-0.96,0.25-1.88,0.4-2.82c-1.15,0.23,0.2-1.69-0.16-2.17
				c0.22-1.36,0.51-2.71,0.79-4.05C143.28,140.1,143.49,139.15,143.73,138.21z"/>
		</g>
		<g>
			<path class="st66" d="M142.86,141.01l0.21,0.04c-0.28,1.35-0.57,2.69-0.79,4.05c-0.74,3.28-1.5,6.57-2.07,9.89
				c-1.07,4.61-1.95,9.28-2.92,13.92c-0.12-0.26-0.15-0.53-0.08-0.81C139.1,159.08,140.98,150.04,142.86,141.01z"/>
		</g>
		<g>
			<path class="st67" d="M144.71,141.84l0.21,0.04c-1.98,9.07-3.59,18.24-5.83,27.25c-0.17,0.43-0.44,0.81-0.72,1.18
				c-0.41,0.03-1.78,0.32-1.12-0.38c0.73,0.02,1.37-0.53,1.6-1.2c0.05-0.1,0.13-0.3,0.18-0.4c0.28-0.47,0.44-0.99,0.49-1.54
				C141.23,158.48,142.97,150.16,144.71,141.84z"/>
		</g>
		<g>
			<path class="st68" d="M91.91,131.54l0.24-0.04c-1.79,8.1-3.39,16.23-5.12,24.35c-0.02,0.11-0.07,0.34-0.1,0.45l-0.21-0.04
				C88.47,148.01,90.1,139.75,91.91,131.54z"/>
		</g>
		<g>
			<path class="st69" d="M92.15,131.49c0.2,0.98-0.32,1.94-0.42,2.91c-1.45,6.88-2.87,13.76-4.31,20.64
				c-0.08,0.3-0.15,0.6-0.24,0.91l-0.15-0.11C88.76,147.73,90.36,139.59,92.15,131.49z"/>
		</g>
		<g>
			<path class="st70" d="M142.28,145.11c0.35,0.48-0.99,2.39,0.16,2.17c-0.15,0.94-0.38,1.85-0.4,2.82
				c-0.64,3.68-1.48,7.32-2.28,10.97c0.07-1.86,0.64-3.64,0.96-5.46c-0.87-0.39-0.07,1.7-0.77,1.64c0.07-0.56,0.2-1.68,0.27-2.24
				C140.79,151.68,141.55,148.39,142.28,145.11z"/>
		</g>
		<g>
			<path class="st71" d="M140.22,155c-0.07,0.56-0.2,1.68-0.27,2.24c0.7,0.06-0.09-2.02,0.77-1.64c-0.33,1.81-0.89,3.6-0.96,5.46
				c-0.32,2.22-0.92,4.4-1.32,6.61c0.02,0.97-0.89,1.44-1.19,2.27c-0.66,0.7,0.71,0.41,1.12,0.38c0.19,0.52-0.81,0.27-1.12,0.49
				c-0.64-0.15-1.24-0.48-1.82-0.75c0.26-0.01,0.52-0.03,0.79-0.05c0.7,0.17,0.85-0.61,1.08-1.09
				C138.26,164.28,139.14,159.61,140.22,155z"/>
		</g>
		<g>
			<path class="st72" d="M87.42,155.04l0.2,0.05c-0.08,0.41-0.13,0.85,0.14,1.2c-0.01,0.11-0.04,0.32-0.05,0.43
				c-0.2-0.24-0.46-0.45-0.52-0.78C87.27,155.64,87.35,155.34,87.42,155.04z"/>
		</g>
		<g>
			<path class="st73" d="M87.03,155.84l0.15,0.11c0.05,0.32,0.31,0.54,0.52,0.78c-0.04,0.72,0.64,0.78,1.19,0.9l0.02,0.21
				c-0.76-0.04-2.17-0.55-1.98-1.54C86.96,156.18,87.01,155.95,87.03,155.84z"/>
		</g>
		<g>
			<path class="st74" d="M87.7,156.72c0.39,0.04,0.78,0.09,1.18,0.15c0.2,0.11,0.41,0.22,0.61,0.33c-0.17-0.02-0.51-0.04-0.67-0.06
				c-0.61,0.71,1.56,0.06,1.4,0.72c-0.33-0.06-0.99-0.19-1.32-0.25C88.34,157.51,87.67,157.44,87.7,156.72z"/>
		</g>
		<g>
			<g>
				<path class="st75" d="M88.82,157.15c0.17,0.01,0.51,0.04,0.67,0.06c1.06,0.33,2.17,0.48,3.2,0.91l-0.12,0.21
					c-0.75-0.47-2.85-0.13-0.48,0.17c0.55,0.06,1.66,0.19,2.21,0.25c0.07-0.04,0.22-0.13,0.3-0.17c3.95,1.09,7.92,2.14,11.86,3.28
					c-0.27,0.01-0.53,0.02-0.79,0.04c-0.26-0.04-0.5,0.01-0.69,0.15c0.89,0.09,1.8,0.6,2.72,0.43c0.23-0.03,0.46-0.08,0.69-0.12
					c0.58,0.09,1.12,0.26,1.69,0.46c-0.34-0.01-0.68-0.01-1.01,0.01c-0.27-0.04-0.5,0.01-0.7,0.16c0.9,0.11,1.8,0.56,2.73,0.43
					c0.11-0.01,0.32-0.02,0.43-0.03c0.09,0.09,0.26,0.26,0.34,0.34c0.75,0.42,1.74,0.8,2.63,0.59c0.29,0.04,0.59,0.08,0.77,0.34
					c0.74,0.44,1.73,0.8,2.62,0.6c0.28,0.03,0.51,0.19,0.73,0.34c0.8,0.37,1.75,0.8,2.66,0.59c0.34,0.04,0.62,0.25,0.93,0.4
					c0.82,0.36,1.75,0.74,2.67,0.59c0.19,0.06,0.36,0.15,0.53,0.28c0.8,0.36,1.75,0.83,2.67,0.58c0.35,0.03,0.67,0.18,0.95,0.39
					c0.79,0.41,1.73,0.73,2.65,0.62c1.24,0.34,2.48,0.69,3.73,1c0.59,0.27,1.18,0.6,1.82,0.75l0.04,0.22
					c-0.12-0.02-0.36-0.05-0.48-0.07c-0.36-0.08-1.08-0.22-1.44-0.3c-1.61-0.27-3.14-0.87-4.7-1.32c-0.46-0.27-0.94-0.41-1.44-0.42
					c-7.78-1.86-15.42-4.27-23.18-6.22c-5.19-1.63-10.55-2.71-15.7-4.45c-0.45-0.28-0.93-0.42-1.43-0.41l-0.02-0.21
					c0.33,0.06,0.99,0.18,1.32,0.25C90.37,157.21,88.2,157.87,88.82,157.15z M94.46,158.98l-0.04,0.21c0.81,0.17,2.42,0.5,3.23,0.67
					l0.04-0.21C96.88,159.49,95.27,159.15,94.46,158.98z M98.07,159.96l-0.04,0.2c0.99,0.25,2,0.42,3.01,0.64l0.04-0.2
					C100.08,160.34,99.07,160.16,98.07,159.96z M101.46,160.89l-0.04,0.21c0.92,0.24,1.86,0.39,2.79,0.59l0.04-0.21
					C103.34,161.24,102.39,161.07,101.46,160.89z"/>
			</g>
		</g>
		<g>
			<path class="st76" d="M92.69,158.12c0.63,0.17,1.27,0.3,1.91,0.46c-0.07,0.04-0.22,0.13-0.3,0.17c-0.58-0.14-1.16-0.28-1.73-0.43
				L92.69,158.12z"/>
		</g>
		<g>
			<path class="st77" d="M138.44,167.67l0.17,0.1c0.03,0.12,0.09,0.36,0.11,0.47c0.03,0.13,0.1,0.37,0.13,0.5
				c-0.23,0.67-0.87,1.22-1.6,1.2C137.55,169.11,138.46,168.64,138.44,167.67z"/>
		</g>
		<g>
			<path class="st78" d="M92.09,158.5c-2.37-0.31-0.27-0.65,0.48-0.17c0.57,0.14,1.15,0.28,1.73,0.43
				C93.75,158.69,92.65,158.57,92.09,158.5z"/>
		</g>
		<g>
			<path class="st79" d="M88.91,157.83c0.5-0.01,0.98,0.13,1.43,0.41C89.92,158.33,88.97,158.33,88.91,157.83z"/>
		</g>
		<g>
			<path class="st80" d="M94.46,158.98c0.81,0.17,2.42,0.5,3.23,0.67l-0.04,0.21c-0.81-0.17-2.42-0.5-3.23-0.67L94.46,158.98z"/>
		</g>
		<g>
			<path class="st81" d="M98.07,159.96c1,0.2,2.01,0.39,3.01,0.64l-0.04,0.2c-1.01-0.21-2.01-0.38-3.01-0.64L98.07,159.96z"/>
		</g>
		<g>
			<path class="st82" d="M101.46,160.89c0.93,0.18,1.87,0.35,2.79,0.59l-0.04,0.21c-0.94-0.2-1.87-0.35-2.79-0.59L101.46,160.89z"/>
		</g>
		<g>
			<path class="st83" d="M105.68,161.91c0.26-0.02,0.52-0.04,0.79-0.04c0.64,0.19,1.27,0.33,1.93,0.51
				c-0.23,0.05-0.46,0.09-0.69,0.12C107.01,162.29,106.35,162.13,105.68,161.91z"/>
		</g>
		<g>
			<path class="st84" d="M104.98,162.06c0.2-0.14,0.43-0.19,0.69-0.15c0.67,0.22,1.34,0.38,2.03,0.58
				C106.78,162.66,105.87,162.15,104.98,162.06z"/>
			<path class="st84" d="M111.88,163.73c0.87,0.19,1.75,0.39,2.63,0.59C113.62,164.53,112.62,164.15,111.88,163.73z"/>
		</g>
		<g>
			<path class="st85" d="M109.07,162.84c0.33-0.02,0.67-0.02,1.01-0.01c0.36,0.09,1.07,0.28,1.43,0.37l0.02,0.2
				c-0.11,0.01-0.32,0.02-0.43,0.03C110.42,163.22,109.75,163.05,109.07,162.84z"/>
		</g>
		<g>
			<path class="st86" d="M111.51,163.19c4.95,1.34,9.85,2.86,14.85,3.97c3.23,1.11,6.57,1.86,9.84,2.85
				c-0.26,0.02-0.53,0.03-0.79,0.05c-1.25-0.31-2.49-0.66-3.73-1c-0.88-0.23-1.76-0.43-2.65-0.62c-0.28-0.22-0.6-0.36-0.95-0.39
				c-0.89-0.2-1.78-0.39-2.67-0.58c-0.16-0.12-0.34-0.22-0.53-0.28c-0.89-0.23-1.78-0.43-2.67-0.59c-0.3-0.15-0.59-0.36-0.93-0.4
				c-0.89-0.21-1.78-0.41-2.66-0.59c-0.23-0.15-0.46-0.31-0.73-0.34c-0.88-0.21-1.75-0.41-2.62-0.6c-0.18-0.26-0.49-0.29-0.77-0.34
				c-0.88-0.2-1.76-0.4-2.63-0.59c-0.09-0.09-0.26-0.26-0.34-0.34L111.51,163.19z"/>
		</g>
		<g>
			<path class="st87" d="M108.38,162.99c0.2-0.15,0.43-0.2,0.7-0.16c0.67,0.22,1.34,0.38,2.03,0.58
				C110.18,163.56,109.27,163.11,108.38,162.99z"/>
			<path class="st87" d="M125.43,167.46c0.89,0.19,1.77,0.38,2.67,0.58C127.18,168.29,126.23,167.82,125.43,167.46z"/>
			<path class="st87" d="M129.04,168.44c0.88,0.19,1.77,0.39,2.65,0.62C130.78,169.17,129.83,168.85,129.04,168.44z"/>
		</g>
		<g>
			<path class="st80" d="M139.09,169.14c0.05,0.26,0.11,0.53,0.17,0.8c-0.08,0.88-1.24,1.11-1.96,1.08l-0.04-0.22
				c0.31-0.22,1.32,0.03,1.12-0.49C138.65,169.95,138.92,169.57,139.09,169.14z"/>
		</g>
		<g>
			<path class="st88" d="M115.28,164.65c0.87,0.19,1.75,0.39,2.62,0.6C117.01,165.45,116.02,165.09,115.28,164.65z"/>
		</g>
		<g>
			<path class="st89" d="M118.64,165.6c0.89,0.18,1.77,0.38,2.66,0.59C120.39,166.4,119.44,165.97,118.64,165.6z"/>
			<path class="st89" d="M122.23,166.59c0.9,0.16,1.79,0.36,2.67,0.59C123.98,167.33,123.05,166.95,122.23,166.59z"/>
		</g>
		<g>
			<path class="st90" d="M129.23,168.92c0.5,0.01,0.98,0.15,1.44,0.42C130.24,169.43,129.29,169.43,129.23,168.92z"/>
		</g>
		<g>
			<path class="st91" d="M135.37,170.65c0.36,0.07,1.08,0.22,1.44,0.3C136.56,171.3,135.46,171.07,135.37,170.65z"/>
		</g>
	</g>
	<g>
		<circle class="st92" cx="93.57" cy="74.34" r="1.14"/>
		<g class="st93">
			<polygon class="st92" points="84.48,85.18 74.56,71.77 93.41,74.49 105.07,87.27 			"/>
			<g>
				<polyline class="st94" points="86.97,85.43 84.48,85.18 82.99,83.17 				"/>
				<line class="st95" x1="80.68" y1="80.04" x2="77.2" y2="75.35"/>
				<polyline class="st94" points="76.04,73.78 74.56,71.77 77.03,72.13 				"/>
				<polyline class="st96" points="81.46,72.77 93.41,74.49 101.87,83.77 				"/>
				<polyline class="st94" points="103.38,85.42 105.07,87.27 102.58,87.02 				"/>
				<line class="st97" x1="97.38" y1="86.49" x2="89.57" y2="85.69"/>
			</g>
		</g>
		<g class="st93">
			<polygon class="st98" points="84.87,85.38 74.56,71.77 84.89,51.43 95.2,65.04 			"/>
			<g>
				<polyline class="st94" points="86,83.15 84.87,85.38 83.36,83.38 				"/>
				<line class="st99" x1="80.93" y1="80.18" x2="77.28" y2="75.37"/>
				<polyline class="st94" points="76.07,73.76 74.56,71.77 75.69,69.54 				"/>
				<line class="st100" x1="78.38" y1="64.25" x2="82.41" y2="56.31"/>
				<polyline class="st94" points="83.76,53.66 84.89,51.43 86.4,53.42 				"/>
				<line class="st99" x1="88.83" y1="56.63" x2="92.48" y2="61.44"/>
				<polyline class="st94" points="93.69,63.04 95.2,65.04 94.07,67.26 				"/>
				<line class="st100" x1="91.38" y1="72.56" x2="87.35" y2="80.5"/>
			</g>
		</g>
		<g class="st93">
			<polygon class="st101" points="105.07,87.27 84.87,85.38 95.2,65.04 114.61,67.51 			"/>
			<g>
				<polyline class="st94" points="106.16,85.02 105.07,87.27 102.58,87.04 				"/>
				<line class="st102" x1="97.51" y1="86.56" x2="89.9" y2="85.85"/>
				<polyline class="st94" points="87.36,85.61 84.87,85.38 86,83.15 				"/>
				<line class="st100" x1="88.69" y1="77.85" x2="92.73" y2="69.91"/>
				<polyline class="st94" points="94.07,67.26 95.2,65.04 97.68,65.35 				"/>
				<line class="st103" x1="102.5" y1="65.97" x2="109.72" y2="66.89"/>
				<polyline class="st94" points="112.13,67.2 114.61,67.51 113.52,69.76 				"/>
				<line class="st104" x1="111.07" y1="74.85" x2="107.38" y2="82.48"/>
			</g>
		</g>
		<g class="st93">
			<polygon class="st92" points="95.2,65.04 84.89,51.43 104.1,54.3 114.61,67.51 			"/>
			<g>
				<polyline class="st94" points="97.68,65.35 95.2,65.04 93.69,63.04 				"/>
				<line class="st99" x1="91.26" y1="59.84" x2="87.62" y2="55.03"/>
				<polyline class="st94" points="86.4,53.42 84.89,51.43 87.36,51.8 				"/>
				<polyline class="st105" points="91.79,52.46 104.1,54.3 111.66,63.81 				"/>
				<polyline class="st94" points="113.06,65.56 114.61,67.51 112.13,67.2 				"/>
				<line class="st103" x1="107.32" y1="66.58" x2="100.09" y2="65.66"/>
			</g>
		</g>
		<circle class="st92" cx="85.28" cy="51.63" r="1.32"/>
		<circle class="st92" cx="95.4" cy="64.64" r="1.32"/>
		<circle class="st92" cx="74.56" cy="71.77" r="1.32"/>
		<circle class="st92" cx="84.87" cy="85.38" r="1.32"/>
		<circle class="st92" cx="103.71" cy="54.1" r="1.32"/>
		<circle class="st92" cx="114.61" cy="67.51" r="1.32"/>
		<circle class="st92" cx="105.07" cy="87.27" r="1.32"/>
	</g>
	<g>
		<circle class="st92" cx="122.11" cy="132.45" r="0.62"/>
		<g class="st93">
			<polygon class="st92" points="121.99,140.18 113.16,137.91 122.09,132.57 131.44,133.97 			"/>
			<g>
				<polyline class="st94" points="124.08,138.81 121.99,140.18 119.57,139.56 				"/>
				<polyline class="st94" points="115.59,138.54 113.16,137.91 115.31,136.63 				"/>
				<polyline class="st106" points="119.56,134.09 122.09,132.57 126.52,133.23 				"/>
				<polyline class="st94" points="128.97,133.6 131.44,133.97 129.35,135.34 				"/>
			</g>
		</g>
		<g class="st93">
			<polygon class="st98" points="122.23,140.13 113.16,137.91 110.53,125.73 119.6,127.94 			"/>
			<g>
				<polyline class="st94" points="121.7,137.68 122.23,140.13 119.8,139.53 				"/>
				<polyline class="st94" points="115.59,138.51 113.16,137.91 112.64,135.47 				"/>
				<polyline class="st94" points="111.06,128.17 110.53,125.73 112.96,126.32 				"/>
				<polyline class="st94" points="117.17,127.35 119.6,127.94 120.12,130.39 				"/>
			</g>
		</g>
		<g class="st93">
			<polygon class="st101" points="131.44,133.97 122.23,140.13 119.6,127.94 128.68,122.3 			"/>
			<g>
				<polyline class="st94" points="130.87,131.54 131.44,133.97 129.36,135.36 				"/>
				<polyline class="st94" points="124.3,138.74 122.23,140.13 121.7,137.68 				"/>
				<polyline class="st94" points="120.12,130.39 119.6,127.94 121.72,126.62 				"/>
				<polyline class="st94" points="126.55,123.62 128.68,122.3 129.25,124.74 				"/>
			</g>
		</g>
		<g class="st93">
			<polygon class="st92" points="119.6,127.94 110.53,125.73 119.67,120.32 128.68,122.3 			"/>
			<g>
				<polyline class="st94" points="121.72,126.62 119.6,127.94 117.17,127.35 				"/>
				<polyline class="st94" points="112.96,126.32 110.53,125.73 112.69,124.46 				"/>
				<polyline class="st107" points="116.94,121.94 119.67,120.32 123.82,121.24 				"/>
				<polyline class="st94" points="126.24,121.77 128.68,122.3 126.55,123.62 				"/>
			</g>
		</g>
		<circle class="st92" cx="110.77" cy="125.68" r="0.72"/>
		<circle class="st92" cx="119.54" cy="127.71" r="0.72"/>
		<circle class="st92" cx="113.16" cy="137.91" r="0.72"/>
		<circle class="st92" cx="122.23" cy="140.13" r="0.72"/>
		<circle class="st92" cx="119.43" cy="120.37" r="0.72"/>
		<circle class="st92" cx="128.68" cy="122.3" r="0.72"/>
		<circle class="st92" cx="131.44" cy="133.97" r="0.72"/>
	</g>
	
		<linearGradient id="SVGID_2_" gradientUnits="userSpaceOnUse" x1="99.0872" y1="153.894" x2="94.3036" y2="177.6127" gradientTransform="matrix(0.9096 -0.4156 0.4156 0.9096 -54.7742 51.3106)">
		<stop  offset="2.645503e-03" style="stop-color:#29FFE2"/>
		<stop  offset="0.4921" style="stop-color:#8100FF"/>
		<stop  offset="1" style="stop-color:#0059EF"/>
	</linearGradient>
	<circle class="st108" cx="101.5" cy="159.5" r="10.5"/>
	
		<linearGradient id="SVGID_3_" gradientUnits="userSpaceOnUse" x1="147.0206" y1="110.4227" x2="144.4937" y2="122.9522" gradientTransform="matrix(0.6766 -0.7363 0.7363 0.6766 -53.8113 121.3808)">
		<stop  offset="2.645503e-03" style="stop-color:#29FFE2"/>
		<stop  offset="0.4921" style="stop-color:#8100FF"/>
		<stop  offset="1" style="stop-color:#0059EF"/>
	</linearGradient>
	<circle class="st109" cx="129.97" cy="91.96" r="5.55"/>
	
		<linearGradient id="SVGID_4_" gradientUnits="userSpaceOnUse" x1="118.4346" y1="34.9477" x2="115.6332" y2="48.838" gradientTransform="matrix(0.9096 -0.4156 0.4156 0.9096 -54.7742 51.3106)">
		<stop  offset="2.645503e-03" style="stop-color:#29FFE2"/>
		<stop  offset="0.4921" style="stop-color:#8100FF"/>
		<stop  offset="1" style="stop-color:#0059EF"/>
	</linearGradient>
	<circle class="st110" cx="68.76" cy="39.38" r="6.15"/>
	<g>
		<circle class="st92" cx="88.51" cy="112.7" r="0.79"/>
		<g class="st93">
			<polygon class="st92" points="79.29,116.11 77.92,104.6 88.36,112.73 91,124.46 			"/>
			<g>
				<polyline class="st94" points="81.33,117.56 79.29,116.11 79,113.63 				"/>
				<polyline class="st94" points="78.22,107.08 77.92,104.6 79.89,106.14 				"/>
				<polyline class="st111" points="83.09,108.63 88.36,112.73 90.01,120.05 				"/>
				<polyline class="st94" points="90.45,122.02 91,124.46 88.96,123.01 				"/>
				<line class="st112" x1="86.42" y1="121.19" x2="82.6" y2="118.47"/>
			</g>
		</g>
		<g class="st93">
			<polygon class="st98" points="79.46,116.36 77.92,104.6 91.16,95.88 92.7,107.64 			"/>
			<g>
				<polyline class="st94" points="81.55,114.99 79.46,116.36 79.13,113.88 				"/>
				<polyline class="st94" points="78.24,107.08 77.92,104.6 80.01,103.22 				"/>
				<line class="st113" x1="83.03" y1="101.24" x2="87.56" y2="98.25"/>
				<polyline class="st94" points="89.07,97.26 91.16,95.88 91.49,98.36 				"/>
				<polyline class="st94" points="92.38,105.17 92.7,107.64 90.61,109.02 				"/>
				<line class="st113" x1="87.59" y1="111.01" x2="83.06" y2="113.99"/>
			</g>
		</g>
		<g class="st93">
			<polygon class="st101" points="91,124.46 79.46,116.36 92.7,107.64 103.56,115.83 			"/>
			<g>
				<polyline class="st94" points="93.06,123.05 91,124.46 88.95,123.03 				"/>
				<line class="st114" x1="86.47" y1="121.29" x2="82.75" y2="118.67"/>
				<polyline class="st94" points="81.51,117.8 79.46,116.36 81.55,114.99 				"/>
				<line class="st113" x1="84.57" y1="113" x2="89.1" y2="110.01"/>
				<polyline class="st94" points="90.61,109.02 92.7,107.64 94.7,109.15 				"/>
				<line class="st115" x1="96.99" y1="110.87" x2="100.42" y2="113.46"/>
				<polyline class="st94" points="101.57,114.32 103.56,115.83 101.5,117.24 				"/>
				<line class="st116" x1="98.69" y1="119.18" x2="94.47" y2="122.08"/>
			</g>
		</g>
		<g class="st93">
			<polygon class="st92" points="92.7,107.64 91.16,95.88 101.77,104.23 103.56,115.83 			"/>
			<g>
				<polyline class="st94" points="94.7,109.15 92.7,107.64 92.38,105.17 				"/>
				<polyline class="st94" points="91.49,98.36 91.16,95.88 93.13,97.43 				"/>
				<polyline class="st117" points="96.31,99.93 101.77,104.23 102.87,111.36 				"/>
				<polyline class="st94" points="103.18,113.36 103.56,115.83 101.57,114.32 				"/>
				<line class="st115" x1="99.28" y1="112.6" x2="95.84" y2="110.01"/>
			</g>
		</g>
		<circle class="st92" cx="91.33" cy="96.14" r="0.91"/>
		<circle class="st92" cx="92.96" cy="107.48" r="0.91"/>
		<circle class="st92" cx="77.92" cy="104.6" r="0.91"/>
		<circle class="st92" cx="79.46" cy="116.36" r="0.91"/>
		<circle class="st92" cx="101.6" cy="103.98" r="0.91"/>
		<circle class="st92" cx="103.56" cy="115.83" r="0.91"/>
		<circle class="st92" cx="91" cy="124.46" r="0.91"/>
	</g>
</g>
<g id="Capa_2">
	<linearGradient id="SVGID_5_" gradientUnits="userSpaceOnUse" x1="146.7085" y1="117.1174" x2="47.2219" y2="84.2615">
		<stop  offset="2.645503e-03" style="stop-color:#29FFE2"/>
		<stop  offset="1" style="stop-color:#8100FF;stop-opacity:0"/>
	</linearGradient>
	<polygon class="st118" points="161,52 76,15 32,158 135,169 	"/>
</g>
</svg>
