<?xml version="1.0" encoding="utf-8"?>
<!-- Generator: Adobe Illustrator 23.1.0, SVG Export Plug-In . SVG Version: 6.00 Build 0)  -->
<svg version="1.1" id="Capa_1" xmlns="http://www.w3.org/2000/svg" xmlns:xlink="http://www.w3.org/1999/xlink" x="0px" y="0px"
	 viewBox="0 0 200 200" style="enable-background:new 0 0 200 200;" xml:space="preserve">
<style type="text/css">
	.st0{fill:url(#SVGID_1_);}
	.st1{fill:#00DBFF;filter:url(#AI_Estático);}
	.st2{fill:#BB0EE5;}
	.st3{opacity:0.37;}
	.st4{fill:none;stroke:#C44FE0;stroke-miterlimit:10;}
	.st5{fill:none;stroke:#C44FE0;stroke-miterlimit:10;stroke-dasharray:5.7806,5.7806;}
	.st6{fill:none;stroke:#C44FE0;stroke-miterlimit:10;stroke-dasharray:2.574,2.574;}
	.st7{fill:#E386F7;}
	.st8{fill:none;stroke:#C44FE0;stroke-miterlimit:10;stroke-dasharray:3.0082,3.0082;}
	.st9{fill:#B366C6;}
	.st10{fill:none;stroke:#C44FE0;stroke-miterlimit:10;stroke-dasharray:2.8293,2.8293;}
	.st11{fill:none;stroke:#C44FE0;stroke-miterlimit:10;stroke-dasharray:5.7732,5.7732;}
	.st12{fill:none;stroke:#C44FE0;stroke-miterlimit:10;stroke-dasharray:3.4322,3.4322;}
	.st13{fill:none;stroke:#C44FE0;stroke-miterlimit:10;stroke-dasharray:3.4272,3.4272;}
	.st14{fill:none;stroke:#C44FE0;stroke-miterlimit:10;stroke-dasharray:5.1463,5.1463;}
	.st15{fill:none;stroke:#C44FE0;stroke-miterlimit:10;stroke-dasharray:2.6101,2.6101;}
	.st16{fill:none;stroke:#C44FE0;stroke-miterlimit:10;stroke-dasharray:5.1396,5.1396;}
</style>
<filter  filterUnits="objectBoundingBox" id="AI_Estático">
	<feTurbulence  baseFrequency="0.5" id="c2" in="c1" numOctaves="10" result="c2" stitchTiles="noStitch" type="fractalNoise">
		
			<animate  accumulate="none" additive="replace" attributeName="baseFrequency" calcMode="linear" dur="5s" fill="remove" from="0.5" repeatDur="indefinite" restart="always" to="0.7">
			</animate>
	</feTurbulence>
	<feComposite  in="c2" in2="SourceAlpha" operator="in"></feComposite>
</filter>
<linearGradient id="SVGID_1_" gradientUnits="userSpaceOnUse" x1="104.4202" y1="150.3245" x2="96.6432" y2="37.4901">
	<stop  offset="0" style="stop-color:#EB0968"/>
	<stop  offset="0.1823" style="stop-color:#9068A2"/>
	<stop  offset="0.3983" style="stop-color:#29D4E5"/>
	<stop  offset="0.4947" style="stop-color:#00FFFF"/>
	<stop  offset="0.5552" style="stop-color:#07CFDF"/>
	<stop  offset="0.6493" style="stop-color:#128AB2"/>
	<stop  offset="0.728" style="stop-color:#195791"/>
	<stop  offset="0.7872" style="stop-color:#1E387D"/>
	<stop  offset="0.8202" style="stop-color:#202C75"/>
</linearGradient>
<path class="st0" d="M153.14,117.58c-0.09-2.42-1.28-4.71-2.95-6.44c-1.98-1.76-3.1-4.25-4.68-6.33c-0.47-0.94-1.29-1.62-2.15-2.19
	l0.04-0.16c-1.35-1.87-2.61-3.85-4.07-5.62c-0.18-0.47-0.61-1.12-1.1-1.48c-0.24-0.57-0.59-1.17-1.09-1.55
	c-0.21-0.4-0.41-0.9-0.83-1.11c0.09-0.23-0.18-0.39-0.27-0.57c-1.21-1.66-2.56-3.21-3.84-4.81c-0.35-0.36-0.63-0.84-1.12-1.04
	c-0.06-0.07-0.19-0.2-0.26-0.26c-0.39-0.2-1.18-0.6-1.57-0.8l-0.06,0.16c-0.58-0.2-1.35-0.32-1.9-0.14
	c-0.5-0.12-1.33-0.05-1.67,0.19c-0.29-0.08-0.68,0.01-0.86,0.25c-0.27,0.07-0.68-0.03-0.84,0.22c-0.24,0.05-0.53,0.11-0.69,0.31
	c-0.11,0.03-0.33,0.09-0.44,0.13c-1.2-2.74-2.93-5.28-4.99-7.43c-0.27-0.47-0.71-0.82-1.09-1.2c-1.43-1.38-2.75-2.94-4.37-4.09
	c-1.23-1.04-2.37-2.21-3.67-3.15c-1-0.6-1.66-1.67-2.78-2.09l0.03-0.17c-1.72-1.05-3.22-2.49-5-3.43c-0.44-0.22-0.82-0.55-1.26-0.76
	l0.04-0.15c-2.93-1.52-5.7-3.42-8.81-4.55l-0.11-0.1c0.05-0.6-1.56-0.52-1.94-0.9l-0.12-0.1l0.07-0.15
	c-0.71-0.31-1.45-0.57-2.18-0.8l-0.11-0.1c0.07-0.6-1.56-0.53-1.95-0.89c-0.07-0.04-0.22-0.12-0.29-0.16l0.1-0.16
	c-0.5-0.22-1.02-0.39-1.54-0.55c-0.27-0.12-0.82-0.36-1.09-0.48l0.08-0.16c-1.02-0.44-2.07-0.82-3.11-1.22l-0.06,0.16
	c-1.28-0.47-2.62-0.83-3.96-1.09c-0.69-0.18-1.51-0.5-2.2-0.33c-3.05-0.7-6.29-0.38-9.3,0.45c-1.64,0.46-3.28,1.07-4.61,2.15
	c-1.16,0.9-1.96,2.17-2.61,3.47c-0.07,0.12-0.2,0.38-0.27,0.5l-0.15-0.06c-0.36,0.82-0.65,1.66-0.94,2.51
	c-0.68,1.34-1.1,2.81-1.69,4.19c-0.52,1.37-1.06,2.72-1.6,4.09c-0.87,2.24-1.76,4.46-2.62,6.7c-0.36,0.66-0.21,1.41-0.21,2.12
	c0.26,2.12,0.53,4.37,1.46,6.28c0.27,0.96,0.68,2.05,1.39,2.77c-0.02,0.6,0.54,1.38,1.03,1.71c0.01,0.1,0.02,0.31,0.02,0.41
	c1.86,3.06,3.75,6.15,6.17,8.81c0.3,0.38,0.57,0.86,1.06,1.04c0.17,0.32,0.43,0.59,0.67,0.86c-0.48,1.38-0.73,2.82-0.94,4.26
	l0.12,0.08c-0.18,0.25-0.19,0.43-0.03,0.55c-0.4,1.39-0.16,2.91,0.07,4.32c1.19,2.3,2.57,4.54,4.18,6.58
	c0.13,0.42,0.58,0.71,0.72,1.17c2.13,2.86,4.1,5.87,6.38,8.6c0.16,0.42,0.3,0.96,0.55,1.32l0.01,0.16c1.17,1.84,2.59,3.51,3.94,5.21
	c0.16,1.55,1.4,2.58,2.27,3.75c0.84,0.89,1.47,2.09,2.59,2.65l-0.06,0.16c0.45,0.18,1.34,0.53,1.79,0.7l0.06-0.16
	c1.26,0.5,2.66,0.44,4,0.47c8.21,0.17,16.41-0.55,24.62-0.69c6.43-0.06,12.84,0.68,19.27,0.65c2.09-0.01,4.25,0.22,6.23-0.6
	c6.76-2.53,12.58-7.78,15.51-14.42c0.59-0.04,0.53-1.47,0.93-1.9l-0.16-0.07C152.78,121.3,153.34,119.45,153.14,117.58z
	 M66.35,69.31c0.47,0.09,0.95,0.14,1.43,0.19c1.47,0.24,2.97,0.34,4.41,0.75c0.43,0.15,0.86,0.31,1.28,0.47
	c1.32,0.52,2.64,1.05,3.98,1.51c0.28,0.11,0.85,0.34,1.14,0.45c0.21,0.09,0.42,0.19,0.63,0.28c0.21,0.32,0.59,0.43,0.93,0.57
	c0.57,0.3,1.13,0.63,1.74,0.85c0.52,0.29,1.04,0.54,1.58,0.79c0.71,0.53,1.48,1,2.32,1.3c0.93,0.77,2.08,1.22,3.11,1.84
	c0.44,0.33,0.89,0.66,1.37,0.94c0.73,0.53,1.49,1.04,2.25,1.53c1.48,1.03,2.91,2.12,4.4,3.15c0.52,0.42,1.02,0.86,1.6,1.2
	c0.65,0.52,1.27,1.1,2,1.51c0.28,0.27,0.57,0.53,0.88,0.76c0.34,0.26,0.68,0.52,1.02,0.77c1.11,0.92,2.31,1.74,3.36,2.73
	c-1.93,0.23-3.87-0.06-5.77-0.35c-1.72-0.44-3.46-0.8-5.18-1.25c-0.55-0.21-1.08-0.54-1.69-0.55c-0.66-0.22-1.31-0.46-1.95-0.71
	c-0.56-0.21-1.1-0.52-1.71-0.53c-0.49-0.17-0.98-0.34-1.46-0.52c-0.45-0.18-0.89-0.4-1.38-0.41c-0.08-0.02-0.23-0.05-0.31-0.06
	c-0.94-0.37-1.91-0.65-2.9-0.85c-3.23-0.96-6.76-0.85-9.84,0.54c-0.61,0.27-1.24,0.5-1.82,0.83c-0.21,0.12-0.41,0.25-0.62,0.36
	c-0.84-0.96-1.81-1.81-2.69-2.73c-2.49-2.55-4.84-5.24-6.88-8.17c-1.36-2.1-2.53-4.31-3.59-6.57c-0.09-0.25-0.2-0.5-0.31-0.74
	c-0.01-0.07-0.02-0.22-0.02-0.29C60.55,68.98,63.46,68.99,66.35,69.31z"/>
<path class="st1" d="M140.39,110.45c-0.09-2.42-1.28-4.71-2.95-6.44c-1.98-1.76-3.1-4.25-4.68-6.33c-0.47-0.94-1.29-1.62-2.15-2.19
	l0.04-0.16c-1.35-1.87-2.61-3.85-4.07-5.62c-0.18-0.47-0.61-1.12-1.1-1.48c-0.24-0.57-0.59-1.17-1.09-1.55
	c-0.21-0.4-0.41-0.9-0.83-1.11c0.09-0.23-0.18-0.39-0.27-0.57c-1.21-1.66-2.56-3.21-3.84-4.81c-0.35-0.36-0.63-0.84-1.12-1.04
	c-0.06-0.07-0.19-0.2-0.26-0.26c-0.39-0.2-1.18-0.6-1.57-0.8l-0.06,0.16c-0.58-0.2-1.35-0.32-1.9-0.14
	c-0.5-0.12-1.33-0.05-1.67,0.19c-0.29-0.08-0.68,0.01-0.86,0.25c-0.27,0.07-0.68-0.03-0.84,0.22c-0.24,0.05-0.53,0.11-0.69,0.31
	c-0.11,0.03-0.33,0.09-0.44,0.13c-1.2-2.74-2.93-5.28-4.99-7.43c-0.27-0.47-0.71-0.82-1.09-1.2c-1.43-1.38-2.75-2.94-4.37-4.09
	c-1.23-1.04-2.37-2.21-3.67-3.15c-1-0.6-1.66-1.67-2.78-2.09l0.03-0.17c-1.72-1.05-3.22-2.49-5-3.43c-0.44-0.22-0.82-0.55-1.26-0.76
	l0.04-0.15c-2.93-1.52-5.7-3.42-8.81-4.55l-0.11-0.1c0.05-0.6-1.56-0.52-1.94-0.9l-0.12-0.1l0.07-0.15
	c-0.71-0.31-1.45-0.57-2.18-0.8l-0.11-0.1c0.07-0.6-1.56-0.53-1.95-0.89c-0.07-0.04-0.22-0.12-0.29-0.16l0.1-0.16
	c-0.5-0.22-1.02-0.39-1.54-0.55c-0.27-0.12-0.82-0.36-1.09-0.48l0.08-0.16c-1.02-0.44-2.07-0.82-3.11-1.22l-0.06,0.16
	c-1.28-0.47-2.62-0.83-3.96-1.09c-0.69-0.18-1.51-0.5-2.2-0.33c-3.05-0.7-6.29-0.38-9.3,0.45c-1.64,0.46-3.28,1.07-4.61,2.15
	c-1.16,0.9-1.96,2.17-2.61,3.47c-0.07,0.12-0.2,0.38-0.27,0.5l-0.15-0.06c-0.36,0.82-0.65,1.66-0.94,2.51
	c-0.68,1.34-1.1,2.81-1.69,4.19c-0.52,1.37-1.06,2.72-1.6,4.09c-0.87,2.24-1.76,4.46-2.62,6.7c-0.36,0.66-0.21,1.41-0.21,2.12
	c0.26,2.12,0.53,4.37,1.46,6.28c0.27,0.96,0.68,2.05,1.39,2.77c-0.02,0.6,0.54,1.38,1.03,1.71c0.01,0.1,0.02,0.31,0.02,0.41
	c1.86,3.06,3.75,6.15,6.17,8.81c0.3,0.38,0.57,0.86,1.06,1.04c0.17,0.32,0.43,0.59,0.67,0.86c-0.48,1.38-0.73,2.82-0.94,4.26
	l0.12,0.08c-0.18,0.25-0.19,0.43-0.03,0.55c-0.4,1.39-0.16,2.91,0.07,4.32c1.19,2.3,2.57,4.54,4.18,6.58
	c0.13,0.42,0.58,0.71,0.72,1.17c2.13,2.86,4.1,5.87,6.38,8.6c0.16,0.42,0.3,0.96,0.55,1.32l0.01,0.16c1.17,1.84,2.59,3.51,3.94,5.21
	c0.16,1.55,1.4,2.58,2.27,3.75c0.84,0.89,1.47,2.09,2.59,2.65l-0.06,0.16c0.45,0.18,1.34,0.53,1.79,0.7l0.06-0.16
	c1.26,0.5,2.66,0.44,4,0.47c8.21,0.17,16.41-0.55,24.62-0.69c6.43-0.06,12.84,0.68,19.27,0.65c2.09-0.01,4.25,0.22,6.23-0.6
	c6.76-2.53,12.58-7.78,15.51-14.42c0.59-0.04,0.53-1.47,0.93-1.9l-0.16-0.07C140.03,114.17,140.59,112.32,140.39,110.45z
	 M53.6,62.18c0.47,0.09,0.95,0.14,1.43,0.19c1.47,0.24,2.97,0.34,4.41,0.75c0.43,0.15,0.86,0.31,1.28,0.47
	c1.32,0.52,2.64,1.05,3.98,1.51c0.28,0.11,0.85,0.34,1.14,0.45c0.21,0.09,0.42,0.19,0.63,0.28c0.21,0.32,0.59,0.43,0.93,0.57
	c0.57,0.3,1.13,0.63,1.74,0.85c0.52,0.29,1.04,0.54,1.58,0.79c0.71,0.53,1.48,1,2.32,1.3c0.93,0.77,2.08,1.22,3.11,1.84
	c0.44,0.33,0.89,0.66,1.37,0.94c0.73,0.53,1.49,1.04,2.25,1.53c1.48,1.03,2.91,2.12,4.4,3.15c0.52,0.42,1.02,0.86,1.6,1.2
	c0.65,0.52,1.27,1.1,2,1.51c0.28,0.27,0.57,0.53,0.88,0.76c0.34,0.26,0.68,0.52,1.02,0.77c1.11,0.92,2.31,1.74,3.36,2.73
	c-1.93,0.23-3.87-0.06-5.77-0.35c-1.72-0.44-3.46-0.8-5.18-1.25c-0.55-0.21-1.08-0.54-1.69-0.55c-0.66-0.22-1.31-0.46-1.95-0.71
	c-0.56-0.21-1.1-0.52-1.71-0.53c-0.49-0.17-0.98-0.34-1.46-0.52c-0.45-0.18-0.89-0.4-1.38-0.41c-0.08-0.02-0.23-0.05-0.31-0.06
	c-0.94-0.37-1.91-0.65-2.9-0.85c-3.23-0.96-6.76-0.85-9.84,0.54c-0.61,0.27-1.24,0.5-1.82,0.83c-0.21,0.12-0.41,0.25-0.62,0.36
	c-0.84-0.96-1.81-1.81-2.69-2.73c-2.49-2.55-4.84-5.24-6.88-8.17c-1.36-2.1-2.53-4.31-3.59-6.57c-0.09-0.25-0.2-0.5-0.31-0.74
	c-0.01-0.07-0.02-0.22-0.02-0.29C47.8,61.85,50.7,61.86,53.6,62.18z"/>
<g>
	<circle class="st2" cx="123.38" cy="49" r="0.7"/>
	<g class="st3">
		<polygon class="st2" points="126.25,57.21 116.05,58.25 123.4,49.14 133.82,46.98 		"/>
		<g>
			<polyline class="st4" points="127.74,55.2 126.25,57.21 123.77,57.46 			"/>
			<polyline class="st4" points="118.54,58 116.05,58.25 117.62,56.31 			"/>
			<polyline class="st5" points="121.25,51.81 123.4,49.14 128.54,48.07 			"/>
			<polyline class="st4" points="131.37,47.49 133.82,46.98 132.33,48.99 			"/>
			<line class="st6" x1="130.8" y1="51.06" x2="128.51" y2="54.16"/>
		</g>
	</g>
	<g class="st3">
		<polygon class="st7" points="126.48,57.07 116.05,58.25 108.54,46.41 118.97,45.22 		"/>
		<g>
			<polyline class="st4" points="125.14,54.95 126.48,57.07 124,57.35 			"/>
			<polyline class="st4" points="118.54,57.97 116.05,58.25 114.72,56.14 			"/>
			<line class="st8" x1="113.1" y1="53.6" x2="110.69" y2="49.79"/>
			<polyline class="st4" points="109.88,48.52 108.54,46.41 111.02,46.13 			"/>
			<polyline class="st4" points="116.48,45.51 118.97,45.22 120.31,47.33 			"/>
			<line class="st8" x1="121.92" y1="49.87" x2="124.34" y2="53.68"/>
		</g>
	</g>
	<g class="st3">
		<polygon class="st9" points="133.82,46.98 126.48,57.07 118.97,45.22 126.36,35.74 		"/>
		<g>
			<polyline class="st4" points="132.44,44.9 133.82,46.98 132.35,49 			"/>
			<polyline class="st4" points="127.95,55.04 126.48,57.07 125.14,54.95 			"/>
			<line class="st8" x1="123.53" y1="52.41" x2="121.11" y2="48.6"/>
			<polyline class="st4" points="120.31,47.33 118.97,45.22 120.5,43.25 			"/>
			<polyline class="st4" points="124.83,37.71 126.36,35.74 127.75,37.82 			"/>
			<line class="st10" x1="129.31" y1="40.18" x2="131.65" y2="43.72"/>
		</g>
	</g>
	<g class="st3">
		<polygon class="st2" points="118.97,45.22 108.54,46.41 116.08,37.15 126.36,35.74 		"/>
		<g>
			<polyline class="st4" points="120.5,43.25 118.97,45.22 116.48,45.51 			"/>
			<polyline class="st4" points="111.02,46.13 108.54,46.41 110.12,44.47 			"/>
			<polyline class="st11" points="113.77,40 116.08,37.15 121.03,36.47 			"/>
			<polyline class="st4" points="123.89,36.08 126.36,35.74 124.83,37.71 			"/>
		</g>
	</g>
	<circle class="st2" cx="108.77" cy="46.27" r="0.81"/>
	<circle class="st2" cx="118.82" cy="45" r="0.81"/>
	<circle class="st2" cx="116.05" cy="58.25" r="0.81"/>
	<circle class="st2" cx="126.48" cy="57.07" r="0.81"/>
	<circle class="st2" cx="115.85" cy="37.3" r="0.81"/>
	<circle class="st2" cx="126.36" cy="35.74" r="0.81"/>
	<circle class="st2" cx="133.82" cy="46.98" r="0.81"/>
</g>
<g>
	<circle class="st2" cx="53.19" cy="136.42" r="0.48"/>
	<g class="st3">
		<polygon class="st2" points="49.11,132.09 55.2,128.6 53.14,136.35 47.22,140.59 		"/>
		<g>
			<polyline class="st4" points="48.57,134.53 49.11,132.09 51.28,130.85 			"/>
			<polyline class="st4" points="53.03,129.84 55.2,128.6 54.56,131.02 			"/>
			<polyline class="st12" points="53.67,134.33 53.14,136.35 50.65,138.13 			"/>
			<polyline class="st4" points="49.25,139.13 47.22,140.59 47.76,138.15 			"/>
		</g>
	</g>
	<g class="st3">
		<polygon class="st7" points="49.01,132.24 55.2,128.6 63.19,133.92 57,137.56 		"/>
		<g>
			<polyline class="st4" points="51.09,133.63 49.01,132.24 51.16,130.98 			"/>
			<polyline class="st4" points="53.05,129.87 55.2,128.6 57.28,129.99 			"/>
			<polyline class="st4" points="61.11,132.54 63.19,133.92 61.04,135.19 			"/>
			<polyline class="st4" points="59.16,136.3 57,137.56 54.92,136.18 			"/>
		</g>
	</g>
	<g class="st3">
		<polygon class="st9" points="47.22,140.59 49.01,132.24 57,137.56 55.01,145.55 		"/>
		<g>
			<polyline class="st4" points="49.33,141.94 47.22,140.59 47.74,138.15 			"/>
			<polyline class="st4" points="48.48,134.69 49.01,132.24 51.09,133.63 			"/>
			<polyline class="st4" points="54.92,136.18 57,137.56 56.4,139.99 			"/>
			<polyline class="st4" points="55.61,143.13 55.01,145.55 52.9,144.21 			"/>
		</g>
	</g>
	<g class="st3">
		<polygon class="st2" points="57,137.56 63.19,133.92 61.05,141.81 55.01,145.55 		"/>
		<g>
			<polyline class="st4" points="56.4,139.99 57,137.56 59.16,136.3 			"/>
			<polyline class="st4" points="61.04,135.19 63.19,133.92 62.54,136.34 			"/>
			<polyline class="st13" points="61.64,139.64 61.05,141.81 58.59,143.33 			"/>
			<polyline class="st4" points="57.13,144.24 55.01,145.55 55.61,143.13 			"/>
		</g>
	</g>
	<circle class="st2" cx="63.09" cy="134.08" r="0.55"/>
	<circle class="st2" cx="57.15" cy="137.67" r="0.55"/>
	<circle class="st2" cx="55.2" cy="128.6" r="0.55"/>
	<circle class="st2" cx="49.01" cy="132.24" r="0.55"/>
	<circle class="st2" cx="61.15" cy="141.66" r="0.55"/>
	<circle class="st2" cx="55.01" cy="145.55" r="0.55"/>
	<circle class="st2" cx="47.22" cy="140.59" r="0.55"/>
</g>
<g>
	<circle class="st2" cx="145.64" cy="152.47" r="0.64"/>
	<g class="st3">
		<polygon class="st2" points="137.7,152.1 140.3,143.09 145.52,152.44 143.79,162.02 		"/>
		<g>
			<polyline class="st4" points="139.01,154.23 137.7,152.1 138.39,149.7 			"/>
			<polyline class="st4" points="139.61,145.49 140.3,143.09 141.52,145.27 			"/>
			<polyline class="st14" points="144.03,149.77 145.52,152.44 144.69,157.02 			"/>
			<polyline class="st4" points="144.23,159.56 143.79,162.02 142.48,159.89 			"/>
		</g>
	</g>
	<g class="st3">
		<polygon class="st7" points="137.74,152.34 140.3,143.09 152.92,140.77 150.36,150.02 		"/>
		<g>
			<polyline class="st4" points="140.2,151.89 137.74,152.34 138.41,149.93 			"/>
			<polyline class="st4" points="139.64,145.5 140.3,143.09 142.76,142.64 			"/>
			<line class="st15" x1="145.33" y1="142.16" x2="149.18" y2="141.45"/>
			<polyline class="st4" points="150.46,141.22 152.92,140.77 152.25,143.17 			"/>
			<polyline class="st4" points="151.03,147.61 150.36,150.02 147.9,150.47 			"/>
			<line class="st15" x1="145.33" y1="150.94" x2="141.48" y2="151.65"/>
		</g>
	</g>
	<g class="st3">
		<polygon class="st9" points="143.79,162.02 137.74,152.34 150.36,150.02 155.88,159.54 		"/>
		<g>
			<polyline class="st4" points="146.24,161.51 143.79,162.02 142.46,159.9 			"/>
			<polyline class="st4" points="139.07,154.46 137.74,152.34 140.2,151.89 			"/>
			<line class="st15" x1="142.77" y1="151.42" x2="146.62" y2="150.71"/>
			<polyline class="st4" points="147.9,150.47 150.36,150.02 151.61,152.18 			"/>
			<polyline class="st4" points="154.62,157.38 155.88,159.54 153.43,160.04 			"/>
		</g>
	</g>
	<g class="st3">
		<polygon class="st2" points="150.36,150.02 152.92,140.77 158.2,150.33 155.88,159.54 		"/>
		<g>
			<polyline class="st4" points="151.61,152.18 150.36,150.02 151.03,147.61 			"/>
			<polyline class="st4" points="152.25,143.17 152.92,140.77 154.13,142.95 			"/>
			<polyline class="st16" points="156.61,147.46 158.2,150.33 157.11,154.62 			"/>
			<polyline class="st4" points="156.49,157.12 155.88,159.54 154.62,157.38 			"/>
		</g>
	</g>
	<circle class="st2" cx="152.97" cy="141.01" r="0.74"/>
	<circle class="st2" cx="150.6" cy="149.97" r="0.74"/>
	<circle class="st2" cx="140.3" cy="143.09" r="0.74"/>
	<circle class="st2" cx="137.74" cy="152.34" r="0.74"/>
	<circle class="st2" cx="158.15" cy="150.09" r="0.74"/>
	<circle class="st2" cx="155.88" cy="159.54" r="0.74"/>
	<circle class="st2" cx="143.79" cy="162.02" r="0.74"/>
</g>
</svg>
