<svg xmlns="http://www.w3.org/2000/svg" xmlns:xlink="http://www.w3.org/1999/xlink" viewBox="0 0 131.66 156.12"><defs><linearGradient id="a" x1="70.64" y1="153.34" x2="70.64" y2="44.66" gradientTransform="matrix(-0.98, -0.2, -0.2, 0.98, 181, 8.38)" gradientUnits="userSpaceOnUse"><stop offset="0.01" stop-color="#73bcde"/><stop offset="0.46" stop-color="#e092c9"/><stop offset="0.99" stop-color="#6762b1"/></linearGradient><linearGradient id="b" x1="99.09" y1="153.89" x2="94.3" y2="177.61" gradientTransform="matrix(0.91, -0.42, 0.42, 0.91, -86.77, 36.31)" gradientUnits="userSpaceOnUse"><stop offset="0" stop-color="#29ffe2"/><stop offset="0.49" stop-color="#8100ff"/><stop offset="1" stop-color="#0059ef"/></linearGradient><linearGradient id="c" x1="147.02" y1="110.42" x2="144.49" y2="122.95" gradientTransform="matrix(0.68, -0.74, 0.74, 0.68, -85.81, 106.38)" xlink:href="#b"/><linearGradient id="d" x1="118.43" y1="34.95" x2="115.63" y2="48.84" xlink:href="#b"/><linearGradient id="e" x1="114.71" y1="102.12" x2="15.22" y2="69.26" gradientUnits="userSpaceOnUse"><stop offset="0" stop-color="#29ffe2"/><stop offset="1" stop-color="#8100ff" stop-opacity="0"/></linearGradient></defs><title>icon_ar</title><polygon points="55.03 140.84 104.9 155.15 129.68 36.81 79.28 28.43 55.03 140.84" fill="#9b9b9b"/><polygon points="55.36 141.33 103.84 155.56 128.62 37.22 79.13 29.21 55.36 141.33" fill="url(#a)"/><path d="M158.36,50.44c1.28.27,2.58.51,3.86.81l0,.18-1.69-.27-2.18-.51Z" transform="translate(-32 -15)" fill="#4f4f50"/><path d="M153.37,49.63a19.85,19.85,0,0,1,2.62.6,16.07,16.07,0,0,1-2.67-.39Z" transform="translate(-32 -15)" fill="#545556"/><path d="M156,50.23c.77.09,1.56.26,2.33.42l2.18.51c-9.79-1.41-19.53-3.22-29.31-4.72l-.92-.43q.9.1,1.8.3a12.27,12.27,0,0,0,2.89.46,16,16,0,0,1,2.53.45,14.25,14.25,0,0,0,2.67.41,14.07,14.07,0,0,1,2.32.4,12.36,12.36,0,0,0,2.89.46,15.79,15.79,0,0,1,2.53.45,13.46,13.46,0,0,0,2.68.41,18.53,18.53,0,0,1,2.74.49A16.07,16.07,0,0,0,156,50.23Z" transform="translate(-32 -15)" fill="#aaabac"/><path d="M160.5,51.16l1.69.27v.18c-.27,0-.54,0-.81.07a4.47,4.47,0,0,1-2.15,0c-2.43-.5-4.89-.76-7.32-1.22a10.2,10.2,0,0,0-2.72-.46l-1.62-.21c-.9-.22-1.79-.43-2.68-.61s-1.66-.34-2.5-.48a5.61,5.61,0,0,0-2.28-.35c-.91-.15-1.81-.33-2.71-.47a11.75,11.75,0,0,0-2.48-.39c-1-.16-1.95-.38-2.93-.5-.68-.17-1.32-.33-2-.46-.24-.16-.88,0-.83-.39a8.63,8.63,0,0,0,2,.27C141,47.94,150.71,49.75,160.5,51.16Z" transform="translate(-32 -15)" fill="#d4d4d5"/><path d="M162.19,51.43c.71.23,1.65.78,1.44,1.66l-.19,0c-.19-.27-.23-.72-.57-.81s-.86-.2-.69-.71Z" transform="translate(-32 -15)" fill="#878789"/><path d="M148,48.72a15,15,0,0,1,2.63.63,13.46,13.46,0,0,1-2.68-.41Z" transform="translate(-32 -15)" fill="#515253"/><path d="M161.37,51.68c.27,0,.54-.06.81-.07-.17.51.28.6.69.71a10.91,10.91,0,0,1,.24,1.62c-.29,2.31-.83,4.58-1.3,6.87Q155.42,91.45,149,122.1c-1.38,6.6-2.74,13.19-4.12,19.79l-.21,0c.81-3.94,1.65-7.88,2.46-11.83q7.53-36.12,15.06-72.26a14.85,14.85,0,0,0,.5-3.1,4.85,4.85,0,0,0-.11-1.14c-.07-.3-.12-.64-.43-.78l-.66-.49Z" transform="translate(-32 -15)" fill="#ececec"/><path d="M142.52,47.82a17.6,17.6,0,0,1,2.85.67,12.36,12.36,0,0,1-2.89-.46Z" transform="translate(-32 -15)" fill="#4f5051"/><path d="M159.22,51.71a4.47,4.47,0,0,0,2.15,0l.16.56a7.68,7.68,0,0,0-.41.81,5.77,5.77,0,0,1-.1-.71,1,1,0,0,0-.62,1.22c-.83,4.14-1.79,8.26-2.53,12.42-3.74,17.27-7.19,34.6-10.89,51.87l-.36,1.1c4.37-21.62,9-43.19,13.44-64.79-.49-.25.8-1.61.13-1.77s-1.12-.22-1.68-.31a9.7,9.7,0,0,0-2.71-.43l-2.48-.41c-1-.14-1.94-.68-2.94-.5-1.2-.2-2.38-.44-3.57-.63-.55-.3-1.68-.1-1.92-.68a12,12,0,0,0,2.67.39l1.62.21a8.77,8.77,0,0,0,2.72.46C154.33,51,156.79,51.21,159.22,51.71Z" transform="translate(-32 -15)" fill="#121212"/><path d="M162,55.68l.64-2.17a4.85,4.85,0,0,1,.11,1.14c-3.12,14-5.86,28-8.84,42l-.19-.07-.17-.29C156.32,82.75,159.17,69.22,162,55.68Z" transform="translate(-32 -15)" fill="#121212"/><path d="M103.05,85.37c1.69-7.52,3-15.14,4.88-22.59,0,.29,0,.58-.05.87-1.64,7.16-3,14.37-4.54,21.56-.26,1.09-.45,2.19-.76,3.26A11.36,11.36,0,0,1,103.05,85.37Z" transform="translate(-32 -15)" fill="#121212"/><path d="M156.18,76l.2,0-.08.43c-1.4,6.74-2.83,13.48-4.2,20.23-.48,2.14-.9,4.29-1.36,6.44l-.2,0Q153.33,89.57,156.18,76Z" transform="translate(-32 -15)" fill="#121212"/><path d="M137.53,47a14.81,14.81,0,0,1,2.63.63,14.25,14.25,0,0,1-2.67-.41Z" transform="translate(-32 -15)" fill="#555657"/><path d="M162.87,52.32c.34.09.38.54.57.81l-.33.81A10.91,10.91,0,0,0,162.87,52.32Z" transform="translate(-32 -15)" fill="#656566"/><path d="M132.11,46.1a17.6,17.6,0,0,1,2.85.67,12.27,12.27,0,0,1-2.89-.46Z" transform="translate(-32 -15)" fill="#555556"/><path d="M127.33,45.32a21.35,21.35,0,0,1,2.63.61l-2-.18-.69-.21Z" transform="translate(-32 -15)" fill="#58595a"/><path d="M130,45.93l.31.08.92.43a8.63,8.63,0,0,1-2-.27c0,.4.59.23.83.39l0,.21c-.78-.16-1.54-.35-2.32-.46-2.6-.46-5.27-.57-7.82-1.25-1.24-.62-2.71-.49-3.91-1.16l.23,0c2.79.39,5.51,1.37,8.32,1.55a34.51,34.51,0,0,0,3.53.28Z" transform="translate(-32 -15)" fill="#b4b4b5"/><path d="M149.18,50a10.2,10.2,0,0,1,2.72.46A8.77,8.77,0,0,1,149.18,50Z" transform="translate(-32 -15)" fill="#6b6c6c"/><path d="M160.4,53.56a1,1,0,0,1,.62-1.22,5.77,5.77,0,0,0,.1.71,3.31,3.31,0,0,1,.27.26l-.3.16c-.73,1.2-.71,2.88-1.11,4.26-1.26,6.1-2.54,12.19-3.8,18.28q-2.84,13.56-5.64,27.1c.14.87-1,2.69-.32.39,2.56-12.19,5.07-24.38,7.63-36.57a2.75,2.75,0,0,0,0-1C158.61,61.82,159.57,57.7,160.4,53.56Z" transform="translate(-32 -15)" fill="#050505"/><path d="M122.51,44.76c.3-.42,1.26.11,1.77.23l0,.14Z" transform="translate(-32 -15)" fill="#1f1f20"/><path d="M124.28,45a1.92,1.92,0,0,1,1.48.34,2.78,2.78,0,0,1-1.5-.2Z" transform="translate(-32 -15)" fill="#59595a"/><path d="M125.76,45.33l1.53.21.69.21a34.51,34.51,0,0,1-3.53-.28c-1-.25-1.89-.46-2.84-.67l0-.2c.29,0,.58.1.86.16l1.75.37A2.78,2.78,0,0,0,125.76,45.33Z" transform="translate(-32 -15)" fill="#8b8c8d"/><path d="M140.1,48.38a5.61,5.61,0,0,1,2.28.35A7.64,7.64,0,0,1,140.1,48.38Z" transform="translate(-32 -15)" fill="#7c7c7c"/><path d="M142.38,48.73c.84.14,1.67.3,2.5.48v.22c.24.58,1.37.38,1.92.68-6.69-1-13.37-2.21-20-3.36.29-.14.57-.28.85-.44.78.11,1.54.3,2.32.46a5.38,5.38,0,0,0,2,.25c1,.12,1.94.34,2.93.5a10.35,10.35,0,0,0,2.48.39c.9.14,1.8.32,2.71.47A7.64,7.64,0,0,0,142.38,48.73Z" transform="translate(-32 -15)" fill="#1c1c1c"/><path d="M144.88,49.21c.89.18,1.78.39,2.68.61a12,12,0,0,1-2.67-.39Z" transform="translate(-32 -15)" fill="#3e3e3e"/><path d="M161.39,53.31c-.06-.6.28-.72.8-.58a28.43,28.43,0,0,1-.6,3.77c-3.2,15.17-6.27,30.38-9.53,45.54-.76,2.38-1.33,4.82-1.93,7.25-.74,0,.19-1.15,0-1.62.66-3.67,1.44-7.33,2.25-11a4.78,4.78,0,0,0,.17,1.07c.91-4,1.64-7.93,2.51-11.89a38.68,38.68,0,0,0,1.84-8.82c1.48-7.55,3.27-15,4.62-22.62,0-.24,0-.47,0-.7S161.4,53.41,161.39,53.31Z" transform="translate(-32 -15)" fill="#7b7b7b"/><path d="M163.44,53.13l.19,0-.08.44q-7.16,34.32-14.3,68.62l-.21-.05q6.39-30.64,12.77-61.29c.47-2.29,1-4.56,1.3-6.87Z" transform="translate(-32 -15)" fill="#b3b4b6"/><path d="M116.88,43.81c.15-.7,1.42.25,2,.2l0,.21C118.16,44.08,117.52,44,116.88,43.81Z" transform="translate(-32 -15)" fill="#121213"/><path d="M118.86,44c.92.18,1.87.35,2.79.59l0,.2-2.8-.58Z" transform="translate(-32 -15)" fill="#4b4c4d"/><path d="M134.91,47.52a11.75,11.75,0,0,1,2.48.39A10.35,10.35,0,0,1,134.91,47.52Z" transform="translate(-32 -15)" fill="#727273"/><path d="M114.25,43.49c.15-.69,1.45.25,2,.22l-.11.21-.23,0Z" transform="translate(-32 -15)" fill="#565758"/><path d="M116.24,43.71l.64.1c.64.15,1.28.27,1.93.41l2.8.58c1,.21,1.89.42,2.84.67-2.81-.18-5.53-1.16-8.32-1.55Z" transform="translate(-32 -15)" fill="#9d9d9e"/><path d="M130,46.56c.67.13,1.31.29,2,.46a5.38,5.38,0,0,1-2-.25Z" transform="translate(-32 -15)" fill="#676767"/><path d="M111.8,43.24a11.14,11.14,0,0,1,2.45.25l1.65.41c1.2.67,2.67.54,3.91,1.16l-1.13-.2a6.37,6.37,0,0,0-2.24-.29l-1.24-.17-1.5-.32L112,43.69C111.94,43.58,111.85,43.35,111.8,43.24Z" transform="translate(-32 -15)" fill="#cececf"/><path d="M119.81,45.06c2.55.68,5.22.79,7.82,1.25-.28.16-.56.3-.85.44-.51,0-1,0-1.51-.06-.43-.42-1.13-.21-1.68-.31l-.22,0-2.57-.67a15.54,15.54,0,0,0-2.16-.62l0-.21Z" transform="translate(-32 -15)" fill="#1e1f1f"/><path d="M161.39,53.31c0,.1,0,.31.05.42-2,7.51-3.23,15.22-4.93,22.8l-.21,0,.08-.43q2.37-11.3,4.71-22.59Z" transform="translate(-32 -15)" fill="#4f4f4f"/><path d="M110.65,43.61a1.09,1.09,0,0,1,1.15-.37c0,.11.14.34.18.45l-.48,0c-.22,0-.35.23-.37.56l-.28-.34Z" transform="translate(-32 -15)" fill="#848485"/><path d="M159,53c.27,0,.62.26.53.58q-6,29.15-12.13,58.28a21.7,21.7,0,0,1-1.1,4.28c.35-1.67.66-3.35,1-5,.53-2.06.92-4.16,1.29-6.25.52-2.21,1.05-4.42,1.39-6.67q2.49-11.31,4.74-22.69,1.5-6.66,2.8-13.37A48.5,48.5,0,0,1,159,54.33,4.8,4.8,0,0,0,159,53Z" transform="translate(-32 -15)" fill="#464646"/><path d="M156.3,76.49l.21,0c-1.38,6.73-2.83,13.43-4.17,20.16l-.24,0C153.47,90,154.9,83.23,156.3,76.49Z" transform="translate(-32 -15)" fill="#464646"/><path d="M160,57.73c.4-1.38.38-3.06,1.11-4.26q-2.35,11.3-4.71,22.59l-.2,0C157.44,69.92,158.72,63.83,160,57.73Z" transform="translate(-32 -15)" fill="#181818"/><path d="M116.44,44.57a6.37,6.37,0,0,1,2.24.29l0,.21C117.89,44.92,117.16,44.78,116.44,44.57Z" transform="translate(-32 -15)" fill="#777778"/><path d="M156.51,76.53c1.7-7.58,3-15.29,4.93-22.8,0,.23,0,.46,0,.7-1.79,7.1-3.06,14.34-4.6,21.5,0,.28,0,.84,0,1.12A38.68,38.68,0,0,1,155,85.87c-.87,4-1.6,7.94-2.51,11.89a4.78,4.78,0,0,1-.17-1.07C153.68,90,155.13,83.26,156.51,76.53Z" transform="translate(-32 -15)" fill="#828282"/><path d="M111.13,44.21c0-.33.15-.52.37-.56a10.66,10.66,0,0,0,2.16.61,1.39,1.39,0,0,0,1.54.14l1.24.17c.72.21,1.45.35,2.2.5a15.54,15.54,0,0,1,2.16.62c-.84-.13-1.67-.23-2.51-.28s-1.94-.38-2.92-.51-2.1-.74-3.18-.55l-.35.06c-1.37,6.11-2.48,12.27-3.91,18.37-1.93,7.45-3.19,15.07-4.88,22.59a11.36,11.36,0,0,0-.47,3.1c-1.68,8.76-3.64,17.46-5.38,26.2-.28,2.68-1,5.29-1.39,8-2.24,10.1-4.23,20.26-6.4,30.37a15.34,15.34,0,0,0-.47,3h-.36c2.58-14.87,6.07-29.58,9-44.38l-.2-.06c-.5,2.22-.92,4.45-1.4,6.67l-.21,0C100.87,93.53,106.12,68.88,111.13,44.21Z" transform="translate(-32 -15)" fill="#0d0d0d"/><path d="M111.5,43.65l.48,0,1.72.39,0,.18A10.66,10.66,0,0,1,111.5,43.65Z" transform="translate(-32 -15)" fill="#59595a"/><path d="M123.59,46.38c.55.1,1.25-.11,1.68.31,1.35,1,3.42.56,4.9,1.42-.66-.12-1.3-.23-1.95-.32-3.43-.76-7-1-10.41-1.72-.58-.13-1.16-.25-1.73-.35l-1.28-.54c2.83.66,5.72,1,8.59,1.52Z" transform="translate(-32 -15)" fill="#333"/><path d="M110.32,44c.09-.1.25-.31.33-.41l.2.26c-.1.35-.21.7-.32,1-.16.54-.46,1.62-.62,2.17-3.38,16.2-6.72,32.41-10.14,48.61l-.19-.06Q105,69.82,110.32,44Z" transform="translate(-32 -15)" fill="#0e0e0e"/><path d="M118.29,45.41c.84.05,1.67.15,2.51.28l2.57.67A28.42,28.42,0,0,1,118.29,45.41Z" transform="translate(-32 -15)" fill="#2f2f2f"/><path d="M123.37,46.36l.22,0-.2.32c-2.87-.52-5.76-.86-8.59-1.52l1.28.54a5.52,5.52,0,0,1-2.39-.35c-.49-.36-1.61-.2-1.5-1,1,.15,2.09.75,3.18.55,1,.13,1.94.35,2.92.51A28.42,28.42,0,0,0,123.37,46.36Z" transform="translate(-32 -15)" fill="#3c3c3c"/><path d="M110.85,43.87l.28.34c-5,24.67-10.26,49.32-15.35,74-.87,4-1.58,7.93-2.52,11.87l.28-2.24q8.52-40.86,17-81.73a2.62,2.62,0,0,0,0-.74c0-.11,0-.33,0-.44C110.64,44.57,110.75,44.22,110.85,43.87Z" transform="translate(-32 -15)" fill="#434343"/><path d="M156.88,75.93c1.54-7.16,2.81-14.4,4.6-21.5-1.35,7.57-3.14,15.07-4.62,22.62C156.87,76.77,156.87,76.21,156.88,75.93Z" transform="translate(-32 -15)" fill="#898989"/><path d="M162.73,54.65a14.85,14.85,0,0,1-.5,3.1Q154.67,93.89,147.17,130l-.21,0q3.45-16.66,6.93-33.32C156.87,82.66,159.61,68.61,162.73,54.65Z" transform="translate(-32 -15)" fill="#aeaeaf"/><path d="M110.12,44l.2,0Q105,69.82,99.58,95.63c-2.44,11.78-5,23.54-7.33,35.33,0,.14-.08.4-.1.53l-.24,0C97.91,102.34,104.05,73.17,110.12,44Z" transform="translate(-32 -15)" fill="#131313"/><path d="M109.91,47.08c.16-.55.46-1.63.62-2.17,0,.11,0,.33,0,.44-3.66,16.85-7,33.76-10.62,50.63l-.17-.29C103.19,79.49,106.53,63.28,109.91,47.08Z" transform="translate(-32 -15)" fill="#1f1f1f"/><path d="M134.49,50c2-.49,1.75,2.56.27,2.72a1.38,1.38,0,0,1-1.18-1.8A2.67,2.67,0,0,1,134.49,50Z" transform="translate(-32 -15)" fill="#363738"/><path d="M110.56,45.35a2.62,2.62,0,0,1,0,.74q-8.52,40.86-17,81.73l-.28,2.24c-1.66,8.45-3.49,16.88-5.24,25.32-.26.24-.2.6-.26.92a1.45,1.45,0,0,1-.14-1.2c1.77-8.41,3.55-16.81,5.24-25.23,2.42-11.28,4.73-22.59,7.08-33.89C103.52,79.11,106.9,62.2,110.56,45.35Z" transform="translate(-32 -15)" fill="#565656"/><path d="M157.87,66a2.75,2.75,0,0,1,0,1c-2.56,12.19-5.07,24.38-7.63,36.57-.66,2.3.46.48.32-.39l.2,0c-.93,4.52-1.88,9-2.82,13.55q-2.53,12.15-5.06,24.3-2.82,13.55-5.65,27.1a1.17,1.17,0,0,0,.08.8c-.23.49-.38,1.26-1.08,1.1-3.27-1-6.61-1.74-9.84-2.85.81-.76,2,.35,2.89.37,2.1.38,4.07,1.23,6.18,1.56.61.25,1.15-.59.91-1.16,3.25-15.72,6.61-31.42,9.78-47.16.17-.6.31-1.22.49-1.82l.36-1.1C150.68,100.58,154.13,83.25,157.87,66Z" transform="translate(-32 -15)" fill="#090909"/><path d="M107.88,63.65c-.19,2.71-1.1,5.31-1.45,8-1,4.5-2,9-2.85,13.55h-.24C104.83,78,106.24,70.81,107.88,63.65Z" transform="translate(-32 -15)" fill="#222"/><path d="M153.7,96.58l.19.07Q150.44,113.32,147,130c-2.63,12.79-5.42,25.55-7.93,38.37-.05.1-.13.3-.18.4,0-.13-.1-.37-.13-.5,1.68-7.67,3.22-15.36,4.84-23C147,129,150.28,112.78,153.7,96.58Z" transform="translate(-32 -15)" fill="#0c0c0c"/><path d="M152.1,96.72l.24,0c-.81,3.65-1.59,7.31-2.25,11-.58,2.5-1.2,5-1.57,7.53-.1.39-.29,1.17-.38,1.55l-.22,0c.94-4.52,1.89-9,2.82-13.55C151.2,101,151.62,98.86,152.1,96.72Z" transform="translate(-32 -15)" fill="#3d3d3d"/><path d="M150.13,109.29c.6-2.43,1.17-4.87,1.93-7.25q-1.09,5.71-2.38,11.4c-.47,1.24-.85,2.51-1.23,3.78-.62,0,.38-1.46.07-2,.37-2.53,1-5,1.57-7.53C150.32,108.14,149.39,109.34,150.13,109.29Z" transform="translate(-32 -15)" fill="#767676"/><path d="M99.58,95.63l.19.06.17.29c-2.35,11.3-4.66,22.61-7.08,33.89L92.25,131C94.63,119.17,97.14,107.41,99.58,95.63Z" transform="translate(-32 -15)" fill="#141414"/><path d="M145.5,122.93l.63-2.16c-3.17,15.74-6.53,31.44-9.78,47.16.24.57-.3,1.41-.91,1.16-2.11-.33-4.08-1.18-6.18-1.56-.89,0-2.08-1.13-2.89-.37-5-1.1-9.91-2.63-14.86-4l-1.42-.37a10.57,10.57,0,0,0-1.69-.45c-.66-.18-1.3-.31-1.93-.51-4-1.14-7.91-2.19-11.87-3.28-.64-.17-1.28-.29-1.91-.46a32.38,32.38,0,0,0-3.2-.91c-.2-.12-.41-.23-.61-.33a.66.66,0,0,1-.3-.88h.36a15.34,15.34,0,0,1,.47-3c2.17-10.11,4.16-20.27,6.4-30.37-.88,6.24-2.58,12.37-3.67,18.59-.54,4.79-2,9.42-2.69,14.18l.08.51c2.36.51,4.65,1.28,7,1.93,3.63.17-2.1.63,1.34.6,1.1-.25,2.12.39,3.17.6-.22.22-.67-.06-.8.28a14.48,14.48,0,0,1,3.52.47c-.1.7-1.79-.82-1.58.11,5.12,1.24,10.15,2.86,15.28,4.1l1,.2a1.74,1.74,0,0,0,1.1.41c5.43,1.28,10.74,3,16.15,4.3a10.49,10.49,0,0,0,.14-1.09c1.22-4.95,2.18-10,3.32-15a2.55,2.55,0,0,0,.36-.87Q142.46,137.45,145.5,122.93Z" transform="translate(-32 -15)" fill="#141414"/><path d="M148.45,117.22c.38-1.27.76-2.54,1.23-3.78-.65,3.52-1.43,7-2.16,10.54l-.39.06c-.76,2.27-.13-.1-.27-.88.34-2.15.84-4.27,1.28-6.41.09-.38.28-1.16.38-1.55C148.83,115.76,147.83,117.22,148.45,117.22Z" transform="translate(-32 -15)" fill="#717171"/><path d="M147.92,116.71l.22,0c-.44,2.14-.94,4.26-1.28,6.41-.65,2.7-1.24,5.43-1.71,8.17-.54,2.28-1.05,4.57-1.42,6.88-.24.94-.45,1.89-.66,2.84l-.21,0Q145.4,128.86,147.92,116.71Z" transform="translate(-32 -15)" fill="#343434"/><path d="M149,122.1l.21.05c-3.31,15.85-6.57,31.71-9.93,47.56l-.07.23c-.06-.27-.11-.54-.16-.8,2.23-9,3.84-18.18,5.83-27.25C146.3,135.29,147.66,128.7,149,122.1Z" transform="translate(-32 -15)" fill="#abacad"/><path d="M97.39,111.56l.2.06c-2.94,14.8-6.43,29.51-9,44.38a.66.66,0,0,0,.3.88l-1.18-.16.06-.42c.06-.32,0-.68.26-.92.71-1.29.74-2.84,1.12-4.24q3.4-16.45,6.85-32.91C96.47,116,96.89,113.78,97.39,111.56Z" transform="translate(-32 -15)" fill="#060606"/><path d="M146.86,123.16c.14.78-.49,3.15.27.88l.39-.06c-.72,3.47-1.41,7-2.2,10.41l.12-1.6-.48.38a5.53,5.53,0,0,0,.19-1.84C145.62,128.59,146.21,125.86,146.86,123.16Z" transform="translate(-32 -15)" fill="#6a6a6a"/><path d="M95.78,118.19l.21,0q-3.42,16.45-6.85,32.91c-.38,1.4-.41,3-1.12,4.24,1.75-8.44,3.58-16.87,5.24-25.32C94.2,126.12,94.91,122.14,95.78,118.19Z" transform="translate(-32 -15)" fill="#131313"/><path d="M147,130l.21,0c-.81,4-1.65,7.89-2.46,11.83q-2.61,12.48-5.2,25a3.8,3.8,0,0,1-.48,1.54C141.54,155.52,144.33,142.76,147,130Z" transform="translate(-32 -15)" fill="#a7a7a7"/><path d="M145.15,131.33a5.53,5.53,0,0,1-.19,1.84l.48-.38-.12,1.6c-.43,2.6-1,5.17-1.63,7.74,0-.29.1-.87.13-1.16,1.35-3.13-1.59,1.35-.12-1.8a3.1,3.1,0,0,0,0-1C144.1,135.9,144.61,133.61,145.15,131.33Z" transform="translate(-32 -15)" fill="#646464"/><path d="M143.73,138.21a3.1,3.1,0,0,1,0,1c-1.47,3.15,1.47-1.33.12,1.8,0,.29-.1.87-.13,1.16-.46,2.67-1,5.32-1.65,8a20.59,20.59,0,0,1,.4-2.82c-1.15.23.2-1.69-.16-2.16.22-1.37.51-2.71.79-4.06C143.28,140.1,143.49,139.15,143.73,138.21Z" transform="translate(-32 -15)" fill="#5e5e5e"/><path d="M142.86,141l.21,0c-.28,1.35-.57,2.69-.79,4.06-.73,3.28-1.49,6.57-2.06,9.89-1.08,4.61-2,9.28-2.93,13.91a1.17,1.17,0,0,1-.08-.8Q140,154.57,142.86,141Z" transform="translate(-32 -15)" fill="#2b2b2b"/><path d="M144.71,141.84l.21,0c-2,9.07-3.6,18.24-5.83,27.25a4.85,4.85,0,0,1-.72,1.17c-.41,0-1.78.32-1.12-.38a1.73,1.73,0,0,0,1.6-1.19c.05-.1.13-.3.18-.4a3.8,3.8,0,0,0,.48-1.54Q142.09,154.32,144.71,141.84Z" transform="translate(-32 -15)" fill="#e5e5e6"/><path d="M91.91,131.54l.24,0c-1.79,8.1-3.39,16.24-5.12,24.35,0,.11-.07.34-.09.45l-.21,0C88.47,148,90.1,139.75,91.91,131.54Z" transform="translate(-32 -15)" fill="#6b6b6c"/><path d="M92.15,131.49c.2,1-.32,1.94-.42,2.91-1.45,6.88-2.86,13.76-4.31,20.64-.07.3-.15.6-.23.91l-.16-.11C88.76,147.73,90.36,139.59,92.15,131.49Z" transform="translate(-32 -15)" fill="#787878"/><path d="M142.28,145.11c.36.47-1,2.39.16,2.16a20.59,20.59,0,0,0-.4,2.82c-.64,3.68-1.48,7.32-2.28,11a39,39,0,0,1,1-5.46c-.87-.38-.07,1.7-.77,1.64l.27-2.24C140.79,151.68,141.55,148.39,142.28,145.11Z" transform="translate(-32 -15)" fill="#575757"/><path d="M140.22,155l-.27,2.24c.7.06-.1-2,.77-1.64a39,39,0,0,0-1,5.46c-.33,2.22-.93,4.4-1.32,6.61,0,1-.89,1.44-1.19,2.26-.66.7.71.41,1.12.38.19.52-.81.28-1.12.49a9.14,9.14,0,0,1-1.83-.75l.79,0c.7.16.85-.61,1.08-1.1C138.26,164.28,139.14,159.61,140.22,155Z" transform="translate(-32 -15)" fill="#4e4e4f"/><path d="M87.42,155l.2.06a1.45,1.45,0,0,0,.14,1.2l-.06.42a1.71,1.71,0,0,1-.51-.77C87.27,155.64,87.35,155.34,87.42,155Z" transform="translate(-32 -15)" fill="#444344"/><path d="M87,155.84l.16.11a1.71,1.71,0,0,0,.51.77c0,.72.64.79,1.19.9l0,.21c-.76,0-2.16-.54-2-1.54C87,156.18,87,156,87,155.84Z" transform="translate(-32 -15)" fill="#a0a1a2"/><path d="M87.7,156.72l1.18.16c.2.1.41.21.61.33l-.67-.06c-.62.72,1.55.06,1.39.72l-1.32-.25C88.34,157.51,87.67,157.44,87.7,156.72Z" transform="translate(-32 -15)" fill="#646465"/><path d="M88.82,157.15l.67.06a32.38,32.38,0,0,1,3.2.91l-.12.21c-.75-.47-2.85-.13-.48.17l2.21.26.3-.18c4,1.09,7.92,2.14,11.87,3.28-.27,0-.53,0-.79,0a.93.93,0,0,0-.7.15c.89.09,1.8.6,2.72.43l.7-.12a10.57,10.57,0,0,1,1.69.45c-.34,0-.68,0-1,0a.91.91,0,0,0-.69.15,9.73,9.73,0,0,0,2.73.43l.42,0,.35.34a3.86,3.86,0,0,0,2.63.59,1,1,0,0,1,.77.33,3.85,3.85,0,0,0,2.62.61,1.73,1.73,0,0,1,.74.34,4.3,4.3,0,0,0,2.66.59,3,3,0,0,1,.93.4,4.89,4.89,0,0,0,2.67.59,1.93,1.93,0,0,1,.53.28,4.12,4.12,0,0,0,2.67.58,1.73,1.73,0,0,1,.94.4,4.73,4.73,0,0,0,2.65.62c1.24.33,2.48.68,3.73,1a9.14,9.14,0,0,0,1.83.75l0,.22-.48-.07-1.44-.3a42.51,42.51,0,0,1-4.7-1.31,2.92,2.92,0,0,0-1.44-.42c-7.78-1.87-15.42-4.27-23.18-6.23-5.2-1.63-10.55-2.71-15.71-4.45a2.64,2.64,0,0,0-1.43-.41l0-.21,1.32.25C90.37,157.21,88.2,157.87,88.82,157.15ZM94.46,159l0,.21,3.22.67,0-.21Zm3.61,1,0,.2c1,.25,2,.42,3,.64l0-.21C100.08,160.34,99.07,160.16,98.07,160Zm3.39.93,0,.21c.92.23,1.85.38,2.79.58l0-.2C103.34,161.24,102.39,161.07,101.46,160.89Z" transform="translate(-32 -15)" fill="#909192"/><path d="M92.69,158.12c.63.17,1.27.29,1.91.46l-.3.18-1.73-.43Z" transform="translate(-32 -15)" fill="#ababac"/><path d="M138.44,167.67l.17.1c0,.12.08.35.11.47s.1.37.13.5a1.73,1.73,0,0,1-1.6,1.19C137.55,169.11,138.46,168.64,138.44,167.67Z" transform="translate(-32 -15)" fill="#393839"/><path d="M92.09,158.5c-2.37-.3-.27-.64.48-.17l1.73.43Z" transform="translate(-32 -15)" fill="#7c7d7d"/><path d="M88.91,157.83a2.64,2.64,0,0,1,1.43.41C89.92,158.33,89,158.33,88.91,157.83Z" transform="translate(-32 -15)" fill="#696a6c"/><path d="M94.46,159l3.23.67,0,.21-3.22-.67Z" transform="translate(-32 -15)" fill="#7b7b7c"/><path d="M98.07,160c1,.2,2,.38,3,.63l0,.21c-1-.22-2-.39-3-.64Z" transform="translate(-32 -15)" fill="#7c7c7d"/><path d="M101.46,160.89c.93.18,1.88.35,2.8.59l0,.2c-.94-.2-1.87-.35-2.79-.58Z" transform="translate(-32 -15)" fill="#7e7e7f"/><path d="M105.68,161.91c.26,0,.52,0,.79,0,.63.2,1.27.33,1.93.51l-.7.12C107,162.29,106.35,162.13,105.68,161.91Z" transform="translate(-32 -15)" fill="#afafb0"/><path d="M105,162.06a.93.93,0,0,1,.7-.15c.67.22,1.33.38,2,.58C106.78,162.66,105.87,162.15,105,162.06Z" transform="translate(-32 -15)" fill="#7f7f80"/><path d="M111.88,163.73c.87.19,1.75.38,2.63.59A3.86,3.86,0,0,1,111.88,163.73Z" transform="translate(-32 -15)" fill="#7f7f80"/><path d="M109.07,162.84c.34,0,.68,0,1,0l1.42.37,0,.2-.42,0C110.42,163.22,109.75,163.05,109.07,162.84Z" transform="translate(-32 -15)" fill="#b4b3b4"/><path d="M111.51,163.19c4.95,1.34,9.85,2.87,14.86,4,3.23,1.11,6.57,1.87,9.84,2.85l-.79,0c-1.25-.31-2.49-.66-3.73-1-.88-.23-1.76-.44-2.65-.62a1.73,1.73,0,0,0-.94-.4l-2.67-.58a1.93,1.93,0,0,0-.53-.28c-.89-.23-1.78-.43-2.67-.59a3,3,0,0,0-.93-.4c-.89-.21-1.78-.41-2.66-.59a1.73,1.73,0,0,0-.74-.34c-.87-.22-1.75-.42-2.62-.61a1,1,0,0,0-.77-.33c-.88-.21-1.76-.4-2.63-.59l-.35-.34Z" transform="translate(-32 -15)" fill="#a2a2a3"/><path d="M108.38,163a.91.91,0,0,1,.69-.15c.68.21,1.35.38,2,.58A9.73,9.73,0,0,1,108.38,163Z" transform="translate(-32 -15)" fill="#808081"/><path d="M125.43,167.46l2.67.58A4.12,4.12,0,0,1,125.43,167.46Z" transform="translate(-32 -15)" fill="#808081"/><path d="M129,168.44c.89.18,1.77.39,2.65.62A4.73,4.73,0,0,1,129,168.44Z" transform="translate(-32 -15)" fill="#808081"/><path d="M139.09,169.14c0,.26.1.53.16.8-.07.88-1.24,1.12-2,1.08l0-.22c.31-.21,1.31,0,1.12-.49A4.85,4.85,0,0,0,139.09,169.14Z" transform="translate(-32 -15)" fill="#7b7b7c"/><path d="M115.28,164.65c.87.19,1.75.39,2.62.61A3.85,3.85,0,0,1,115.28,164.65Z" transform="translate(-32 -15)" fill="#818182"/><path d="M118.64,165.6c.88.18,1.77.38,2.66.59A4.3,4.3,0,0,1,118.64,165.6Z" transform="translate(-32 -15)" fill="#808182"/><path d="M122.23,166.59c.89.16,1.78.36,2.67.59A4.89,4.89,0,0,1,122.23,166.59Z" transform="translate(-32 -15)" fill="#808182"/><path d="M129.23,168.92a2.92,2.92,0,0,1,1.44.42C130.24,169.43,129.29,169.43,129.23,168.92Z" transform="translate(-32 -15)" fill="#535455"/><path d="M135.37,170.65l1.44.3C136.56,171.3,135.46,171.07,135.37,170.65Z" transform="translate(-32 -15)" fill="#212122"/><circle cx="61.57" cy="59.34" r="1.14" fill="#bb0ee5"/><g opacity="0.37"><polygon points="52.48 70.18 42.56 56.77 61.41 59.49 73.07 72.27 52.48 70.18" fill="#bb0ee5"/><polyline points="54.97 70.43 52.48 70.18 50.99 68.17" fill="none" stroke="#c44fe0" stroke-miterlimit="10"/><line x1="48.68" y1="65.04" x2="45.2" y2="60.35" fill="none" stroke="#c44fe0" stroke-miterlimit="10" stroke-dasharray="3.89 3.89"/><polyline points="44.04 58.78 42.56 56.77 45.03 57.13" fill="none" stroke="#c44fe0" stroke-miterlimit="10"/><polyline points="49.46 57.77 61.41 59.49 69.87 68.77" fill="none" stroke="#c44fe0" stroke-miterlimit="10" stroke-dasharray="4.48 4.48"/><polyline points="71.38 70.42 73.07 72.27 70.58 72.02" fill="none" stroke="#c44fe0" stroke-miterlimit="10"/><line x1="65.38" y1="71.49" x2="57.57" y2="70.69" fill="none" stroke="#c44fe0" stroke-miterlimit="10" stroke-dasharray="5.23 5.23"/></g><g opacity="0.37"><polygon points="52.87 70.38 42.56 56.77 52.89 36.43 63.2 50.04 52.87 70.38" fill="#e386f7"/><polyline points="54 68.15 52.87 70.38 51.36 68.38" fill="none" stroke="#c44fe0" stroke-miterlimit="10"/><line x1="48.93" y1="65.18" x2="45.28" y2="60.37" fill="none" stroke="#c44fe0" stroke-miterlimit="10" stroke-dasharray="4.02 4.02"/><polyline points="44.07 58.76 42.56 56.77 43.69 54.54" fill="none" stroke="#c44fe0" stroke-miterlimit="10"/><line x1="46.38" y1="49.25" x2="50.41" y2="41.31" fill="none" stroke="#c44fe0" stroke-miterlimit="10" stroke-dasharray="5.94 5.94"/><polyline points="51.76 38.66 52.89 36.43 54.4 38.42" fill="none" stroke="#c44fe0" stroke-miterlimit="10"/><line x1="56.83" y1="41.63" x2="60.48" y2="46.44" fill="none" stroke="#c44fe0" stroke-miterlimit="10" stroke-dasharray="4.02 4.02"/><polyline points="61.69 48.04 63.2 50.04 62.07 52.27" fill="none" stroke="#c44fe0" stroke-miterlimit="10"/><line x1="59.38" y1="57.56" x2="55.35" y2="65.5" fill="none" stroke="#c44fe0" stroke-miterlimit="10" stroke-dasharray="5.94 5.94"/></g><g opacity="0.37"><polygon points="73.07 72.27 52.87 70.38 63.2 50.04 82.61 52.51 73.07 72.27" fill="#b366c6"/><polyline points="74.16 70.02 73.07 72.27 70.58 72.04" fill="none" stroke="#c44fe0" stroke-miterlimit="10"/><line x1="65.51" y1="71.56" x2="57.9" y2="70.85" fill="none" stroke="#c44fe0" stroke-miterlimit="10" stroke-dasharray="5.1 5.1"/><polyline points="55.36 70.61 52.87 70.38 54 68.15" fill="none" stroke="#c44fe0" stroke-miterlimit="10"/><line x1="56.69" y1="62.85" x2="60.73" y2="54.91" fill="none" stroke="#c44fe0" stroke-miterlimit="10" stroke-dasharray="5.94 5.94"/><polyline points="62.07 52.27 63.2 50.04 65.68 50.35" fill="none" stroke="#c44fe0" stroke-miterlimit="10"/><line x1="70.5" y1="50.97" x2="77.72" y2="51.89" fill="none" stroke="#c44fe0" stroke-miterlimit="10" stroke-dasharray="4.86 4.86"/><polyline points="80.13 52.2 82.61 52.51 81.52 54.77" fill="none" stroke="#c44fe0" stroke-miterlimit="10"/><line x1="79.07" y1="59.85" x2="75.38" y2="67.48" fill="none" stroke="#c44fe0" stroke-miterlimit="10" stroke-dasharray="5.65 5.65"/></g><g opacity="0.37"><polygon points="63.2 50.04 52.89 36.43 72.1 39.3 82.61 52.51 63.2 50.04" fill="#bb0ee5"/><polyline points="65.68 50.35 63.2 50.04 61.69 48.04" fill="none" stroke="#c44fe0" stroke-miterlimit="10"/><line x1="59.26" y1="44.84" x2="55.62" y2="40.03" fill="none" stroke="#c44fe0" stroke-miterlimit="10" stroke-dasharray="4.02 4.02"/><polyline points="54.4 38.42 52.89 36.43 55.36 36.8" fill="none" stroke="#c44fe0" stroke-miterlimit="10"/><polyline points="59.79 37.46 72.1 39.3 79.66 48.81" fill="none" stroke="#c44fe0" stroke-miterlimit="10" stroke-dasharray="4.47 4.47"/><polyline points="81.06 50.56 82.61 52.51 80.13 52.2" fill="none" stroke="#c44fe0" stroke-miterlimit="10"/><line x1="75.32" y1="51.58" x2="68.09" y2="50.66" fill="none" stroke="#c44fe0" stroke-miterlimit="10" stroke-dasharray="4.86 4.86"/></g><circle cx="53.28" cy="36.63" r="1.32" fill="#bb0ee5"/><circle cx="63.4" cy="49.64" r="1.32" fill="#bb0ee5"/><circle cx="42.56" cy="56.77" r="1.32" fill="#bb0ee5"/><circle cx="52.87" cy="70.38" r="1.32" fill="#bb0ee5"/><circle cx="71.71" cy="39.1" r="1.32" fill="#bb0ee5"/><circle cx="82.61" cy="52.51" r="1.32" fill="#bb0ee5"/><circle cx="73.07" cy="72.27" r="1.32" fill="#bb0ee5"/><circle cx="90.11" cy="117.45" r="0.62" fill="#bb0ee5"/><g opacity="0.37"><polygon points="89.99 125.18 81.16 122.91 90.09 117.57 99.44 118.97 89.99 125.18" fill="#bb0ee5"/><polyline points="92.08 123.81 89.99 125.18 87.57 124.56" fill="none" stroke="#c44fe0" stroke-miterlimit="10"/><polyline points="83.59 123.53 81.16 122.91 83.31 121.63" fill="none" stroke="#c44fe0" stroke-miterlimit="10"/><polyline points="87.56 119.09 90.09 117.57 94.52 118.23" fill="none" stroke="#c44fe0" stroke-miterlimit="10" stroke-dasharray="4.95 4.95"/><polyline points="96.97 118.6 99.44 118.97 97.35 120.34" fill="none" stroke="#c44fe0" stroke-miterlimit="10"/></g><g opacity="0.37"><polygon points="90.23 125.13 81.16 122.91 78.53 110.73 87.59 112.94 90.23 125.13" fill="#e386f7"/><polyline points="89.7 122.68 90.23 125.13 87.8 124.53" fill="none" stroke="#c44fe0" stroke-miterlimit="10"/><polyline points="83.59 123.51 81.16 122.91 80.64 120.47" fill="none" stroke="#c44fe0" stroke-miterlimit="10"/><polyline points="79.06 113.17 78.53 110.73 80.96 111.32" fill="none" stroke="#c44fe0" stroke-miterlimit="10"/><polyline points="85.17 112.35 87.59 112.94 88.12 115.39" fill="none" stroke="#c44fe0" stroke-miterlimit="10"/></g><g opacity="0.37"><polygon points="99.44 118.97 90.23 125.13 87.59 112.94 96.68 107.3 99.44 118.97" fill="#b366c6"/><polyline points="98.87 116.54 99.44 118.97 97.36 120.36" fill="none" stroke="#c44fe0" stroke-miterlimit="10"/><polyline points="92.3 123.74 90.23 125.13 89.7 122.68" fill="none" stroke="#c44fe0" stroke-miterlimit="10"/><polyline points="88.12 115.39 87.59 112.94 89.72 111.62" fill="none" stroke="#c44fe0" stroke-miterlimit="10"/><polyline points="94.55 108.62 96.68 107.3 97.25 109.73" fill="none" stroke="#c44fe0" stroke-miterlimit="10"/></g><g opacity="0.37"><polygon points="87.59 112.94 78.53 110.73 87.67 105.32 96.68 107.3 87.59 112.94" fill="#bb0ee5"/><polyline points="89.72 111.62 87.59 112.94 85.17 112.35" fill="none" stroke="#c44fe0" stroke-miterlimit="10"/><polyline points="80.96 111.32 78.53 110.73 80.69 109.46" fill="none" stroke="#c44fe0" stroke-miterlimit="10"/><polyline points="84.94 106.94 87.67 105.32 91.82 106.24" fill="none" stroke="#c44fe0" stroke-miterlimit="10" stroke-dasharray="4.95 4.95"/><polyline points="94.24 106.77 96.68 107.3 94.55 108.62" fill="none" stroke="#c44fe0" stroke-miterlimit="10"/></g><circle cx="78.77" cy="110.68" r="0.72" fill="#bb0ee5"/><circle cx="87.54" cy="112.71" r="0.72" fill="#bb0ee5"/><circle cx="81.16" cy="122.91" r="0.72" fill="#bb0ee5"/><circle cx="90.23" cy="125.13" r="0.72" fill="#bb0ee5"/><circle cx="87.43" cy="105.37" r="0.72" fill="#bb0ee5"/><circle cx="96.68" cy="107.3" r="0.72" fill="#bb0ee5"/><circle cx="99.44" cy="118.97" r="0.72" fill="#bb0ee5"/><circle cx="69.5" cy="144.5" r="10.5" fill="url(#b)"/><circle cx="97.97" cy="76.96" r="5.55" fill="url(#c)"/><circle cx="36.76" cy="24.38" r="6.15" fill="url(#d)"/><circle cx="56.51" cy="97.7" r="0.79" fill="#bb0ee5"/><g opacity="0.37"><polygon points="47.29 101.11 45.92 89.6 56.36 97.73 59 109.46 47.29 101.11" fill="#bb0ee5"/><polyline points="49.33 102.56 47.29 101.11 46.99 98.63" fill="none" stroke="#c44fe0" stroke-miterlimit="10"/><polyline points="46.22 92.08 45.92 89.6 47.89 91.14" fill="none" stroke="#c44fe0" stroke-miterlimit="10"/><polyline points="51.09 93.63 56.36 97.73 58.01 105.05" fill="none" stroke="#c44fe0" stroke-miterlimit="10" stroke-dasharray="4.05 4.05"/><polyline points="58.45 107.03 59 109.46 56.96 108.01" fill="none" stroke="#c44fe0" stroke-miterlimit="10"/><line x1="54.42" y1="106.19" x2="50.6" y2="103.47" fill="none" stroke="#c44fe0" stroke-miterlimit="10" stroke-dasharray="3.13 3.13"/></g><g opacity="0.37"><polygon points="47.46 101.36 45.92 89.6 59.16 80.88 60.7 92.64 47.46 101.36" fill="#e386f7"/><polyline points="49.55 99.99 47.46 101.36 47.13 98.89" fill="none" stroke="#c44fe0" stroke-miterlimit="10"/><polyline points="46.24 92.08 45.92 89.6 48.01 88.22" fill="none" stroke="#c44fe0" stroke-miterlimit="10"/><line x1="51.03" y1="86.24" x2="55.56" y2="83.25" fill="none" stroke="#c44fe0" stroke-miterlimit="10" stroke-dasharray="3.62 3.62"/><polyline points="57.08 82.26 59.16 80.88 59.49 83.36" fill="none" stroke="#c44fe0" stroke-miterlimit="10"/><polyline points="60.38 90.17 60.7 92.64 58.61 94.02" fill="none" stroke="#c44fe0" stroke-miterlimit="10"/><line x1="55.59" y1="96.01" x2="51.06" y2="98.99" fill="none" stroke="#c44fe0" stroke-miterlimit="10" stroke-dasharray="3.62 3.62"/></g><g opacity="0.37"><polygon points="59 109.46 47.46 101.36 60.7 92.64 71.56 100.83 59 109.46" fill="#b366c6"/><polyline points="61.06 108.05 59 109.46 56.95 108.03" fill="none" stroke="#c44fe0" stroke-miterlimit="10"/><line x1="54.47" y1="106.29" x2="50.75" y2="103.67" fill="none" stroke="#c44fe0" stroke-miterlimit="10" stroke-dasharray="3.03 3.03"/><polyline points="49.51 102.8 47.46 101.36 49.55 99.99" fill="none" stroke="#c44fe0" stroke-miterlimit="10"/><line x1="52.57" y1="98" x2="57.1" y2="95.01" fill="none" stroke="#c44fe0" stroke-miterlimit="10" stroke-dasharray="3.62 3.62"/><polyline points="58.61 94.02 60.7 92.64 62.7 94.15" fill="none" stroke="#c44fe0" stroke-miterlimit="10"/><line x1="64.99" y1="95.87" x2="68.42" y2="98.46" fill="none" stroke="#c44fe0" stroke-miterlimit="10" stroke-dasharray="2.87 2.87"/><polyline points="69.57 99.32 71.56 100.83 69.5 102.24" fill="none" stroke="#c44fe0" stroke-miterlimit="10"/><line x1="66.69" y1="104.18" x2="62.47" y2="107.08" fill="none" stroke="#c44fe0" stroke-miterlimit="10" stroke-dasharray="3.42 3.42"/></g><g opacity="0.37"><polygon points="60.7 92.64 59.16 80.88 69.77 89.23 71.56 100.83 60.7 92.64" fill="#bb0ee5"/><polyline points="62.7 94.15 60.7 92.64 60.38 90.17" fill="none" stroke="#c44fe0" stroke-miterlimit="10"/><polyline points="59.49 83.36 59.16 80.88 61.13 82.43" fill="none" stroke="#c44fe0" stroke-miterlimit="10"/><polyline points="64.31 84.93 69.77 89.23 70.87 96.36" fill="none" stroke="#c44fe0" stroke-miterlimit="10" stroke-dasharray="4.05 4.05"/><polyline points="71.18 98.36 71.56 100.83 69.57 99.32" fill="none" stroke="#c44fe0" stroke-miterlimit="10"/><line x1="67.28" y1="97.6" x2="63.84" y2="95.01" fill="none" stroke="#c44fe0" stroke-miterlimit="10" stroke-dasharray="2.87 2.87"/></g><circle cx="59.33" cy="81.14" r="0.91" fill="#bb0ee5"/><circle cx="60.96" cy="92.48" r="0.91" fill="#bb0ee5"/><circle cx="45.92" cy="89.6" r="0.91" fill="#bb0ee5"/><circle cx="47.46" cy="101.36" r="0.91" fill="#bb0ee5"/><circle cx="69.6" cy="88.98" r="0.91" fill="#bb0ee5"/><circle cx="71.56" cy="100.83" r="0.91" fill="#bb0ee5"/><circle cx="59" cy="109.46" r="0.91" fill="#bb0ee5"/><polygon points="129 37 44 0 0 143 103 154 129 37" opacity="0.46" fill="url(#e)"/></svg>