<svg xmlns="http://www.w3.org/2000/svg" xmlns:xlink="http://www.w3.org/1999/xlink" viewBox="0 0 123.2 128.51"><defs><linearGradient id="a" x1="104.42" y1="150.32" x2="96.64" y2="37.49" gradientUnits="userSpaceOnUse"><stop offset="0" stop-color="#eb0968"/><stop offset="0.18" stop-color="#9068a2"/><stop offset="0.4" stop-color="#29d4e5"/><stop offset="0.49" stop-color="aqua"/><stop offset="0.56" stop-color="#07cfdf"/><stop offset="0.65" stop-color="#128ab2"/><stop offset="0.73" stop-color="#195791"/><stop offset="0.79" stop-color="#1e387d"/><stop offset="0.82" stop-color="#202c75"/></linearGradient></defs><title>icon_vr</title><path d="M153.14,117.58a10,10,0,0,0-2.94-6.44c-2-1.76-3.11-4.25-4.69-6.33a5.84,5.84,0,0,0-2.15-2.18l0-.17c-1.36-1.87-2.61-3.84-4.07-5.62a3.63,3.63,0,0,0-1.1-1.47,3.81,3.81,0,0,0-1.09-1.56,2.32,2.32,0,0,0-.83-1.11c.09-.23-.18-.39-.27-.57-1.22-1.66-2.56-3.21-3.84-4.81-.35-.36-.63-.85-1.12-1a3.19,3.19,0,0,0-.26-.26l-1.57-.8-.07.16a3.25,3.25,0,0,0-1.89-.14,2.56,2.56,0,0,0-1.67.19.82.82,0,0,0-.86.25c-.26.07-.68,0-.84.22a1.15,1.15,0,0,0-.69.3l-.44.13a25.8,25.8,0,0,0-5-7.43,7.3,7.3,0,0,0-1.09-1.2,41.17,41.17,0,0,0-4.37-4.09c-1.23-1-2.36-2.21-3.66-3.15-1-.6-1.66-1.67-2.79-2.08l0-.17c-1.72-1-3.22-2.49-5-3.43-.44-.22-.82-.55-1.26-.76l0-.16c-2.93-1.52-5.7-3.42-8.81-4.55l-.11-.1c.06-.6-1.56-.52-1.94-.9l-.12-.1.07-.15c-.71-.3-1.45-.56-2.18-.8l-.11-.11c.06-.59-1.56-.52-2-.89l-.3-.15.1-.16a14.11,14.11,0,0,0-1.54-.55l-1.09-.47.07-.17c-1-.43-2.07-.81-3.1-1.22l-.06.16a26.23,26.23,0,0,0-4-1.09,4.81,4.81,0,0,0-2.2-.33,19,19,0,0,0-9.29.46,12.54,12.54,0,0,0-4.62,2.15A10,10,0,0,0,56,58.35c-.06.13-.2.38-.27.51l-.15-.07c-.35.82-.65,1.67-.93,2.51-.68,1.35-1.1,2.81-1.7,4.19s-1.06,2.72-1.6,4.09c-.86,2.23-1.76,4.46-2.61,6.7a4.23,4.23,0,0,0-.21,2.12,20.06,20.06,0,0,0,1.45,6.28,6.54,6.54,0,0,0,1.39,2.77,2.43,2.43,0,0,0,1,1.71c0,.1,0,.31,0,.41a56.17,56.17,0,0,0,6.17,8.81c.31.38.57.86,1.06,1a4.19,4.19,0,0,0,.66.86,22.81,22.81,0,0,0-.94,4.26l.11.08c-.18.25-.19.44,0,.55a10,10,0,0,0,.07,4.32,41.81,41.81,0,0,0,4.18,6.58c.13.41.58.71.72,1.16,2.13,2.86,4.1,5.87,6.39,8.6a5.93,5.93,0,0,0,.55,1.32v.16a58.34,58.34,0,0,0,3.94,5.21c.16,1.55,1.39,2.58,2.27,3.75.83.89,1.47,2.09,2.59,2.66l-.05.16,1.79.7.06-.16a11.48,11.48,0,0,0,4,.48c8.21.17,16.41-.55,24.61-.69,6.43-.06,12.84.68,19.27.65,2.09,0,4.25.23,6.23-.6a27.6,27.6,0,0,0,15.51-14.42c.59,0,.53-1.47.92-1.9l-.15-.06A15.47,15.47,0,0,0,153.14,117.58ZM66.35,69.31c.47.09,1,.14,1.43.19a38.67,38.67,0,0,1,4.41.75l1.29.47c1.31.52,2.63,1,4,1.51l1.14.45.62.28a1.86,1.86,0,0,0,.93.56,12.72,12.72,0,0,0,1.74.85c.51.28,1,.54,1.58.79a8.79,8.79,0,0,0,2.31,1.3,22.55,22.55,0,0,0,3.12,1.83,12.78,12.78,0,0,0,1.37.94c.73.53,1.49,1,2.25,1.53,1.48,1,2.91,2.12,4.4,3.14a13.43,13.43,0,0,0,1.6,1.21,13.92,13.92,0,0,0,2,1.5,5.79,5.79,0,0,0,.88.76c.34.27.68.52,1,.78,1.11.92,2.31,1.74,3.36,2.73a21.58,21.58,0,0,1-5.78-.35c-1.72-.44-3.46-.79-5.18-1.25a5.08,5.08,0,0,0-1.69-.55c-.65-.22-1.3-.46-1.95-.71a5.34,5.34,0,0,0-1.7-.53L88,87a4,4,0,0,0-1.39-.41l-.3-.06a16.44,16.44,0,0,0-2.91-.85,14.19,14.19,0,0,0-9.84.54,19.83,19.83,0,0,0-1.82.82c-.2.12-.41.25-.62.36-.84-1-1.81-1.81-2.69-2.73a64.68,64.68,0,0,1-6.88-8.17A55,55,0,0,1,58,69.9c-.09-.25-.2-.5-.31-.74,0-.07,0-.22,0-.29C60.55,69,63.46,69,66.35,69.31Z" transform="translate(-35.69 -34.88)" fill="url(#a)"/><path d="M140.39,110.45a10,10,0,0,0-2.95-6.44c-2-1.76-3.1-4.25-4.68-6.33a5.84,5.84,0,0,0-2.15-2.18l0-.17c-1.35-1.87-2.6-3.84-4.06-5.62a3.63,3.63,0,0,0-1.1-1.47,4,4,0,0,0-1.09-1.56,2.39,2.39,0,0,0-.83-1.11c.09-.23-.18-.39-.28-.57-1.21-1.66-2.55-3.21-3.83-4.81-.36-.36-.64-.85-1.12-1l-.26-.26-1.57-.8-.07.16a3.28,3.28,0,0,0-1.9-.14,2.54,2.54,0,0,0-1.66.19.81.81,0,0,0-.86.25c-.27.07-.68,0-.84.22a1.1,1.1,0,0,0-.69.3l-.44.13a25.83,25.83,0,0,0-5-7.43,6.82,6.82,0,0,0-1.08-1.2,43.19,43.19,0,0,0-4.37-4.09c-1.23-1-2.37-2.21-3.67-3.15-1-.6-1.65-1.67-2.78-2.08l0-.17c-1.73-1-3.23-2.49-5-3.43-.45-.22-.82-.55-1.26-.76l0-.16c-2.93-1.52-5.7-3.42-8.81-4.55l-.11-.1c0-.6-1.56-.52-1.94-.9l-.12-.1.07-.15c-.72-.3-1.45-.56-2.19-.8L73.75,50c.07-.59-1.56-.52-2-.89L71.51,49l.1-.16a14.9,14.9,0,0,0-1.54-.55L69,47.8l.08-.17c-1-.43-2.07-.81-3.11-1.22l-.06.16a25.79,25.79,0,0,0-4-1.09,4.85,4.85,0,0,0-2.2-.33,19,19,0,0,0-9.29.46,12.46,12.46,0,0,0-4.62,2.15,9.87,9.87,0,0,0-2.61,3.46l-.27.51-.15-.07c-.36.82-.65,1.67-.94,2.51-.68,1.35-1.09,2.81-1.69,4.19s-1.06,2.72-1.6,4.09c-.87,2.23-1.76,4.46-2.62,6.7a4.35,4.35,0,0,0-.21,2.12,20.35,20.35,0,0,0,1.46,6.28,6.43,6.43,0,0,0,1.39,2.77,2.43,2.43,0,0,0,1,1.71c0,.1,0,.31,0,.41a56.17,56.17,0,0,0,6.17,8.81c.3.38.57.86,1.05,1a4.63,4.63,0,0,0,.67.86,23.66,23.66,0,0,0-.95,4.26l.12.08c-.18.25-.19.44,0,.55a9.85,9.85,0,0,0,.07,4.32,41.1,41.1,0,0,0,4.18,6.58c.13.41.58.71.72,1.16,2.13,2.86,4.1,5.87,6.38,8.6a6,6,0,0,0,.56,1.32v.16a62.42,62.42,0,0,0,3.94,5.21c.16,1.55,1.4,2.58,2.27,3.75.84.89,1.47,2.09,2.6,2.66l-.06.16,1.8.7.06-.16a11.42,11.42,0,0,0,4,.48c8.21.17,16.41-.55,24.62-.69,6.43-.06,12.84.68,19.27.65,2.09,0,4.25.23,6.23-.6a27.63,27.63,0,0,0,15.51-14.42c.59,0,.53-1.47.92-1.9l-.16-.06A15.26,15.26,0,0,0,140.39,110.45ZM53.6,62.18c.47.09.95.14,1.43.19a38.67,38.67,0,0,1,4.41.75l1.28.47c1.32.52,2.64,1,4,1.51l1.13.45.63.28a1.82,1.82,0,0,0,.93.56,12.72,12.72,0,0,0,1.74.85c.51.28,1,.54,1.57.79A8.69,8.69,0,0,0,73,69.33a23,23,0,0,0,3.11,1.83,12.9,12.9,0,0,0,1.38.94q1.1.8,2.25,1.53c1.48,1,2.91,2.12,4.39,3.14A14.4,14.4,0,0,0,85.77,78a13.83,13.83,0,0,0,2,1.5,6.39,6.39,0,0,0,.89.76c.33.27.67.52,1,.78,1.11.92,2.31,1.74,3.35,2.73a21.51,21.51,0,0,1-5.77-.35c-1.72-.44-3.46-.79-5.18-1.25a5.08,5.08,0,0,0-1.69-.55c-.65-.22-1.3-.46-1.95-.71a5.5,5.5,0,0,0-1.7-.53l-1.46-.52a4.11,4.11,0,0,0-1.39-.41l-.31-.06a16.33,16.33,0,0,0-2.9-.85,14.19,14.19,0,0,0-9.84.54,19.83,19.83,0,0,0-1.82.82c-.21.12-.41.25-.62.36-.85-1-1.81-1.81-2.69-2.73a64.68,64.68,0,0,1-6.88-8.17,55,55,0,0,1-3.59-6.57,6.88,6.88,0,0,0-.32-.74,2.83,2.83,0,0,0,0-.29C47.8,61.85,50.7,61.86,53.6,62.18Z" transform="translate(-35.69 -34.88)" fill="#00dbff"/><circle cx="87.68" cy="14.12" r="0.7" fill="#bb0ee5"/><g opacity="0.37"><polygon points="90.56 22.33 80.36 23.37 87.71 14.26 98.12 12.1 90.56 22.33" fill="#bb0ee5"/><polyline points="92.05 20.32 90.56 22.33 88.07 22.58" fill="none" stroke="#c44fe0" stroke-miterlimit="10"/><polyline points="82.85 23.11 80.36 23.37 81.93 21.42" fill="none" stroke="#c44fe0" stroke-miterlimit="10"/><polyline points="85.56 16.92 87.71 14.26 92.84 13.19" fill="none" stroke="#c44fe0" stroke-miterlimit="10" stroke-dasharray="5.78 5.78"/><polyline points="95.67 12.6 98.12 12.1 96.64 14.11" fill="none" stroke="#c44fe0" stroke-miterlimit="10"/><line x1="95.11" y1="16.18" x2="92.81" y2="19.28" fill="none" stroke="#c44fe0" stroke-miterlimit="10" stroke-dasharray="2.57 2.57"/></g><g opacity="0.37"><polygon points="90.79 22.18 80.36 23.37 72.85 11.53 83.27 10.34 90.79 22.18" fill="#e386f7"/><polyline points="89.45 20.07 90.79 22.18 88.3 22.46" fill="none" stroke="#c44fe0" stroke-miterlimit="10"/><polyline points="82.84 23.09 80.36 23.37 79.02 21.26" fill="none" stroke="#c44fe0" stroke-miterlimit="10"/><line x1="77.41" y1="18.72" x2="74.99" y2="14.91" fill="none" stroke="#c44fe0" stroke-miterlimit="10" stroke-dasharray="3.01 3.01"/><polyline points="74.19 13.64 72.85 11.53 75.33 11.24" fill="none" stroke="#c44fe0" stroke-miterlimit="10"/><polyline points="80.79 10.62 83.27 10.34 84.61 12.45" fill="none" stroke="#c44fe0" stroke-miterlimit="10"/><line x1="86.22" y1="14.99" x2="88.64" y2="18.8" fill="none" stroke="#c44fe0" stroke-miterlimit="10" stroke-dasharray="3.01 3.01"/></g><g opacity="0.37"><polygon points="98.12 12.1 90.79 22.18 83.27 10.34 90.67 0.85 98.12 12.1" fill="#b366c6"/><polyline points="96.74 10.01 98.12 12.1 96.65 14.12" fill="none" stroke="#c44fe0" stroke-miterlimit="10"/><polyline points="92.26 20.16 90.79 22.18 89.45 20.07" fill="none" stroke="#c44fe0" stroke-miterlimit="10"/><line x1="87.84" y1="17.53" x2="85.42" y2="13.72" fill="none" stroke="#c44fe0" stroke-miterlimit="10" stroke-dasharray="3.01 3.01"/><polyline points="84.61 12.45 83.27 10.34 84.81 8.37" fill="none" stroke="#c44fe0" stroke-miterlimit="10"/><polyline points="89.13 2.83 90.67 0.85 92.05 2.94" fill="none" stroke="#c44fe0" stroke-miterlimit="10"/><line x1="93.61" y1="5.3" x2="95.96" y2="8.83" fill="none" stroke="#c44fe0" stroke-miterlimit="10" stroke-dasharray="2.83 2.83"/></g><g opacity="0.37"><polygon points="83.27 10.34 72.85 11.53 80.39 2.27 90.67 0.85 83.27 10.34" fill="#bb0ee5"/><polyline points="84.81 8.37 83.27 10.34 80.79 10.62" fill="none" stroke="#c44fe0" stroke-miterlimit="10"/><polyline points="75.33 11.24 72.85 11.53 74.42 9.59" fill="none" stroke="#c44fe0" stroke-miterlimit="10"/><polyline points="78.07 5.11 80.39 2.27 85.33 1.59" fill="none" stroke="#c44fe0" stroke-miterlimit="10" stroke-dasharray="5.77 5.77"/><polyline points="88.19 1.2 90.67 0.85 89.13 2.83" fill="none" stroke="#c44fe0" stroke-miterlimit="10"/></g><circle cx="73.07" cy="11.38" r="0.81" fill="#bb0ee5"/><circle cx="83.13" cy="10.11" r="0.81" fill="#bb0ee5"/><circle cx="80.36" cy="23.37" r="0.81" fill="#bb0ee5"/><circle cx="90.79" cy="22.18" r="0.81" fill="#bb0ee5"/><circle cx="80.16" cy="2.41" r="0.81" fill="#bb0ee5"/><circle cx="90.67" cy="0.86" r="0.81" fill="#bb0ee5"/><circle cx="98.12" cy="12.1" r="0.81" fill="#bb0ee5"/><circle cx="17.49" cy="101.54" r="0.48" fill="#bb0ee5"/><g opacity="0.37"><polygon points="13.41 97.21 19.51 93.72 17.44 101.46 11.53 105.71 13.41 97.21" fill="#bb0ee5"/><polyline points="12.87 99.65 13.41 97.21 15.59 95.96" fill="none" stroke="#c44fe0" stroke-miterlimit="10"/><polyline points="17.34 94.96 19.51 93.72 18.86 96.13" fill="none" stroke="#c44fe0" stroke-miterlimit="10"/><polyline points="17.98 99.45 17.44 101.46 14.95 103.25" fill="none" stroke="#c44fe0" stroke-miterlimit="10" stroke-dasharray="3.43 3.43"/><polyline points="13.56 104.25 11.53 105.71 12.07 103.27" fill="none" stroke="#c44fe0" stroke-miterlimit="10"/></g><g opacity="0.37"><polygon points="13.31 97.36 19.51 93.72 27.5 99.04 21.31 102.68 13.31 97.36" fill="#e386f7"/><polyline points="15.39 98.75 13.31 97.36 15.47 96.09" fill="none" stroke="#c44fe0" stroke-miterlimit="10"/><polyline points="17.35 94.98 19.51 93.72 21.59 95.1" fill="none" stroke="#c44fe0" stroke-miterlimit="10"/><polyline points="25.42 97.65 27.5 99.04 25.34 100.31" fill="none" stroke="#c44fe0" stroke-miterlimit="10"/><polyline points="23.46 101.41 21.31 102.68 19.23 101.3" fill="none" stroke="#c44fe0" stroke-miterlimit="10"/></g><g opacity="0.37"><polygon points="11.53 105.71 13.31 97.36 21.31 102.68 19.31 110.67 11.53 105.71" fill="#b366c6"/><polyline points="13.63 107.05 11.53 105.71 12.05 103.26" fill="none" stroke="#c44fe0" stroke-miterlimit="10"/><polyline points="12.79 99.8 13.31 97.36 15.39 98.75" fill="none" stroke="#c44fe0" stroke-miterlimit="10"/><polyline points="19.23 101.3 21.31 102.68 20.7 105.11" fill="none" stroke="#c44fe0" stroke-miterlimit="10"/><polyline points="19.92 108.25 19.31 110.67 17.21 109.33" fill="none" stroke="#c44fe0" stroke-miterlimit="10"/></g><g opacity="0.37"><polygon points="21.31 102.68 27.5 99.04 25.36 106.93 19.31 110.67 21.31 102.68" fill="#bb0ee5"/><polyline points="20.7 105.11 21.31 102.68 23.46 101.41" fill="none" stroke="#c44fe0" stroke-miterlimit="10"/><polyline points="25.34 100.31 27.5 99.04 26.84 101.45" fill="none" stroke="#c44fe0" stroke-miterlimit="10"/><polyline points="25.95 104.76 25.36 106.93 22.9 108.45" fill="none" stroke="#c44fe0" stroke-miterlimit="10" stroke-dasharray="3.43 3.43"/><polyline points="21.44 109.35 19.31 110.67 19.92 108.25" fill="none" stroke="#c44fe0" stroke-miterlimit="10"/></g><circle cx="27.4" cy="99.19" r="0.55" fill="#bb0ee5"/><circle cx="21.46" cy="102.78" r="0.55" fill="#bb0ee5"/><circle cx="19.51" cy="93.72" r="0.55" fill="#bb0ee5"/><circle cx="13.31" cy="97.36" r="0.55" fill="#bb0ee5"/><circle cx="25.46" cy="106.77" r="0.55" fill="#bb0ee5"/><circle cx="19.31" cy="110.67" r="0.55" fill="#bb0ee5"/><circle cx="11.53" cy="105.71" r="0.55" fill="#bb0ee5"/><circle cx="109.95" cy="117.58" r="0.64" fill="#bb0ee5"/><g opacity="0.37"><polygon points="102 117.22 104.61 108.21 109.83 117.56 108.09 127.13 102 117.22" fill="#bb0ee5"/><polyline points="103.31 119.35 102 117.22 102.7 114.81" fill="none" stroke="#c44fe0" stroke-miterlimit="10"/><polyline points="103.92 110.61 104.61 108.21 105.83 110.39" fill="none" stroke="#c44fe0" stroke-miterlimit="10"/><polyline points="108.33 114.88 109.83 117.56 109 122.14" fill="none" stroke="#c44fe0" stroke-miterlimit="10" stroke-dasharray="5.15 5.15"/><polyline points="108.54 124.67 108.09 127.13 106.79 125" fill="none" stroke="#c44fe0" stroke-miterlimit="10"/></g><g opacity="0.37"><polygon points="102.05 117.46 104.61 108.21 117.23 105.88 114.67 115.14 102.05 117.46" fill="#e386f7"/><polyline points="104.51 117.01 102.05 117.46 102.72 115.05" fill="none" stroke="#c44fe0" stroke-miterlimit="10"/><polyline points="103.94 110.61 104.61 108.21 107.07 107.75" fill="none" stroke="#c44fe0" stroke-miterlimit="10"/><line x1="109.63" y1="107.28" x2="113.49" y2="106.57" fill="none" stroke="#c44fe0" stroke-miterlimit="10" stroke-dasharray="2.61 2.61"/><polyline points="114.77 106.33 117.23 105.88 116.56 108.29" fill="none" stroke="#c44fe0" stroke-miterlimit="10"/><polyline points="115.33 112.73 114.67 115.14 112.21 115.59" fill="none" stroke="#c44fe0" stroke-miterlimit="10"/><line x1="109.64" y1="116.06" x2="105.79" y2="116.77" fill="none" stroke="#c44fe0" stroke-miterlimit="10" stroke-dasharray="2.61 2.61"/></g><g opacity="0.37"><polygon points="108.09 127.13 102.05 117.46 114.67 115.14 120.18 124.66 108.09 127.13" fill="#b366c6"/><polyline points="110.54 126.63 108.09 127.13 106.77 125.01" fill="none" stroke="#c44fe0" stroke-miterlimit="10"/><polyline points="103.37 119.58 102.05 117.46 104.51 117.01" fill="none" stroke="#c44fe0" stroke-miterlimit="10"/><line x1="107.07" y1="116.53" x2="110.92" y2="115.82" fill="none" stroke="#c44fe0" stroke-miterlimit="10" stroke-dasharray="2.61 2.61"/><polyline points="112.21 115.59 114.67 115.14 115.92 117.3" fill="none" stroke="#c44fe0" stroke-miterlimit="10"/><polyline points="118.93 122.49 120.18 124.66 117.73 125.16" fill="none" stroke="#c44fe0" stroke-miterlimit="10"/></g><g opacity="0.37"><polygon points="114.67 115.14 117.23 105.88 122.5 115.45 120.18 124.66 114.67 115.14" fill="#bb0ee5"/><polyline points="115.92 117.3 114.67 115.14 115.33 112.73" fill="none" stroke="#c44fe0" stroke-miterlimit="10"/><polyline points="116.56 108.29 117.23 105.88 118.43 108.07" fill="none" stroke="#c44fe0" stroke-miterlimit="10"/><polyline points="120.92 112.57 122.5 115.45 121.42 119.74" fill="none" stroke="#c44fe0" stroke-miterlimit="10" stroke-dasharray="5.14 5.14"/><polyline points="120.79 122.23 120.18 124.66 118.93 122.49" fill="none" stroke="#c44fe0" stroke-miterlimit="10"/></g><circle cx="117.27" cy="106.13" r="0.74" fill="#bb0ee5"/><circle cx="114.91" cy="115.09" r="0.74" fill="#bb0ee5"/><circle cx="104.61" cy="108.21" r="0.74" fill="#bb0ee5"/><circle cx="102.05" cy="117.46" r="0.74" fill="#bb0ee5"/><circle cx="122.46" cy="115.21" r="0.74" fill="#bb0ee5"/><circle cx="120.18" cy="124.66" r="0.74" fill="#bb0ee5"/><circle cx="108.09" cy="127.13" r="0.74" fill="#bb0ee5"/></svg>