<svg xmlns="http://www.w3.org/2000/svg" xmlns:xlink="http://www.w3.org/1999/xlink" viewBox="0 0 331.24 267.22"><defs><linearGradient id="a" x1="26.16" y1="180.25" x2="290.83" y2="180.25" gradientUnits="userSpaceOnUse"><stop offset="0.01" stop-color="#7efff3"/><stop offset="0.69" stop-color="#9c0fcf"/><stop offset="1" stop-color="#bd12a8"/></linearGradient><linearGradient id="b" x1="196.36" y1="235.8" x2="196.36" y2="26.82" gradientUnits="userSpaceOnUse"><stop offset="0.04" stop-color="#ffca9c"/><stop offset="1" stop-color="#ff1b93" stop-opacity="0"/></linearGradient></defs><title>IOSAR</title><polygon points="204.57 247.13 27.61 157.51 26.16 154.31 27.65 149.83 106.32 113.37 117.14 114.89 290.83 202.13 204.57 247.13" fill="url(#a)"/><path d="M130.64,175.79c4.89-1.38,12-1.89,16.56-.16l-1.5.16a53.42,53.42,0,0,0-10.35,0c-.47,0-6,1.29-6.47,1.29Z" transform="translate(-30.74 -61.78)" fill="#3e3f3f"/><path d="M129.82,176.56l2.34-.85Z" transform="translate(-30.74 -61.78)" fill="#454545"/><path d="M132.16,175.71l1.29,0,1.9,0-1,.76c-.86.68-1.73,1.35-2.63,2-3.1,1.61-6.4,2.83-9.42,4.59-1.07,1.4.87,2,1.68,2.82a5.62,5.62,0,0,0-2.72,4c-2.73,1.07-5.36,2.36-8,3.62a22.66,22.66,0,0,0-6.67,3.19c-4.21,1.9-8.36,3.91-12.56,5.81a3.7,3.7,0,0,0-4.32,2.16c-1.48.69-2.94,1.41-4.45,2-3.81.75-7.6-.08-11.32-.86-1.63-.39-2.9,1.12-4.32,1.67-3.35,2-7.47,3-10,6.11-1,2.77,1.73,4.63,3.83,5.72,26.9,13.3,53.72,26.74,80.64,40-.2,2.18,2.41,3.07,4,2,1.66.91,3.37,1.73,5.06,2.58A26.38,26.38,0,0,0,163.41,269q17.86,8.73,35.59,17.74c-5.56-1.12-10.33-4.29-15.43-6.57s-10.22-5.33-15.64-7.31c6.8,4.31,14.3,7.35,21.21,11.48,10.62,5.32,21,11.12,31.8,16.06a31.59,31.59,0,0,0,27.44-.4c19.94-9.4,39.93-18.69,59.84-28.14,3.06-1.87,6.79-2.76,9.19-5.57,1.84-2.18-.15-4.86-1-7.07a10.86,10.86,0,0,1,5.11,6.36q-.61,1.4-1.2,2.82l-2.26,2.15c-23.82,11.28-47.8,22.22-71.55,33.61-4.93,3.63-11.14,1.13-16.72,1.84a23.7,23.7,0,0,1-8.34-2.16C166.83,277,112.34,249.7,57.73,222.7c-.23-3.77-3.11-8.13-.22-11.47,3.49-3,8.22-3.89,11.93-6.58l1.86-1a62.71,62.71,0,0,0,11.22-5.19l2.73-1.21.38-.18,3.68-1.77.36-.18c3.51-1.71,7.07-3.34,10.64-4.91l.65-.3.85-.39.83-.38.91-.39c1.48.28,3.82.05,3.72-2l.16,0a23.86,23.86,0,0,0,9.54-4.34l.4-.2.56-.27.9-.42.59-.26,1.61-.58a3.32,3.32,0,0,0,3.31-1.93l.5-.07a3.54,3.54,0,0,0,4.42-2l.56-.07ZM94.41,199c3.81-1.15,7.88-2.43,10.79-5.28C101.35,194.64,97,196,94.41,199Z" transform="translate(-30.74 -61.78)" fill="#1d1d1d"/><path d="M73.77,241.39a123.5,123.5,0,0,1,13.32,6.16c13.24,6.91,26.89,13,40.18,19.81,21.15,10.47,42.24,21.06,63.37,31.59,4.26,2.13,9,3.52,12.67,6.62-16.8-7.91-33.33-16.38-50-24.61C126.92,267.55,100.09,255,73.77,241.39Z" transform="translate(-30.74 -61.78)" fill="#1d1d1d"/><path d="M204.56,306.21A57.41,57.41,0,0,1,214,310.1l.74.65c.74.64,1.49,1.25,2.27,1.85C213,310.28,208.66,308.42,204.56,306.21Z" transform="translate(-30.74 -61.78)" fill="#1d1d1d"/><path d="M135.35,175.76a53.42,53.42,0,0,1,10.35,0c-3.69,1-7.53.88-11.31.73Z" transform="translate(-30.74 -61.78)" fill="#0b0b0b"/><path d="M145.7,175.79l1.5-.16.68.31,2,.74,1.07.11,1.88,1a9.88,9.88,0,0,1,4.15,2l1.84,1c2.64.73,4.95,2.28,7.44,3.38l.21.11,1.85.9.22.11c3.84,2,7.75,3.85,11.59,5.83,23.64,12,47.54,23.47,71.2,35.43-4.24.5-7.81-2-11.81-2.83-30.71-14.73-57-28.42-92.15-45.39a21.9,21.9,0,0,0-15.6.2c.9-.62,1.77-1.29,2.63-2C138.17,176.67,142,176.81,145.7,175.79Z" transform="translate(-30.74 -61.78)" fill="#303030"/><path d="M124.84,178.64a5.16,5.16,0,0,1,4.42-2A3.54,3.54,0,0,1,124.84,178.64Z" transform="translate(-30.74 -61.78)" fill="#404040"/><path d="M120.72,180a4.32,4.32,0,0,1,3.62-1.3,3.32,3.32,0,0,1-3.31,1.93Z" transform="translate(-30.74 -61.78)" fill="#3e3f3f"/><path d="M118.83,181.48l.59-.26Z" transform="translate(-30.74 -61.78)" fill="#4f5050"/><path d="M117.37,182.17l.56-.27Z" transform="translate(-30.74 -61.78)" fill="#4e4e4f"/><path d="M107.43,186.71a64.51,64.51,0,0,1,9.54-4.34A23.86,23.86,0,0,1,107.43,186.71Z" transform="translate(-30.74 -61.78)" fill="#3f3f3f"/><path d="M166.25,184.13l.21.11Z" transform="translate(-30.74 -61.78)" fill="#3f3f40"/><path d="M168.31,185.14l.22.11Z" transform="translate(-30.74 -61.78)" fill="#434343"/><path d="M124,185.9l.92.74c-.28,1.86-2,2.82-3.64,3.28A5.62,5.62,0,0,1,124,185.9Z" transform="translate(-30.74 -61.78)" fill="#1e1e1e"/><path d="M103.55,188.72a6,6,0,0,1,3.72-2C107.37,188.77,105,189,103.55,188.72Z" transform="translate(-30.74 -61.78)" fill="#404041"/><path d="M101.81,189.49l.83-.38Z" transform="translate(-30.74 -61.78)" fill="#505151"/><path d="M100.31,190.18l.65-.3Z" transform="translate(-30.74 -61.78)" fill="#505051"/><path d="M94.41,199c2.63-3.05,6.94-4.39,10.79-5.28C102.29,196.6,98.22,197.88,94.41,199Z" transform="translate(-30.74 -61.78)" fill="#3b3b3b"/><path d="M106.64,196.73a22.66,22.66,0,0,1,6.67-3.19A39.26,39.26,0,0,1,106.64,196.73Z" transform="translate(-30.74 -61.78)" fill="#202020"/><path d="M89.31,195.27l.36-.18Z" transform="translate(-30.74 -61.78)" fill="#515151"/><path d="M85.25,197.22l.38-.18Z" transform="translate(-30.74 -61.78)" fill="#515252"/><path d="M89.76,204.7a3.7,3.7,0,0,1,4.32-2.16A4.64,4.64,0,0,1,89.76,204.7Z" transform="translate(-30.74 -61.78)" fill="#212121"/><path d="M53.56,212.54c4.93-3.32,10.42-5.61,15.88-7.89-3.71,2.69-8.44,3.6-11.93,6.58-2.89,3.34,0,7.7.22,11.47a9.88,9.88,0,0,1-4.16-3.51C52.73,217.05,53.31,214.73,53.56,212.54Z" transform="translate(-30.74 -61.78)" fill="#6b6b6a"/><path d="M69.67,207.53c1.42-.55,2.69-2.06,4.32-1.67,3.72.78,7.51,1.61,11.32.86C80.27,209.62,74.76,205.05,69.67,207.53Z" transform="translate(-30.74 -61.78)" fill="#232323"/><path d="M53.24,212.74l.32-.2c-.25,2.19-.83,4.51,0,6.65a9.88,9.88,0,0,0,4.16,3.51c54.61,27,109.1,54.26,163.77,81.13,0,1.35.26,2.91-1.32,3.52a13.34,13.34,0,0,1-3.72-1c-23-11.82-46.29-23-69.37-34.59-12.07-5.89-24-12-36.14-17.82-4.63-3.37-9.89-6.42-15.67-7.1l-1.62-1.77c-6-1.67-10-3.84-13.28-6.59,3.08,3.92,8.46,4.42,12.08,7.69-3.21-1.49-6.45-3-9.55-4.65-2.48-1.6-4.27-5-7.71-4.29l-1.41-1.77c-7.57-4.83-16.78-6.78-23.61-12.78l-.24-3.27A20.21,20.21,0,0,1,53.24,212.74Z" transform="translate(-30.74 -61.78)" fill="#d5fbff"/><path d="M311.34,268.51c2.34.43,4.28-.94,6.07-2.23-2.4,2.81-6.13,3.7-9.19,5.57-19.91,9.45-39.9,18.74-59.84,28.14a31.59,31.59,0,0,1-27.44.4,21.77,21.77,0,0,0,3.84-.53l1,1.24,1,1.1c6.43.66,13.32,1,19.25-2,21.87-10.3,43.85-20.36,65.69-30.69l-.94-.86-.68-.63Z" transform="translate(-30.74 -61.78)" fill="#d5fbff"/><path d="M50.18,222.66c6.83,6,16,8,23.61,12.78l-1,1.51c-1.78-.72-3.55-1.43-5.3-2.2-1.92-1-3.88-1.9-5.85-2.77-.05.58-.13,1.75-.17,2.33-1.62-4.88-7-5.93-10.76-8.54A25.68,25.68,0,0,1,50.18,222.66Z" transform="translate(-30.74 -61.78)" fill="#7595b1"/><path d="M239.51,223.68c4,.81,7.57,3.33,11.81,2.83,5.59,2.61,11.09,5.4,16.62,8.15a5.86,5.86,0,0,0,4.06,2.16c14.46,6.76,28.58,14.26,43,21l1.43,1.38c.8,2.21,2.79,4.89,1,7.07-1.79,1.29-3.73,2.66-6.07,2.23,1.37-1.82,3.92-3.36,3.19-6-1.89-3.15-5.68-4.15-8.71-5.82C283.75,245.61,261.5,234.89,239.51,223.68Z" transform="translate(-30.74 -61.78)" fill="#3e3e3e"/><path d="M50.74,225.77c3.8,2.61,9.14,3.66,10.76,8.54,0-.58.12-1.75.17-2.33,2,.87,3.93,1.77,5.85,2.77,2.63,4.67,8.57,3.95,12.51,6.79,4,2.53,8.39,4.34,12.49,6.71l1.14-3.2,1.62,1.77c5.78.68,11,3.73,15.67,7.1.74,2.83,3.58,3.78,5.91,5,18.14,8.69,35.71,18.51,54,26.91,13.1,6.53,26.26,12.93,39.34,19.5,2.12.79,2.95,2.91,3.8,4.81a57.41,57.41,0,0,0-9.43-3.89l-1.25-.64c-3.72-3.1-8.41-4.49-12.67-6.62-21.13-10.53-42.22-21.12-63.37-31.59-13.29-6.82-26.94-12.9-40.18-19.81a123.5,123.5,0,0,0-13.32-6.16c-4.91-2.37-9.79-4.81-14.77-7A15.27,15.27,0,0,1,50.74,225.77Z" transform="translate(-30.74 -61.78)" fill="#4c637a"/><path d="M93.66,245.05l-1.14,3.2c-4.1-2.37-8.49-4.18-12.49-6.71-3.94-2.84-9.88-2.12-12.51-6.79,1.75.77,3.52,1.48,5.3,2.2l2.38.26c3.44-.69,5.23,2.69,7.71,4.29,3.1,1.7,6.34,3.16,9.55,4.65-3.62-3.27-9-3.77-12.08-7.69" transform="translate(-30.74 -61.78)" fill="#5f7b95"/><path d="M267.94,234.66c1.67-.47,4,0,4.06,2.16A5.86,5.86,0,0,1,267.94,234.66Z" transform="translate(-30.74 -61.78)" fill="#404041"/><path d="M72.82,237l1-1.51,1.41,1.77Z" transform="translate(-30.74 -61.78)" fill="#3c536b"/><path d="M111,253.92c12.12,5.8,24.07,11.93,36.14,17.82,23.08,11.61,46.41,22.77,69.37,34.59a13.34,13.34,0,0,0,3.72,1c1.58-.61,1.34-2.17,1.32-3.52a23.7,23.7,0,0,0,8.34,2.16,31.54,31.54,0,0,1,7,1.59c-4,.93-8-.13-12-.39l-2.19,1.53c4.22,1.58,8.91,2.6,13.39,1.71,3.74-1.32,7.22-3.32,11.09-4.28.85.53,2.3,1.64,1,2.59-6,4.83-14.25,3.89-21.47,3.9a37.07,37.07,0,0,1-11-4.45c-.22.64-.68,1.92-.91,2.56l-.74-.65c-.85-1.9-1.68-4-3.8-4.81-13.08-6.57-26.24-13-39.34-19.5-18.28-8.4-35.85-18.22-54-26.91C114.53,257.7,111.69,256.75,111,253.92Z" transform="translate(-30.74 -61.78)" fill="#6f91ad"/><path d="M315,257.83a20.12,20.12,0,0,1,7.86,6.71c.43,1,.85,2,1.25,3-.05,2-.15,3.91-.2,5.87-.62,1.1-1.26,2.2-1.93,3.27-2.3.93-4.63,1.8-6.91,2.78l-1.18-1.1-.73.44c-.06.45-.19,1.34-.25,1.79l-1.12.65c1.3-2.83-3.17-1.69-1.84.65l-.8.7c.38-3-3.41-1.51-2.31.76l-.64-.23c-1.22-1.28-2.78.14-2.27,1.62l-1.22.52c1.2-2.4-2.42-1.57-1.78.46l-.8.58c-.48-2.16-2.68-.33-2.3,1.14-1.49.72-3,1.41-4.45,2.17l-1.25-1.24-.89.46-.49,1.88-1.35.73-1.5-2h-.3c-3.63,1.7-9.84,2.28-9.84,7.41-.44,0-.87,0-1.3,0-1.42-1.91-3.48.23-2.51,2a32.24,32.24,0,0,0-4.54,1.9l-1.26-1.18-.89.42c-.11.47-.34,1.41-.45,1.88l-.76.61c.29-2.8-3.1-1.09-2.13.91l-.42.07-1.42-1-.83.47-.36,1.91-.81.49c.3-2.93-2.84-1-2.36,1l-.31.29-1.18-1.2-.85.37-.61,1.67-.46-.09a1.35,1.35,0,0,0-2.17,1.59c-7.6,4.74-16.94,5.56-25.57,3.72,7.22,0,15.42.93,21.47-3.9,1.32-.95-.13-2.06-1-2.59,13.27-5.55,26-12.3,39.12-18.23,9.67-4.16,19-9.13,28.74-13.09,1.79-.58,3.94-.58,5.35-2,.16-1.47.05-3,.07-4.43q.58-1.42,1.2-2.82a10.86,10.86,0,0,0-5.11-6.36Z" transform="translate(-30.74 -61.78)" fill="#62809b"/><path d="M144.16,259.35a12.39,12.39,0,0,1,4,2C146.57,262.42,144,261.53,144.16,259.35Z" transform="translate(-30.74 -61.78)" fill="#232323"/><path d="M153.26,263.92A52,52,0,0,1,163.41,269,26.38,26.38,0,0,1,153.26,263.92Z" transform="translate(-30.74 -61.78)" fill="#232323"/><path d="M299.45,273.38c3.7-1.73,7.24-3.95,11.32-4.71l.94.86c-21.84,10.33-43.82,20.39-65.69,30.69-5.93,3-12.82,2.64-19.25,2l-1-1.1c5.69,0,11.77,1.37,17.13-1.21Q271.17,286.6,299.45,273.38Z" transform="translate(-30.74 -61.78)" fill="#464646"/><path d="M167.93,272.85c5.42,2,10.4,4.92,15.64,7.31s9.87,5.45,15.43,6.57c8.66,3.94,16.85,8.93,25.73,12.33,0,.2,0,.6.05.8a21.77,21.77,0,0,1-3.84.53c-10.79-4.94-21.18-10.74-31.8-16.06C182.23,280.2,174.73,277.16,167.93,272.85Z" transform="translate(-30.74 -61.78)" fill="#464646"/><path d="M318.11,270.54l2.26-2.15c0,1.47.09,3-.07,4.43-1.41,1.43-3.56,1.43-5.35,2C316.1,273.47,317.1,272,318.11,270.54Z" transform="translate(-30.74 -61.78)" fill="#43576b"/><path d="M246.56,304.15c23.75-11.39,47.73-22.33,71.55-33.61-1,1.46-2,2.93-3.16,4.29-9.76,4-19.07,8.93-28.74,13.09-13.11,5.93-25.85,12.68-39.12,18.23-3.87,1-7.35,3-11.09,4.28-4.48.89-9.17-.13-13.39-1.71l2.19-1.53c4,.26,8,1.32,12,.39a31.54,31.54,0,0,0-7-1.59C235.42,305.28,241.63,307.78,246.56,304.15Z" transform="translate(-30.74 -61.78)" fill="#1f2b37"/><path d="M315.1,279.48c2.28-1,4.61-1.85,6.91-2.78-2,4.16-6.48,5.76-10.37,7.65q-33,15.25-65.87,30.85A34.22,34.22,0,0,1,217,312.6c-.78-.6-1.53-1.21-2.27-1.85.23-.64.69-1.92.91-2.56a37.07,37.07,0,0,0,11,4.45c8.63,1.84,18,1,25.57-3.72l2.17-1.59.46.09,2.64-.84.31-.29,2.36-1,.81-.49,2.61-1.36.42-.07,2.13-.91.76-.61,2.6-1.12a32.24,32.24,0,0,1,4.54-1.9,2.77,2.77,0,0,0,2.51-2c.43,0,.86,0,1.3,0,3.6-1.92,9.26-2.48,9.84-7.41h.3l1.5,2,1.35-.73,2.63-1.1c1.46-.76,3-1.45,4.45-2.17l2.3-1.14.8-.58,1.78-.46,1.22-.52,2.27-1.62.64.23,2.31-.76.8-.7,1.84-.65,1.12-.65Z" transform="translate(-30.74 -61.78)" fill="#384b5e"/><path d="M313.19,278.82l.73-.44,1.18,1.1-2.16,1.13C313,280.16,313.13,279.27,313.19,278.82Z" transform="translate(-30.74 -61.78)" fill="#0e141e"/><path d="M310,281.91c-1.33-2.34,3.14-3.48,1.84-.65Z" transform="translate(-30.74 -61.78)" fill="#171e2a"/><path d="M306.87,283.37c-1.1-2.27,2.69-3.76,2.31-.76Z" transform="translate(-30.74 -61.78)" fill="#202a37"/><path d="M304,284.76c-.51-1.48,1.05-2.9,2.27-1.62Z" transform="translate(-30.74 -61.78)" fill="#111620"/><path d="M301,285.74c-.64-2,3-2.86,1.78-.46Z" transform="translate(-30.74 -61.78)" fill="#121924"/><path d="M297.86,287.46c-.38-1.47,1.82-3.3,2.3-1.14Z" transform="translate(-30.74 -61.78)" fill="#0f141e"/><path d="M291.27,288.85l.89-.46,1.25,1.24-2.63,1.1Z" transform="translate(-30.74 -61.78)" fill="#292b2e"/><path d="M277.79,296.85c0-5.13,6.21-5.71,9.84-7.41C287.05,294.37,281.39,294.93,277.79,296.85Z" transform="translate(-30.74 -61.78)"/><path d="M274,298.88c-1-1.76,1.09-3.9,2.51-2A2.77,2.77,0,0,1,274,298.88Z" transform="translate(-30.74 -61.78)" fill="#2e3339"/><path d="M267.29,300l.89-.42,1.26,1.18-2.6,1.12C267,301.43,267.18,300.49,267.29,300Z" transform="translate(-30.74 -61.78)" fill="#18202c"/><path d="M264,303.42c-1-2,2.42-3.71,2.13-.91Z" transform="translate(-30.74 -61.78)" fill="#1a232e"/><path d="M261.28,302.94l.83-.47,1.42,1-2.61,1.36Z" transform="translate(-30.74 -61.78)" fill="#161e29"/><path d="M257.75,306.29c-.48-2,2.66-3.88,2.36-1Z" transform="translate(-30.74 -61.78)" fill="#161e2a"/><path d="M255.41,305.75l.85-.37,1.18,1.2-2.64.84Z" transform="translate(-30.74 -61.78)" fill="#171f2a"/><path d="M252.17,308.92a1.35,1.35,0,0,1,2.17-1.59Z" transform="translate(-30.74 -61.78)" fill="#0d121b"/><path d="M219.88,164.43v.11a3.82,3.82,0,0,0-.26.54,29.32,29.32,0,0,1-6,10.09c-1.57,1.74-3.46,2.88-5.91,2.43a16.46,16.46,0,0,1-3.27-1,10.52,10.52,0,0,0-8.13,0c-1.09.43-2.24.71-3.36,1.07a1.48,1.48,0,0,0-.27.16h-1.22c-.07-.05-.14-.13-.22-.14a6.06,6.06,0,0,1-3.45-2,40.24,40.24,0,0,1-3.33-4.05,30.18,30.18,0,0,1-5.19-13.32c-.11-.71-.21-1.41-.32-2.11v-2.66a5.54,5.54,0,0,0,.17-.58c.17-1.05.26-2.12.53-3.15a13,13,0,0,1,5.79-8.12,10.43,10.43,0,0,1,9.42-1.15l3.59,1.28a3.53,3.53,0,0,0,2.54,0c1-.41,2.08-.73,3.12-1.12a12.32,12.32,0,0,1,11.11.87,9.68,9.68,0,0,1,3.29,3.17l-.43.31a11.49,11.49,0,0,0-3.55,3.66,11.14,11.14,0,0,0,3.63,14.82A14.38,14.38,0,0,0,219.88,164.43Z" transform="translate(-30.74 -61.78)"/><path d="M209.36,127.67c.29,4.71-1.74,8.21-5.67,10.67a7.11,7.11,0,0,1-3.71,1c-.49,0-.67-.15-.68-.66a10.22,10.22,0,0,1,2.95-7.35,11.26,11.26,0,0,1,6.28-3.46,1.88,1.88,0,0,0,.39-.16Z" transform="translate(-30.74 -61.78)"/><circle cx="171.93" cy="102.46" r="3.28" fill="#bb0ee5"/><g opacity="0.37"><polygon points="163.22 142.17 120.09 121.28 171.69 103.06 218.43 120.03 163.22 142.17" fill="#bb0ee5"/><polyline points="165.54 141.24 163.22 142.17 160.97 141.08" fill="none" stroke="#c44fe0" stroke-miterlimit="10"/><line x1="156.68" y1="139" x2="124.48" y2="123.41" fill="none" stroke="#c44fe0" stroke-miterlimit="10" stroke-dasharray="4.77 4.77"/><polyline points="122.34 122.37 120.09 121.28 122.44 120.44" fill="none" stroke="#c44fe0" stroke-miterlimit="10"/><polyline points="127.38 118.7 171.69 103.06 213.62 118.29" fill="none" stroke="#c44fe0" stroke-miterlimit="10" stroke-dasharray="5.23 5.23"/><polyline points="216.08 119.18 218.43 120.03 216.11 120.96" fill="none" stroke="#c44fe0" stroke-miterlimit="10"/><line x1="211.51" y1="122.81" x2="167.84" y2="140.32" fill="none" stroke="#c44fe0" stroke-miterlimit="10" stroke-dasharray="4.95 4.95"/></g><g opacity="0.37"><polygon points="164.49 142.15 120.09 121.28 119.26 55.72 163.66 76.59 164.49 142.15" fill="#e386f7"/><polyline points="164.45 139.65 164.49 142.15 162.22 141.09" fill="none" stroke="#c44fe0" stroke-miterlimit="10"/><line x1="157.79" y1="139.01" x2="124.57" y2="123.38" fill="none" stroke="#c44fe0" stroke-miterlimit="10" stroke-dasharray="4.9 4.9"/><polyline points="122.35 122.34 120.09 121.28 120.06 118.78" fill="none" stroke="#c44fe0" stroke-miterlimit="10"/><line x1="120" y1="114.12" x2="119.32" y2="60.55" fill="none" stroke="#c44fe0" stroke-miterlimit="10" stroke-dasharray="4.66 4.66"/><polyline points="119.29 58.22 119.26 55.72 121.52 56.78" fill="none" stroke="#c44fe0" stroke-miterlimit="10"/><line x1="125.95" y1="58.86" x2="159.18" y2="74.49" fill="none" stroke="#c44fe0" stroke-miterlimit="10" stroke-dasharray="4.9 4.9"/><polyline points="161.39 75.53 163.66 76.59 163.69 79.09" fill="none" stroke="#c44fe0" stroke-miterlimit="10"/><line x1="163.75" y1="83.75" x2="164.42" y2="137.32" fill="none" stroke="#c44fe0" stroke-miterlimit="10" stroke-dasharray="4.66 4.66"/></g><g opacity="0.37"><polygon points="218.43 120.03 164.49 142.15 163.66 76.59 216.37 57.01 218.43 120.03" fill="#b366c6"/><polyline points="218.35 117.53 218.43 120.03 216.12 120.98" fill="none" stroke="#c44fe0" stroke-miterlimit="10"/><line x1="211.63" y1="122.82" x2="169.04" y2="140.28" fill="none" stroke="#c44fe0" stroke-miterlimit="10" stroke-dasharray="4.85 4.85"/><polyline points="166.8 141.2 164.49 142.15 164.45 139.65" fill="none" stroke="#c44fe0" stroke-miterlimit="10"/><line x1="164.4" y1="134.99" x2="163.72" y2="81.42" fill="none" stroke="#c44fe0" stroke-miterlimit="10" stroke-dasharray="4.66 4.66"/><polyline points="163.69 79.09 163.66 76.59 166 75.72" fill="none" stroke="#c44fe0" stroke-miterlimit="10"/><line x1="170.37" y1="74.1" x2="211.84" y2="58.69" fill="none" stroke="#c44fe0" stroke-miterlimit="10" stroke-dasharray="4.66 4.66"/><polyline points="214.03 57.88 216.37 57.01 216.45 59.51" fill="none" stroke="#c44fe0" stroke-miterlimit="10"/><line x1="216.62" y1="64.78" x2="218.26" y2="114.9" fill="none" stroke="#c44fe0" stroke-miterlimit="10" stroke-dasharray="5.28 5.28"/></g><g opacity="0.37"><polygon points="163.66 76.59 119.26 55.72 171.99 37.4 216.37 57.01 163.66 76.59" fill="#bb0ee5"/><polyline points="166 75.72 163.66 76.59 161.39 75.53" fill="none" stroke="#c44fe0" stroke-miterlimit="10"/><line x1="156.96" y1="73.45" x2="123.74" y2="57.82" fill="none" stroke="#c44fe0" stroke-miterlimit="10" stroke-dasharray="4.9 4.9"/><polyline points="121.52 56.78 119.26 55.72 121.62 54.9" fill="none" stroke="#c44fe0" stroke-miterlimit="10"/><polyline points="126.56 53.18 171.99 37.4 211.69 54.94" fill="none" stroke="#c44fe0" stroke-miterlimit="10" stroke-dasharray="5.23 5.23"/><polyline points="214.08 56 216.37 57.01 214.03 57.88" fill="none" stroke="#c44fe0" stroke-miterlimit="10"/><line x1="209.66" y1="59.5" x2="168.18" y2="74.91" fill="none" stroke="#c44fe0" stroke-miterlimit="10" stroke-dasharray="4.66 4.66"/></g><circle cx="120.52" cy="55.7" r="3.78" fill="#bb0ee5"/><circle cx="163.64" cy="75.33" r="3.78" fill="#bb0ee5"/><circle cx="120.09" cy="121.28" r="3.78" fill="#bb0ee5"/><circle cx="164.49" cy="142.15" r="3.78" fill="#bb0ee5"/><circle cx="170.73" cy="37.41" r="3.78" fill="#bb0ee5"/><circle cx="216.37" cy="57.01" r="3.78" fill="#bb0ee5"/><circle cx="218.43" cy="120.03" r="3.78" fill="#bb0ee5"/><path d="M119.42,144.28a79.35,79.35,0,0,0-7.89,2.91c-2.58,1.07-5.12,2.24-7.58,3.54a57,57,0,0,0-13.55,9.4,26.6,26.6,0,0,0-4.91,6.29A18,18,0,0,0,84,170a14.57,14.57,0,0,0-.62,3.76,18.23,18.23,0,0,0,1.33,7.5,30.26,30.26,0,0,0,3.94,6.84,67.22,67.22,0,0,0,11.5,11.49,138.15,138.15,0,0,0,13.56,9.48,155.1,155.1,0,0,0,29.76,14.49A177.17,177.17,0,0,0,175.56,232a215.24,215.24,0,0,0,33.18,2.84,252.24,252.24,0,0,0,33.39-1.93,236.76,236.76,0,0,0,33-6.29,154.92,154.92,0,0,1-16.1,5.06c-5.45,1.43-11,2.6-16.52,3.62a220.07,220.07,0,0,1-33.72,3.4,197.81,197.81,0,0,1-33.94-2.06,174.19,174.19,0,0,1-33.07-8.34,157,157,0,0,1-30.61-15.13A144.07,144.07,0,0,1,97.33,203c-2.18-1.87-4.31-3.8-6.34-5.87a55.79,55.79,0,0,1-5.56-6.74,34.17,34.17,0,0,1-4.15-7.87,23.43,23.43,0,0,1-1.1-4.42,21.65,21.65,0,0,1-.22-2.29,19.57,19.57,0,0,1,.09-2.3A19.8,19.8,0,0,1,83,165a29.46,29.46,0,0,1,5.73-6.67,57.23,57.23,0,0,1,14.64-8.84A85.85,85.85,0,0,1,119.42,144.28Z" transform="translate(-30.74 -61.78)" fill="#ff00f9"/><path d="M129.3,152.75a58.11,58.11,0,0,0-5.76,2.23c-1.88.81-3.74,1.7-5.53,2.68a41.36,41.36,0,0,0-9.8,7c-2.81,2.73-4.87,6.19-4.95,9.8a13.1,13.1,0,0,0,1,5.31,22.06,22.06,0,0,0,2.87,4.89c4.77,6.13,11.49,10.93,18.32,15.18a113.45,113.45,0,0,0,21.75,10.55,129.52,129.52,0,0,0,23.45,6.16,160,160,0,0,0,24.27,2.2,191.07,191.07,0,0,0,24.48-1.23,181.58,181.58,0,0,0,24.28-4.3,134.72,134.72,0,0,1-23.92,6.7,159.83,159.83,0,0,1-24.81,2.69,142.92,142.92,0,0,1-25-1.42,127.45,127.45,0,0,1-24.42-6.11,115.92,115.92,0,0,1-22.59-11.2,106,106,0,0,1-10.19-7.51c-1.61-1.38-3.19-2.82-4.68-4.37a39.41,39.41,0,0,1-4.12-5,25.78,25.78,0,0,1-3.08-5.92,15.92,15.92,0,0,1-.88-6.83,14.94,14.94,0,0,1,2.24-6.45,21.74,21.74,0,0,1,4.33-4.95,42,42,0,0,1,10.89-6.42A61.39,61.39,0,0,1,129.3,152.75Z" transform="translate(-30.74 -61.78)" fill="#ff00f9"/><g opacity="0.61"><path d="M51.44,203.14C46.5,184.86,38.71,149,31.8,123.46A30.5,30.5,0,0,1,53.46,86l88.08-23.24a30.52,30.52,0,0,1,15.9.1l187.29,51.77A23.51,23.51,0,0,1,361,143.94l-37.9,120.78c-1.57,5.35-25.8,17-32.84,20.11-16.29,7.14-43,24.79-60,21.44-38.1-7.54-137.52-63.75-168.82-83C54.88,219.17,53.46,210.64,51.44,203.14Z" transform="translate(-30.74 -61.78)" fill="#fff"/><path d="M51.44,203.14C46.5,184.86,38.71,149,31.8,123.46A30.5,30.5,0,0,1,53.46,86l88.08-23.24a30.52,30.52,0,0,1,15.9.1l187.29,51.77A23.51,23.51,0,0,1,361,143.94l-37.9,120.78c-1.57,5.35-25.8,17-32.84,20.11-16.29,7.14-43,24.79-60,21.44-38.1-7.54-137.52-63.75-168.82-83C54.88,219.17,53.46,210.64,51.44,203.14Z" transform="translate(-30.74 -61.78)" fill="url(#b)"/></g><path d="M175.78,327.69V253.55h15v74.14Z" transform="translate(-30.74 -61.78)" fill="#00e7ff"/><path d="M202,291.08q0-11.32,3.39-19a34.75,34.75,0,0,1,6.9-10.16,29.09,29.09,0,0,1,9.58-6.68,40.82,40.82,0,0,1,16-2.93q16.39,0,26.22,10.16t9.84,28.27q0,18-9.76,28.09T238,329q-16.54,0-26.3-10.08T202,291.08Zm15.42-.51q0,12.6,5.82,19.09a20,20,0,0,0,29.46,0q5.73-6.43,5.73-19.34,0-12.75-5.58-19T238,265.08q-9.26,0-14.92,6.35T217.4,290.57Z" transform="translate(-30.74 -61.78)" fill="#00e7ff"/><path d="M281.78,303.57l14.56-1.42q1.32,7.34,5.34,10.77t10.84,3.44q7.23,0,10.9-3.06a9.11,9.11,0,0,0,3.67-7.15,6.76,6.76,0,0,0-1.55-4.48,12.27,12.27,0,0,0-5.38-3.21q-2.62-.91-12-3.23-12-3-16.89-7.34A19.29,19.29,0,0,1,284.46,273a19.07,19.07,0,0,1,3.21-10.59,20.07,20.07,0,0,1,9.25-7.51,37.08,37.08,0,0,1,14.59-2.58q14,0,21,6.12t7.41,16.33l-15,.66q-1-5.72-4.12-8.22c-2.11-1.66-5.27-2.5-9.48-2.5s-7.75.89-10.22,2.68a5.41,5.41,0,0,0-2.37,4.6,5.68,5.68,0,0,0,2.22,4.5q2.83,2.39,13.76,5t16.16,5.33a20.93,20.93,0,0,1,8.19,7.54,23.33,23.33,0,0,1-.58,23.74,21.18,21.18,0,0,1-10,8.27Q322,329,312.37,329q-14.06,0-21.59-6.49T281.78,303.57Z" transform="translate(-30.74 -61.78)" fill="#00e7ff"/></svg>