<svg xmlns="http://www.w3.org/2000/svg" xmlns:xlink="http://www.w3.org/1999/xlink" viewBox="0 0 320.27 275.05"><defs><linearGradient id="a" x1="8.13" y1="164.45" x2="317.27" y2="164.45" gradientUnits="userSpaceOnUse"><stop offset="0.01" stop-color="#7efff3"/><stop offset="0.52" stop-color="#9c83cf"/><stop offset="0.99" stop-color="#bd9ca8"/></linearGradient><linearGradient id="b" x1="37.85" y1="141.2" x2="59.07" y2="141.2" xlink:href="#a"/><linearGradient id="c" x1="29.94" y1="141.41" x2="69.89" y2="141.41" xlink:href="#a"/><linearGradient id="d" x1="116.42" y1="129.39" x2="135.57" y2="129.39" xlink:href="#a"/><linearGradient id="e" x1="109.67" y1="129.39" x2="142.6" y2="129.39" xlink:href="#a"/><linearGradient id="f" x1="99.55" y1="130.8" x2="155.11" y2="130.8" xlink:href="#a"/><linearGradient id="g" x1="195.74" y1="190.07" x2="217.55" y2="190.07" xlink:href="#a"/><linearGradient id="h" x1="185.24" y1="190.49" x2="231.05" y2="190.49" xlink:href="#a"/><linearGradient id="i" x1="82.02" y1="89.92" x2="156.08" y2="89.92" gradientTransform="translate(55.63 3.91) scale(0.66 1)" gradientUnits="userSpaceOnUse"><stop offset="0.01" stop-color="#7efff3"/><stop offset="1" stop-color="#bd9ca8" stop-opacity="0"/></linearGradient><linearGradient id="j" x1="78.24" y1="213.51" x2="152.29" y2="213.51" gradientTransform="translate(97.69 -24.69)" xlink:href="#i"/><linearGradient id="k" x1="-49.47" y1="200.36" x2="24.58" y2="200.36" gradientTransform="translate(117.97 50.98) scale(0.84 1)" xlink:href="#i"/><linearGradient id="l" x1="34.52" y1="144.4" x2="108.57" y2="144.4" gradientTransform="translate(79.04 19.67) scale(0.72 1)" xlink:href="#i"/><linearGradient id="m" x1="144.11" y1="159.23" x2="218.16" y2="159.23" gradientTransform="translate(52.03 -53.34)" xlink:href="#i"/><linearGradient id="n" x1="-36.12" y1="275.5" x2="37.94" y2="275.5" gradientTransform="translate(189.13 8.16) scale(0.62 1)" xlink:href="#i"/><linearGradient id="o" x1="140.82" y1="304.13" x2="214.87" y2="304.13" gradientTransform="translate(139.51 -80.26)" xlink:href="#i"/></defs><title>IOSVr</title><polygon points="216.51 242.56 9.82 137.88 8.13 134.14 9.86 128.91 101.75 86.33 114.39 88.1 317.27 190 216.51 242.56" fill="url(#a)"/><path d="M132.3,156.38c5.71-1.61,14-2.21,19.34-.19l-1.75.19a61.82,61.82,0,0,0-12.09,0c-.55,0-7,1.51-7.56,1.51Z" transform="translate(-38.04 -69.31)" fill="#3e3f3f"/><path d="M131.34,157.28l2.74-1Z" transform="translate(-38.04 -69.31)" fill="#454545"/><path d="M134.08,156.28l1.5,0,2.22,0-1.12.89c-1,.79-2,1.58-3.07,2.3-3.62,1.88-7.47,3.31-11,5.36-1.25,1.64,1,2.31,2,3.3a6.54,6.54,0,0,0-3.18,4.69c-3.19,1.25-6.26,2.76-9.33,4.23a26.5,26.5,0,0,0-7.79,3.72c-4.92,2.22-9.76,4.57-14.67,6.79a4.33,4.33,0,0,0-5,2.52c-1.72.81-3.43,1.65-5.19,2.36-4.45.88-8.88-.09-13.23-1-1.9-.46-3.38,1.31-5,1.95-3.91,2.29-8.73,3.46-11.66,7.14-1.15,3.23,2,5.4,4.48,6.68C85.33,222.8,116.65,238.5,148.09,254c-.23,2.54,2.82,3.58,4.72,2.32,1.94,1.06,3.94,2,5.91,3a30.84,30.84,0,0,0,11.86,5.93q20.86,10.18,41.57,20.72c-6.5-1.31-12.07-5-18-7.68-6.13-2.79-11.94-6.22-18.27-8.54,7.94,5,16.7,8.59,24.77,13.41,12.41,6.22,24.54,13,37.14,18.76a36.88,36.88,0,0,0,32-.47c23.29-11,46.64-21.83,69.9-32.86,3.57-2.19,7.93-3.23,10.73-6.51,2.15-2.55-.17-5.68-1.11-8.26a12.69,12.69,0,0,1,6,7.43c-.48,1.09-.95,2.18-1.4,3.29-.89.85-1.76,1.67-2.64,2.52C323.45,280.22,295.44,293,267.7,306.3c-5.76,4.24-13,1.32-19.53,2.15a27.67,27.67,0,0,1-9.74-2.52c-63.86-31.39-127.5-63.23-191.29-94.76-.27-4.41-3.63-9.5-.25-13.4,4.07-3.48,9.6-4.54,13.93-7.68L63,188.88a72.79,72.79,0,0,0,13.11-6.06c1.06-.48,2.12-.95,3.19-1.41.11,0,.34-.15.44-.21l4.3-2.07.42-.21c4.1-2,8.26-3.9,12.43-5.74.2-.08.57-.25.76-.35l1-.45,1-.45,1.06-.45c1.73.33,4.46.06,4.35-2.3l.18-.05c4.13-.68,7.76-2.73,11.15-5.07l.46-.23.66-.32,1.05-.49.69-.3,1.88-.68a3.86,3.86,0,0,0,3.86-2.25l.59-.08a4.13,4.13,0,0,0,5.16-2.35l.65-.08ZM90,183.52c4.45-1.34,9.2-2.84,12.6-6.17C98.09,178.39,93.06,180,90,183.52Z" transform="translate(-38.04 -69.31)" fill="#1d1d1d"/><path d="M65.88,233c5.41,1.91,10.43,4.66,15.56,7.19,15.46,8.07,31.4,15.18,46.93,23.14,24.7,12.23,49.33,24.6,74,36.9,5,2.49,10.46,4.11,14.8,7.73-19.62-9.24-38.93-19.13-58.38-28.74C128,263.55,96.62,248.87,65.88,233Z" transform="translate(-38.04 -69.31)" fill="#1d1d1d"/><path d="M218.64,308.71a67.77,67.77,0,0,1,11,4.54l.86.76c.86.75,1.74,1.46,2.65,2.16C228.44,313.46,223.43,311.29,218.64,308.71Z" transform="translate(-38.04 -69.31)" fill="#1d1d1d"/><path d="M137.8,156.34a61.82,61.82,0,0,1,12.09,0c-4.31,1.19-8.79,1-13.21.85Z" transform="translate(-38.04 -69.31)" fill="#0b0b0b"/><path d="M149.89,156.38l1.75-.19.8.36,2.32.87,1.25.12,2.2,1.13a11.49,11.49,0,0,1,4.85,2.32l2.15,1.18c3.08.85,5.78,2.66,8.69,4l.24.13,2.16,1.05a1.58,1.58,0,0,1,.26.13c4.48,2.32,9.05,4.49,13.54,6.81,27.61,14,55.52,27.41,83.16,41.38-4.95.58-9.12-2.36-13.8-3.31-35.87-17.2-66.58-33.19-107.63-53a25.6,25.6,0,0,0-18.22.23c1-.72,2.07-1.51,3.07-2.3C141.1,157.4,145.58,157.57,149.89,156.38Z" transform="translate(-38.04 -69.31)" fill="#303030"/><path d="M125.53,159.71a6,6,0,0,1,5.16-2.35A4.13,4.13,0,0,1,125.53,159.71Z" transform="translate(-38.04 -69.31)" fill="#404040"/><path d="M120.72,161.31a5,5,0,0,1,4.22-1.52,3.86,3.86,0,0,1-3.86,2.25Z" transform="translate(-38.04 -69.31)" fill="#3e3f3f"/><path d="M118.51,163l.69-.3Z" transform="translate(-38.04 -69.31)" fill="#4f5050"/><path d="M116.8,163.83l.66-.32Z" transform="translate(-38.04 -69.31)" fill="#4e4e4f"/><path d="M105.19,169.13a76.13,76.13,0,0,1,11.15-5.07C113,166.4,109.32,168.45,105.19,169.13Z" transform="translate(-38.04 -69.31)" fill="#3f3f3f"/><path d="M173.9,166.12l.24.13Z" transform="translate(-38.04 -69.31)" fill="#3f3f40"/><path d="M176.3,167.3a1.58,1.58,0,0,1,.26.13A1.58,1.58,0,0,0,176.3,167.3Z" transform="translate(-38.04 -69.31)" fill="#434343"/><path d="M124.57,168.19c.27.21.81.64,1.07.86-.32,2.17-2.32,3.29-4.25,3.83A6.54,6.54,0,0,1,124.57,168.19Z" transform="translate(-38.04 -69.31)" fill="#1e1e1e"/><path d="M100.66,171.48a7,7,0,0,1,4.35-2.3C105.12,171.54,102.39,171.81,100.66,171.48Z" transform="translate(-38.04 -69.31)" fill="#404041"/><path d="M98.63,172.38l1-.45Z" transform="translate(-38.04 -69.31)" fill="#505151"/><path d="M96.88,173.18c.2-.08.57-.25.76-.35C97.45,172.93,97.08,173.1,96.88,173.18Z" transform="translate(-38.04 -69.31)" fill="#505051"/><path d="M90,183.52c3.07-3.56,8.1-5.13,12.6-6.17C99.19,180.68,94.44,182.18,90,183.52Z" transform="translate(-38.04 -69.31)" fill="#3b3b3b"/><path d="M104.27,180.83a26.5,26.5,0,0,1,7.79-3.72A46,46,0,0,1,104.27,180.83Z" transform="translate(-38.04 -69.31)" fill="#202020"/><path d="M84,179.13l.42-.21Z" transform="translate(-38.04 -69.31)" fill="#515151"/><path d="M79.29,181.41c.11,0,.34-.15.44-.21C79.63,181.26,79.4,181.36,79.29,181.41Z" transform="translate(-38.04 -69.31)" fill="#515252"/><path d="M84.55,190.14a4.33,4.33,0,0,1,5-2.52A5.43,5.43,0,0,1,84.55,190.14Z" transform="translate(-38.04 -69.31)" fill="#212121"/><path d="M42.27,199.3c5.76-3.88,12.17-6.55,18.55-9.21-4.33,3.14-9.86,4.2-13.93,7.68-3.38,3.9,0,9,.25,13.4-1.85-1-3.79-2.2-4.86-4.1C41.3,204.57,42,201.86,42.27,199.3Z" transform="translate(-38.04 -69.31)" fill="#6b6b6a"/><path d="M61.09,193.45c1.66-.64,3.14-2.41,5-1.95,4.35.91,8.78,1.88,13.23,1C73.47,195.89,67,190.55,61.09,193.45Z" transform="translate(-38.04 -69.31)" fill="#232323"/><path d="M41.9,199.53l.37-.23c-.29,2.56-1,5.27,0,7.77,1.07,1.9,3,3.08,4.86,4.1,63.79,31.53,127.43,63.37,191.29,94.76,0,1.58.3,3.4-1.54,4.11a15.6,15.6,0,0,1-4.35-1.19c-26.82-13.81-54.07-26.84-81-40.4-14.1-6.88-28.06-14-42.22-20.82-5.4-3.93-11.55-7.5-18.3-8.29l-1.89-2.07c-7-2-11.71-4.48-15.51-7.69,3.6,4.57,9.88,5.16,14.11,9-3.75-1.74-7.54-3.45-11.16-5.43-2.89-1.87-5-5.82-9-5l-1.65-2.07c-8.84-5.64-19.6-7.92-27.58-14.93L38,207.3C38.67,204.43,40.3,202,41.9,199.53Z" transform="translate(-38.04 -69.31)" fill="#d5fbff"/><path d="M343.36,264.67c2.74.51,5-1.09,7.09-2.6-2.8,3.28-7.16,4.32-10.73,6.51-23.26,11-46.61,21.88-69.9,32.86a36.88,36.88,0,0,1-32,.47,24.38,24.38,0,0,0,4.49-.62l1.2,1.45,1.12,1.28c7.51.78,15.56,1.21,22.49-2.31,25.54-12,51.21-23.78,76.72-35.84l-1.09-1-.8-.73Z" transform="translate(-38.04 -69.31)" fill="#d5fbff"/><path d="M38.32,211.12c8,7,18.74,9.29,27.58,14.93l-1.13,1.76c-2.08-.84-4.15-1.67-6.19-2.57-2.24-1.17-4.53-2.22-6.84-3.23-.05.67-.15,2-.19,2.72-1.9-5.7-8.13-6.93-12.57-10A30,30,0,0,1,38.32,211.12Z" transform="translate(-38.04 -69.31)" fill="#7595b1"/><path d="M259.46,212.31c4.68.95,8.85,3.89,13.8,3.31,6.53,3,12.95,6.31,19.41,9.52a6.82,6.82,0,0,0,4.74,2.52c16.89,7.9,33.38,16.66,50.26,24.54l1.67,1.61c.94,2.58,3.26,5.71,1.11,8.26-2.09,1.51-4.35,3.11-7.09,2.6,1.6-2.12,4.58-3.92,3.73-7-2.21-3.67-6.64-4.84-10.18-6.79C311.14,237.93,285.15,225.41,259.46,212.31Z" transform="translate(-38.04 -69.31)" fill="#3e3e3e"/><path d="M39,214.75c4.44,3.05,10.67,4.28,12.57,10,0-.68.14-2,.19-2.72,2.31,1,4.6,2.06,6.84,3.23,3.07,5.46,10,4.62,14.61,7.93,4.67,3,9.8,5.07,14.59,7.84.44-1.25.89-2.5,1.33-3.74L91,239.34c6.75.79,12.9,4.36,18.3,8.29.87,3.31,4.19,4.42,6.91,5.8,21.19,10.15,41.71,21.62,63.06,31.43,15.3,7.62,30.67,15.1,45.95,22.77,2.47.93,3.44,3.4,4.44,5.62a67.77,67.77,0,0,0-11-4.54l-1.46-.75c-4.34-3.62-9.82-5.24-14.8-7.73-24.68-12.3-49.31-24.67-74-36.9-15.53-8-31.47-15.07-46.93-23.14-5.13-2.53-10.15-5.28-15.56-7.19-5.74-2.77-11.44-5.62-17.25-8.2A17.84,17.84,0,0,1,39,214.75Z" transform="translate(-38.04 -69.31)" fill="#4c637a"/><path d="M89.11,237.27c-.44,1.24-.89,2.49-1.33,3.74-4.79-2.77-9.92-4.88-14.59-7.84-4.6-3.31-11.54-2.47-14.61-7.93,2,.9,4.11,1.73,6.19,2.57.69.07,2.09.22,2.78.31,4-.81,6.11,3.14,9,5,3.62,2,7.41,3.69,11.16,5.43-4.23-3.82-10.51-4.41-14.11-9" transform="translate(-38.04 -69.31)" fill="#5f7b95"/><path d="M292.67,225.14c1.95-.55,4.71,0,4.74,2.52A6.82,6.82,0,0,1,292.67,225.14Z" transform="translate(-38.04 -69.31)" fill="#404041"/><path d="M64.77,227.81l1.13-1.76,1.65,2.07C66.86,228,65.46,227.88,64.77,227.81Z" transform="translate(-38.04 -69.31)" fill="#3c536b"/><path d="M109.3,247.63c14.16,6.78,28.12,13.94,42.22,20.82,26.95,13.56,54.2,26.59,81,40.4a15.6,15.6,0,0,0,4.35,1.19c1.84-.71,1.56-2.53,1.54-4.11a27.67,27.67,0,0,0,9.74,2.52,37.34,37.34,0,0,1,8.15,1.86c-4.68,1.08-9.37-.15-14-.46-.64.45-1.91,1.35-2.56,1.79,4.93,1.85,10.41,3,15.64,2,4.37-1.54,8.44-3.88,13-5,1,.62,2.68,1.91,1.14,3-7.06,5.65-16.64,4.55-25.08,4.56a43.33,43.33,0,0,1-12.8-5.2c-.25.75-.79,2.24-1.06,3l-.86-.76c-1-2.22-2-4.69-4.44-5.62-15.28-7.67-30.65-15.15-45.95-22.77-21.35-9.81-41.87-21.28-63.06-31.43C113.49,252.05,110.17,250.94,109.3,247.63Z" transform="translate(-38.04 -69.31)" fill="#6f91ad"/><path d="M347.67,252.2a23.41,23.41,0,0,1,9.18,7.84c.5,1.17,1,2.35,1.46,3.52-.06,2.29-.17,4.57-.23,6.86-.73,1.29-1.47,2.57-2.26,3.82-2.68,1.09-5.4,2.1-8.07,3.25l-1.37-1.29-.86.52c-.07.52-.22,1.56-.29,2.09-.33.18-1,.57-1.31.76,1.52-3.31-3.7-2-2.15.76-.23.19-.7.61-.93.81.44-3.5-4-1.76-2.7.89l-.75-.27c-1.42-1.49-3.24.17-2.65,1.89l-1.42.61c1.4-2.8-2.83-1.83-2.08.54-.24.16-.7.5-.94.68-.56-2.53-3.13-.39-2.68,1.33-1.74.84-3.5,1.65-5.2,2.53L321,287.89l-1,.54-.57,2.2-1.58.85c-.44-.6-1.32-1.77-1.75-2.37h-.35c-4.24,2-11.49,2.66-11.49,8.66-.52,0-1,0-1.52,0-1.66-2.23-4.07.27-2.93,2.33a36.3,36.3,0,0,0-5.31,2.22c-.36-.35-1.1-1-1.47-1.38l-1,.49c-.13.55-.4,1.65-.52,2.19l-.89.72c.34-3.27-3.62-1.28-2.49,1.06l-.49.08-1.66-1.19-1,.55c-.1.55-.31,1.67-.42,2.23l-1,.57c.36-3.42-3.31-1.21-2.75,1.11l-.36.34-1.38-1.4-1,.43-.72,1.95-.53-.1a1.57,1.57,0,0,0-2.54,1.85c-8.88,5.54-19.79,6.5-29.87,4.35,8.44,0,18,1.09,25.08-4.56,1.54-1.11-.15-2.4-1.14-3,15.5-6.48,30.38-14.37,45.69-21.29,11.29-4.86,22.17-10.67,33.57-15.29,2.09-.68,4.6-.68,6.25-2.35.18-1.72.06-3.46.08-5.18.45-1.11.92-2.2,1.4-3.29a12.69,12.69,0,0,0-6-7.43Z" transform="translate(-38.04 -69.31)" fill="#62809b"/><path d="M148.09,254a14.24,14.24,0,0,1,4.72,2.32C150.91,257.56,147.86,256.52,148.09,254Z" transform="translate(-38.04 -69.31)" fill="#232323"/><path d="M158.72,259.31a60.57,60.57,0,0,1,11.86,5.93A30.84,30.84,0,0,1,158.72,259.31Z" transform="translate(-38.04 -69.31)" fill="#232323"/><path d="M329.47,270.36c4.33-2,8.46-4.61,13.23-5.5l1.09,1c-25.51,12.06-51.18,23.81-76.72,35.84-6.93,3.52-15,3.09-22.49,2.31l-1.12-1.28c6.65,0,13.75,1.6,20-1.41Q296.44,285.81,329.47,270.36Z" transform="translate(-38.04 -69.31)" fill="#464646"/><path d="M175.86,269.74c6.33,2.32,12.14,5.75,18.27,8.54,6,2.66,11.52,6.37,18,7.68,10.11,4.6,19.68,10.43,30,14.4,0,.23.05.7.06.93a24.38,24.38,0,0,1-4.49.62c-12.6-5.77-24.73-12.54-37.14-18.76C192.56,278.33,183.8,274.78,175.86,269.74Z" transform="translate(-38.04 -69.31)" fill="#464646"/><path d="M351.27,267.05c.88-.85,1.75-1.67,2.64-2.52,0,1.72.1,3.46-.08,5.18-1.65,1.67-4.16,1.67-6.25,2.35C348.92,270.47,350.09,268.75,351.27,267.05Z" transform="translate(-38.04 -69.31)" fill="#43576b"/><path d="M267.7,306.3c27.74-13.3,55.75-26.08,83.57-39.25-1.18,1.7-2.35,3.42-3.69,5-11.4,4.62-22.28,10.43-33.57,15.29-15.31,6.92-30.19,14.81-45.69,21.29-4.52,1.12-8.59,3.46-13,5-5.23,1-10.71-.15-15.64-2,.65-.44,1.92-1.34,2.56-1.79,4.67.31,9.36,1.54,14,.46a37.34,37.34,0,0,0-8.15-1.86C254.69,307.62,261.94,310.54,267.7,306.3Z" transform="translate(-38.04 -69.31)" fill="#1f2b37"/><path d="M347.75,277.49c2.67-1.15,5.39-2.16,8.07-3.25-2.38,4.86-7.56,6.73-12.11,8.94q-38.56,17.81-76.93,36c-10.89,3.89-23.65,3-33.61-3-.91-.7-1.79-1.41-2.65-2.16.27-.75.81-2.24,1.06-3a43.33,43.33,0,0,0,12.8,5.2c10.08,2.15,21,1.19,29.87-4.35.63-.46,1.89-1.39,2.54-1.85l.53.1,3.09-1,.36-.34,2.75-1.11,1-.57,3-1.59.49-.08,2.49-1.06.89-.72,3-1.3a36.3,36.3,0,0,1,5.31-2.22,3.25,3.25,0,0,0,2.93-2.33c.5,0,1,0,1.52,0,4.2-2.25,10.81-2.9,11.49-8.66H316c.43.6,1.31,1.77,1.75,2.37l1.58-.85,3.07-1.29c1.7-.88,3.46-1.69,5.2-2.53l2.68-1.33c.24-.18.7-.52.94-.68l2.08-.54,1.42-.61c.67-.46,2-1.41,2.65-1.89l.75.27,2.7-.89c.23-.2.7-.62.93-.81l2.15-.76c.33-.19,1-.58,1.31-.76Z" transform="translate(-38.04 -69.31)" fill="#384b5e"/><path d="M345.52,276.72l.86-.52,1.37,1.29-2.52,1.32C345.3,278.28,345.45,277.24,345.52,276.72Z" transform="translate(-38.04 -69.31)" fill="#0e141e"/><path d="M341.77,280.33c-1.55-2.74,3.67-4.07,2.15-.76Z" transform="translate(-38.04 -69.31)" fill="#171e2a"/><path d="M338.14,282c-1.28-2.65,3.14-4.39,2.7-.89Z" transform="translate(-38.04 -69.31)" fill="#202a37"/><path d="M334.74,283.65c-.59-1.72,1.23-3.38,2.65-1.89C336.73,282.24,335.41,283.19,334.74,283.65Z" transform="translate(-38.04 -69.31)" fill="#111620"/><path d="M331.24,284.8c-.75-2.37,3.48-3.34,2.08-.54Z" transform="translate(-38.04 -69.31)" fill="#121924"/><path d="M327.62,286.81c-.45-1.72,2.12-3.86,2.68-1.33Z" transform="translate(-38.04 -69.31)" fill="#0f141e"/><path d="M319.92,288.43l1-.54,1.46,1.45-3.07,1.29Z" transform="translate(-38.04 -69.31)" fill="#292b2e"/><path d="M304.18,297.78c0-6,7.25-6.67,11.49-8.66C315,294.88,308.38,295.53,304.18,297.78Z" transform="translate(-38.04 -69.31)"/><path d="M299.73,300.15c-1.14-2.06,1.27-4.56,2.93-2.33A3.25,3.25,0,0,1,299.73,300.15Z" transform="translate(-38.04 -69.31)" fill="#2e3339"/><path d="M291.91,301.48l1-.49c.37.34,1.11,1,1.47,1.38l-3,1.3C291.51,303.13,291.78,302,291.91,301.48Z" transform="translate(-38.04 -69.31)" fill="#18202c"/><path d="M288,305.45c-1.13-2.34,2.83-4.33,2.49-1.06Z" transform="translate(-38.04 -69.31)" fill="#1a232e"/><path d="M284.89,304.89l1-.55,1.66,1.19-3,1.59C284.58,306.56,284.79,305.44,284.89,304.89Z" transform="translate(-38.04 -69.31)" fill="#161e29"/><path d="M280.77,308.8c-.56-2.32,3.11-4.53,2.75-1.11Z" transform="translate(-38.04 -69.31)" fill="#161e2a"/><path d="M278,308.17l1-.43,1.38,1.4-3.09,1Z" transform="translate(-38.04 -69.31)" fill="#171f2a"/><path d="M274.25,311.87a1.57,1.57,0,0,1,2.54-1.85C276.14,310.48,274.88,311.41,274.25,311.87Z" transform="translate(-38.04 -69.31)" fill="#0d121b"/><ellipse cx="48.46" cy="141.2" rx="10.11" ry="3.8" fill="none" stroke-miterlimit="10" stroke="url(#b)"/><ellipse cx="49.92" cy="141.41" rx="19.48" ry="7.1" fill="none" stroke-miterlimit="10" stroke="url(#c)"/><ellipse cx="126" cy="129.39" rx="9.07" ry="4.08" fill="none" stroke-miterlimit="10" stroke="url(#d)"/><ellipse cx="126.14" cy="129.39" rx="15.96" ry="8.02" fill="none" stroke-miterlimit="10" stroke="url(#e)"/><ellipse cx="127.33" cy="130.8" rx="27.28" ry="12.52" fill="none" stroke-miterlimit="10" stroke="url(#f)"/><ellipse cx="206.64" cy="190.07" rx="10.41" ry="4.57" fill="none" stroke-miterlimit="10" stroke="url(#g)"/><ellipse cx="208.14" cy="190.49" rx="22.41" ry="10.2" fill="none" stroke-miterlimit="10" stroke="url(#h)"/><path d="M270,99.56l-16.87,3.38a6.19,6.19,0,0,1-6.19-6.19V79.88a6.19,6.19,0,0,1,6.19-6.19L270,70.31a6.19,6.19,0,0,1,6.19,6.19V93.38A6.19,6.19,0,0,1,270,99.56Z" transform="translate(-38.04 -69.31)" fill="#64f2e0" stroke="#4e00ff" stroke-miterlimit="10" stroke-width="2"/><path d="M164,200s-.84-100.44,0-100.44,53.37-6.54,68.87-8.47" transform="translate(-38.04 -69.31)" fill="none" stroke="#4e00ff" stroke-miterlimit="10" stroke-width="2"/><path d="M233.17,95.6a4.51,4.51,0,1,0-5-3.93A4.52,4.52,0,0,0,233.17,95.6Z" transform="translate(-38.04 -69.31)" fill="#4e00ff"/><polyline points="206.64 190.84 209.18 135.44 195.21 130.2 193.71 154 175.99 147.25 176.83 125.88 166.1 120.27" fill="none" stroke="#4e00ff" stroke-miterlimit="10" stroke-width="2"/><path d="M206.43,185.68a4.51,4.51,0,1,0,1.91,6.09A4.53,4.53,0,0,0,206.43,185.68Z" transform="translate(-38.04 -69.31)" fill="#4e00ff"/><path d="M68.09,119.67,54,122.77a8.31,8.31,0,0,1-8.3-8.3V100.41a8.3,8.3,0,0,1,8.3-8.3L68.09,89a8.29,8.29,0,0,1,8.3,8.29v14.07A8.29,8.29,0,0,1,68.09,119.67Z" transform="translate(-38.04 -69.31)" fill="#64f2e0" stroke="#4e00ff" stroke-miterlimit="10" stroke-width="2"/><polyline points="47.53 142.64 50.06 95.75 26.63 87.06 26.63 62.1" fill="none" stroke="#4e00ff" stroke-miterlimit="10" stroke-width="2"/><circle cx="64.67" cy="131.64" r="4.51" transform="translate(-97.59 -15.65) rotate(-31.72)" fill="#4e00ff"/><rect x="109.36" y="85.2" width="48.51" height="17.25" rx="8.62" transform="translate(-67.62 29.45) rotate(-36.81)" fill="url(#i)"/><rect x="175.93" y="180.19" width="74.05" height="17.25" rx="8.62" transform="translate(-108.72 95.94) rotate(-36.81)" fill="url(#j)"/><rect x="76.25" y="242.71" width="62.46" height="17.25" rx="8.62" transform="translate(-167.21 45.2) rotate(-36.81)" fill="url(#k)"/><rect x="103.96" y="155.44" width="53.46" height="17.25" rx="8.62" transform="translate(-110.29 41.71) rotate(-36.81)" fill="url(#l)"/><rect x="196.15" y="97.27" width="74.05" height="17.25" rx="8.62" transform="translate(-55 91.51) rotate(-36.81)" fill="url(#m)"/><rect x="166.71" y="275.03" width="45.97" height="17.25" rx="8.62" transform="translate(-170.18 100.91) rotate(-36.81)" fill="url(#n)"/><rect x="280.33" y="215.25" width="74.05" height="17.25" rx="8.62" transform="translate(-108.91 165.48) rotate(-36.81)" fill="url(#o)"/><path d="M222.5,168.29v.09a4.51,4.51,0,0,0-.22.44,24,24,0,0,1-5,8.36,5.17,5.17,0,0,1-4.89,2,13.48,13.48,0,0,1-2.71-.83,8.68,8.68,0,0,0-6.73,0c-.9.35-1.86.59-2.79.88a1.35,1.35,0,0,0-.22.14h-1c-.06,0-.12-.11-.18-.12a5,5,0,0,1-2.86-1.63,35.44,35.44,0,0,1-2.76-3.36,25.26,25.26,0,0,1-4.3-11c-.08-.58-.17-1.16-.26-1.75v-2.2a4.19,4.19,0,0,0,.14-.47c.15-.87.21-1.77.44-2.62a10.82,10.82,0,0,1,4.79-6.72,8.66,8.66,0,0,1,7.81-1l3,1.06a2.87,2.87,0,0,0,2.1,0c.85-.34,1.73-.6,2.58-.93a10.23,10.23,0,0,1,9.21.72,8,8,0,0,1,2.72,2.63l-.36.25a9.7,9.7,0,0,0-2.94,3,9.24,9.24,0,0,0,3,12.27A14.14,14.14,0,0,0,222.5,168.29Z" transform="translate(-38.04 -69.31)" fill="#64f2e0" stroke="#4e00ff" stroke-miterlimit="10" stroke-width="2"/><path d="M213.79,137.85a9.17,9.17,0,0,1-4.7,8.83,5.84,5.84,0,0,1-3.07.79c-.41,0-.55-.12-.56-.54a8.45,8.45,0,0,1,2.44-6.09,9.34,9.34,0,0,1,5.2-2.86,1.79,1.79,0,0,0,.32-.13Z" transform="translate(-38.04 -69.31)" fill="#64f2e0" stroke="#4e00ff" stroke-miterlimit="10" stroke-width="2"/><path d="M159.26,342.85V257.39h17.25v85.46Z" transform="translate(-38.04 -69.31)" fill="#fff"/><path d="M189.45,300.64q0-13,3.91-21.92a40.22,40.22,0,0,1,8-11.71,33.24,33.24,0,0,1,11-7.7,47,47,0,0,1,18.43-3.38q18.89,0,30.22,11.72t11.34,32.59q0,20.68-11.25,32.38T231,344.31q-19.07,0-30.31-11.63T189.45,300.64Zm17.78-.58q0,14.52,6.71,22a23,23,0,0,0,34,.05q6.61-7.42,6.61-22.29,0-14.7-6.44-21.92T231,270.68q-10.67,0-17.2,7.32T207.23,300.06Z" transform="translate(-38.04 -69.31)" fill="#fff"/><path d="M281.44,315l16.79-1.63q1.51,8.44,6.15,12.42t12.51,4q8.34,0,12.56-3.53t4.23-8.24a7.8,7.8,0,0,0-1.78-5.16q-1.78-2.13-6.21-3.71-3-1-13.82-3.73Q298,302,292.4,297a22.44,22.44,0,0,1-4.17-29.41,23.24,23.24,0,0,1,10.68-8.66,42.73,42.73,0,0,1,16.81-3q16.09,0,24.22,7.05t8.54,18.83l-17.25.76q-1.11-6.58-4.75-9.47t-10.93-2.89q-7.53,0-11.78,3.09a6.24,6.24,0,0,0-2.74,5.31,6.53,6.53,0,0,0,2.56,5.18q3.27,2.74,15.86,5.72t18.63,6.15a24,24,0,0,1,9.44,8.68A25.49,25.49,0,0,1,350.93,318a25.15,25.15,0,0,1-4.08,13.75,24.46,24.46,0,0,1-11.54,9.54q-7.46,3.11-18.6,3.11-16.2,0-24.89-7.49T281.44,315Z" transform="translate(-38.04 -69.31)" fill="#fff"/></svg>