<svg data-llp-composed="true" class="lazy-line-painter" viewBox="0 0 1556.365 1243.86">
  <defs>
    <linearGradient id="a" x1="1.103" y1="-0.068" x2="-0.073" y2="1.038" gradientUnits="objectBoundingBox">
      <stop offset="0" stop-color="#fff"/>
      <stop offset="0.051" stop-color="#fff" stop-opacity="0.565"/>
      <stop offset="0.657" stop-color="#fff" stop-opacity="0.161"/>
      <stop offset="1" stop-color="#fff" stop-opacity="0"/>
    </linearGradient>
  </defs>
  <path class="a" d="M1715.093,3519.434c-8.393-16.838-24.194-44.882-47.186-80.485a1249.743,1249.743,0,0,0-86.226-117.774q-23.137-28.11-48.427-55.216-23.325-24.846-47.475-47.59c-139.864-132.02-300.944-210.636-482.286-210.636-202.185,0-379.228,97.7-529.721,258.226a1230,1230,0,0,0-134.693,172.99c-22.993,35.6-38.751,63.647-47.186,80.485a60,60,0,0,0,0,53.521c8.435,16.78,24.193,44.865,47.186,80.476A1255.7,1255.7,0,0,0,425.3,3771.2c15.466,18.7,31.555,37.189,48.468,55.215q23.263,24.821,47.434,47.6c139.906,132.012,300.944,210.628,482.286,210.628,202.227,0,379.228-97.68,529.762-258.226a1227.949,1227.949,0,0,0,134.652-172.981c22.992-35.611,38.793-63.7,47.186-80.476A59.752,59.752,0,0,0,1715.093,3519.434Zm-147.678,69.071a1107.761,1107.761,0,0,1-121.46,156.052c-129.939,138.591-278.2,220.405-442.462,220.405-145.654,0-278.735-64.4-397.632-175.615l173.9-173.887h0l145.4-145.4h0l1.987-2,.041-.042.081-.075h0a109.3,109.3,0,0,1,153.471.989,10.334,10.334,0,0,0,14.724,0l84.61-84.613a10.356,10.356,0,0,0,0-14.7,249.327,249.327,0,0,0-111.988-64.652h0a251.353,251.353,0,0,0-64.679-8.465,247.918,247.918,0,0,0-176.5,73.117h0L510.289,3686.219a1138.912,1138.912,0,0,1-70.677-97.713c-9.76-15.1-18.4-29.3-25.97-42.307,7.566-13.033,16.21-27.221,25.97-42.365a1108.216,1108.216,0,0,1,121.461-156.027c129.9-138.583,278.2-220.413,442.419-220.413,145.654,0,278.777,64.378,397.631,175.623l-173.859,173.87h0L1081.82,3622.331h0l-2.068,2.052a109.181,109.181,0,0,1-153.468-.98,10.557,10.557,0,0,0-7.4-3.057,10.385,10.385,0,0,0-7.361,3.057l-84.612,84.613a10.478,10.478,0,0,0,0,14.761,249.583,249.583,0,0,0,111.99,64.6h0a251.087,251.087,0,0,0,64.678,8.473,247.832,247.832,0,0,0,176.5-73.075h0L1496.7,3406.163a1128.409,1128.409,0,0,1,70.718,97.671c9.759,15.143,18.4,29.332,25.931,42.365C1585.818,3559.207,1577.174,3573.4,1567.414,3588.505Z" transform="translate(214.326 -3020.12) rotate(7)" data-llp-id="eye" data-llp-duration="3000" data-llp-delay="0" style="stroke-linejoin: round;" data-llp-stroke-join="miter-clip" data-llp-stroke-cap="" />
</svg>
