<svg xmlns="http://www.w3.org/2000/svg" width="2307.399" height="2198.097" viewBox="0 0 2307.399 2198.097"><defs><style>.a{fill:none;stroke:rgba(255,255,255,0.22);stroke-width:0.5px;}</style></defs><g transform="translate(228.411 669.806)"><path class="a" d="M89,0S120.892,1761.818-48,1761.818" transform="matrix(0.966, 0.259, -0.259, 0.966, 274.01, -657.379)"/><path class="a" d="M89,0S120.892,1761.818-48,1761.818" transform="matrix(0.966, 0.259, -0.259, 0.966, 389.538, -626.423)"/><path class="a" d="M89,0S120.892,1761.818-48,1761.818" transform="matrix(0.966, 0.259, -0.259, 0.966, 522.836, -590.706)"/><path class="a" d="M89,0S120.892,1761.818-48,1761.818" transform="matrix(0.966, 0.259, -0.259, 0.966, 656.134, -554.989)"/><path class="a" d="M89,0S120.892,1761.818-48,1761.818" transform="matrix(0.966, 0.259, -0.259, 0.966, 790.781, -518.91)"/><path class="a" d="M89,0S120.892,1761.818-48,1761.818" transform="matrix(0.966, 0.259, -0.259, 0.966, 922.729, -483.555)"/><path class="a" d="M89,0S120.892,1761.818-48,1761.818" transform="matrix(0.966, 0.259, -0.259, 0.966, 1056.027, -447.838)"/><path class="a" d="M89,0S120.892,1761.818-48,1761.818" transform="matrix(0.966, 0.259, -0.259, 0.966, 1189.325, -412.121)"/><path class="a" d="M89,0S120.892,1761.818-48,1761.818" transform="matrix(0.966, 0.259, -0.259, 0.966, 1322.623, -376.404)"/><path class="a" d="M89,0S120.892,1761.818-48,1761.818" transform="matrix(0.966, 0.259, -0.259, 0.966, 1455.92, -340.687)"/><path class="a" d="M89,0S120.892,1761.818-48,1761.818" transform="matrix(0.966, 0.259, -0.259, 0.966, 1589.218, -304.97)"/><path class="a" d="M89,0S120.892,1761.818-48,1761.818" transform="matrix(0.966, 0.259, -0.259, 0.966, 1722.516, -269.253)"/><path class="a" d="M89,0S120.892,1761.818-48,1761.818" transform="matrix(0.966, 0.259, -0.259, 0.966, 1855.814, -233.536)"/><path class="a" d="M89,0S120.892,1761.818-48,1761.818" transform="matrix(0.966, 0.259, -0.259, 0.966, 1990.46, -197.457)"/></g></svg>