<svg xmlns="http://www.w3.org/2000/svg" width="149" height="57" viewBox="0 0 149 57"><defs><style>.a,.b{fill:#fff;}.b{font-size:44px;font-family:AirbnbCerealApp-Medium, Airbnb Cereal App;font-weight:500;letter-spacing:0.02em;}</style></defs><g transform="translate(-140 -41)"><path class="a" d="M335.656,3025.657a31.6,31.6,0,0,0-1.652-2.818,43.754,43.754,0,0,0-3.02-4.125q-.81-.984-1.7-1.934-.817-.87-1.663-1.667c-4.9-4.624-10.539-7.376-16.89-7.376-7.081,0-13.281,3.421-18.551,9.043a43.072,43.072,0,0,0-4.717,6.058,31.959,31.959,0,0,0-1.652,2.818,2.1,2.1,0,0,0,0,1.874,32.25,32.25,0,0,0,1.652,2.818,43.966,43.966,0,0,0,3.02,4.124c.542.655,1.105,1.3,1.7,1.934q.815.869,1.661,1.667c4.9,4.623,10.539,7.376,16.89,7.376,7.082,0,13.281-3.421,18.552-9.043A42.994,42.994,0,0,0,334,3030.35a31.886,31.886,0,0,0,1.652-2.818A2.093,2.093,0,0,0,335.656,3025.657Zm-5.172,2.419a38.809,38.809,0,0,1-4.254,5.465c-4.551,4.854-9.743,7.719-15.5,7.719-5.1,0-9.761-2.255-13.925-6.15l6.09-6.09h0l5.092-5.092h0l.07-.07h0l0,0h0a3.828,3.828,0,0,1,5.375.035.362.362,0,0,0,.516,0l2.963-2.963a.363.363,0,0,0,0-.515,8.731,8.731,0,0,0-3.922-2.264h0a8.8,8.8,0,0,0-2.265-.3,8.683,8.683,0,0,0-6.181,2.561h0L293.464,3031.5a39.884,39.884,0,0,1-2.475-3.422c-.342-.529-.645-1.026-.909-1.482.265-.456.568-.953.909-1.483a38.8,38.8,0,0,1,4.254-5.464c4.549-4.853,9.743-7.719,15.494-7.719,5.1,0,9.763,2.255,13.925,6.15l-6.089,6.089h0l-5.094,5.094h0l-.072.072a3.824,3.824,0,0,1-5.375-.034.37.37,0,0,0-.259-.107.364.364,0,0,0-.258.107l-2.963,2.963a.367.367,0,0,0,0,.517,8.738,8.738,0,0,0,3.922,2.262h0a8.79,8.79,0,0,0,2.265.3,8.678,8.678,0,0,0,6.181-2.559h0l11.088-11.088a39.555,39.555,0,0,1,2.477,3.421c.342.53.645,1.027.908,1.483C331.129,3027.05,330.826,3027.547,330.484,3028.076Z" transform="translate(-145.595 -2956.343)"/><text class="b" transform="translate(199 85)"><tspan x="0" y="0">CXR</tspan></text></g></svg>