<svg xmlns="http://www.w3.org/2000/svg" xmlns:xlink="http://www.w3.org/1999/xlink" viewBox="0 0 327.48 276.29"><defs><linearGradient id="a" x1="75.04" y1="255.18" x2="235.36" y2="129.36" gradientUnits="userSpaceOnUse"><stop offset="0" stop-color="#475eb0"/><stop offset="0.81" stop-color="#2afcff"/><stop offset="1" stop-color="#4b48a5"/></linearGradient><linearGradient id="b" x1="26" y1="171.24" x2="298.65" y2="171.24" gradientUnits="userSpaceOnUse"><stop offset="0" stop-color="#475eb0"/><stop offset="0.54" stop-color="#2afcff"/><stop offset="1" stop-color="#4b48a5"/></linearGradient><linearGradient id="c" x1="228.05" y1="94.41" x2="155.68" y2="255.66" gradientUnits="userSpaceOnUse"><stop offset="0" stop-color="#00aed9" stop-opacity="0"/><stop offset="1" stop-color="aqua"/></linearGradient></defs><title>UI_UX_AR</title><ellipse cx="157.4" cy="190.55" rx="132.58" ry="75.93" fill="url(#a)"/><path d="M266.57,309.15,77,200.46a12.55,12.55,0,0,1,.15-21.86L150.05,138a12.53,12.53,0,0,1,12.6.23L349,244.48c9.56,5.61,8,17.29-3.6,24.24l-65.81,40.1A12.57,12.57,0,0,1,266.57,309.15Z" transform="translate(-46.78 -50.58)" fill="#1c1c1c"/><polygon points="219.47 253.92 26 138.08 112.44 89.6 115.56 88.56 120.92 90.63 298.65 194.25 297.82 196.87 296.72 202.25 219.47 253.92" fill="url(#b)"/><path d="M153.27,138.8l6.12-.66c1.33.67,2.15,1.59,1.24,3l-.92,0-.93-.4C157.33,139.28,155.25,139,153.27,138.8Z" transform="translate(-46.78 -50.58)" fill="#515053"/><path d="M159.39,138.14a12.62,12.62,0,0,1,7.4,2.62l-2.3.29c-1.29,0-2.57.09-3.86.11C161.54,139.73,160.72,138.81,159.39,138.14Z" transform="translate(-46.78 -50.58)" fill="#69696f"/><path d="M123.59,155.82c9.73-5.95,19.66-11.59,29.68-17,2,.21,4.06.48,5.51,2-4.14,1.36-7.55,4.18-11.29,6.31-22.17,12.63-44.39,25.17-66.24,38.32l-.63-.44c-.72-1.06-1.43-2.13-2.18-3.16,9.46-5.46,19-10.75,28.29-16.56l1.34.06,1.46.57c4.81-2.26,9.25-5.3,14-7.68C124.58,157.61,124.6,156.81,123.59,155.82Z" transform="translate(-46.78 -50.58)" fill="#333335"/><path d="M106.73,165.27c5.46-3.5,11.45-6.36,16.86-9.45,1,1,1,1.79,0,2.4-4.77,2.38-9.21,5.42-14,7.68C109.16,165.76,107.09,165.41,106.73,165.27Z" transform="translate(-46.78 -50.58)" fill="#1c1c1c"/><path d="M74.11,186.82a16.33,16.33,0,0,1,4.33-5c.75,1,1.46,2.1,2.18,3.16-2,2.61-2.78,5.78-.32,8.39-1.58-.82-3.14-1.69-4.75-2.43C75.09,189.56,74.58,188.19,74.11,186.82Z" transform="translate(-46.78 -50.58)" fill="#161617"/><path d="M73.68,187.48l.43-.66c.47,1.37,1,2.74,1.44,4.13,0,.52,0,1.56.06,2.09a39.2,39.2,0,0,0,.94,6.08C72.34,197.28,72.1,191.26,73.68,187.48Z" transform="translate(-46.78 -50.58)" fill="#3b3c3c"/><path d="M75.55,191c1.61.74,3.17,1.61,4.75,2.43,4.61,2.76,9.23,5.52,14,8,2.33,1.35,4.65,2.72,7,4l1.94,1c1.69,1,3.42,1.83,5.14,2.73,1,.63,2,1.3,3.1,1.89.83.47,1.68.92,2.55,1.34l3.38,1.79c1.62,1,3.25,2.06,5,2.93.49.25,1.45.77,1.94,1a51.87,51.87,0,0,0,5.14,3c.84.42,1.68.82,2.52,1.21a90.7,90.7,0,0,0,9.37,5.74c1.27.66,2.55,1.28,3.84,1.91,9.86,6,19.93,11.69,30,17.41,3,1.78,6,3.53,9.07,5.16a41,41,0,0,0,5,3c3.28,2,6.73,3.73,10.06,5.65,3.3,2.09,6.61,4.17,10,6l1.86,1c2.65,1.79,5.39,3.45,8.17,5,1.63,1,3.31,1.95,5,2.9,4.61,2.75,8.94,6,13.92,8.1a138.9,138.9,0,0,0,11.94,7.19c.71.47,1.45.92,2.19,1.36,1.32.9,3.31,1.35,3.19,3.33-3.63-.6-6.81-2.47-9.88-4.38q-79.55-46.18-159.33-91.94A107.91,107.91,0,0,1,75.61,193C75.6,192.51,75.56,191.47,75.55,191Z" transform="translate(-46.78 -50.58)" fill="#797b7e"/><path d="M75.61,193a107.91,107.91,0,0,0,10.75,6.85l-.65,1.18c9.88,6.52,20.11,12.54,30.37,18.48.5.82,1,1.65,1.42,2.51l0,1c-9.84-5-18.81-11.51-28.74-16.33L87.66,206a42,42,0,0,0-5.93-3.22c-1.69-1.19-4.23-1.85-5.18-3.69A39.2,39.2,0,0,1,75.61,193Z" transform="translate(-46.78 -50.58)" fill="#434343"/><path d="M85.71,201.07l.65-1.18q79.88,45.63,159.33,91.94l-1.39,1.34c-6.19-2.25-11.53-6.31-17.17-9.61C205.4,271.4,184,258.64,162.39,246.31c-7-3.24-12.88-8.63-20.37-10.8-6.9-5.83-15.06-10-23.2-13.75l-1.32.3c-.44-.86-.92-1.69-1.42-2.51C105.82,213.61,95.59,207.59,85.71,201.07Z" transform="translate(-46.78 -50.58)" fill="#262626"/><path d="M118.82,221.76c8.14,3.73,16.3,7.92,23.2,13.75,7.49,2.17,13.38,7.56,20.37,10.8,21.63,12.33,43,25.09,64.74,37.25,5.64,3.3,11,7.36,17.17,9.61,1.12.65,2.2,1.36,3.3,2.05l-.84,2.2c-1.91-.27-3.49-1.4-5.08-2.4-41.37-24-83-47.56-124.16-71.92l0-1Z" transform="translate(-46.78 -50.58)" fill="#4c4c4c"/><path d="M339.47,241.13c2.4,1.28,6.8,1.53,7.07,5-2.15-.45-3.9-1.83-5.73-3-.32-.25-.94-.75-1.26-1Z" transform="translate(-46.78 -50.58)" fill="#545453"/><path d="M340.81,243.13c1.83,1.12,3.58,2.5,5.73,3-1.22,2.23-.09,4.68,0,7l-5.59.53c-12.34,7.69-25.78,13.72-37.54,22.31a77.68,77.68,0,0,0-19.87,11.17l-1.12.95c-5.16,1-8.82,5.85-14.07,6.11,1.31-2.35,3.88-3.35,6-4.73,20.62-12.48,41.83-24,62.43-36.5,2.85-1.38,5.78-3,7.79-5.51-2.18.39-4.14-.43-6.06-1.36l0-.77,1.14-1.09Z" transform="translate(-46.78 -50.58)" fill="#3b3b3b"/><path d="M336.71,246.49l1.83-.4c1.92.93,3.88,1.75,6.06,1.36-2,2.54-4.94,4.13-7.79,5.51-1.32-1.08-2.77-.2-4,.56-19.32,12.23-40,22.25-59.16,34.7l.69,1.24c-2.16,1.38-4.73,2.38-6,4.73,5.25-.26,8.91-5.1,14.07-6.11,0,.5-.05,1.49-.07,2-2.49,1.36-5.21,2.51-6.89,4.92-2.75.13-5.2,1.37-7.78,2.14-.72-1.3-1.23-2.7-1.9-4a29,29,0,0,0-3.06-3.21l-.33-.69Q299.85,268.4,336.71,246.49Z" transform="translate(-46.78 -50.58)" fill="#2d2c2e"/><path d="M346.54,246.08l1.13.89,0,1a26.88,26.88,0,0,1-.87,7.38c-.07-.55-.19-1.66-.25-2.22C346.45,250.76,345.32,248.31,346.54,246.08Z" transform="translate(-46.78 -50.58)" fill="#5c5d5d"/><path d="M346.54,246.08c4.11-.18,6.57,5.12,7.93,8.19-.08,3.19-2.08,6-2.86,9a21.86,21.86,0,0,1-4.83,2.93l-.52-1c2-2.56,5-4.47,5.23-8.08,2.83-4.17-1.76-6.49-3.84-9.19Z" transform="translate(-46.78 -50.58)" fill="#292929"/><path d="M347.65,248c2.08,2.7,6.67,5,3.84,9.19-.21,3.61-3.26,5.52-5.23,8.08l-.94-.2.11-.78c2.44-2.23,2.15-5.25,1.12-8.12l.23-.79A26.88,26.88,0,0,0,347.65,248Z" transform="translate(-46.78 -50.58)" fill="#3e3e3e"/><path d="M332.85,253.52c1.19-.76,2.64-1.64,4-.56-20.6,12.52-41.81,24-62.43,36.5l-.69-1.24C292.85,275.77,313.53,265.75,332.85,253.52Z" transform="translate(-46.78 -50.58)" fill="#1e1d1e"/><path d="M340.94,253.65l5.59-.53c.06.56.18,1.67.25,2.22l-.23.79a51,51,0,0,1-3.89,4.16l-1.77.88c-1.48-1.16-3.14-2.22-5-1.43-3.74-.29-6.5,4-9.86,5.33-4.8,2.13-9.09,5.15-13.54,7.87-3.05.93-6,2-9.05,3C315.16,267.37,328.6,261.34,340.94,253.65Z" transform="translate(-46.78 -50.58)" fill="#2d2d2d"/><path d="M342.66,260.29a51,51,0,0,0,3.89-4.16c1,2.87,1.32,5.89-1.12,8.12-1-.79-2-1.58-3-2.37C342.47,261.48,342.6,260.69,342.66,260.29Z" transform="translate(-46.78 -50.58)" fill="#3a3a3a"/><path d="M326,265.07c3.36-1.36,6.12-5.62,9.86-5.33C333.83,262.75,329.57,267.17,326,265.07Z" transform="translate(-46.78 -50.58)" fill="#101010"/><path d="M335.85,259.74c1.9-.79,3.56.27,5,1.43-18.72,10.84-37.26,22-56.22,32.41a15.84,15.84,0,0,0,2-6.24c5.12-2.21,9.83-5.28,14.57-8.23.1.5.29,1.49.39,2,4.42-.49,10.26-3.12,10.78-8.15,4.45-2.72,8.74-5.74,13.54-7.87C329.57,267.17,333.83,262.75,335.85,259.74Z" transform="translate(-46.78 -50.58)" fill="#1c1c1d"/><path d="M340.89,261.17l1.77-.88c-.06.4-.19,1.19-.25,1.59-1.34,2-2.6,4.18-5,5.24-7.9,5.49-16.18,10.39-24.1,15.86-12.4,7.37-25,14.45-37.54,21.55a8.77,8.77,0,0,1-9.57,0l1.33-1.09a196.84,196.84,0,0,0,17.09-9.83C303.63,283.15,322.17,272,340.89,261.17Z" transform="translate(-46.78 -50.58)" fill="#1d1d1d"/><path d="M337.46,267.12c2.35-1.06,3.61-3.23,5-5.24,1,.79,2,1.58,3,2.37l-.11.78c-10.5,5.12-19.31,13-29.62,18.4l-2.34-.45C321.28,277.51,329.56,272.61,337.46,267.12Z" transform="translate(-46.78 -50.58)" fill="#252525"/><path d="M315.7,283.43c10.31-5.36,19.12-13.28,29.62-18.4l.94.2.52,1c-12.59,6.43-23.48,16.1-36.41,21.8A33.49,33.49,0,0,1,315.7,283.43Z" transform="translate(-46.78 -50.58)" fill="#232423"/><path d="M310.37,288c12.93-5.7,23.82-15.37,36.41-21.8-1.12,3.14-5,3.84-7.27,5.94-10.37,6.3-20.29,13.41-31,19.09Z" transform="translate(-46.78 -50.58)" fill="#181918"/><path d="M303.4,276c3-1,6-2.09,9.05-3-.52,5-6.36,7.66-10.78,8.15-.1-.49-.29-1.48-.39-2C302,278.07,302.71,277,303.4,276Z" transform="translate(-46.78 -50.58)" fill="#0d0c0c"/><path d="M283.53,287.13A77.68,77.68,0,0,1,303.4,276c-.69,1.06-1.4,2.11-2.12,3.15-4.74,2.95-9.45,6-14.57,8.23Z" transform="translate(-46.78 -50.58)" fill="#2c2c2c"/><path d="M275.82,304.53c12.57-7.1,25.14-14.18,37.54-21.55l2.34.45a33.49,33.49,0,0,0-5.33,4.61,40.34,40.34,0,0,0-8.06,4.94l-1.81,1.3c-2.09-.13-4.3.78-5,2.87-2.06.07-4.26.9-5,3-2,.06-4.23.88-5,3a28,28,0,0,1-24.09,2c-3.92-1.63-9.18-3-11.9-6.11,5,.88,9,4.92,14.17,5.14l2.55.41A8.77,8.77,0,0,0,275.82,304.53Z" transform="translate(-46.78 -50.58)" fill="#2c2c2c"/><path d="M283.53,287.13l3.18.21a15.84,15.84,0,0,1-2,6.24c-2.18,0-2.25-1.83-2.33-3.51,0-.5.05-1.49.07-2Z" transform="translate(-46.78 -50.58)" fill="#0a090a"/><path d="M302.31,293a40.34,40.34,0,0,1,8.06-4.94l-1.86,3.23-1.86,1.05C305.2,292.53,303.75,292.76,302.31,293Z" transform="translate(-46.78 -50.58)" fill="#242424"/><path d="M259.78,290.46l2.93-.56a29,29,0,0,1,3.06,3.21c-.46,3-3.3,4.26-6,4.36l-.6,2.91a81,81,0,0,1-11.53-5.16c-1.1-.69-2.18-1.4-3.3-2.05l1.39-1.34c3.07,1.91,6.25,3.78,9.88,4.38.12-2-1.87-2.43-3.19-3.33l5.29-1.59Z" transform="translate(-46.78 -50.58)" fill="#151515"/><path d="M275.45,295c1.68-2.41,4.4-3.56,6.89-4.92.08,1.68.15,3.53,2.33,3.51a196.84,196.84,0,0,1-17.09,9.83C268.25,298.89,272.86,297.87,275.45,295Z" transform="translate(-46.78 -50.58)" fill="#1c1d1d"/><path d="M302.31,293c1.44-.22,2.89-.45,4.34-.66-5.45,4-11.44,7.19-17.15,10.81-7.07,3.25-15,7.52-23,4.85-1.74-.73-4.16-1.19-5.1-2.92a28,28,0,0,0,24.09-2c2.06,0,4.25-.86,5-3,2.06-.08,4.26-.91,5-3,2-.07,4.15-.9,5-2.87Z" transform="translate(-46.78 -50.58)" fill="#212121"/><path d="M265.77,293.11c.67,1.32,1.18,2.72,1.9,4,2.58-.77,5-2,7.78-2.14-2.59,2.88-7.2,3.9-7.87,8.42l-1.33,1.09-2.55-.41c-1.45-1.33-3-2.5-4.57-3.71l.6-2.91C262.47,297.37,265.31,296.13,265.77,293.11Z" transform="translate(-46.78 -50.58)" fill="#262626"/><path d="M295.49,297.15c.71-2.09,2.92-3,5-2.87C299.64,296.25,297.52,297.08,295.49,297.15Z" transform="translate(-46.78 -50.58)" fill="#262626"/><path d="M247.6,295.22a81,81,0,0,0,11.53,5.16c1.54,1.21,3.12,2.38,4.57,3.71-5.16-.22-9.14-4.26-14.17-5.14-.73-.59-3.42-.23-2.77-1.53Z" transform="translate(-46.78 -50.58)" fill="#2a2a2b"/><path d="M290.49,300.15c.74-2.1,2.94-2.93,5-3C294.75,299.24,292.55,300.07,290.49,300.15Z" transform="translate(-46.78 -50.58)" fill="#262626"/><path d="M285.52,303.1c.74-2.07,2.93-2.89,5-3C289.77,302.24,287.58,303.08,285.52,303.1Z" transform="translate(-46.78 -50.58)" fill="#272827"/><ellipse cx="115.24" cy="96.33" rx="4.32" ry="2.92" fill="#35353d"/><path d="M196.77,150,134,186.36a9.19,9.19,0,0,1-9.38-.08L82.86,161c-2.94-1.78-2.7-7.34-.92-10.47l61.78-27.94a12.12,12.12,0,0,1,10.67-.16L198.92,141C199.62,144.09,199.81,148.2,196.77,150Z" transform="translate(-46.78 -50.58)" fill="#5c49d7"/><path d="M196.93,146.07l-62.72,36.39a9.19,9.19,0,0,1-9.38-.08L83,157.11a4.37,4.37,0,0,1,.28-7.64l60.57-30.77a12.14,12.14,0,0,1,10.68-.16l42,19.79A4.37,4.37,0,0,1,196.93,146.07Z" transform="translate(-46.78 -50.58)" fill="#7964ff"/><line x1="50.09" y1="103.98" x2="105.02" y2="74.15" fill="none" stroke="#fff" stroke-linecap="round" stroke-linejoin="round" stroke-width="3"/><line x1="63.26" y1="109.33" x2="116.31" y2="79.13" fill="none" stroke="#fff" stroke-linecap="round" stroke-linejoin="round" stroke-width="3"/><line x1="89.1" y1="109.04" x2="129.59" y2="86.52" fill="none" stroke="#fff" stroke-linecap="round" stroke-linejoin="round" stroke-width="3"/><path d="M289.48,168.12l-47,27.24a6.87,6.87,0,0,1-7-.06l-31.3-18.91c-2.19-1.33-2-5.5-.68-7.84l46.24-20.91a9.08,9.08,0,0,1,8-.12l33.33,13.89C291.61,163.73,291.76,166.8,289.48,168.12Z" transform="translate(-46.78 -50.58)" fill="#4999d7"/><path d="M289.6,165.2l-47,27.24a6.87,6.87,0,0,1-7-.06l-31.29-18.91a3.27,3.27,0,0,1,.21-5.72l45.34-23a9.08,9.08,0,0,1,8-.12l31.47,14.81A3.27,3.27,0,0,1,289.6,165.2Z" transform="translate(-46.78 -50.58)" fill="#64bcff"/><polygon points="200.51 119.08 184.25 127.86 168.17 118.01 183.77 110.29 200.51 119.08" fill="#fff"/><polygon points="234.95 113.75 221.74 120.89 209.63 113.95 222.6 107.53 234.95 113.75" fill="#fff"/><path d="M299.85,232,248.05,262a7.61,7.61,0,0,1-7.74-.07l-34.52-20.87c-2.42-1.46-2.23-6.06-.76-8.64l51-23.07a10,10,0,0,1,8.82-.14l36.76,15.33C302.21,227.09,302.37,230.48,299.85,232Z" transform="translate(-46.78 -50.58)" fill="#d74994"/><path d="M300,228.72l-51.79,30.06a7.61,7.61,0,0,1-7.74-.07l-34.52-20.87a3.61,3.61,0,0,1,.23-6.31l50-25.4A10,10,0,0,1,265,206l34.71,16.35A3.6,3.6,0,0,1,300,228.72Z" transform="translate(-46.78 -50.58)" fill="#ff64b6"/><line x1="169.93" y1="185.06" x2="215.14" y2="161.21" fill="none" stroke="#fff" stroke-linecap="round" stroke-linejoin="round" stroke-width="2"/><line x1="184.37" y1="189.71" x2="228.03" y2="165.55" fill="none" stroke="#fff" stroke-linecap="round" stroke-linejoin="round" stroke-width="2"/><path d="M137.67,71.56l-7.24,19.33c-1.9-.87-2.23-2.59-2.67-4.23,1.5-3.82,3.17-7.58,4.44-11.48C133.14,72.35,134.77,71.14,137.67,71.56Z" transform="translate(-46.78 -50.58)" fill="#eea614"/><path d="M128.8,106.18c.28-1.28.45-3,1.77-3.27,1.49-.29,2,1.57,2.6,2.59,1.92,3.24,4.7,6,5.72,9.74-2.63.76-4.3-.26-5.66-2.59S130.88,107.92,128.8,106.18Z" transform="translate(-46.78 -50.58)" fill="#eea712"/><path d="M117.07,78.48c1.31,6,5.9,10.11,8.72,15.24,1.48,2.69,1.91,4.86.94,7.78-2.76,8.24-6.8,16-8.83,24.52-3.27.58-4.71.07-3.13-3.78,2.82-6.86,5-13.95,7.83-20.82a6.77,6.77,0,0,0-.87-7.25c-2.48-3.49-4.51-7.3-7-10.78C112.36,80.06,112.58,78.35,117.07,78.48Z" transform="translate(-46.78 -50.58)" fill="#eea20e"/><path d="M83.31,90.39c-1.37,1.7-1.24,3.7-1.1,5.68.66,9.5,1.19,19,2.11,28.5a29.12,29.12,0,0,0,5,13.25,14.1,14.1,0,0,1-3.36-.26c-4-4.72-5-9.94-5.38-16q-.78-13.52-2.06-27C78.1,90.59,80.55,90.47,83.31,90.39Z" transform="translate(-46.78 -50.58)" fill="#eda10d"/><path d="M108,81.8c-2.19,6.75-1.11,13.64-.47,20.43a111.73,111.73,0,0,1,.3,16.25c-.32,6.63-7.52,13.62-12.81,12,6.46-3.19,9.47-8.33,9.08-15.57-.5-9.22-.72-18.45-1.31-27.66-.18-2.85-.32-4.52,2.47-5.5C105.93,81.87,107.32,81.68,108,81.8Z" transform="translate(-46.78 -50.58)" fill="#eea30f"/><path d="M108,81.8c1.22-.08,2.91-.86,3,1.3.27,12.77,3,25.55.73,38.31-1.74,9.81-13,18.52-22.39,16.41-4.73-2.79-5.62-7.72-6.16-12.4-1.1-9.49-1.54-19-2.35-28.58-.21-2.42-.27-5.07,2.53-6.45,2.61-.64,4-.39,4.2,3.06.56,10.29,1.55,20.55,2.51,30.81.29,3,1.15,5.9,5,6.23,7.32-2,11.15-7.09,11.54-15.15.44-9.07-1.63-18-1-27.11C105.76,85.88,105,83.12,108,81.8Z" transform="translate(-46.78 -50.58)" fill="#fefb01"/><path d="M117.07,78.48c1.94-.56,3.87-1.1,5.67.37,1.43,2.76,2.62,5.67,5,7.81,1,.42,2.06,2.61,3-.26,1.16-3.37,2.44-6.71,3.76-10,.72-1.81,1.38-3.66,3.1-4.82,3.18-.71,3.75-.17,2.6,3.1-1.89,5.43-3.82,10.85-6.1,16.12-1.39,3.23-1.24,5.81.88,8.64,2.66,3.53,4.95,7.32,7.4,11,1.82,3.83-1.22,4.07-3.56,4.82-2.66-2.09-3.92-5.23-5.82-7.88-1.2-1.68-2.26-2.89-4.27-1.18-1.71,4.6-3.55,9.16-5.09,13.81-1,3-2.62,5.22-5.81,6-1.53-1.73-.42-3.4.15-5.06,2.21-6.53,5-12.82,7.25-19.37a8.17,8.17,0,0,0-.82-7.46c-2.16-3.5-4.49-6.88-6.61-10.39C116.91,82.17,115.32,80.53,117.07,78.48Z" transform="translate(-46.78 -50.58)" fill="#fefa02"/><path d="M314.85,166.21c0-10.25-.18-20.83.15-31.08.15-4.83-1.11-7.16-5.65-9.62.41-1.31,3.25-2.74,4.27-2.79,2.63-.13,4.4,1.3,4.71,2.31.39,1.33.26,24,.41,36.27A5.11,5.11,0,0,1,314.85,166.21Z" transform="translate(-46.78 -50.58)" fill="#eda00b"/><path d="M301.63,149.49a7.28,7.28,0,0,1-5.27,3.57c-.77,0,1.13-1.91,1-2.07,2.18-10.25,1.38-21,1.72-31.34.07-2.24-3.18-2.38-3.2-4.67,5.12-1.6,7.69,0,7.5,5.16-.32,8.53,1,17-.61,25.47A11.53,11.53,0,0,1,301.63,149.49Z" transform="translate(-46.78 -50.58)" fill="#eea40d"/><path d="M293.06,144.69c-.81,3.36-3.08,2.75-5.43,2-8.9-2.8-14.1-10.42-14.38-21.39-.15-5.63-.31-11.29.07-16.89.25-3.67-1.49-5.19-4.62-6.72,1.36-1.56,3.8-3.28,6.21-1.85,2.21,1.31,2.58,3,2.61,5.36.11,7.44-.53,14.9.37,22.33C279,137.08,283.67,142.33,293.06,144.69Z" transform="translate(-46.78 -50.58)" fill="#eda20c"/><path d="M293.06,144.69a133.76,133.76,0,0,0,.64-24.46c-.16-2.42-.22-4.16,2.16-5.25,3-.18,4.36,2.58,4.46,5.47a263.27,263.27,0,0,1-.12,26.8,7.69,7.69,0,0,1-1,2.81,7.22,7.22,0,0,1-3.77,3.43,9.61,9.61,0,0,1-3.19.43c-5.38-.57-15.15-6.64-16.74-8.64a26.38,26.38,0,0,1-5-6.71,18.18,18.18,0,0,1-1.36-5.94c-1.27-9.21-.8-18.48-.92-27.73,0-1.36-.4-3,1.39-4,4.88-.23,4.72,2.79,4.82,6.36.24,8.1-.66,16.24,1,24.3,1.32,6.44,5.36,10.52,11.05,13.13C288.56,145.64,290.89,146.51,293.06,144.69Z" transform="translate(-46.78 -50.58)" fill="#fefb34"/><path d="M313,166.79c-3.47-.33-3.82-4.84-4-8.11,0-10.25-.22-20.51-.26-30.75a3.29,3.29,0,0,1,1.53-3.19c1.12-.63,4,0,4.87.84,1.33,1.3,1.26,3.33,1.3,5.84.17,10.11.1,20.22,0,30.33C316.43,163.3,316.43,167.12,313,166.79Z" transform="translate(-46.78 -50.58)" fill="#fdf734"/><path d="M76.78,193.84c-11.74-10.74-27-76.46-30-101.16-2.33-19.21,105.71-43.87,120-42,26,3.43,211.43,81.3,207.4,109-3.37,23.26-25.33,78.47-34.2,87-8.57,8.29-73.1,57.15-84.42,49.46C221.7,273.2,104.39,219.09,76.78,193.84Z" transform="translate(-46.78 -50.58)" opacity="0.49" fill="url(#c)"/><text transform="translate(16.46 262.13)" font-size="37.61" fill="aqua" font-family="Arial-BoldMT, Arial" font-weight="700">UI/UX<tspan x="100.3" y="0" letter-spacing="-0.04em"> </tspan><tspan x="109.36" y="0">AR</tspan></text></svg>