<svg xmlns="http://www.w3.org/2000/svg" xmlns:xlink="http://www.w3.org/1999/xlink" viewBox="0 0 367.43 350.34"><defs><linearGradient id="a" x1="196.98" y1="237.27" x2="172.8" y2="89.9" gradientUnits="userSpaceOnUse"><stop offset="0" stop-color="#eb0968"/><stop offset="0.13" stop-color="#c3106b"/><stop offset="0.37" stop-color="#7e1c6f"/><stop offset="0.56" stop-color="#4b2572"/><stop offset="0.71" stop-color="#2c2a74"/><stop offset="0.8" stop-color="#202c75"/></linearGradient><linearGradient id="b" x1="52.24" y1="371.82" x2="52.24" y2="286.36" gradientUnits="userSpaceOnUse"><stop offset="0" stop-color="#eb0968"/><stop offset="0.07" stop-color="#dc0c71"/><stop offset="0.4" stop-color="#961a9c"/><stop offset="0.68" stop-color="#6424bb"/><stop offset="0.88" stop-color="#452acf"/><stop offset="1" stop-color="#392cd6"/></linearGradient><linearGradient id="c" x1="139.3" y1="371.82" x2="139.3" y2="286.36" xlink:href="#b"/><linearGradient id="d" x1="269.89" y1="261.33" x2="269.89" y2="181.63" xlink:href="#b"/><linearGradient id="e" x1="344.37" y1="261.33" x2="344.37" y2="181.63" xlink:href="#b"/><linearGradient id="f" x1="51.02" y1="122.27" x2="51.02" y2="18.26" xlink:href="#b"/><linearGradient id="g" x1="116.74" y1="122.27" x2="116.74" y2="18.26" xlink:href="#b"/></defs><title>UiUxVr</title><rect x="29.17" y="52.85" width="56.1" height="35.52" fill="#0d34f9"/><rect x="28.13" y="92.56" width="56.1" height="35.52" fill="#0d34f9"/><rect x="28.13" y="133.62" width="49.16" height="35.52" fill="#0d34f9"/><rect x="28.13" y="175.26" width="35.52" height="35.52" fill="#0d34f9"/><rect x="91.68" y="53.27" width="56.1" height="35.52" fill="#0d34f9"/><rect x="91.98" y="92.87" width="56.1" height="35.52" fill="#0d34f9"/><circle cx="295.42" cy="56.52" r="3.28" fill="#0ddcf9"/><circle cx="306.67" cy="56.52" r="3.28" fill="#0ddcf9"/><circle cx="317.64" cy="56.52" r="3.28" fill="#0ddcf9"/><circle cx="328.89" cy="56.52" r="3.28" fill="#0ddcf9"/><circle cx="295.42" cy="65.58" r="3.28" fill="#0ddcf9"/><circle cx="306.67" cy="65.58" r="3.28" fill="#0ddcf9"/><circle cx="317.64" cy="65.58" r="3.28" fill="#0ddcf9"/><circle cx="328.89" cy="65.58" r="3.28" fill="#0ddcf9"/><circle cx="295.42" cy="83.3" r="3.28" fill="#0ddcf9"/><circle cx="306.67" cy="83.3" r="3.28" fill="#0ddcf9"/><circle cx="317.64" cy="83.3" r="3.28" fill="#0ddcf9"/><circle cx="328.89" cy="83.3" r="3.28" fill="#0ddcf9"/><circle cx="295.42" cy="74.21" r="3.28" fill="#0ddcf9"/><circle cx="306.67" cy="74.21" r="3.28" fill="#0ddcf9"/><circle cx="317.64" cy="74.21" r="3.28" fill="#0ddcf9"/><circle cx="328.89" cy="74.21" r="3.28" fill="#0ddcf9"/><circle cx="258.02" cy="136.72" r="2.5" fill="#0ddcf9"/><circle cx="266.57" cy="136.72" r="2.5" fill="#0ddcf9"/><circle cx="274.92" cy="136.72" r="2.5" fill="#0ddcf9"/><circle cx="283.47" cy="136.72" r="2.5" fill="#0ddcf9"/><circle cx="258.02" cy="143.61" r="2.5" fill="#0ddcf9"/><circle cx="266.57" cy="143.61" r="2.5" fill="#0ddcf9"/><circle cx="274.92" cy="143.61" r="2.5" fill="#0ddcf9"/><circle cx="283.47" cy="143.61" r="2.5" fill="#0ddcf9"/><circle cx="258.02" cy="157.09" r="2.5" fill="#0ddcf9"/><circle cx="266.57" cy="157.09" r="2.5" fill="#0ddcf9"/><circle cx="274.92" cy="157.09" r="2.5" fill="#0ddcf9"/><circle cx="283.47" cy="157.09" r="2.5" fill="#0ddcf9"/><circle cx="258.02" cy="150.17" r="2.5" fill="#0ddcf9"/><circle cx="266.57" cy="150.17" r="2.5" fill="#0ddcf9"/><circle cx="274.92" cy="150.17" r="2.5" fill="#0ddcf9"/><circle cx="283.47" cy="150.17" r="2.5" fill="#0ddcf9"/><circle cx="303.23" cy="203.77" r="1.97" fill="#0ddcf9"/><circle cx="309.98" cy="203.77" r="1.97" fill="#0ddcf9"/><circle cx="316.57" cy="203.77" r="1.97" fill="#0ddcf9"/><circle cx="323.32" cy="203.77" r="1.97" fill="#0ddcf9"/><circle cx="303.23" cy="209.22" r="1.97" fill="#0ddcf9"/><circle cx="309.98" cy="209.22" r="1.97" fill="#0ddcf9"/><circle cx="316.57" cy="209.22" r="1.97" fill="#0ddcf9"/><circle cx="323.32" cy="209.22" r="1.97" fill="#0ddcf9"/><circle cx="303.23" cy="219.85" r="1.97" fill="#0ddcf9"/><circle cx="309.98" cy="219.85" r="1.97" fill="#0ddcf9"/><circle cx="316.57" cy="219.85" r="1.97" fill="#0ddcf9"/><circle cx="323.32" cy="219.85" r="1.97" fill="#0ddcf9"/><circle cx="303.23" cy="214.39" r="1.97" fill="#0ddcf9"/><circle cx="309.98" cy="214.39" r="1.97" fill="#0ddcf9"/><circle cx="316.57" cy="214.39" r="1.97" fill="#0ddcf9"/><circle cx="323.32" cy="214.39" r="1.97" fill="#0ddcf9"/><circle cx="67.49" cy="199.32" r="3.28" fill="#0ddcf9"/><circle cx="78.74" cy="199.32" r="3.28" fill="#0ddcf9"/><circle cx="89.71" cy="199.32" r="3.28" fill="#0ddcf9"/><circle cx="100.96" cy="199.32" r="3.28" fill="#0ddcf9"/><circle cx="67.49" cy="208.39" r="3.28" fill="#0ddcf9"/><circle cx="78.74" cy="208.39" r="3.28" fill="#0ddcf9"/><circle cx="89.71" cy="208.39" r="3.28" fill="#0ddcf9"/><circle cx="100.96" cy="208.39" r="3.28" fill="#0ddcf9"/><circle cx="67.49" cy="226.11" r="3.28" fill="#0ddcf9"/><circle cx="78.74" cy="226.11" r="3.28" fill="#0ddcf9"/><circle cx="89.71" cy="226.11" r="3.28" fill="#0ddcf9"/><circle cx="100.96" cy="226.11" r="3.28" fill="#0ddcf9"/><circle cx="67.49" cy="217.01" r="3.28" fill="#0ddcf9"/><circle cx="78.74" cy="217.01" r="3.28" fill="#0ddcf9"/><circle cx="89.71" cy="217.01" r="3.28" fill="#0ddcf9"/><circle cx="100.96" cy="217.01" r="3.28" fill="#0ddcf9"/><polyline points="171.6 67.38 227.06 67.38 245.09 60.76 314.36 60.76" fill="none" stroke="#0ddcf9" stroke-miterlimit="10"/><polyline points="202.22 83.3 253.41 83.3 279.78 95.56 345.49 95.56" fill="none" stroke="#0ddcf9" stroke-miterlimit="10"/><polyline points="209.38 91.17 249.34 91.17 277.28 106.3 349.24 106.3" fill="none" stroke="#0ddcf9" stroke-miterlimit="10"/><polyline points="254.37 129.75 303.61 129.75 314.6 142.07 334.8 141.95 339.86 132.01 365.17 132.01" fill="none" stroke="#0ddcf9" stroke-miterlimit="10"/><line x1="271.59" y1="118.85" x2="337.24" y2="118.85" fill="none" stroke="#0ddcf9" stroke-miterlimit="10"/><circle cx="214.99" cy="245.56" r="5.61" fill="#0ddcf9"/><circle cx="234.23" cy="245.56" r="5.61" fill="#0ddcf9"/><circle cx="253" cy="245.56" r="5.61" fill="#0ddcf9"/><circle cx="272.24" cy="245.56" r="5.61" fill="#0ddcf9"/><circle cx="214.99" cy="261.07" r="5.61" fill="#0ddcf9"/><circle cx="234.23" cy="261.07" r="5.61" fill="#0ddcf9"/><circle cx="253" cy="261.07" r="5.61" fill="#0ddcf9"/><circle cx="272.24" cy="261.07" r="5.61" fill="#0ddcf9"/><circle cx="214.99" cy="291.38" r="5.61" fill="#0ddcf9"/><circle cx="234.23" cy="291.38" r="5.61" fill="#0ddcf9"/><circle cx="253" cy="291.38" r="5.61" fill="#0ddcf9"/><circle cx="272.24" cy="291.38" r="5.61" fill="#0ddcf9"/><circle cx="214.99" cy="275.83" r="5.61" fill="#0ddcf9"/><circle cx="234.23" cy="275.83" r="5.61" fill="#0ddcf9"/><circle cx="253" cy="275.83" r="5.61" fill="#0ddcf9"/><circle cx="272.24" cy="275.83" r="5.61" fill="#0ddcf9"/><circle cx="287.54" cy="290.47" r="3.75" fill="#0ddcf9"/><circle cx="300.4" cy="290.47" r="3.75" fill="#0ddcf9"/><circle cx="312.94" cy="290.47" r="3.75" fill="#0ddcf9"/><circle cx="325.8" cy="290.47" r="3.75" fill="#0ddcf9"/><circle cx="287.54" cy="300.83" r="3.75" fill="#0ddcf9"/><circle cx="300.4" cy="300.83" r="3.75" fill="#0ddcf9"/><circle cx="312.94" cy="300.83" r="3.75" fill="#0ddcf9"/><circle cx="325.8" cy="300.83" r="3.75" fill="#0ddcf9"/><circle cx="287.54" cy="321.09" r="3.75" fill="#0ddcf9"/><circle cx="300.4" cy="321.09" r="3.75" fill="#0ddcf9"/><circle cx="312.94" cy="321.09" r="3.75" fill="#0ddcf9"/><circle cx="325.8" cy="321.09" r="3.75" fill="#0ddcf9"/><circle cx="287.54" cy="310.69" r="3.75" fill="#0ddcf9"/><circle cx="300.4" cy="310.69" r="3.75" fill="#0ddcf9"/><circle cx="312.94" cy="310.69" r="3.75" fill="#0ddcf9"/><circle cx="325.8" cy="310.69" r="3.75" fill="#0ddcf9"/><path d="M292,189.83a20.32,20.32,0,0,0-6.79-12.62C281,173.91,278.4,169,274.94,165a12,12,0,0,0-4.62-4.13l.05-.33c-3-3.61-5.76-7.43-8.95-10.83a7.05,7.05,0,0,0-2.4-2.83,7.77,7.77,0,0,0-2.41-3c-.48-.78-1-1.77-1.82-2.14.15-.48-.41-.76-.62-1.12-2.67-3.18-5.58-6.15-8.38-9.22-.76-.68-1.38-1.62-2.39-1.94l-.55-.5-3.28-1.41-.11.33a6.57,6.57,0,0,0-3.85,0,5.18,5.18,0,0,0-3.35.59,1.69,1.69,0,0,0-1.69.62c-.53.19-1.38,0-1.68.55a2.37,2.37,0,0,0-1.35.71l-.87.31a52.37,52.37,0,0,0-11-14.34,13.47,13.47,0,0,0-2.36-2.29c-3.07-2.59-5.94-5.58-9.34-7.7-2.62-1.94-5.07-4.15-7.81-5.87-2.1-1.09-3.57-3.16-5.89-3.86l.05-.34c-3.62-1.9-6.83-4.6-10.54-6.28-.92-.38-1.72-1-2.64-1.37l.06-.32c-6.11-2.69-11.95-6.17-18.38-8l-.23-.2c0-1.21-3.21-.85-4-1.56l-.25-.19.12-.3c-1.48-.53-3-1-4.52-1.35l-.23-.19c.05-1.22-3.22-.86-4.06-1.55l-.6-.28.17-.32a30.19,30.19,0,0,0-3.18-.91l-2.27-.82.13-.34c-2.12-.75-4.28-1.38-6.43-2.06l-.1.32a52.38,52.38,0,0,0-8.15-1.68c-1.4-.28-3.12-.81-4.47-.38-6.25-1-12.75,0-18.72,2.12a25.46,25.46,0,0,0-9,4.94,20.2,20.2,0,0,0-4.83,7.34c-.11.26-.35.79-.47,1.05l-.31-.1c-.62,1.69-1.11,3.43-1.57,5.18-1.2,2.8-1.85,5.81-2.88,8.68-.88,2.82-1.79,5.63-2.69,8.45-1.47,4.63-3,9.24-4.43,13.88-.63,1.38-.23,2.87-.14,4.31.81,4.26,1.64,8.76,3.75,12.49a13.24,13.24,0,0,0,3.16,5.41,4.9,4.9,0,0,0,2.3,3.31c0,.21.08.62.1.83,4.16,5.94,8.37,11.94,13.6,17,.66.73,1.26,1.67,2.26,2a9.14,9.14,0,0,0,1.46,1.65,47.49,47.49,0,0,0-1.35,8.73l.24.15c-.33.53-.33.9,0,1.1-.64,2.87.06,5.91.7,8.71a82.31,82.31,0,0,0,9.29,12.75c.31.82,1.27,1.36,1.6,2.26,4.68,5.49,9,11.32,14,16.53a12.12,12.12,0,0,0,1.29,2.6l0,.32a124.21,124.21,0,0,0,8.63,10c.53,3.12,3.16,5,5.07,7.28,1.81,1.69,3.24,4,5.59,5l-.1.33,3.72,1.19.1-.33c2.61.85,5.44.55,8.13.44,16.6-.72,33.06-3.24,49.61-4.58,13-.95,26-.28,39-1.18,4.21-.28,8.61-.1,12.51-2a55.81,55.81,0,0,0,29.43-31.13c1.19-.15.89-3,1.63-4l-.33-.11C291.76,197.39,292.65,193.58,292,189.83Zm-181.5-86.2c1,.11,1.94.16,2.91.19a80.24,80.24,0,0,1,9,1c.88.25,1.77.51,2.65.78,2.73.88,5.46,1.78,8.24,2.53l2.35.77,1.3.47a3.65,3.65,0,0,0,1.95,1,27.82,27.82,0,0,0,3.62,1.49c1.08.5,2.17,1,3.29,1.39a17.55,17.55,0,0,0,4.84,2.32c2,1.44,4.36,2.2,6.52,3.3a29.1,29.1,0,0,0,2.9,1.72c1.55,1,3.13,1.9,4.74,2.79,3.12,1.88,6.16,3.9,9.29,5.78a28.12,28.12,0,0,0,3.38,2.22,29.47,29.47,0,0,0,4.24,2.78,14.48,14.48,0,0,0,1.88,1.42c.71.49,1.43,1,2.16,1.43,2.36,1.72,4.88,3.22,7.13,5.08-3.86.72-7.82.39-11.71.05-3.52-.67-7.09-1.15-10.61-1.86a10,10,0,0,0-3.49-.88c-1.35-.37-2.69-.76-4-1.19a10.48,10.48,0,0,0-3.51-.84c-1-.29-2-.56-3-.87a8.88,8.88,0,0,0-2.85-.65l-.63-.08a34.11,34.11,0,0,0-6-1.34,28.69,28.69,0,0,0-19.8,2.36c-1.19.63-2.44,1.17-3.57,1.91-.4.26-.8.55-1.21.8-1.83-1.83-3.88-3.42-5.78-5.17a130.48,130.48,0,0,1-15-15.6,112.09,112.09,0,0,1-8.09-12.8c-.22-.49-.47-1-.73-1.45,0-.15-.07-.44-.09-.58C98.75,103.71,104.62,103.35,110.51,103.63Z" transform="translate(-12.45 -21.48)" fill="url(#a)"/><path d="M43,371.82,12.45,286.36H31.16l21.63,63.25,20.93-63.25H92l-30.6,85.46Z" transform="translate(-12.45 -21.48)" fill="url(#b)"/><path d="M100.88,371.82V286.36H137.2q13.7,0,19.91,2.3a19.7,19.7,0,0,1,9.94,8.19,24.71,24.71,0,0,1,3.73,13.47q0,9.62-5.66,15.88t-16.9,7.9a40.51,40.51,0,0,1,9.24,7.17q3.64,3.92,9.82,13.88l10.43,16.67H157.08l-12.48-18.6q-6.65-10-9.09-12.56a13.2,13.2,0,0,0-5.19-3.56,28.48,28.48,0,0,0-8.68-1h-3.5v35.68Zm17.26-49.32H130.9q12.42,0,15.51-1.05a9.31,9.31,0,0,0,4.84-3.61,11.11,11.11,0,0,0,1.75-6.42,10.27,10.27,0,0,0-2.3-7,10.56,10.56,0,0,0-6.5-3.35q-2.1-.3-12.6-.29H118.14Z" transform="translate(-12.45 -21.48)" fill="url(#c)"/><path d="M239.42,184h15.43v41.39q0,9.84.57,12.77a12.36,12.36,0,0,0,4.72,7.53q3.72,2.83,10.19,2.84t9.9-2.69a10.58,10.58,0,0,0,4-6.59,86.4,86.4,0,0,0,.67-13V184h15.43v40.14q0,13.76-1.25,19.44a21.49,21.49,0,0,1-4.61,9.59,23.42,23.42,0,0,1-9,6.23q-5.64,2.31-14.7,2.32-10.95,0-16.6-2.53a23.84,23.84,0,0,1-8.94-6.57,21.12,21.12,0,0,1-4.33-8.47q-1.5-6.57-1.51-19.39Z" transform="translate(-12.45 -21.48)" fill="url(#d)"/><path d="M308.85,260.4,335,220.53,311.3,184h18l15.32,24.55,15-24.55h17.88L353.77,221.1l26.11,39.3h-18.6L344.34,234l-17,26.42Z" transform="translate(-12.45 -21.48)" fill="url(#e)"/><path d="M13.92,21.48H32.71V71.87q0,12,.7,15.55a15,15,0,0,0,5.74,9.17q4.55,3.47,12.41,3.46t12.06-3.27a12.9,12.9,0,0,0,4.88-8A104.69,104.69,0,0,0,69.33,73V21.48H88.11V70.35q0,16.75-1.52,23.67A26.09,26.09,0,0,1,81,105.7,28.4,28.4,0,0,1,70,113.29q-6.86,2.82-17.9,2.82-13.33,0-20.22-3.08A28.9,28.9,0,0,1,21,105a25.54,25.54,0,0,1-5.27-10.31q-1.83-8-1.84-23.61Z" transform="translate(-12.45 -21.48)" fill="url(#f)"/><path d="M107.35,114.52v-93h18.78v93Z" transform="translate(-12.45 -21.48)" fill="url(#g)"/></svg>