<svg id="icons" enable-background="new 0 0 64 64" height="512" viewBox="0 0 64 64" width="512" xmlns="http://www.w3.org/2000/svg"><g fill="#aab2bd"><path d="m39 13c.55 0 1 .45 1 1v4.991c0 .55-.45 1-1 1h-14c-.55 0-1-.45-1-1v-4.991c0-.55.45-1 1-1z"/><path d="m62 28.99c.55 0 1 .45 1 1v10.01c0 .55-.45 1-1 1h-3.991c-.55 0-1-.45-1-1v-10.01c0-.55.45-1 1-1z"/><path d="m7.001 37.99v2 .01c0 .55-.45 1-1 1h-4.001c-.55 0-1-.45-1-1v-10.01c0-.55.45-1 1-1h4.001c.55 0 1 .45 1 1v.01 2z"/></g><path d="m58 26.99v4.01c0-4.41-3.6-8-8-8h-36c-4.4 0-8 3.59-8 8v-2.01-2c0-4.4 3.6-8 8-8h10 16 10c4.4 0 8 3.6 8 8z" fill="#545c66"/><path d="m58 38.99v4.01c0 4.4-3.6 8-8 8h-15l-3-3.01-3 3.01h-15c-4.4 0-8-3.6-8-8v-2-2.01-7.99c0-4.41 3.6-8 8-8h36c4.4 0 8 3.59 8 8z" fill="#656d78"/><path d="m46 41.002h-28c-.553 0-1-.447-1-1s.447-1 1-1h28c.553 0 1 .447 1 1s-.447 1-1 1z" fill="#545c66"/><path d="m46 37.002h-28c-.553 0-1-.447-1-1s.447-1 1-1h28c.553 0 1 .447 1 1s-.447 1-1 1z" fill="#545c66"/><path d="m46 33.002h-28c-.553 0-1-.447-1-1s.447-1 1-1h28c.553 0 1 .447 1 1s-.447 1-1 1z" fill="#545c66"/></svg>