<svg xmlns="http://www.w3.org/2000/svg" viewBox="0 0 323.77 346.64"><title>WalkingVr</title><rect x="53" y="23.74" width="89" height="52.17" fill="#ff76f2" opacity="0.74"/><rect x="192.82" y="85.6" width="124.38" height="43.91" fill="#ff76f2" opacity="0.74"/><rect x="23.08" y="134.34" width="124.38" height="50.46" fill="#ff76f2" opacity="0.74"/><rect x="131.72" y="179.61" width="139.68" height="50.46" fill="#08f9f2" opacity="0.4"/><rect x="53.54" y="96.53" width="124.38" height="24.41" fill="#08f9f2" opacity="0.4"/><rect x="142.55" width="124.38" height="50.46" fill="#08f9f2" opacity="0.4"/><rect x="219.94" y="78.7" width="8.38" height="8.38" fill="#ff76f2" opacity="0.74"/><rect x="76.48" y="129.05" width="9.13" height="9.13" fill="#ff76f2" opacity="0.74"/><rect x="81.85" y="16.55" width="10.37" height="10.37" fill="#ff76f2" opacity="0.74"/><rect x="90.46" y="8.94" width="9.66" height="9.66" fill="#ff76f2" opacity="0.74"/><rect x="208.05" y="73.41" width="12.58" height="6.58" fill="#ff76f2" opacity="0.74"/><rect x="216.52" y="132.89" width="10.58" height="10.58" fill="#ff76f2" opacity="0.74"/><rect x="225.71" y="126.46" width="18.77" height="6.09" fill="#ff76f2" opacity="0.74"/><rect x="240.04" y="173.49" width="19.94" height="8.8" fill="#08f9f2" opacity="0.4"/><rect x="269.34" y="125.13" width="10.13" height="10.13" fill="#ff76f2" opacity="0.74"/><rect x="47.37" y="73.58" width="6.17" height="6.17" fill="#ff76f2" opacity="0.74"/><rect x="29.52" y="116.38" width="6.65" height="6.65" fill="#ff76f2" opacity="0.74"/><rect x="256.47" y="48.69" width="9.66" height="9.66" fill="#08f9f2" opacity="0.4"/><rect x="260.64" y="36.29" width="12.58" height="6.58" fill="#08f9f2" opacity="0.4"/><path d="M163.34,80a19.74,19.74,0,0,1,10.51-13.47c10.5-3.74,24.08-.78,30.06,9.22-4.31,2.51-8.41,5.68-13.41,6.66-1.39-1.25-2.53-3-4.32-3.67-3.94-.57-7.89.51-11.81.83A86.43,86.43,0,0,0,163.34,80Z" transform="translate(-45.29 -35.91)" fill="#9d5dac"/><path d="M193.38,89.86c5.21-1,9.44-4.39,14-6.88.77,4.55,1.28,9.17.18,13.73a22.32,22.32,0,0,1,2.84,3.14,18.56,18.56,0,0,1-1.28,2.75C202.79,99.92,196.78,96,193.38,89.86Z" transform="translate(-45.29 -35.91)" fill="#9d5dac"/><path d="M203.91,75.78c1.42.75,2.81,1.55,4.21,2.35l-.67.25c-3.84,2.55-8.38,3.6-12.55,5.45-5,2-9.69,5.07-15.13,5.84-6.8.92-14,2.29-20.53-.48L159,91.05l-.1.79c-2.67-4.23-.73-10.79,4.44-11.81a86.43,86.43,0,0,1,11-.43c5.06-.06,10.52-.57,14.7,2.89l1.43,0C195.5,81.46,199.6,78.29,203.91,75.78Zm-42,7L161,85c2.82.1,6.18.53,8.18-1.93A15,15,0,0,0,161.86,82.73Z" transform="translate(-45.29 -35.91)" fill="#7036d7"/><path d="M174.37,79.6c3.92-.32,7.87-1.4,11.81-.83,1.79.72,2.93,2.42,4.32,3.67l-1.43,0C184.89,79,179.43,79.54,174.37,79.6Z" transform="translate(-45.29 -35.91)" fill="#f3aac7"/><path d="M166.78,101.44c3.44,2,6.39,4.72,9.79,6.78,5.14,2.66,10.5-2.94,15.77-.68,2.35,1.37,3.39,4.1,4.86,6.27l2.83.79c-1.7.18-3.42.24-5.13.33-1.88-1.28-2.54-3.61-3.61-5.5-3.2,1.84-6.58,4.38-10.49,3.82C174.75,111.44,170.12,106.6,166.78,101.44Z" transform="translate(-45.29 -35.91)" fill="#f3aac7"/><path d="M194.9,83.83c4.17-1.85,8.71-2.9,12.55-5.45,0,.5,0,1.51.05,2L207.38,83c-4.56,2.49-8.79,5.84-14,6.88-.93.27-1.86.52-2.79.77-2.22,2.24-4.4,5-7.77,5.38-6.36.74-13,.84-19.21-.87-1.75-1-4.19-1.86-4.61-4.09l.24-1.86c6.58,2.77,13.73,1.4,20.53.48C185.21,88.9,189.88,85.83,194.9,83.83Z" transform="translate(-45.29 -35.91)" fill="#6926e5"/><path d="M218.93,79.52c2.38-.19,4.76-.38,7.15-.6,2.22,4,4.75,7.94,6.73,12.12-.11,9-.82,17.93-1.14,26.9.15,2.38-1.3,5.27.77,7.16l0,.21c-.6,3.37.31,6.66.83,10a2.91,2.91,0,0,1-2.55,3.55l-.24-.23c0,.24,0,.73,0,1-4.21.57-8.44,0-12.65,0,1.39-.35,2.79-.71,4.18-1.08-.15-8.23-2.15-16.29-2.2-24.53C218.56,102.53,219,91,218.93,79.52Z" transform="translate(-45.29 -35.91)" fill="#0ddaf9"/><path d="M207.5,80.39c3.81-.24,7.62-.58,11.43-.87,0,11.49-.37,23,.84,34.46,0,8.24,2,16.3,2.2,24.53-1.39.37-2.79.73-4.18,1.08l-.66,0c-1.21-4.84-.47-10-2.37-14.72C213,119.13,208.84,114,203,112.11l.14-.49c.49-2.15-.16-4.35-.42-6.49,2.14-.85,4.29-1.65,6.42-2.53a18.56,18.56,0,0,0,1.28-2.75,22.32,22.32,0,0,0-2.84-3.14c1.1-4.56.59-9.18-.18-13.73Z" transform="translate(-45.29 -35.91)" fill="#0dc5fa"/><path d="M161.86,82.73a15,15,0,0,1,7.33.34c-2,2.46-5.36,2-8.18,1.93Z" transform="translate(-45.29 -35.91)" fill="#aa56e9"/><path d="M190.59,90.63c.93-.25,1.86-.5,2.79-.77,3.4,6.17,9.41,10.06,15.74,12.74-2.13.88-4.28,1.68-6.42,2.53A33.09,33.09,0,0,1,190.59,90.63Z" transform="translate(-45.29 -35.91)" fill="#9742c9"/><path d="M190.59,90.63a33.09,33.09,0,0,0,12.11,14.5c.26,2.14.91,4.34.42,6.49-1,1-2,2-3.09,3l-2.83-.79c-1.47-2.17-2.51-4.9-4.86-6.27-5.27-2.26-10.63,3.34-15.77.68-3.4-2.06-6.35-4.78-9.79-6.78-1.84-1.62-2.61-4-3.17-6.3,6.23,1.71,12.85,1.61,19.21.87C186.19,95.65,188.37,92.87,190.59,90.63Z" transform="translate(-45.29 -35.91)" fill="#f4bfab"/><path d="M200,114.6c1.08-.94,2.11-1.94,3.09-3l-.14.49c-.24.79-.74,2.38-1,3.17,2.46,1.34,5.43,2.19,7.2,4.47,1.15,4.24,1.32,8.74,3.05,12.85,2.54,6.34,3.6,13.33,7.25,19.2l-1.36,1.81c-5.1-2.59-10.26-5.07-15.56-7.19.54-1.89.91-3.83,1.34-5.75l.72-2.09c1.83-5.08,4.88-10,4.37-15.64a6,6,0,0,0-7.14-5.13c-2.56.88-4.42,3-6.16,4.94a6.16,6.16,0,0,0-.86-5.73l-2.85-.11a4.82,4.82,0,0,1,2.91-2C196.61,114.84,198.33,114.78,200,114.6Z" transform="translate(-45.29 -35.91)" fill="#d099df"/><path d="M203,112.11c5.86,1.92,10,7,11.78,12.8,1.9,4.71,1.16,9.88,2.37,14.72,3.13,5.08,6.86,9.93,8.16,15.89l-1.81,2.11a40.86,40.86,0,0,0-4-5.83c-3.65-5.87-4.71-12.86-7.25-19.2-1.73-4.11-1.9-8.61-3.05-12.85-1.77-2.28-4.74-3.13-7.2-4.47C202.24,114.49,202.74,112.9,203,112.11Z" transform="translate(-45.29 -35.91)" fill="#cd89ec"/><path d="M118.16,114.46a78.39,78.39,0,0,1,19.36.19c0,.39,0,1.18.06,1.58a51.08,51.08,0,0,1-8.34,1.1c0,.91.08,2.75.11,3.67,9.44-.66,18.91-1,28.34-1.87l-1,2.1c-2,.28-4,.36-6,.51a17,17,0,0,1-6.3,5l-1.63-3.23c-.6,1.28-1.19,2.56-1.78,3.84a68.36,68.36,0,0,1-9.38.43,129.19,129.19,0,0,0-24.4-.76l-.24-4.6c5.5-.33,11-.63,16.5-1q2.9-.27,5.78-.59c-.33-1-.66-2-1-3a36.21,36.21,0,0,0-4.65-.32C121.49,117.34,118.09,117.51,118.16,114.46Z" transform="translate(-45.29 -35.91)" fill="#6f2dcc"/><path d="M123.6,117.42a36.21,36.21,0,0,1,4.65.32c.31,1,.64,2,1,3q-2.88.32-5.78.59Z" transform="translate(-45.29 -35.91)" fill="#a616da"/><path d="M157,119.14c1.16-.52,2.29-1.88,3.68-1.4,5.28,1.93,10.89.24,16.32.31-4.85.33-9.7.68-14.56.94-1.58.06-3.16.11-4.75.14Z" transform="translate(-45.29 -35.91)" fill="#5b3964"/><path d="M177,118.05c5-.28,10-.63,15-1.14l2.85.11a6.16,6.16,0,0,1,.86,5.73l-.46.88a47,47,0,0,1-4.4,5.65c-5.19-2.14-10.06-5-15.27-7.11-3.44-1.52-7.27-.92-10.9-.77L162.44,119C167.3,118.73,172.15,118.38,177,118.05Z" transform="translate(-45.29 -35.91)" fill="#7135d4"/><path d="M195.7,122.75c1.74-2,3.6-4.06,6.16-4.94a6,6,0,0,1,7.14,5.13c.51,5.61-2.54,10.56-4.37,15.64a97.92,97.92,0,0,1-12.78-6.43,89.37,89.37,0,0,0,3.39-8.52Z" transform="translate(-45.29 -35.91)" fill="#f4b8a9"/><path d="M157.69,119.13c1.59,0,3.17-.08,4.75-.14l2.23,2.41.92,1c.57,1.1,1.07,2.23,1.56,3.37-.17,2.29-.36,4.59-.54,6.88l-4.86.56c-1.3-1.25-2.5-2.6-3.78-3.87a19.08,19.08,0,0,1-1.32-8.11Z" transform="translate(-45.29 -35.91)" fill="#f3aaa5"/><path d="M150.67,121.74c2-.15,4-.23,6-.51a19.08,19.08,0,0,0,1.32,8.11c-2.46-1.19-3.91-3.49-5-5.91l-2.65-.11a61.93,61.93,0,0,0-1.26,7.65,6.71,6.71,0,0,1-4.71-4.28A17,17,0,0,0,150.67,121.74Z" transform="translate(-45.29 -35.91)" fill="#b215dc"/><path d="M164.67,121.4c3.63-.15,7.46-.75,10.9.77,5.21,2.1,10.08,5,15.27,7.11l-2.08,1.44-2.65-.8c-7.2-1.73-12.63-8.74-20.52-7.52Z" transform="translate(-45.29 -35.91)" fill="#a618e0"/><path d="M142.74,123.46l1.63,3.23a6.71,6.71,0,0,0,4.71,4.28l1.85,1.08-.4,2.6c-1.68.17-3.35.35-5,.51-2.59-1.56-4-4.3-4.93-7.06l.39-.8C141.55,126,142.14,124.74,142.74,123.46Z" transform="translate(-45.29 -35.91)" fill="#db8b8c"/><path d="M190.84,129.28a47,47,0,0,0,4.4-5.65,89.37,89.37,0,0,1-3.39,8.52c-.68,1.47-1.33,2.95-1.92,4.45-.33-2-.75-3.93-1.17-5.88Z" transform="translate(-45.29 -35.91)" fill="#d198d1"/><path d="M167.15,125.77c.51,2.06.92,4.14,1.36,6.22,3.78,1.72,6.44,5,9.61,7.52l5.42,4.48a28,28,0,0,0,3.8,2.68l.37.06a20.18,20.18,0,0,0,1.41-5c.08-.51.25-1.53.33-2,.54,2.09.1,5.2,2.45,6.25a43.17,43.17,0,0,0,7.29,2.88c-1.92,3.14-3.26,6.88-6.26,9.19-2.45,1.58-5.54.37-7.08-1.88-3.82-4.89-9.34-8.15-12.85-13.3a47.38,47.38,0,0,0-6.79-7.9l-.59,2.19c-.1-.55-.31-1.66-.42-2.22-1.16-.53-2.32-1-3.45-1.64l4.86-.56C166.79,130.36,167,128.06,167.15,125.77Z" transform="translate(-45.29 -35.91)" fill="#f3a1a3"/><path d="M233.25,135.27c-.52-3.3-1.43-6.59-.83-10,13.46,27.05,26.42,54.35,39.69,81.5,4.78,10,9.82,19.93,14.44,30-3.93-2.45-7.7-5.19-11.9-7.18Q254.19,187.84,233.83,146a66.72,66.72,0,0,1-3.13-7.15A2.91,2.91,0,0,0,233.25,135.27Z" transform="translate(-45.29 -35.91)" fill="#0dedf6"/><path d="M107.18,127a129.19,129.19,0,0,1,24.4.76c-8.07.82-16.2,1.08-24.3,1.64C107.26,128.77,107.21,127.57,107.18,127Z" transform="translate(-45.29 -35.91)" fill="#991ad3"/><path d="M186.11,129.92l2.65.8c.42,1.95.84,3.91,1.17,5.88-.18,1-.34,2-.48,3-.08.51-.25,1.53-.33,2-1.87.75-3.73,1.51-5.58,2.31l-5.42-4.48,1.66.15A115.07,115.07,0,0,1,186.11,129.92Z" transform="translate(-45.29 -35.91)" fill="#dc9790"/><path d="M150.93,132.05a149.21,149.21,0,0,1,21,13.09,36.74,36.74,0,0,1,5.25,7.46c-2.19,1.67-4.94,3.43-7.74,2-5-2.51-8-7.73-13.24-9.92-1.53-.75-2.25-2.36-3.11-3.73-1.07-1.4-2.07-2.86-3-4.33a29.78,29.78,0,0,1-4.53-1.43c1.68-.16,3.35-.34,5-.51Z" transform="translate(-45.29 -35.91)" fill="#da878a"/><path d="M191.85,132.15a97.92,97.92,0,0,0,12.78,6.43l-.72,2.09c-1.48,2.75-3.19,5.37-4.72,8.1a43.17,43.17,0,0,1-7.29-2.88c-2.35-1-1.91-4.16-2.45-6.25.14-1,.3-2,.48-3C190.52,135.1,191.17,133.62,191.85,132.15Z" transform="translate(-45.29 -35.91)" fill="#f3ada6"/><path d="M166.21,134.88a47.38,47.38,0,0,1,6.79,7.9c3.51,5.15,9,8.41,12.85,13.3,1.54,2.25,4.63,3.46,7.08,1.88,3-2.31,4.34-6.05,6.26-9.19,1.53-2.73,3.24-5.35,4.72-8.1-.43,1.92-.8,3.86-1.34,5.75a55.81,55.81,0,0,1-7.3,11.74l-.43.54-1.44,1.72a21.52,21.52,0,0,1-6.1-.61,34.47,34.47,0,0,1-7.71-5.23h-2.4a18.07,18.07,0,0,0,2.3-1.49l-2.33-.49a36.74,36.74,0,0,0-5.25-7.46,52.2,52.2,0,0,1-6.29-8.07Z" transform="translate(-45.29 -35.91)" fill="#ee89b5"/><path d="M183.54,144c1.85-.8,3.71-1.56,5.58-2.31a20.18,20.18,0,0,1-1.41,5l0-.34-.35.28A28,28,0,0,1,183.54,144Z" transform="translate(-45.29 -35.91)" fill="#da7cb0"/><path d="M156.18,144.65c5.24,2.19,8.27,7.41,13.24,9.92,2.8,1.46,5.55-.3,7.74-2l2.33.49a18.07,18.07,0,0,1-2.3,1.49l-.3.18c-3.55,3.19-9,1.56-12.11-1.47C161.9,150.43,158.68,147.88,156.18,144.65Z" transform="translate(-45.29 -35.91)" fill="#a75782"/><path d="M187.34,146.67l.35-.28,0,.34Z" transform="translate(-45.29 -35.91)" fill="#ab6d7c"/><path d="M195.27,158.16a55.81,55.81,0,0,0,7.3-11.74c5.3,2.12,10.46,4.6,15.56,7.19l1.36-1.81a40.86,40.86,0,0,1,4,5.83c-.84.93-1.71,1.85-2.6,2.73-5.87,4.08-13.4,2.74-19.94,1.43C198.59,161.46,196.93,159.67,195.27,158.16Z" transform="translate(-45.29 -35.91)" fill="#cf8edb"/><path d="M223.48,157.63l1.81-2.11a22,22,0,0,1,4.12,14.4c-1.2,4-3,7.87-2.94,12.12a9.16,9.16,0,0,1-5.85,3c.13-.8.4-2.41.54-3.22.67-3.65,2-7.19,2.08-10.93s-1.26-7.12-2.36-10.55C221.77,159.48,222.64,158.56,223.48,157.63Z" transform="translate(-45.29 -35.91)" fill="#d75be3"/><path d="M194.84,158.7l.43-.54c1.66,1.51,3.32,3.3,5.67,3.63,6.54,1.31,14.07,2.65,19.94-1.43,1.1,3.43,2.37,6.9,2.36,10.55s-1.41,7.28-2.08,10.93c-5-2-10.28-3.42-15-6-5.22-2.88-11.22-4.18-16-7.83A54.09,54.09,0,0,0,194.84,158.7Z" transform="translate(-45.29 -35.91)" fill="#d970d8"/><path d="M187.3,159.81a21.52,21.52,0,0,0,6.1.61c-2.66,4.82-4.88,9.86-7.37,14.76-.87,1.66-1.79,3.29-2.78,4.89-1.32,2.1-2.75,4.14-4,6.31l-3.73-2.72C179.48,175.71,183.32,167.73,187.3,159.81Z" transform="translate(-45.29 -35.91)" fill="#0b81fd"/><path d="M186,175.18c1.33-2.4,2.66-4.8,4.05-7.17,4.81,3.65,10.81,5,16,7.83,4.77,2.58,10,4,15,6-.14.81-.41,2.42-.54,3.22-.81,3.86-2.16,7.58-2.88,11.46-4.68-.37-10.67-2.4-11.49-7.72.1-2.41.12-4.83.13-7.24-1.53,2.12-3.08,4.23-4.76,6.23-6.74.17-14-2.52-18.37-7.72C184.24,178.47,185.16,176.84,186,175.18Z" transform="translate(-45.29 -35.91)" fill="#d863d1"/><path d="M179.28,186.38c1.22-2.17,2.65-4.21,4-6.31,4.39,5.2,11.63,7.89,18.37,7.72-1,1.1-2,2.15-3,3.21-5.58.66-8.92,5.68-13.84,7.74-3.57.94-6.9-1.27-9.06-3.93A75.38,75.38,0,0,1,179.28,186.38Z" transform="translate(-45.29 -35.91)" fill="#d855ca"/><path d="M205.24,206.93a92.47,92.47,0,0,1,1-18.13c.82,5.32,6.81,7.35,11.49,7.72-.42,2.13-.82,4.26-1.22,6.4-.94,3.27-.83,7.1,2.37,9.11-.08.66-.23,2-.31,2.62-4.52-2-9.35-3.84-12.29-8Z" transform="translate(-45.29 -35.91)" fill="#d855ca"/><path d="M220.62,185.06a9.16,9.16,0,0,0,5.85-3,151.62,151.62,0,0,1-3.44,18.9l-6.51,2c.4-2.14.8-4.27,1.22-6.4C218.46,192.64,219.81,188.92,220.62,185.06Z" transform="translate(-45.29 -35.91)" fill="#d64ad7"/><path d="M175.55,183.66l3.73,2.72a75.38,75.38,0,0,0-3.59,8.43c-.39,1.28-.72,2.58-1.05,3.88-2.66,7.21-6.49,13.93-9.65,20.93-2.28-1.58-3.31-4.1-3.86-6.72C166,203.19,170.72,193.39,175.55,183.66Z" transform="translate(-45.29 -35.91)" fill="#0a6afd"/><path d="M184.75,198.74c4.92-2.06,8.26-7.08,13.84-7.74-2.94,3-5.87,6-8.7,9.16-2.28,0-5.75-.85-6.62,2.08-.77,4.82-.05,9.73-.29,14.58-4.13-1.51-9-2.52-11.17-6.81a96,96,0,0,0,2.83-11.32c.33-1.3.66-2.6,1.05-3.88C177.85,197.47,181.18,199.68,184.75,198.74Z" transform="translate(-45.29 -35.91)" fill="#d743c1"/><path d="M183.27,202.24c.87-2.93,4.34-2.1,6.62-2.08-.89,1.46-2.24,2.88-2.22,4.7-.08,5,.23,10-.11,15-1.65,1.38-3.32,2.72-4.92,4.15.21-2.41.29-4.82.34-7.23C183.22,212,182.5,207.06,183.27,202.24Z" transform="translate(-45.29 -35.91)" fill="#d430c7"/><path d="M216.52,202.92l6.51-2c-.43,1.69-.83,3.4-1.22,5.1,7.91,3.57,14.35,9.8,19.28,16.84,2.84,5,6,9.74,8.51,14.87-.26.65-.78,1.94-1,2.59l-3.5-.35a76.44,76.44,0,0,0-17.43-22.77c-2.54-2.31-5.71-3.7-8.75-5.19C215.69,210,215.58,206.19,216.52,202.92Z" transform="translate(-45.29 -35.91)" fill="#d63bcf"/><path d="M205.24,206.93l1-.31c2.94,4.19,7.77,6.08,12.29,8,.08-.66.23-2,.31-2.62,3,1.49,6.21,2.88,8.75,5.19A76.44,76.44,0,0,1,245.07,240c.36,2.13.51,4.29.68,6.44-.73-.51-1.46-1-2.19-1.51q-2.37-1.62-4.75-3.21a90.62,90.62,0,0,1-17-14.6c-3.63-4.09-8.18-7.26-11.53-11.6C208.29,212.9,205.39,210.45,205.24,206.93Z" transform="translate(-45.29 -35.91)" fill="#d747c3"/><path d="M166.93,229.24c1.39-6.47,3.28-12.81,4.88-19.23,2.19,4.29,7,5.3,11.17,6.81,0,2.41-.13,4.82-.34,7.23-1.73,2.84-3,6-5,8.63a2.25,2.25,0,0,1-3,.56A52.48,52.48,0,0,1,166.93,229.24Z" transform="translate(-45.29 -35.91)" fill="#d734b9"/><path d="M146,243.42c5.4-10,10.14-20.34,15.18-30.52.55,2.62,1.58,5.14,3.86,6.72-3.32,7.11-6.76,14.16-10.06,21.28C153.58,244.61,148.89,242.62,146,243.42Z" transform="translate(-45.29 -35.91)" fill="#095dfd"/><path d="M182.64,224.05c1.6-1.43,3.27-2.77,4.92-4.15-1.88,6.93-3.16,15.07-9.89,19.09l-1.31.52c-3.45,1-6.08,3.48-8.57,5.92l-2.37-1-2.95,2.65c.11-.8.34-2.38.45-3.18.14-.58.4-1.76.54-2.35,1-4.17,2.11-8.31,3.21-12.45l.26.14a52.48,52.48,0,0,0,7.74,4,2.25,2.25,0,0,0,3-.56C179.63,230,180.91,226.89,182.64,224.05Z" transform="translate(-45.29 -35.91)" fill="#d625b3"/><path d="M274.65,229.66c4.2,2,8,4.73,11.9,7.18,3.12,5.86,5.91,11.9,8.75,17.91l-.45.31c-3.33-1.17-6.56-2.58-9.81-3.95C281.64,243.93,278.07,236.83,274.65,229.66Z" transform="translate(-45.29 -35.91)" fill="#0be1f6"/><path d="M249.6,237.75c.77,1.62,1.48,3.28,2.41,4.83.72,1.21,1.47,2.41,2.23,3.61-.24,3.74-.47,7.66-2.5,10.94-1.36,1.51-2.81,2.93-4.11,4.5-1.81,0-3.62,0-5.42,0a12.1,12.1,0,0,1,2.31-7.08c.76-1.19,1.57-2.34,2.37-3.5.43-.62,1.29-1.87,1.73-2.49-1-.72-1.91-1.44-2.87-2.13-.17-2.15-.32-4.31-.68-6.44l3.5.35C248.82,239.69,249.34,238.4,249.6,237.75Z" transform="translate(-45.29 -35.91)" fill="#d530c2"/><path d="M167.79,245.43c2.49-2.44,5.12-4.93,8.57-5.92l.37.93-1.76,2.4c-1.68,2.06-3.63,3.86-5.49,5.75a34.86,34.86,0,0,0-2,3.76c-.39,2-.72,4-.92,6-2.31,1.4-4.55,2.91-6.9,4.25l-2.15,1.14a34.56,34.56,0,0,1-9.14.48c-.46-4.67,4.57-6,7.7-8,2.69-1.35,5.5-3.13,6.05-6.36.14-.9.26-1.81.38-2.71l2.95-2.65Z" transform="translate(-45.29 -35.91)" fill="#d414ad"/><path d="M176.73,240.44a382.54,382.54,0,0,1,58.24.36,15.91,15.91,0,0,1,3.84.91q2.38,1.59,4.75,3.21c-15.69-.71-31.35-2.8-47.1-2.34-7.17-.28-14.32.51-21.49.26Z" transform="translate(-45.29 -35.91)" fill="#0a8cfd"/><path d="M149.25,243.5c4.91.83,9.32-2,14.21-1.95-.14.59-.4,1.77-.54,2.35a257.9,257.9,0,0,0-35.15,6.83c-3.24.91-6.64,2.89-7.72,6.27-.51,2.63,1.21,4.9,3.36,6.17q3.54,1.47,7.14,2.76a91.64,91.64,0,0,0,22.86,5.41,295.19,295.19,0,0,0,67.05,3.38l2.17,1.73c-2,.44-4,.92-6,1.35a75.88,75.88,0,0,1-11.67.81c-8.36.48-16.82,1.85-25.17.51-10.41-2.21-21-3.35-31.56-4.58-9.75-1.42-19.58-2.24-29.34-3.6-2.69-.07-4.2-2.44-5.71-4.31-2.33-3.07-4.85-6-7-9.24l-.4-.58c11.52-5.9,24.09-9.4,36.69-12.08C144.75,244.05,147.31,245.16,149.25,243.5Z" transform="translate(-45.29 -35.91)" fill="#0872fb"/><path d="M169.48,248.59c1.86-1.89,3.81-3.69,5.49-5.75,7.17.25,14.32-.54,21.49-.26a19.69,19.69,0,0,0,5.43,5.41C191.07,247.52,180.28,249,169.48,248.59Z" transform="translate(-45.29 -35.91)" fill="#09bef4"/><path d="M196.46,242.58c15.75-.46,31.41,1.63,47.1,2.34.73.49,1.46,1,2.19,1.51,1,.69,1.91,1.41,2.87,2.13-.44.62-1.3,1.87-1.73,2.49a423.31,423.31,0,0,0-45-3.06A19.69,19.69,0,0,1,196.46,242.58Z" transform="translate(-45.29 -35.91)" fill="#0acaf4"/><path d="M252,242.58c11.15,2.26,22.41,4.31,33,8.53,3.25,1.37,6.48,2.78,9.81,3.95,2.14,1.18,3.73,3.28,5.92,4.5-5.76,3.53-11.46,7.17-17.34,10.5q-2.83-1.85-5.67-3.66a37.43,37.43,0,0,0,7.93-3.14,30.18,30.18,0,0,0,1-2.89L287,258c-9.75-5.48-20.81-8.06-31.7-10.18-.34-.55-.69-1.09-1-1.62C253.48,245,252.73,243.79,252,242.58Z" transform="translate(-45.29 -35.91)" fill="#0b99fd"/><path d="M127.77,250.73a257.9,257.9,0,0,1,35.15-6.83c-.11.8-.34,2.38-.45,3.18s-.24,1.81-.38,2.71c-7,.89-13.92,1.87-20.79,3.33a65.58,65.58,0,0,0-16,5.06c-2,1-2.5,2.9-1.88,5-2.15-1.27-3.87-3.54-3.36-6.17C121.13,253.62,124.53,251.64,127.77,250.73Z" transform="translate(-45.29 -35.91)" fill="#08adf4"/><path d="M142.88,275.39c1.77-.31,3.55-.61,5.34-.85,10.56,1.23,21.15,2.37,31.56,4.58,8.35,1.34,16.81,0,25.17-.51a75.88,75.88,0,0,0,11.67-.81c2.87.05,5.73.34,8.6.44a44.77,44.77,0,0,0-9.58,2,83.17,83.17,0,0,1,8.45,5.56c12.49,9.82,25.77,18.74,37.29,29.72l.51.52q-30.54,2.76-61.06,5.49a84.82,84.82,0,0,1-10,.41c-.08-7.48,0-15,0-22.44-3.42-.46-6.85-.85-10.27-1.31-3.74-.66-7.51-1.17-11.27-1.67a42.84,42.84,0,0,0-7.61-6.35A142.18,142.18,0,0,1,142.88,275.39Z" transform="translate(-45.29 -35.91)" fill="#08adf4"/><path d="M254.24,246.19c.34.53.69,1.07,1,1.62-.09,1.42-.17,2.84-.26,4.27,6.93,1.12,13.86,2.34,20.68,4-4,1.84-8.49,1.25-12.76,1.28-3.73,0-7.46-.07-11.19-.28C253.77,253.85,254,249.93,254.24,246.19Z" transform="translate(-45.29 -35.91)" fill="#9a6cb8"/><path d="M167.45,252.35a34.86,34.86,0,0,1,2-3.76c10.8.36,21.59-1.07,32.41-.6a423.31,423.31,0,0,1,45,3.06c-.8,1.16-1.61,2.31-2.37,3.5-2.49-1.79-5.69-1.16-8.55-1.28-10,0-20,.22-30-.43-3.7-.14-7.39.42-11.08,0C185.81,251.84,176.61,252.19,167.45,252.35Z" transform="translate(-45.29 -35.91)" fill="#a44faa"/><path d="M255.27,247.81c10.89,2.12,22,4.7,31.7,10.18l-.24,2.38a40.7,40.7,0,0,0-11-4.24c-6.82-1.71-13.75-2.93-20.68-4C255.1,250.65,255.18,249.23,255.27,247.81Z" transform="translate(-45.29 -35.91)" fill="#0bd7f4"/><path d="M141.3,253.12c6.87-1.46,13.83-2.44,20.79-3.33-.55,3.23-3.36,5-6.05,6.36.25-.44.74-1.32,1-1.77C151.78,254,146.39,254.79,141.3,253.12Z" transform="translate(-45.29 -35.91)" fill="#894eae"/><path d="M167.45,252.35c9.16-.16,18.36-.51,27.48.54,3.69.37,7.38-.19,11.08,0,10,.65,20,.39,30,.43,2.86.12,6.06-.51,8.55,1.28a12.1,12.1,0,0,0-2.31,7.08c-1.18-.93-2.29-1.93-3.41-2.91-11.12-.31-22.25-.07-33.37-.18-8.32-1.68-16.85-.46-25.26-1-4.53.17-9.36-1.3-13.64.73C166.73,256.3,167.06,254.32,167.45,252.35Z" transform="translate(-45.29 -35.91)" fill="#8663b7"/><path d="M125.29,258.18a65.58,65.58,0,0,1,16-5.06c5.09,1.67,10.48.92,15.72,1.26-.24.45-.73,1.33-1,1.77-3.13,2-8.16,3.35-7.7,8-.3-1.64-.65-3.26-1-4.88C140,258.92,132.47,260.27,125.29,258.18Z" transform="translate(-45.29 -35.91)" fill="#6e5cba"/><path d="M275.69,256.13a40.7,40.7,0,0,1,11,4.24,30.18,30.18,0,0,1-1,2.89,73.18,73.18,0,0,0-12.81-.69c-8.32.18-16.65-.2-25,.14l-.28-1.08c1.3-1.57,2.75-3,4.11-4.5,3.73.21,7.46.26,11.19.28C267.2,257.38,271.67,258,275.69,256.13Z" transform="translate(-45.29 -35.91)" fill="#7287c7"/><path d="M166.53,258.3c4.28-2,9.11-.56,13.64-.73,8.41.51,16.94-.71,25.26,1-2.7.34-5.4.64-8.11.8.65,1,1.29,1.89,1.94,2.86-13.21.36-26.43-.26-39.63.35C162,261.21,164.22,259.7,166.53,258.3Z" transform="translate(-45.29 -35.91)" fill="#6273c5"/><path d="M104.33,264.82c.5-2.51.67-5.14,1.88-7.43,2.11,3.23,4.63,6.17,7,9.24,1.51,1.87,3,4.24,5.71,4.31,9.76,1.36,19.59,2.18,29.34,3.6-1.79.24-3.57.54-5.34.85a142.18,142.18,0,0,0,18.82,14.8,42.84,42.84,0,0,1,7.61,6.35c-13.51-1.72-27-3.74-40.48-5.5-4-.47-7.94-1.31-11.94-1-3.87,1.19-7.17,3.68-10.75,5.49l-2,1.06c-1.57-2.37-5.12-4.28-4-7.58C101.7,281,102.88,272.88,104.33,264.82Z" transform="translate(-45.29 -35.91)" fill="#089cf2"/><path d="M123.41,263.17c-.62-2.09-.13-4,1.88-5,7.18,2.09,14.71.74,22.06,1.11.34,1.62.69,3.24,1,4.88a34.56,34.56,0,0,0,9.14-.48c7.17.79,14.37.11,21.55.56a59.2,59.2,0,0,0-9.67,1.22c-12.94.47-25.89-.34-38.81.46Q127,264.64,123.41,263.17Z" transform="translate(-45.29 -35.91)" fill="#4875cf"/><path d="M197.32,259.34c2.71-.16,5.41-.46,8.11-.8,11.12.11,22.25-.13,33.37.18,1.12,1,2.23,2,3.41,2.91,1.8,0,3.61,0,5.42,0l.28,1.08c-7.78.33-15.57-.33-23.33.48-8.43-.55-16.88-.83-25.32-1C198.61,261.23,198,260.29,197.32,259.34Z" transform="translate(-45.29 -35.91)" fill="#6381c8"/><path d="M300.77,259.56c1.76,10.76,2.79,21.64,4.15,32.45-1.19,1.63-3.06,2.58-4.63,3.81a101.78,101.78,0,0,1-12.57-8.69c-4.13-3.53-9.19-5.73-13.3-9.29l-.2-2.25c3.15-1.71,6.11-3.74,9.21-5.53C289.31,266.73,295,263.09,300.77,259.56Z" transform="translate(-45.29 -35.91)" fill="#0bd4f4"/><path d="M159.63,262.55c13.2-.61,26.42,0,39.63-.35,8.44.16,16.89.44,25.32,1a24.8,24.8,0,0,1,8.23,3.68c-2,.37-3.9.82-5.84,1.22a76.19,76.19,0,0,0-13.08-.29c-10.16.52-20.34.2-30.5.61-1.85-.36-3.69-.76-5.53-1.16,3-.25,6-.53,9.06-.87-5.86-.29-11.76.16-17.56-.91a59.2,59.2,0,0,1,9.67-1.22c-7.18-.45-14.38.23-21.55-.56Z" transform="translate(-45.29 -35.91)" fill="#4092d9"/><path d="M224.58,263.19c7.76-.81,15.55-.15,23.33-.48,8.32-.34,16.65,0,25-.14a73.18,73.18,0,0,1,12.81.69,37.43,37.43,0,0,1-7.93,3.14q-1.65.41-3.3.78c-7.83-.87-15.71-.38-23.57-.47-6,.06-12.06-.17-18.08.16A24.8,24.8,0,0,0,224.58,263.19Z" transform="translate(-45.29 -35.91)" fill="#4a9fd7"/><path d="M130.55,265.93c12.92-.8,25.87,0,38.81-.46,5.8,1.07,11.7.62,17.56.91-3,.34-6,.62-9.06.87,1.84.4,3.68.8,5.53,1.16-9.73,3.18-20.15.36-30,2.93A91.64,91.64,0,0,1,130.55,265.93Z" transform="translate(-45.29 -35.91)" fill="#2693e3"/><path d="M232.81,266.87c6-.33,12.05-.1,18.08-.16,7.86.09,15.74-.4,23.57.47a92.1,92.1,0,0,1-15.16,3.13c-9.14-.49-18.31-.11-27.46-.31-1.87.17-3.43-.88-4.87-1.91C228.91,267.69,230.85,267.24,232.81,266.87Z" transform="translate(-45.29 -35.91)" fill="#2daee4"/><path d="M274.46,267.18q1.65-.37,3.3-.78,2.83,1.82,5.67,3.66c-3.1,1.79-6.06,3.82-9.21,5.53-16.3,1.38-32.69,1.44-49,2.65-2.87-.1-5.73-.39-8.6-.44,2-.43,4-.91,6-1.35l-2.17-1.73c12.95-1.45,26.07-1.68,38.84-4.41A92.1,92.1,0,0,0,274.46,267.18Z" transform="translate(-45.29 -35.91)" fill="#0a8dfd"/><path d="M183.39,268.41c10.16-.41,20.34-.09,30.5-.61a76.19,76.19,0,0,1,13.08.29c1.44,1,3,2.08,4.87,1.91,9.15.2,18.32-.18,27.46.31-12.77,2.73-25.89,3-38.84,4.41a295.19,295.19,0,0,1-67.05-3.38C163.24,268.77,173.66,271.59,183.39,268.41Z" transform="translate(-45.29 -35.91)" fill="#18acec"/><path d="M225.22,278.24c16.31-1.21,32.7-1.27,49-2.65l.2,2.25c4.11,3.56,9.17,5.76,13.3,9.29a101.78,101.78,0,0,0,12.57,8.69l-2.49,2-1.43-1.6c-4.6,1.65-8.28,5-12.06,8,0,1.23,0,2.45,0,3.69-3.35,2-6.14,5.42-10.25,5.86s-8.41,2.42-12.64,1.76c-11.52-11-24.8-19.9-37.29-29.72a83.17,83.17,0,0,0-8.45-5.56A44.77,44.77,0,0,1,225.22,278.24Z" transform="translate(-45.29 -35.91)" fill="#09c2f4"/><path d="M106.14,295.56c3.58-1.81,6.88-4.3,10.75-5.49,4-.34,8,.5,11.94,1,13.5,1.76,27,3.78,40.48,5.5,3.76.5,7.53,1,11.27,1.67,1.84.76,3.64,1.61,5.46,2.44-3.61,2.52-7.67,4.54-12.15,4.71-9.06.71-18.11,1.4-27.12,2.57-4-.29-7.84-1.41-11.74-2.21-9.1-1.79-18.23-3.42-27.28-5.4Q106.94,297.94,106.14,295.56Z" transform="translate(-45.29 -35.91)" fill="#8350bc"/><path d="M104.17,296.62l2-1.06q.8,2.37,1.61,4.76c9,2,18.18,3.61,27.28,5.4,3.9.8,7.75,1.92,11.74,2.21l-.84,2.26a159,159,0,0,1,14,9.71,63.55,63.55,0,0,1,13.9,10.49,10.33,10.33,0,0,1-3.91.89c-8.69.41-17.37,1.08-26.06,1.53a25.85,25.85,0,0,1-6.83-.87c-11.52-2.56-23.15-4.59-34.66-7.18-.39-5.29-1.47-10.55-1.32-15.85A106.25,106.25,0,0,1,104.17,296.62Z" transform="translate(-45.29 -35.91)" fill="#7737a6"/><path d="M180.58,298.21c3.42.46,6.85.85,10.27,1.31,0,7.48,0,15,0,22.44-5.72,2.72-11.32,5.69-17,8.43A63.55,63.55,0,0,0,160,319.9a159,159,0,0,0-14-9.71l.84-2.26c9-1.17,18.06-1.86,27.12-2.57,4.48-.17,8.54-2.19,12.15-4.71C184.22,299.82,182.42,299,180.58,298.21Z" transform="translate(-45.29 -35.91)" fill="#833ca6"/><path d="M60.13,364.28,45.29,302.13H58.13l9.37,42.69,11.37-42.69H93.79l10.89,43.41,9.54-43.41h12.64l-15.1,62.15H98.45L86.07,317.81,73.74,364.28Z" transform="translate(-45.29 -35.91)" fill="#fff"/><path d="M138.86,333,128,331q1.83-6.53,6.28-9.66c3-2.09,7.37-3.14,13.23-3.14q8,0,11.87,1.88a11.85,11.85,0,0,1,5.49,4.8q1.59,2.9,1.59,10.66l-.13,13.9a48.52,48.52,0,0,0,.57,8.76,25.75,25.75,0,0,0,2.14,6H157.3c-.31-.79-.7-2-1.15-3.52-.2-.71-.34-1.17-.42-1.4a21.49,21.49,0,0,1-6.53,4.45,18.7,18.7,0,0,1-7.42,1.49q-7,0-11-3.78a12.53,12.53,0,0,1-4-9.54,12.75,12.75,0,0,1,1.83-6.8,11.91,11.91,0,0,1,5.11-4.58,39.79,39.79,0,0,1,9.47-2.77,64.38,64.38,0,0,0,11.57-2.93v-1.19q0-3.43-1.69-4.89c-1.13-1-3.27-1.47-6.4-1.47a8.54,8.54,0,0,0-5,1.25A8.68,8.68,0,0,0,138.86,333Zm15.93,9.67c-1.52.51-3.94,1.11-7.24,1.82s-5.47,1.4-6.49,2.08a5,5,0,0,0-2.33,4.2,5.86,5.86,0,0,0,1.86,4.32,6.55,6.55,0,0,0,4.75,1.82,10.28,10.28,0,0,0,6.15-2.12,7.45,7.45,0,0,0,2.84-3.94,23.67,23.67,0,0,0,.46-5.81Z" transform="translate(-45.29 -35.91)" fill="#fff"/><path d="M178.24,364.28V302.13h11.91v62.15Z" transform="translate(-45.29 -35.91)" fill="#fff"/><path d="M201.94,364.28V302.13h11.91v33l14-15.86h14.67l-15.39,16.46,16.49,28.57H230.72l-11.31-20.22-5.56,5.8v14.42Z" transform="translate(-45.29 -35.91)" fill="#fff"/><path d="M250.65,313.15v-11h11.91v11Zm0,51.13v-45h11.91v45Z" transform="translate(-45.29 -35.91)" fill="#fff"/><path d="M315.73,364.28H303.81v-23q0-7.29-.76-9.43a6.64,6.64,0,0,0-2.48-3.33,7.08,7.08,0,0,0-4.13-1.19,9.57,9.57,0,0,0-5.56,1.7,8.56,8.56,0,0,0-3.37,4.49q-.92,2.81-.91,10.35v20.39H274.69v-45h11.06v6.62q5.89-7.64,14.84-7.63a17.84,17.84,0,0,1,7.21,1.42,12.17,12.17,0,0,1,4.94,3.62,13.25,13.25,0,0,1,2.33,5,37,37,0,0,1,.66,8Z" transform="translate(-45.29 -35.91)" fill="#fff"/><path d="M326.71,367.25l13.6,1.65a4.65,4.65,0,0,0,1.57,3.26q1.69,1.27,5.35,1.28c3.1,0,5.44-.47,7-1.4a5.78,5.78,0,0,0,2.38-3,18.35,18.35,0,0,0,.55-5.47V357q-5.34,7.29-13.48,7.29a16.63,16.63,0,0,1-14.38-7.67q-4.16-6.08-4.15-15.1,0-11.31,5.45-17.29a17.55,17.55,0,0,1,13.54-6q8.36,0,13.78,7.33v-6.32h11.15v40.41q0,8-1.32,11.91a14.72,14.72,0,0,1-3.68,6.19,16.4,16.4,0,0,1-6.34,3.52,33.32,33.32,0,0,1-10,1.27q-11.44,0-16.23-3.92a12.29,12.29,0,0,1-4.8-9.94C326.66,368.29,326.68,367.81,326.71,367.25Zm10.64-26.42q0,7.17,2.77,10.5a8.61,8.61,0,0,0,6.85,3.33,9.47,9.47,0,0,0,7.38-3.42q3-3.4,3-10.11,0-7-2.88-10.39a9.19,9.19,0,0,0-7.3-3.39,8.81,8.81,0,0,0-7.06,3.33Q337.35,334,337.35,340.83Z" transform="translate(-45.29 -35.91)" fill="#fff"/></svg>