<svg xmlns="http://www.w3.org/2000/svg" viewBox="0 0 339 286.6"><title>WebAR</title><rect x="43" y="43" width="252" height="177" fill="#efecf0"/><rect x="52" y="57" width="233" height="143" fill="#39393b"/><polygon points="196 253 143 253 147 224 191 224 196 253" fill="#c7c6c7" opacity="0.8" style="isolation:isolate"/><rect x="102" y="253" width="133" height="6" fill="#e9f1f4"/><path d="M367.61,297.32a27.61,27.61,0,0,0,.17-3,20.31,20.31,0,0,0-37.73-10.44,15.89,15.89,0,0,0-24.24,3A17.52,17.52,0,0,0,277,300.29C277,310,284.83,317,294.51,317h64.9a11.55,11.55,0,0,0,8.2-19.69Z" transform="translate(-33 -68)" fill="#fface3"/><path d="M355.47,276a12.59,12.59,0,0,0,.08-1.37,9.25,9.25,0,0,0-17.18-4.76,7.24,7.24,0,0,0-11,1.38,8,8,0,0,0-13.13,6.1,7.68,7.68,0,0,0,8,7.62h29.56a5.26,5.26,0,0,0,3.73-9Z" transform="translate(-33 -68)" fill="#ef9ad7" opacity="0.52" style="isolation:isolate"/><path d="M196.3,143.59a53.66,53.66,0,0,1,64.77,42.33,55.39,55.39,0,0,1-4.53,33.93c-1.35-1.56-2.59-3.19-3.93-4.74,2-5.24,3.74-10.75,3.55-16.43-6.36-.1-12.73.06-19.09-.08-1.06,6.21-1.62,12.52-3.34,18.62q3.3-.06,6.62,0c0,1.82,0,3.65,0,5.48-2.74,0-5.47,0-8.2,0a101.72,101.72,0,0,1-9.79,19.26c6.72-1.75,12.74-5.5,18-10q0,3.51,0,7a53.69,53.69,0,1,1-44.06-95.39Zm6.55,5.84a82.19,82.19,0,0,0-9.76,15.3c-.59,1.45-1.76,2.85-1.41,4.52,4.25-.13,8.51-.06,12.77,0l1.15-1.11c-.26-6.7.4-13.53-.34-20.14A3.33,3.33,0,0,0,202.85,149.43Zm8.5-1.41c-.7,6.61-.07,13.43-.33,20.12l1.1,1.09c4.92,0,9.84-.13,14.76,0,.66-1.74-.7-3.32-1.29-4.86a49.6,49.6,0,0,0-11.76-16Zm-42.83,21.22c5.6-.22,11.21.16,16.8-.19,2.24-7,6.57-13.11,10-19.52C184.49,152.6,174.26,159.46,168.52,169.24Zm54.93-19.16c1.26,2.83,3.61,5.06,4.94,7.89,2.25,3.54,3.37,7.68,5.5,11.26q7.08-.12,14.18,0c-.89-2.55-3-4.43-4.73-6.4A49.45,49.45,0,0,0,223.45,150.08Zm27.34,23.23-1.28,1.22c-4.61.23-9.24.17-13.85,0-.06,5.94,1.81,11.82,1.37,17.83l1.09.83c6-.18,12.06.24,18.05-.2A40.7,40.7,0,0,0,250.79,173.31Zm-85.41.85c-3,5.85-5,12.42-4.9,19.05,6.32-.06,12.64,0,19,0l1.27-1c-.27-6,1.57-11.75,2.32-17.61C177.15,174.53,171.2,175.11,165.38,174.16Zm23.5,1.26a72.18,72.18,0,0,0-2.83,16.64c.28.29.85.85,1.14,1.13,5.78,0,11.56,0,17.34,0l1.09-1.07c-.09-5.47,0-10.93,0-16.4-.27-.29-.8-.88-1.06-1.18-4.81.2-9.62.06-14.43.06Zm22.08.22c.19,5.47.08,11,0,16.43l1.13,1.16q9.18-.1,18.35,0c.28-.29.82-.88,1.09-1.17a69.3,69.3,0,0,0-2-16.41l-1.1-1q-8.16,0-16.33,0Zm-50.48,23c-.18,6.47,1.83,12.82,4.65,18.58,6,0,11.93-.09,17.89.06-.68-6-2.19-11.95-2.18-18l-1.38-.55C173.13,198.6,166.79,198.72,160.48,198.61Zm26,.17c-.22,6,1,12,2.31,17.84l1.32.56c5.06-.22,10.32.49,15.26-.35.48-5.64,0-11.39.24-17.07-.28-.29-.83-.85-1.1-1.14C198.52,198.76,192.51,198.47,186.51,198.78Zm24.5,1c.34,5.66-.46,11.57.4,17.08,5.17.86,10.72,0,16,.39l.94-1.32c1.32-5.57,2.67-11.21,2.78-17-6.23-.71-12.68-.06-19-.34C211.88,198.9,211.29,199.47,211,199.76Zm-42.47,22.86c5.86,10.17,16.63,16.75,27.65,20.14-3-3.75-6-7.54-7.94-11.94-1.46-2.63-2.08-5.66-3.74-8.18C179.18,222.65,173.87,222.68,168.54,222.62Zm22.83.12c0,2.75,1.53,5.12,2.75,7.48,2.81,4.92,6.24,9.81,11.24,12.7.48-6.62.18-13.34.14-20C200.85,222.36,196.07,222.71,191.37,222.74Zm19.62,1c.26,6.68-.27,13.41.27,20.06l2.78-.24c5.06-6.2,9.67-13.18,11.82-20.92q-6.88.1-13.76,0C211.84,222.88,211.27,223.44,211,223.71Z" transform="translate(-33 -68)" fill="#00fff0"/><path d="M235.76,200.32c.28-1.24,1.42-2.63,2.84-2.36,3.5,3.15,6.13,7.09,9.3,10.54,1.34,1.55,2.58,3.18,3.93,4.74,9.66,11.34,19.23,22.76,28.82,34.17,1.57,1.6-.27,3.82-2.15,3.64-5.55-.22-11.06-1-16.6-1.41,1.78,3.81,3.19,7.77,4.75,11.66,1.64,4.33,3.76,8.5,5.05,12.95,1,3.07-2.67,3.62-4.66,4.54-1.92.58-4.6,2.4-6.13.17-2.68-5.7-4.41-11.8-6.66-17.67-1.1-2.47-1.47-5.37-3.18-7.5-2.25,2.64-4.81,5-7.2,7.5-1.74,1.7-3.26,3.69-5.36,5-2.82.38-2.84-3-2.8-4.95,0-9.64,0-19.29-.06-28.94q0-3.51,0-7c0-3.1,0-6.2,0-9.29,0-1.83,0-3.66,0-5.48C235.71,207.16,235.52,203.73,235.76,200.32Zm2-.4q-.21,32.21.11,64.42c5.18-4.31,9.27-9.91,14.58-14,3.39,9.26,6.51,18.64,10.25,27.77a45.27,45.27,0,0,0,7.1-2.74c-1.64-6.59-5-12.67-7.17-19.09-.86-2.95-3-5.75-2.9-8.83,6.61.13,13.15,1.67,19.76,1.38-10.72-12.4-21.11-25.09-31.8-37.51C244.41,207.49,241.45,203.33,237.74,199.92Z" transform="translate(-33 -68)" fill="#c6c6c6"/><path d="M237.74,199.92c3.71,3.41,6.68,7.57,9.93,11.43,10.69,12.42,21.08,25.11,31.8,37.51-6.61.29-13.15-1.25-19.76-1.38-.14,3.08,2,5.88,2.9,8.83,2.2,6.42,5.53,12.5,7.17,19.09a45.27,45.27,0,0,1-7.1,2.74c-3.74-9.13-6.86-18.51-10.25-27.77-5.31,4.06-9.4,9.66-14.58,14Q237.57,232.14,237.74,199.92Z" transform="translate(-33 -68)" fill="#fff"/><path d="M153.21,153H37.79A4.79,4.79,0,0,1,33,148.21V72.79A4.79,4.79,0,0,1,37.79,68H153.21A4.79,4.79,0,0,1,158,72.79v75.42A4.78,4.78,0,0,1,153.21,153Z" transform="translate(-33 -68)" fill="#113651"/><path d="M95.76,148c-17.15,0-34.3-.1-51.45.09-3.47,0-4.43-.79-4.4-4.34q.29-28.73,0-57.45c0-3.49.84-4.39,4.36-4.38q51.7.21,103.41,0c3.46,0,4.43.78,4.4,4.34q-.29,28.73,0,57.45c0,3.49-.83,4.42-4.36,4.38C130.4,147.88,113.08,148,95.76,148Z" transform="translate(-33 -68)" fill="#fefef9"/><path d="M45.38,78c-2.1-.17-3.31-1.13-3.3-3.07a2.7,2.7,0,0,1,2.74-2.86,2.76,2.76,0,0,1,3.1,3C47.94,76.78,46.74,77.61,45.38,78Z" transform="translate(-33 -68)" fill="#d9a107"/><path d="M56.22,72.08c1.67.31,2.74,1.29,2.64,3a2.69,2.69,0,0,1-3.33,2.74,2.65,2.65,0,0,1-2.4-3.18A2.82,2.82,0,0,1,56.22,72.08Z" transform="translate(-33 -68)" fill="#5f8b07"/><path d="M71,75c-.2,1.69-1.06,2.89-2.8,2.94a2.72,2.72,0,0,1-3.06-3.11,2.69,2.69,0,0,1,3-2.71C69.83,72.13,70.7,73.28,71,75Z" transform="translate(-33 -68)" fill="#d71236"/><path d="M90,124c-13.83,0-27.66-.09-41.49.08-3.49,0-4.64-1.07-4.57-4.57.2-9.49.16-19,0-28.49,0-3,1-4.07,4-4q24,.17,48,0c3,0,4.11,1,4.05,4-.16,7.33-.05,14.66-.06,22C93.83,114.09,91.9,119,90,124Z" transform="translate(-33 -68)" fill="#fe8eed"/><path d="M90,124v-1c.18-11.58-1.59-9.81,10-10,12.13,0,24.27.17,36.39-.09,4.32-.09,6.29,1.12,5.64,5.59a12.67,12.67,0,0,0,0,3.48c.53,4-1.26,5.14-5.12,5.09-14.12-.18-28.25-.07-42.38-.08C92.36,127,89.93,127.34,90,124Z" transform="translate(-33 -68)" fill="#fecaf6"/><path d="M113.92,138c-7,0-13.94,0-20.91,0-1.82,0-3.94.2-3.89-2.55s2.25-2.41,4-2.41q20.91,0,41.82,0c1.82,0,3.94-.2,3.89,2.55s-2.25,2.4-4,2.41C127.86,138,120.89,138,113.92,138Z" transform="translate(-33 -68)" fill="#fecaf6"/><circle cx="291.63" cy="52.46" r="2.6" fill="#bb0ee5"/><g opacity="0.37"><polygon points="299.35 83.76 261.34 84.02 291.67 52.97 330.87 48.66 299.35 83.76" fill="#bb0ee5"/><polyline points="301.02 81.9 299.35 83.76 296.85 83.78" fill="none" stroke="#c44fe0" stroke-miterlimit="10"/><line x1="292.14" y1="83.81" x2="266.2" y2="83.98" fill="none" stroke="#c44fe0" stroke-miterlimit="10" stroke-dasharray="4.72 4.72"/><polyline points="263.84 84 261.34 84.02 263.09 82.23" fill="none" stroke="#c44fe0" stroke-miterlimit="10"/><polyline points="266.72 78.52 291.67 52.97 325.8 49.22" fill="none" stroke="#c44fe0" stroke-miterlimit="10" stroke-dasharray="5.19 5.19"/><polyline points="328.38 48.93 330.87 48.66 329.2 50.52" fill="none" stroke="#c44fe0" stroke-miterlimit="10"/><line x1="326.07" y1="54.01" x2="302.59" y2="80.15" fill="none" stroke="#c44fe0" stroke-miterlimit="10" stroke-dasharray="4.69 4.69"/></g><g opacity="0.37"><polygon points="300.25 83.3 261.34 84.02 237.77 37.67 276.68 36.95 300.25 83.3" fill="#e386f7"/><polyline points="299.11 81.08 300.25 83.3 297.75 83.35" fill="none" stroke="#c44fe0" stroke-miterlimit="10"/><line x1="292.9" y1="83.44" x2="266.26" y2="83.93" fill="none" stroke="#c44fe0" stroke-miterlimit="10" stroke-dasharray="4.84 4.84"/><polyline points="263.84 83.97 261.34 84.02 260.21 81.79" fill="none" stroke="#c44fe0" stroke-miterlimit="10"/><line x1="257.84" y1="77.13" x2="240.09" y2="42.22" fill="none" stroke="#c44fe0" stroke-miterlimit="10" stroke-dasharray="5.22 5.22"/><polyline points="238.9 39.89 237.77 37.67 240.27 37.62" fill="none" stroke="#c44fe0" stroke-miterlimit="10"/><line x1="245.11" y1="37.53" x2="271.75" y2="37.04" fill="none" stroke="#c44fe0" stroke-miterlimit="10" stroke-dasharray="4.84 4.84"/><polyline points="274.18 37 276.68 36.95 277.81 39.18" fill="none" stroke="#c44fe0" stroke-miterlimit="10"/><line x1="280.18" y1="43.84" x2="297.93" y2="78.75" fill="none" stroke="#c44fe0" stroke-miterlimit="10" stroke-dasharray="5.22 5.22"/></g><g opacity="0.37"><polygon points="330.87 48.66 300.25 83.3 276.68 36.95 307.31 4.55 330.87 48.66" fill="#b366c6"/><polyline points="329.69 46.46 330.87 48.66 329.21 50.53" fill="none" stroke="#c44fe0" stroke-miterlimit="10"/><line x1="326.18" y1="53.97" x2="303.42" y2="79.72" fill="none" stroke="#c44fe0" stroke-miterlimit="10" stroke-dasharray="4.58 4.58"/><polyline points="301.9 81.43 300.25 83.3 299.11 81.08" fill="none" stroke="#c44fe0" stroke-miterlimit="10"/><line x1="296.75" y1="76.42" x2="278.99" y2="41.51" fill="none" stroke="#c44fe0" stroke-miterlimit="10" stroke-dasharray="5.22 5.22"/><polyline points="277.81 39.18 276.68 36.95 278.39 35.14" fill="none" stroke="#c44fe0" stroke-miterlimit="10"/><line x1="282.28" y1="31.03" x2="303.65" y2="8.42" fill="none" stroke="#c44fe0" stroke-miterlimit="10" stroke-dasharray="5.66 5.66"/><polyline points="305.6 6.36 307.31 4.55 308.49 6.75" fill="none" stroke="#c44fe0" stroke-miterlimit="10"/><line x1="310.85" y1="11.16" x2="328.51" y2="44.25" fill="none" stroke="#c44fe0" stroke-miterlimit="10" stroke-dasharray="5 5"/></g><g opacity="0.37"><polygon points="276.68 36.95 237.77 37.67 268.86 6.15 307.31 4.55 276.68 36.95" fill="#bb0ee5"/><polyline points="278.39 35.14 276.68 36.95 274.18 37" fill="none" stroke="#c44fe0" stroke-miterlimit="10"/><line x1="269.33" y1="37.09" x2="242.69" y2="37.58" fill="none" stroke="#c44fe0" stroke-miterlimit="10" stroke-dasharray="4.84 4.84"/><polyline points="240.27 37.62 237.77 37.67 239.53 35.89" fill="none" stroke="#c44fe0" stroke-miterlimit="10"/><polyline points="243.17 32.2 268.86 6.15 302.23 4.76" fill="none" stroke="#c44fe0" stroke-miterlimit="10" stroke-dasharray="5.18 5.18"/><polyline points="304.82 4.65 307.31 4.55 305.6 6.36" fill="none" stroke="#c44fe0" stroke-miterlimit="10"/><line x1="301.71" y1="10.47" x2="280.34" y2="33.08" fill="none" stroke="#c44fe0" stroke-miterlimit="10" stroke-dasharray="5.66 5.66"/></g><circle cx="238.66" cy="37.21" r="3" fill="#bb0ee5"/><circle cx="276.22" cy="36.06" r="3" fill="#bb0ee5"/><circle cx="261.34" cy="84.02" r="3" fill="#bb0ee5"/><circle cx="300.25" cy="83.3" r="3" fill="#bb0ee5"/><circle cx="267.97" cy="6.6" r="3" fill="#bb0ee5"/><circle cx="307.31" cy="4.55" r="3" fill="#bb0ee5"/><circle cx="330.87" cy="48.66" r="3" fill="#bb0ee5"/><circle cx="45" cy="231.48" r="1.63" fill="#bb0ee5"/><g opacity="0.37"><polygon points="32.26 247.12 17.84 228.21 44.77 231.69 61.66 249.67 32.26 247.12" fill="#bb0ee5"/><polyline points="34.75 247.33 32.26 247.12 30.75 245.13" fill="none" stroke="#c44fe0" stroke-miterlimit="10"/><line x1="26.95" y1="240.15" x2="21.25" y2="232.69" fill="none" stroke="#c44fe0" stroke-miterlimit="10" stroke-dasharray="6.26 6.26"/><polyline points="19.35 230.2 17.84 228.21 20.31 228.53" fill="none" stroke="#c44fe0" stroke-miterlimit="10"/><polyline points="25.47 229.2 44.77 231.69 58.17 245.95" fill="none" stroke="#c44fe0" stroke-miterlimit="10" stroke-dasharray="5.2 5.2"/><polyline points="59.95 247.85 61.66 249.67 59.17 249.45" fill="none" stroke="#c44fe0" stroke-miterlimit="10"/><line x1="54.29" y1="249.03" x2="37.2" y2="247.54" fill="none" stroke="#c44fe0" stroke-miterlimit="10" stroke-dasharray="4.9 4.9"/></g><g opacity="0.37"><polygon points="32.83 247.39 17.84 228.21 32.14 198.99 47.13 218.17 32.83 247.39" fill="#e386f7"/><polyline points="33.92 245.14 32.83 247.39 31.29 245.42" fill="none" stroke="#c44fe0" stroke-miterlimit="10"/><line x1="27.32" y1="240.34" x2="21.36" y2="232.72" fill="none" stroke="#c44fe0" stroke-miterlimit="10" stroke-dasharray="6.45 6.45"/><polyline points="19.38 230.18 17.84 228.21 18.93 225.96" fill="none" stroke="#c44fe0" stroke-miterlimit="10"/><line x1="21.36" y1="221.02" x2="29.83" y2="203.71" fill="none" stroke="#c44fe0" stroke-miterlimit="10" stroke-dasharray="5.51 5.51"/><polyline points="31.04 201.24 32.14 198.99 33.68 200.96" fill="none" stroke="#c44fe0" stroke-miterlimit="10"/><line x1="37.65" y1="206.04" x2="43.61" y2="213.66" fill="none" stroke="#c44fe0" stroke-miterlimit="10" stroke-dasharray="6.45 6.45"/><polyline points="45.59 216.2 47.13 218.17 46.03 220.42" fill="none" stroke="#c44fe0" stroke-miterlimit="10"/><line x1="43.61" y1="225.36" x2="35.14" y2="242.67" fill="none" stroke="#c44fe0" stroke-miterlimit="10" stroke-dasharray="5.51 5.51"/></g><g opacity="0.37"><polygon points="61.66 249.67 32.83 247.39 47.13 218.17 74.86 221.3 61.66 249.67" fill="#b366c6"/><polyline points="62.72 247.4 61.66 249.67 59.17 249.47" fill="none" stroke="#c44fe0" stroke-miterlimit="10"/><line x1="54.4" y1="249.09" x2="37.7" y2="247.78" fill="none" stroke="#c44fe0" stroke-miterlimit="10" stroke-dasharray="4.79 4.79"/><polyline points="35.32 247.59 32.83 247.39 33.92 245.14" fill="none" stroke="#c44fe0" stroke-miterlimit="10"/><line x1="36.35" y1="240.2" x2="44.82" y2="222.89" fill="none" stroke="#c44fe0" stroke-miterlimit="10" stroke-dasharray="5.51 5.51"/><polyline points="46.03 220.42 47.13 218.17 49.61 218.45" fill="none" stroke="#c44fe0" stroke-miterlimit="10"/><line x1="54.17" y1="218.96" x2="70.1" y2="220.76" fill="none" stroke="#c44fe0" stroke-miterlimit="10" stroke-dasharray="4.58 4.58"/><polyline points="72.37 221.02 74.86 221.3 73.8 223.56" fill="none" stroke="#c44fe0" stroke-miterlimit="10"/><line x1="71.59" y1="228.33" x2="63.83" y2="245.02" fill="none" stroke="#c44fe0" stroke-miterlimit="10" stroke-dasharray="5.26 5.26"/></g><g opacity="0.37"><polygon points="47.13 218.17 32.14 198.99 59.59 202.68 74.86 221.3 47.13 218.17" fill="#bb0ee5"/><polyline points="49.61 218.45 47.13 218.17 45.59 216.2" fill="none" stroke="#c44fe0" stroke-miterlimit="10"/><line x1="41.62" y1="211.12" x2="35.67" y2="203.5" fill="none" stroke="#c44fe0" stroke-miterlimit="10" stroke-dasharray="6.45 6.45"/><polyline points="33.68 200.96 32.14 198.99 34.62 199.32" fill="none" stroke="#c44fe0" stroke-miterlimit="10"/><polyline points="39.77 200.02 59.59 202.68 71.62 217.35" fill="none" stroke="#c44fe0" stroke-miterlimit="10" stroke-dasharray="5.2 5.2"/><polyline points="73.27 219.36 74.86 221.3 72.37 221.02" fill="none" stroke="#c44fe0" stroke-miterlimit="10"/><line x1="67.82" y1="220.5" x2="51.89" y2="218.71" fill="none" stroke="#c44fe0" stroke-miterlimit="10" stroke-dasharray="4.58 4.58"/></g><circle cx="32.7" cy="199.27" r="1.88" fill="#bb0ee5"/><circle cx="47.41" cy="217.61" r="1.88" fill="#bb0ee5"/><circle cx="17.84" cy="228.21" r="1.88" fill="#bb0ee5"/><circle cx="32.83" cy="247.39" r="1.88" fill="#bb0ee5"/><circle cx="59.03" cy="202.4" r="1.88" fill="#bb0ee5"/><circle cx="74.86" cy="221.3" r="1.88" fill="#bb0ee5"/><circle cx="61.66" cy="249.67" r="1.88" fill="#bb0ee5"/><path d="M64.4,353.6,49.79,292.41H62.44l9.22,42,11.19-42H97.54l10.73,42.75,9.39-42.75H130.1L115.24,353.6H102.13L89.94,307.85,77.8,353.6Z" transform="translate(-33 -68)" fill="#00fff0"/><path d="M160.45,339.49l11.69,2a19.14,19.14,0,0,1-7.12,9.79,20.91,20.91,0,0,1-12.17,3.36q-11.57,0-17.11-7.56-4.38-6-4.38-15.28,0-11,5.76-17.26a19,19,0,0,1,14.57-6.24q9.9,0,15.61,6.53t5.47,20H143.38q.12,5.22,2.84,8.12a8.89,8.89,0,0,0,6.76,2.9,7.17,7.17,0,0,0,4.63-1.5A9.23,9.23,0,0,0,160.45,339.49Zm.67-11.85q-.12-5.08-2.63-7.74a8.45,8.45,0,0,0-12.43.15,10.81,10.81,0,0,0-2.46,7.6h17.52Z" transform="translate(-33 -68)" fill="#00fff0"/><path d="M181.82,353.6V292.41h11.73v22q5.43-6.18,12.85-6.18a17.3,17.3,0,0,1,13.4,5.86q5.31,5.87,5.3,16.84,0,11.36-5.41,17.49a16.87,16.87,0,0,1-13.13,6.14,16.17,16.17,0,0,1-7.49-1.9,18.12,18.12,0,0,1-6.37-5.61v6.51Zm11.65-23.12q0,6.88,2.17,10.19a9.28,9.28,0,0,0,8.1,4.68,8.32,8.32,0,0,0,6.62-3.32q2.73-3.31,2.73-10.46,0-7.6-2.75-11a8.72,8.72,0,0,0-7.05-3.36,8.81,8.81,0,0,0-7,3.28Q193.46,323.8,193.47,330.48Z" transform="translate(-33 -68)" fill="#00fff0"/><path d="M310.39,353.6H297l-5.34-13.9H267.15l-5,13.9H249l23.83-61.19h13.07Zm-22.75-24.21-8.43-22.71L271,329.39Z" transform="translate(-33 -68)" fill="#00fff0"/><path d="M317,353.6V292.41h26q9.81,0,14.25,1.65a14.08,14.08,0,0,1,7.12,5.86,17.64,17.64,0,0,1,2.67,9.64,16.32,16.32,0,0,1-4,11.37q-4.05,4.49-12.11,5.66a29.06,29.06,0,0,1,6.62,5.13,69.88,69.88,0,0,1,7,9.93l7.48,12H357.22l-8.93-13.32a86.17,86.17,0,0,0-6.51-9,9.49,9.49,0,0,0-3.72-2.55,20.34,20.34,0,0,0-6.22-.69h-2.5v25.55H317Zm12.36-35.31h9.14q8.89,0,11.1-.75A6.61,6.61,0,0,0,353,315a8,8,0,0,0,1.25-4.59,7.34,7.34,0,0,0-1.65-5A7.53,7.53,0,0,0,348,303q-1.5-.21-9-.21h-9.64v15.53Z" transform="translate(-33 -68)" fill="#00fff0"/></svg>