<?xml version="1.0" encoding="utf-8"?>
<!-- Generator: Adobe Illustrator 23.1.0, SVG Export Plug-In . SVG Version: 6.00 Build 0)  -->
<svg version="1.1" xmlns="http://www.w3.org/2000/svg" xmlns:xlink="http://www.w3.org/1999/xlink" x="0px" y="0px"
	 viewBox="0 0 500 500" style="enable-background:new 0 0 500 500;" xml:space="preserve">
<style type="text/css">
	.st0{display:none;}
	.st1{display:inline;fill:#0000E5;stroke:#020202;stroke-miterlimit:10;}
	.st2{display:inline;fill:#FCFCFC;stroke:#000000;stroke-width:6;stroke-miterlimit:10;}
	.st3{display:inline;fill:none;stroke:#000000;stroke-width:6;stroke-miterlimit:10;}
	.st4{display:inline;fill:#FCFCFC;stroke:#000000;stroke-width:6;stroke-miterlimit:10;stroke-dasharray:12;}
	.st5{display:inline;}
	.st6{fill:#FCFCFC;}
	.st7{fill:none;stroke:#000000;stroke-width:4;stroke-miterlimit:10;}
	.st8{fill:none;stroke:#000000;stroke-width:4;stroke-miterlimit:10;stroke-dasharray:8.9984,8.9984;}
	.st9{display:inline;fill:none;stroke:#000000;stroke-width:4;stroke-miterlimit:10;}
	.st10{display:inline;fill:#FFFFFF;stroke:#020202;stroke-width:6;stroke-miterlimit:10;}
	.st11{display:inline;fill:none;stroke:#020202;stroke-width:6;stroke-miterlimit:10;}
	.st12{display:inline;fill:none;stroke:#020202;stroke-width:4;stroke-miterlimit:10;}
	.st13{display:inline;fill:#FFFFFF;}
	.st14{display:inline;stroke:#000000;stroke-width:6;stroke-miterlimit:10;}
	.st15{display:inline;fill:#FFFFFF;stroke:#000000;stroke-width:6;stroke-miterlimit:10;}
	.st16{display:inline;fill:#FFFFFF;stroke:#000000;stroke-width:4;stroke-miterlimit:10;}
	.st17{fill:#FFFFFF;stroke:#000000;stroke-width:6;stroke-miterlimit:10;}
	.st18{fill:#FFFFFF;stroke:#020202;stroke-width:6;stroke-miterlimit:10;}
	.st19{fill:none;stroke:#020202;stroke-width:6;stroke-miterlimit:10;}
</style>
<g id="back" class="st0">
	<rect x="-0.5" y="-0.5" class="st1" width="500" height="500"/>
</g>
<g id="Capa_1" class="st0">
	<polygon class="st2" points="101.26,245.25 101.26,416.25 358.26,416.25 358.26,245.25 229.31,114.25 	"/>
	<polyline class="st3" points="103.26,246.25 228.26,304.25 356.26,246.25 	"/>
	<polygon class="st2" points="134.54,260.25 134.26,141.25 316.26,141.25 316.26,264.25 228.26,304.25 	"/>
	<polyline class="st4" points="249.26,59.25 206.26,252.25 413.26,188.25 	"/>
	<g class="st5">
		<g>
			<polygon class="st6" points="251.26,191.33 251.26,153.59 289.17,164.96 289.17,202.7 			"/>
			<path d="M253.26,156.28l33.91,10.17v33.56l-33.91-10.17V156.28 M249.26,150.9v41.91l41.91,12.57v-41.91L249.26,150.9
				L249.26,150.9z"/>
		</g>
		<g>
			<polygon class="st6" points="256.46,147.7 281.43,131.29 318.9,142.79 293.4,158.78 			"/>
			<path d="M281.74,133.48l32.39,9.93l-21.03,13.19l-31.96-9.59L281.74,133.48 M281.12,129.11l-29.34,19.28l41.91,12.57l29.98-18.8
				L281.12,129.11L281.12,129.11z"/>
		</g>
		<g>
			<polygon class="st6" points="295.69,165.43 324.38,147.77 324.38,183.31 295.69,200.97 			"/>
			<path d="M322.38,151.35v30.84l-24.69,15.2v-30.84L322.38,151.35 M326.38,144.19l-32.69,20.12v40.24l32.69-20.12V144.19
				L326.38,144.19z"/>
		</g>
		<g>
			<g>
				<line class="st7" x1="252.61" y1="189.46" x2="258.03" y2="186.88"/>
				<line class="st8" x1="266.16" y1="183.01" x2="278.34" y2="177.21"/>
				<line class="st7" x1="282.4" y1="175.28" x2="287.82" y2="172.7"/>
			</g>
		</g>
		<g>
			<g>
				<line class="st7" x1="295.37" y1="174.37" x2="301.21" y2="175.75"/>
				<line class="st7" x1="318.03" y1="179.7" x2="323.87" y2="181.08"/>
			</g>
		</g>
	</g>
	<line class="st9" x1="103.74" y1="413.08" x2="188.74" y2="348.08"/>
	<line class="st9" x1="356.9" y1="413.02" x2="273.9" y2="348.02"/>
</g>
<g id="Capa_2" class="st0">
	<rect x="411.31" y="149.65" class="st10" width="31.28" height="77.37"/>
	<rect x="55.73" y="150.47" class="st10" width="31.28" height="77.37"/>
	<path class="st10" d="M87.01,146.6v95.14c0,0,0.82,15.86,9.88,27.94c9.05,12.08,27.16,15.86,27.16,15.86h102.89
		c0,0,14.82-18.88,24.69-18.88s23.05,19.63,23.05,19.63h96.3c0,0,19.06,0.59,29.63-12.84c10.7-13.59,10.7-31.71,10.7-31.71V146.6
		c0,0,1.65-9.82-8.23-24.16c-10.03-14.57-28.81-18.88-28.81-18.88H127.34c0,0-15.98,2.81-26.34,14.35
		C89.48,130.74,87.01,146.6,87.01,146.6z"/>
	<rect x="87.01" y="145.54" class="st10" width="324.31" height="93.83"/>
	<line class="st11" x1="305.95" y1="157.06" x2="203.06" y2="221.26"/>
	<line class="st11" x1="354.67" y1="152.87" x2="251.78" y2="217.07"/>
	<line class="st11" x1="329.82" y1="197.39" x2="277.3" y2="230.24"/>
	<polyline class="st11" points="105.94,153.77 95.24,153.77 95.24,167.76 	"/>
	<polyline class="st11" points="402.26,215.5 402.26,227.85 387.44,227.85 	"/>
	<path class="st10" d="M265.16,325.56c10.13,13.67,20,26,31,18c8.6-6.25,4-18-4-30"/>
	<path class="st11" d="M197.3,300.28c2.98,3.75,19.36,23.66,47.74,26.34c36.07,3.41,59.08-24.08,60.91-26.34"/>
	<line class="st12" x1="283.16" y1="326.56" x2="291.16" y2="338.56"/>
</g>
<g id="Capa_4" class="st0">
	<path class="st13" d="M192,151L73,247l130.21,74.46c0,0,28.79-33.46,30.79-81.46S192,151,192,151z"/>
	<polyline class="st3" points="210.59,134.37 71.59,247.37 222.59,332.37 	"/>
	<path class="st3" d="M191.59,148.37c5.65,4.49,41,38,41,90c0,51.01-27.53,79.54-32,84"/>
	<path class="st14" d="M227.59,215.07c-3,0.3-21,4.63-21,23.82c0,21.83,19,23.48,21,24.48c0,0,5-12,5-27
		S227.59,215.07,227.59,215.07z"/>
	<path class="st3" d="M225.24,196.37c-2.72,2.31-37.47,8.26-37.47,42.5c0,38.96,35.01,41.58,37.47,43.68"/>
	<polygon class="st15" points="348.59,173.37 306.59,207.37 306.59,249.37 348.59,283.37 392.59,249.37 392.59,208.37 	"/>
	<polyline class="st3" points="306.59,207.37 348.59,240.37 392.59,208.37 	"/>
	<line class="st3" x1="348.59" y1="240.37" x2="348.59" y2="283.37"/>
	<polygon class="st16" points="277.59,193.37 272.59,180.37 259.52,175.3 271.59,170.37 277.59,157.23 283.59,170.37 295.66,175.3 
		282.59,180.37 	"/>
	<polygon class="st16" points="282.65,292.83 277.65,279.83 264.58,274.76 276.65,269.83 282.65,256.68 288.65,269.83 
		300.72,274.76 287.65,279.83 	"/>
	<polygon class="st16" points="311.89,173.07 308.76,164.93 300.58,161.76 308.13,158.67 311.89,150.45 315.65,158.67 323.2,161.76 
		315.02,164.93 	"/>
	<polygon class="st16" points="323.65,319.07 320.52,310.93 312.34,307.76 319.9,304.67 323.65,296.45 327.41,304.67 334.96,307.76 
		326.78,310.93 	"/>
</g>
<g id="Capa_5">
	<path class="st17" d="M275.77,338.19c0,0,81.27-13.21,87.37-12.19c6.1,1.02,15.24,4.06,17.27,12.19s-4.06,17.27-4.06,17.27
		l-125.97,69.08l-98.54-12.19l-1.02-104.64h38.6l74.16,14.22c0,0,11.14,7.11,10.16,20.32c-0.53,7.16-7.06,15.03-15.24,15.24
		c-23.68,0.61-61.97-4.06-61.97-4.06"/>
	<rect x="105.1" y="298.57" class="st17" width="45.72" height="120.89"/>
	<g>
		<rect x="363.65" y="222.71" class="st18" width="15.38" height="38.04"/>
		<rect x="188.83" y="223.11" class="st18" width="15.38" height="38.04"/>
		<path class="st18" d="M204.21,221.2v46.77c0,0,0.4,7.8,4.86,13.74c4.45,5.94,13.35,7.8,13.35,7.8H273c0,0,7.28-9.28,12.14-9.28
			c4.86,0,11.33,9.65,11.33,9.65h47.35c0,0,9.37,0.29,14.57-6.31c5.26-6.68,5.26-15.59,5.26-15.59V221.2c0,0,0.81-4.83-4.05-11.88
			c-4.93-7.16-14.16-9.28-14.16-9.28h-121.4c0,0-7.86,1.38-12.95,7.05C205.42,213.41,204.21,221.2,204.21,221.2z"/>
		<rect x="204.21" y="220.68" class="st18" width="159.44" height="46.13"/>
		<line class="st19" x1="311.85" y1="226.35" x2="261.27" y2="257.91"/>
		<line class="st19" x1="335.8" y1="224.29" x2="285.22" y2="255.85"/>
		<line class="st19" x1="323.59" y1="246.18" x2="297.76" y2="262.32"/>
		<polyline class="st19" points="219.18,231.33 213.91,231.33 213.91,238.21 		"/>
		<polyline class="st19" points="353.54,253.19 353.54,259.26 346.26,259.26 		"/>
	</g>
	<g>
		<rect x="148.66" y="149.08" class="st18" width="50.96" height="50.96"/>
		<path class="st19" d="M156.25,200.04l14.64-23.85l10.84,21.14c0,0,8.13-14.64,8.13-14.1s7.59,15.72,7.59,15.72"/>
		<circle class="st18" cx="160.32" cy="161.82" r="3.52"/>
	</g>
	<g>
		<rect x="328.68" y="114.24" class="st18" width="68.22" height="68.22"/>
		<line class="st19" x1="329.48" y1="128.68" x2="396.9" y2="128.68"/>
		<line class="st19" x1="348.75" y1="146.34" x2="376.84" y2="146.34"/>
		<line class="st19" x1="343.13" y1="157.58" x2="381.65" y2="157.58"/>
		<line class="st19" x1="351.96" y1="166.4" x2="372.02" y2="166.4"/>
	</g>
	<g>
		<circle class="st18" cx="265.26" cy="108.49" r="48.94"/>
		<path class="st19" d="M310.06,86.92c-15.11-4.93-41.97-3.23-44.79,2.49c-1.62,3.27,14.84,7.51,16.59,9.95
			c4.74,6.65,16.93,8.26,29.86,2.49"/>
		<path class="st19" d="M217.15,117.61c36.8-5.92,51.11-2.75,52.26,0.83c0.8,2.49-5.67,5.94-4.15,10.78
			c1.5,4.79,9.23,5.73,9.12,7.47c-0.14,2.28-11.87,4.52-43.13,5.81"/>
		<path class="st18" d="M237.89,75.31c-2.11,1.89-3.76,5.42-2.49,7.47c1.65,2.66,8.25,2.8,10.78-0.83c1.7-2.44,9.09-7.5,6.64-9.12
			C250.4,71.21,239.52,73.85,237.89,75.31z"/>
	</g>
</g>
</svg>
